<svg width="24" height="24" viewBox="0 0 24 24" xmlns="http://www.w3.org/2000/svg">
<path d="M7 11H17C19.8 11 22 8.8 22 6C22 3.2 19.8 1 17 1H7C4.2 1 2 3.2 2 6C2 8.8 4.2 11 7 11ZM7 3H17C18.7 3 20 4.3 20 6C20 7.7 18.7 9 17 9H7C5.3 9 4 7.7 4 6C4 4.3 5.3 3 7 3ZM5 6C5 4.9 5.9 4 7 4C8.1 4 9 4.9 9 6C9 7.1 8.1 8 7 8C5.9 8 5 7.1 5 6ZM19 18C19 19.1 18.1 20 17 20C15.9 20 15 19.1 15 18C15 16.9 15.9 16 17 16C18.1 16 19 16.9 19 18ZM17 13H7C4.2 13 2 15.2 2 18C2 20.8 4.2 23 7 23H17C19.8 23 22 20.8 22 18C22 15.2 19.8 13 17 13ZM17 21H7C5.3 21 4 19.7 4 18C4 16.3 5.3 15 7 15H17C18.7 15 20 16.3 20 18C20 19.7 18.7 21 17 21Z" />
</svg>