<svg width="16" height="16" viewBox="0 0 16 16"  xmlns="http://www.w3.org/2000/svg">
<g id="Collapse V 16x16">
<path id="Vector" d="M11.71 12.29C12.1 12.68 12.1 13.31 11.71 13.7C11.51 13.9 11.26 13.99 11 13.99C10.74 13.99 10.49 13.89 10.29 13.7L9.00002 12.41V15C9.00002 15.55 8.55002 16 8.00002 16C7.45002 16 7.00002 15.55 7.00002 15V12.41L5.71002 13.7C5.32002 14.09 4.69002 14.09 4.30002 13.7C3.91002 13.31 3.91002 12.68 4.30002 12.29L7.30002 9.29C7.69002 8.9 8.32002 8.9 8.71002 9.29L11.71 12.29ZM7.29002 6.71C7.49002 6.91 7.74002 7 8.00002 7C8.26002 7 8.51002 6.9 8.71002 6.71L11.71 3.71C12.1 3.32 12.1 2.69 11.71 2.3C11.32 1.91 10.69 1.91 10.3 2.3L9.01002 3.59V1C9.01002 0.45 8.56002 0 8.01002 0C7.46002 0 7.01002 0.45 7.01002 1V3.59L5.72002 2.3C5.33002 1.91 4.70002 1.91 4.31002 2.3C3.92002 2.69 3.90002 3.32 4.29002 3.71L7.29002 6.71Z" />
</g>
</svg>
