<svg width="16" height="16" viewBox="0 0 16 16" xmlns="http://www.w3.org/2000/svg">
<path d="M3.31 15.0002C2.69 15.0002 2.11 14.7602 1.68 14.3202C0.780005 13.4202 0.780005 11.9502 1.68 11.0502L2.45 10.2802C2.45 10.1802 2.44 10.0802 2.44 9.98023C2.44 9.02023 2.81 8.12023 3.49 7.44023L5.6 5.33023C5.37 5.04023 5.25 4.68023 5.25 4.31023C5.25 3.86023 5.42 3.44023 5.74 3.12023C6.06 2.80023 6.48 2.63023 6.92 2.63023C7.29 2.63023 7.65 2.75023 7.94 2.98023L8.88 2.04023C9.56 1.36023 10.46 0.990234 11.41 0.990234C12.36 0.990234 13.27 1.36023 13.95 2.04023C14.63 2.72023 15 3.62023 15 4.58023C15 5.54023 14.63 6.44023 13.95 7.12023L12.94 8.13023C13.04 8.34023 13.09 8.58023 13.09 8.82023C13.09 9.27023 12.92 9.69023 12.6 10.0002C12.28 10.3102 11.86 10.4902 11.42 10.4902C11.18 10.4902 10.94 10.4402 10.73 10.3402L8.56 12.5102C7.88 13.1902 6.98 13.5602 6.03 13.5602C5.93 13.5602 5.83 13.5602 5.73 13.5402L4.97 14.3002C4.53 14.7402 3.95 14.9802 3.34 14.9802L3.31 15.0002Z" fill="black" fill-opacity="0.15"/>
<path d="M14.0001 4.57969C14.0001 3.88969 13.7301 3.23969 13.2401 2.74969C12.2301 1.73969 10.5901 1.73969 9.58006 2.74969L7.94006 4.38969L7.39006 3.83969C7.13006 3.57969 6.70006 3.57969 6.44006 3.83969C6.18006 4.09969 6.18006 4.52969 6.44006 4.78969L6.99006 5.33969L4.18006 8.14969C3.69006 8.63969 3.42006 9.28969 3.42006 9.97969C3.42006 10.1997 3.46006 10.4097 3.51006 10.6197L2.38006 11.7497C1.87006 12.2597 1.87006 13.0897 2.38006 13.6097C2.64006 13.8697 2.97006 13.9897 3.31006 13.9897C3.65006 13.9897 3.98006 13.8597 4.24006 13.6097L5.37006 12.4797C5.58006 12.5297 5.79006 12.5697 6.01006 12.5697C6.70006 12.5697 7.35006 12.2997 7.84006 11.8097L10.6501 8.99969L10.9401 9.28969C11.0701 9.41969 11.2401 9.48969 11.4201 9.48969C11.6001 9.48969 11.7701 9.41969 11.9001 9.28969C12.1601 9.02969 12.1601 8.59969 11.9001 8.33969L11.6101 8.04969L13.2501 6.40969C13.7401 5.91969 14.0101 5.26969 14.0101 4.57969H14.0001ZM6.89006 10.8597C6.42006 11.3297 5.61006 11.3297 5.14006 10.8597C4.91006 10.6297 4.78006 10.3197 4.78006 9.98969C4.78006 9.65969 4.91006 9.34969 5.14006 9.11969L7.95006 6.30969L9.70006 8.05969L6.89006 10.8697V10.8597Z"/>
</svg>
