<svg width="25" height="24" viewBox="0 0 25 24" xmlns="http://www.w3.org/2000/svg">
<g clip-path="url(#clip0_19827_2206)">
<path d="M15.13 2.02C15.74 2.02 16.33 2.11 16.9 2.25L13.63 5.52C12.25 6.9 12.25 9.14 13.63 10.52C14.32 11.21 15.23 11.56 16.13 11.56C17.03 11.56 17.94 11.21 18.63 10.52L21.9 7.25C22.05 7.82 22.13 8.41 22.13 9.02C22.13 12.89 19 16.02 15.13 16.02C13.97 16.02 12.88 15.73 11.92 15.23L6.13 21.02C5.72 21.43 5.17 21.64 4.63 21.64C4.09 21.64 3.54 21.43 3.13 21.02C2.3 20.19 2.3 18.85 3.13 18.02L8.92 12.23C8.42 11.27 8.13 10.18 8.13 9.02C8.13 5.15 11.26 2.02 15.13 2.02ZM15.13 0.02C10.17 0.02 6.13 4.06 6.13 9.02C6.13 9.95 6.28 10.88 6.56 11.76L1.71 16.61C0.93 17.39 0.5 18.42 0.5 19.52C0.5 20.62 0.93 21.66 1.71 22.43C2.49 23.21 3.52 23.64 4.62 23.64C5.72 23.64 6.76 23.21 7.53 22.43L12.38 17.58C13.27 17.86 14.19 18.01 15.12 18.01C20.08 18.01 24.12 13.97 24.12 9.01C24.12 8.26 24.02 7.5 23.82 6.74C23.64 6.05 23.1 5.5 22.41 5.31C22.24 5.26 22.06 5.24 21.89 5.24C21.37 5.24 20.86 5.45 20.48 5.83L17.21 9.1C16.92 9.39 16.53 9.55 16.12 9.55C15.71 9.55 15.32 9.39 15.03 9.1C14.74 8.81 14.58 8.42 14.58 8.01C14.58 7.6 14.74 7.21 15.03 6.92L18.3 3.65C18.81 3.14 19 2.4 18.82 1.71C18.63 1.02 18.09 0.48 17.39 0.3C16.63 0.1 15.87 0 15.12 0L15.13 0.02Z"/>
</g>
<defs>
<clipPath id="clip0_19827_2206">
<rect width="24" height="24" transform="translate(0.5)"/>
</clipPath>
</defs>
</svg>
