<svg width="24" height="24" viewBox="0 0 24 24" xmlns="http://www.w3.org/2000/svg">
<path d="M12 4C16.41 4 20 7.14 20 11C19.9901 11.928 19.7826 12.8433 19.3911 13.6847C18.9997 14.5262 18.4334 15.2746 17.73 15.88C17.5103 16.0801 17.338 16.3266 17.2256 16.6017C17.1132 16.8767 17.0634 17.1733 17.08 17.47C16.7752 17.2972 16.4304 17.2076 16.08 17.21C15.8237 17.212 15.5698 17.2594 15.33 17.35C14.2722 17.7789 13.1415 17.9996 12 18C7.59 18 4 14.86 4 11C4 7.14 7.59 4 12 4ZM12 2C6.48 2 2 6 2 11C2 16 6.48 20 12 20C13.4012 19.9996 14.7894 19.7314 16.09 19.21L20 22L19.07 17.36C19.9796 16.5667 20.711 15.5899 21.216 14.4937C21.721 13.3975 21.9882 12.2069 22 11C22 6 17.52 2 12 2Z" />
</svg>