<svg width="24" height="24" viewBox="0 0 24 24" xmlns="http://www.w3.org/2000/svg">
<path d="M12 1C5.9 1 1 5.9 1 12C1 18.1 5.9 23 12 23C18.1 23 23 18.1 23 12C23 5.9 18.1 1 12 1ZM12 21C7 21 3 17 3 12C3 7 7 3 12 3C17 3 21 7 21 12C21 17 17 21 12 21ZM13.3 16.8C13.4 17 13.4 17.2 13.4 17.4C13.4 17.8 13.2 18.2 13 18.5C12.7 18.8 12.3 18.9 11.9 18.9C11.5 18.9 11.1 18.7 10.8 18.5C10.5 18.2 10.4 17.8 10.4 17.4C10.4 17 10.6 16.6 10.8 16.3C11.1 16 11.5 15.8 11.9 15.8C12.5 15.9 13 16.2 13.3 16.8ZM16 9.3C16 10.4 15.5 11.2 14.6 11.9C14.4 12.1 14.1 12.2 13.9 12.4L13.3 12.8C13 13 12.9 13.1 12.9 13.1C12.8 13.2 12.8 13.3 12.8 13.4C12.8 13.6 12.7 13.8 12.7 14.1V14.4V14.5C12.6 14.7 12.4 14.9 12.2 15C12 15.1 11.9 15.1 11.8 15.1H11.7C11.6 15.1 11.6 15.1 11.5 15.1C11.3 15 11.1 14.9 11 14.8C10.9 14.6 10.7 14.4 10.7 14.1C10.6 13.8 10.5 13.6 10.5 13.3C10.5 13 10.6 12.7 10.7 12.5C10.8 12.3 11 12.1 11.2 11.9C11.4 11.7 11.6 11.6 11.8 11.5L12.4 11.2C13 10.9 13.2 10.7 13.3 10.6C13.6 10.3 13.7 9.9 13.7 9.5C13.7 9.1 13.6 8.7 13.3 8.5C12.8 8 12.4 7.9 12 7.9C10.9 7.9 10.6 8.4 10.6 8.8C10.4 9.3 10.4 9.4 10.4 9.4V9.6C10.4 9.7 10.4 9.7 10.4 9.8L10.5 10.2L10.2 10.3C9.6 10.6 9.1 10.6 8.7 10.4C8.6 10.3 8.4 10.1 8.3 10C8.1 9.7 8 9.4 8 9C8 8.6 8.1 8.3 8.2 8C8.3 7.7 8.5 7.5 8.7 7.3C8.9 7.1 9.1 6.9 9.4 6.7C9.7 6.6 10 6.4 10.3 6.3C11.5 5.9 12.7 5.9 13.6 6.1C14.1 6.2 14.5 6.4 14.9 6.6C15.6 7.3 16 8.1 16 9.3Z" />
</svg>