<svg width="24" height="24" viewBox="0 0 24 24" xmlns="http://www.w3.org/2000/svg">
<path d="M21.9 4.8L19.1 2C18.5 1.5 17.8 1.2 17 1.2C16.2 1.2 15.5 1.5 14.9 2.1L4.6 12.3C2.9 14 2 16.3 2 18.7V21C2 21.6 2.4 22 3 22H5.3C7.7 22 10 21.1 11.7 19.4L21.9 9.1C23.1 7.9 23.1 6 21.9 4.8ZM10.2 17.9C8.9 19.2 7.1 20 5.3 20H4V18.7C4 16.8 4.7 15.1 6.1 13.8L12.3 7.6L16.5 11.8L10.2 17.9ZM20.5 7.7L17.8 10.4L13.6 6.2L16.3 3.5C16.5 3.2 16.8 3.2 17 3.2C17.2 3.2 17.5 3.2 17.7 3.5L20.5 6.3C20.9 6.6 20.9 7.3 20.5 7.7Z" />
</svg>