<svg width="21" height="21" viewBox="0 0 21 21" fill="none" xmlns="http://www.w3.org/2000/svg">
<path d="M19.9 3.8L17.1 0.999997C16.5 0.499997 15.8 0.199997 15 0.199997C14.2 0.199997 13.5 0.499997 12.9 1.1L2.6 11.3C0.9 13 0 15.3 0 17.7V20C0 20.6 0.4 21 1 21H3.3C5.7 21 8 20.1 9.7 18.4L19.9 8.1C21.1 6.9 21.1 5 19.9 3.8ZM8.2 16.9C6.9 18.2 5.1 19 3.3 19H2V17.7C2 15.8 2.7 14.1 4.1 12.8L10.3 6.6L14.5 10.8L8.2 16.9ZM18.5 6.7L15.8 9.4L11.6 5.2L14.3 2.5C14.5 2.2 14.8 2.2 15 2.2C15.2 2.2 15.5 2.2 15.7 2.5L18.5 5.3C18.9 5.6 18.9 6.3 18.5 6.7Z" fill="#909090"/>
</svg>
