<svg width="21" height="22" viewBox="0 0 21 22" fill="none" xmlns="http://www.w3.org/2000/svg">
<path d="M0.3 2.7L5.8 8.2L2.6 11.4C0.9 13.1 0 15.4 0 17.8V20.1C0 20.7 0.4 21.1 1 21.1H3.3C5.7 21.1 8 20.2 9.7 18.5L12.9 15.3L18.4 20.8L19.8 19.4L1.8 1.4L0.3 2.7ZM8.2 16.9C6.9 18.2 5.1 19 3.3 19H2V17.7C2 15.8 2.7 14.1 4.1 12.8L7.3 9.6L11.5 13.8L8.2 16.9ZM19.9 8.1L15.2 12.8L13.8 11.4L18.5 6.7C18.9 6.3 18.9 5.7 18.5 5.3L15.7 2.5C15.5 2.2 15.2 2.2 15 2.2C14.8 2.2 14.5 2.2 14.3 2.5L9.6 7.2L8.2 5.8L12.9 1.1C13.5 0.499997 14.2 0.199997 15 0.199997C15.8 0.199997 16.5 0.499997 17.1 1.1L19.9 3.9C21.1 5 21.1 6.9 19.9 8.1Z" fill="#909090"/>
</svg>
