<svg width="16" height="16" viewBox="0 0 16 16" xmlns="http://www.w3.org/2000/svg">
<g id="Expand V 16x16" clip-path="url(#clip0_2625_3196)">
<path id="Vector" d="M4.29006 4.71006C3.90006 4.32006 3.90006 3.69006 4.29006 3.30006L7.29006 0.290059C7.68006 -0.0999414 8.31006 -0.0999414 8.70006 0.290059L11.7001 3.29006C12.0901 3.68006 12.0901 4.31006 11.7001 4.70006C11.5001 4.90006 11.2501 4.99006 10.9901 4.99006C10.7301 4.99006 10.4801 4.89006 10.2801 4.70006L8.99006 3.41006V6.00006C8.99006 6.55006 8.54006 7.00006 7.99006 7.00006C7.44006 7.00006 6.99006 6.55006 6.99006 6.00006V3.41006L5.70006 4.70006C5.31006 5.09006 4.68006 5.09006 4.29006 4.70006V4.71006ZM10.2901 11.2901L9.00006 12.5801V9.99006C9.00006 9.44006 8.55006 8.99006 8.00006 8.99006C7.45006 8.99006 7.00006 9.44006 7.00006 9.99006V12.5801L5.71006 11.2901C5.32006 10.9001 4.69006 10.9001 4.30006 11.2901C3.91006 11.6801 3.91006 12.3101 4.30006 12.7001L7.30006 15.7001C7.50006 15.9001 7.75006 15.9901 8.01006 15.9901C8.27006 15.9901 8.52006 15.8901 8.72006 15.7001L11.7201 12.7001C12.1101 12.3101 12.1101 11.6801 11.7201 11.2901C11.3301 10.9001 10.7001 10.9001 10.3101 11.2901H10.2901Z" />
</g>
<defs>
<clipPath id="clip0_2625_3196">
<rect width="16" height="16" fill="white"/>
</clipPath>
</defs>
</svg>
