<svg width="24" height="24" viewBox="0 0 24 24" xmlns="http://www.w3.org/2000/svg">
<path d="M20 0.5C19.4 0.2 18.7 0 17.8 0C15.9 0 14.3 0.8 13 2.3C11.5 4.1 10.1 7.1 9 11.5H6.2L5.8 13H8.5L8.3 14C8.2 14.4 8.1 14.9 7.9 15.7C7.7 16.4 7.6 17.1 7.5 17.6C6.8 20.6 6.1 21.9 5.6 22.4C5.6 22.1 5.5 21.8 5.2 21.6C4.7 21.3 3.8 21.2 3.3 21.8C3.1 22 3 22.4 3 22.7C3 23.1 3.1 23.4 3.4 23.6C3.7 23.9 4.2 24 4.8 24C5.4 24 6 23.9 6.5 23.6C7.9 23 9 21.7 9.8 19.6C10.2 18.5 10.8 16.7 11.4 14.1L11.7 12.9H15.1L15.5 11.4H12.1C13.1 7.2 14.2 4.2 15.3 2.7C15.6 2.3 15.9 2 16.2 1.8C16.6 1.5 16.8 1.5 17 1.5C17.2 1.5 17.4 1.5 17.7 1.6C17.5 1.9 17.5 2.2 17.5 2.5C17.5 2.9 17.7 3.3 18 3.6C18.7 4.1 19.8 4.1 20.5 3.6C20.8 3.2 21 2.8 21 2.3C21 1.5 20.7 0.9 20 0.5Z" />
</svg>