<svg width="24" height="24" viewBox="0 0 24 24" xmlns="http://www.w3.org/2000/svg">
  <g clip-path="url(#clip0_506_606)">
  <path opacity="0.75" d="M8.71 11.29L5.71 8.29C5.32 7.9 4.69 7.9 4.3 8.29C3.91 8.68 3.91 9.31 4.3 9.7L5.59 10.99H1C0.45 10.99 0 11.44 0 11.99C0 12.54 0.45 12.99 1 12.99H5.59L4.3 14.28C3.91 14.67 3.91 15.3 4.3 15.69C4.5 15.89 4.75 15.98 5.01 15.98C5.27 15.98 5.52 15.88 5.72 15.69L8.72 12.69C8.81 12.6 8.89 12.49 8.94 12.36C9.04 12.12 9.04 11.84 8.94 11.6C8.89 11.48 8.82 11.37 8.72 11.27L8.71 11.29Z" fill="black" fill-opacity="0.45"/>
  <path opacity="0.75" d="M15.71 10.29C15.32 9.89999 14.69 9.89999 14.3 10.29C13.91 10.68 13.91 11.31 14.3 11.7L16.3 13.7C16.5 13.9 16.75 13.99 17.01 13.99C17.27 13.99 17.52 13.89 17.72 13.7L23.72 7.69999C24.11 7.30999 24.11 6.67999 23.72 6.28999C23.33 5.89999 22.7 5.89999 22.31 6.28999L21.05 7.54999C19.99 6.57999 18.57 5.98999 17.02 5.98999C13.71 5.98999 11.02 8.67999 11.02 11.99C11.02 15.3 13.71 17.99 17.02 17.99C20.33 17.99 23.02 15.3 23.02 11.99C23.02 11.5 22.96 11.03 22.85 10.58L20.98 12.45C20.75 14.44 19.07 15.99 17.03 15.99C14.82 15.99 13.03 14.2 13.03 11.99C13.03 9.77999 14.82 7.98999 17.03 7.98999C18.03 7.98999 18.93 8.36999 19.63 8.97999L17.03 11.58L15.74 10.29H15.71Z"/>
</g>
<defs>
<clipPath id="clip0_506_606">
  <rect width="24" height="24" fill="white"/>
</clipPath>
</defs>
</svg>