<svg width="22" height="22" viewBox="0 0 22 22" fill="none" xmlns="http://www.w3.org/2000/svg">
<path d="M1.3 2.7L2.6 4C1 5.9 0 8.3 0 11C0 17.1 4.9 22 11 22C13.7 22 16.1 21 18 19.4L19.3 20.7L20.7 19.3L2.7 1.3L1.3 2.7ZM11 20C6 20 2 16 2 11C2 8.9 2.7 6.9 4 5.4L9.8 11.2C9.7 11.3 9.6 11.4 9.6 11.5C9.5 11.7 9.4 12 9.4 12.3C9.4 12.6 9.5 12.9 9.6 13.1C9.7 13.3 9.8 13.5 9.9 13.8C10 14 10.2 14.1 10.4 14.1C10.5 14.1 10.5 14.1 10.6 14.1H10.7C10.8 14.1 10.9 14.1 11.1 14C11.4 13.9 11.6 13.7 11.6 13.5V13.4V13.1L16.5 18C15.1 19.3 13.1 20 11 20ZM6.8 3.1L5.3 1.6C7 0.6 8.9 0 11 0C17.1 0 22 4.9 22 11C22 13.1 21.4 15 20.4 16.7L18.9 15.2C19.6 14 20 12.5 20 11C20 6 16 2 11 2C9.5 2 8 2.4 6.8 3.1ZM12.5 8.8C12.5 8.7 12.6 8.6 12.6 8.4C12.6 8 12.5 7.6 12.2 7.4C11.8 7 11.4 6.9 11 6.9C10.9 6.9 10.8 6.9 10.6 6.9L9.1 5.4C9.2 5.4 9.2 5.3 9.3 5.3C10.5 4.9 11.7 4.9 12.6 5.1C13.1 5.2 13.5 5.4 13.9 5.6C14.6 6.3 15 7.1 15 8.3C15 9.1 14.7 9.8 14.2 10.4L12.5 8.8ZM10.8 14.9C11.5 14.9 12 15.2 12.3 15.8C12.4 16 12.4 16.2 12.4 16.4C12.4 16.8 12.2 17.2 12 17.5C11.7 17.8 11.3 17.9 10.9 17.9C10.5 17.9 10.1 17.7 9.8 17.5C9.5 17.2 9.4 16.8 9.4 16.4C9.4 16 9.6 15.6 9.8 15.3C10 15 10.4 14.9 10.8 14.9Z" fill="#909090"/>
</svg>
