<svg width="22" height="22" viewBox="0 0 22 22" fill="none" xmlns="http://www.w3.org/2000/svg">
<path d="M11 0C4.9 0 0 4.9 0 11C0 17.1 4.9 22 11 22C17.1 22 22 17.1 22 11C22 4.9 17.1 0 11 0ZM11 20C6 20 2 16 2 11C2 6 6 2 11 2C16 2 20 6 20 11C20 16 16 20 11 20ZM12.3 15.8C12.4 16 12.4 16.2 12.4 16.4C12.4 16.8 12.2 17.2 12 17.5C11.7 17.8 11.3 17.9 10.9 17.9C10.5 17.9 10.1 17.7 9.8 17.5C9.5 17.2 9.4 16.8 9.4 16.4C9.4 16 9.6 15.6 9.8 15.3C10.1 15 10.5 14.8 10.9 14.8C11.5 14.9 12 15.2 12.3 15.8ZM15 8.3C15 9.4 14.5 10.2 13.6 10.9C13.4 11.1 13.1 11.2 12.9 11.4L12.3 11.8C12 12 11.9 12.1 11.9 12.1C11.8 12.2 11.8 12.3 11.8 12.4C11.8 12.6 11.7 12.8 11.7 13.1V13.4V13.5C11.6 13.7 11.4 13.9 11.2 14C11 14.1 10.9 14.1 10.8 14.1H10.7C10.6 14.1 10.6 14.1 10.5 14.1C10.3 14 10.1 13.9 10 13.8C9.9 13.6 9.7 13.4 9.7 13.1C9.6 12.8 9.5 12.6 9.5 12.3C9.5 12 9.6 11.7 9.7 11.5C9.8 11.3 10 11.1 10.2 10.9C10.4 10.7 10.6 10.6 10.8 10.5L11.4 10.2C12 9.9 12.2 9.7 12.3 9.6C12.6 9.3 12.7 8.9 12.7 8.5C12.7 8.1 12.6 7.7 12.3 7.5C11.8 7 11.4 6.9 11 6.9C9.9 6.9 9.6 7.4 9.6 7.8C9.4 8.3 9.4 8.4 9.4 8.4V8.6C9.4 8.7 9.4 8.7 9.4 8.8L9.5 9.2L9.2 9.3C8.6 9.6 8.1 9.6 7.7 9.4C7.6 9.3 7.4 9.1 7.3 9C7.1 8.7 7 8.4 7 8C7 7.6 7.1 7.3 7.2 7C7.3 6.7 7.5 6.5 7.7 6.3C7.9 6.1 8.1 5.9 8.4 5.7C8.7 5.6 9 5.4 9.3 5.3C10.5 4.9 11.7 4.9 12.6 5.1C13.1 5.2 13.5 5.4 13.9 5.6C14.6 6.3 15 7.1 15 8.3Z" fill="#909090"/>
</svg>
