<svg width="24" height="24" viewBox="0 0 24 24" xmlns="http://www.w3.org/2000/svg">
<path d="M12 7.003C12.4641 7.01107 12.9249 7.08171 13.37 7.213L11.54 9.053C10.9155 9.15262 10.3384 9.44704 9.89125 9.89423C9.44406 10.3414 9.14964 10.9185 9.05002 11.543L7.21002 13.373C7.07873 12.9279 7.00809 12.467 7.00002 12.003C7.00002 10.6769 7.5268 9.40515 8.46449 8.46747C9.40217 7.52978 10.6739 7.003 12 7.003ZM5.40002 15.183C4.39516 14.2466 3.52369 13.1766 2.81002 12.003C5.10002 8.223 8.47002 6.003 12 6.003C12.765 6.0082 13.5255 6.11925 14.26 6.333L15.86 4.733C14.6291 4.25486 13.3206 4.0074 12 4.003C7.24002 4.003 3.05002 7.173 0.52002 12.003C1.41557 13.7255 2.59165 15.2868 4.00002 16.623L5.40002 15.183ZM23.48 12.003C21 16.833 16.76 20.003 12 20.003C10.1707 19.9916 8.37315 19.5242 6.77002 18.643L2.71002 22.713L1.29002 21.293L21.29 1.293L22.71 2.713L18.94 6.473C20.8367 7.96509 22.3858 9.8521 23.48 12.003ZM14.7 10.723L10.7 14.723C11.1058 14.9158 11.5508 15.0116 12 15.003C12.7957 15.003 13.5587 14.6869 14.1213 14.1243C14.6839 13.5617 15 12.7986 15 12.003C14.9993 11.559 14.8967 11.1211 14.7 10.723ZM21.19 12.003C20.243 10.4087 18.9887 9.01851 17.5 7.913L16.16 9.263C16.7052 10.073 16.9975 11.0266 17 12.003C17 13.3291 16.4732 14.6009 15.5356 15.5385C14.5979 16.4762 13.3261 17.003 12 17.003C11.0237 17.0005 10.07 16.7081 9.26002 16.163L8.26002 17.163C9.43056 17.7122 10.707 17.9989 12 18.003C15.53 18.003 18.9 15.783 21.19 12.003Z" />
</svg>