<svg width="24" height="24" viewBox="0 0 24 24" xmlns="http://www.w3.org/2000/svg">
<path d="M17.75 8H15.25L13.35 13.08C12.2029 12.2588 11.2439 11.2027 10.537 9.98187C9.83 8.76107 9.39127 7.40364 9.25 6H14V4H9V2H7V4H2V6H6.91C6.73189 7.75797 6.09115 9.43736 5.05302 10.8672C4.01489 12.2971 2.61643 13.4263 1 14.14C1.32315 14.7296 1.69441 15.2915 2.11 15.82C4.82764 14.5445 6.96846 12.2966 8.11 9.52C9.02641 11.7596 10.5985 13.6698 12.62 15L10 22H12.42L13.79 18.13H19.16L20.56 22H23L17.75 8ZM14.46 16.16L15.73 12.53C16.0406 11.7049 16.2945 10.8596 16.49 10C16.55 10.26 16.67 10.66 16.84 11.21C17.01 11.76 17.14 12.15 17.24 12.41L18.55 16.2L14.46 16.16Z" />
</svg>