<svg width="112" height="32" viewBox="0 0 112 32" fill="none" xmlns="http://www.w3.org/2000/svg">
  <path opacity="0.25"
    d="M41.44 2.72C38.4 2.72 36.16 3.84 34.56 6.24C32.96 8.48 32.16 11.84 32.16 16.16C32.16 20.48 32.96 23.84 34.56 26.24C36.16 28.64 38.4 29.76 41.44 29.76C44.48 29.76 46.72 28.64 48.32 26.24C49.92 23.84 50.72 20.64 50.72 16.32C50.72 12 49.92 8.64 48.32 6.4C46.72 3.84 44.48 2.72 41.44 2.72ZM41.44 25.28C40 25.28 38.88 24.48 38.24 22.88C37.44 21.28 37.12 19.04 37.12 16C37.12 12.96 37.44 10.72 38.24 9.12C39.04 7.52 40 6.72 41.6 6.72C44.48 6.72 45.92 9.76 45.92 15.84C45.76 22.24 44.32 25.28 41.44 25.28ZM65.76 14.72H73.6V28.16C71.36 29.12 68.96 29.6 66.56 29.6C63.52 29.6 61.28 28.48 59.68 26.08C58.08 23.84 57.28 20.48 57.28 16C57.28 11.84 58.24 8.48 60 6.08C61.76 3.68 64.48 2.56 67.68 2.56C69.76 2.56 71.68 3.04 73.6 4.16L72.16 8.16C70.72 7.36 69.28 6.88 68.16 6.88C66.4 6.88 64.96 7.68 63.84 9.44C62.72 11.04 62.24 13.28 62.24 16.16C62.24 19.04 62.56 21.28 63.36 22.88C64.16 24.48 65.28 25.28 66.72 25.28C67.52 25.28 68.32 25.12 69.12 24.96V18.88H65.92V14.72H65.76ZM19.68 24.96H26.24V29.28H14.88V3.04H19.68V24.96ZM0 0H8.32V3.52H4.32V28.48H8.32V32H0V0ZM89.76 2.72C86.72 2.72 84.48 3.84 82.88 6.24C81.28 8.48 80.48 11.84 80.48 16.16C80.48 20.48 81.28 23.84 82.88 26.24C84.48 28.64 86.72 29.76 89.76 29.76C92.8 29.76 95.04 28.64 96.64 26.24C98.24 23.84 99.04 20.64 99.04 16.32C99.04 12 98.24 8.64 96.64 6.4C94.88 3.84 92.64 2.72 89.76 2.72ZM89.6 25.28C88.16 25.28 87.04 24.48 86.4 22.88C85.6 21.28 85.28 19.04 85.28 16C85.28 12.96 85.6 10.72 86.4 9.12C87.2 7.52 88.16 6.72 89.76 6.72C92.64 6.72 94.08 9.76 94.08 15.84C93.92 22.24 92.48 25.28 89.6 25.28ZM112 0V32H103.68V28.48H107.68V3.52H103.68V0H112Z" />
</svg>