<svg width="24" height="24" viewBox="-1 0 23 24" xmlns="http://www.w3.org/2000/svg">
<path d="M7 0V2H2V7H0V2C0 1.46957 0.210714 0.960859 0.585786 0.585786C0.960859 0.210714 1.46957 0 2 0H7ZM18 0H13V2H18V7H20V2C20 1.46957 19.7893 0.960859 19.4142 0.585786C19.0391 0.210714 18.5304 0 18 0ZM2 18V13H0V18C0 18.5304 0.210714 19.0391 0.585786 19.4142C0.960859 19.7893 1.46957 20 2 20H7V18H2ZM18 18H13V20H18C18.5304 20 19.0391 19.7893 19.4142 19.4142C19.7893 19.0391 20 18.5304 20 18V13H18V18ZM15 11H13V9H11V11H9V13H11V15H13V13H15V11Z"/>
</svg>
