<svg width="24" height="24" viewBox="0 0 24 24" xmlns="http://www.w3.org/2000/svg">
<g id="Version=v1">
<path id="Vector" d="M2.59 22H22V2.59L2.59 22ZM20 20H7.41L20 7.41V20ZM13 18L18 13V18H13ZM10 8C11.1 8 12 8.9 12 10C12 11.1 11.1 12 10 12C8.9 12 8 11.1 8 10C8 8.9 8.9 8 10 8ZM2 9.83C2 8.89 2.61 8.09 3.45 7.8C3.56 7.44 3.71 7.09 3.89 6.75C3.75 6.46 3.67 6.13 3.67 5.8C3.67 5.23 3.89 4.69 4.3 4.29C4.94 3.65 5.97 3.5 6.76 3.89C7.1 3.71 7.45 3.57 7.81 3.45C8.1 2.61 8.9 2 9.84 2C10.78 2 11.58 2.61 11.87 3.45C12.23 3.56 12.58 3.71 12.92 3.89C13.71 3.5 14.74 3.65 15.38 4.3C15.78 4.7 16.01 5.24 16.01 5.81C16.01 6.38 15.79 6.92 15.38 7.32L14.67 8.03L13.26 6.61L13.97 5.9C13.97 5.9 14.01 5.83 14.01 5.8C14.01 5.77 14.01 5.74 13.97 5.7C13.9 5.63 13.84 5.63 13.77 5.7L13.1 6.36L12.42 5.91C11.91 5.57 11.36 5.34 10.78 5.22L9.98 5.06V4.13C9.98 3.98 9.7 3.98 9.7 4.13V5.06L8.9 5.22C8.32 5.34 7.76 5.57 7.26 5.91L6.58 6.36L5.92 5.7C5.84 5.63 5.79 5.63 5.72 5.7C5.68 5.74 5.68 5.77 5.68 5.8C5.68 5.83 5.68 5.86 5.72 5.9L6.38 6.57L5.93 7.25C5.59 7.76 5.36 8.31 5.24 8.89L5.08 9.69H4.15C4.07 9.69 4.01 9.75 4.01 9.83C4.01 9.91 4.07 9.97 4.15 9.97H5.08L5.24 10.77C5.36 11.35 5.59 11.91 5.93 12.41L6.38 13.09L5.72 13.75C5.72 13.75 5.68 13.83 5.68 13.85C5.68 13.87 5.68 13.91 5.72 13.95C5.79 14.02 5.85 14.02 5.92 13.95L6.63 13.24L8.05 14.65L7.34 15.36C6.94 15.77 6.4 15.99 5.83 15.99C5.26 15.99 4.72 15.77 4.32 15.36C3.92 14.96 3.69 14.42 3.69 13.85C3.69 13.51 3.77 13.19 3.91 12.9C3.73 12.56 3.59 12.21 3.47 11.85C2.63 11.56 2.02 10.76 2.02 9.82L2 9.83Z" />
</g>
</svg>
