<svg width="24" height="24" viewBox="0 0 24 24" xmlns="http://www.w3.org/2000/svg">
<g id="Version=v1" clip-path="url(#clip0_22397_60021)">
<path id="Vector" d="M20 10.005H22V18.005C22 19.105 21.1 20.005 20 20.005H12.41L8.69999 23.715C8.50999 23.905 8.24999 24.005 7.98999 24.005C7.85999 24.005 7.72999 23.985 7.60999 23.925C7.23999 23.775 6.98999 23.405 6.98999 23.005V20.005H4.98999C3.33999 20.005 1.98999 18.655 1.98999 17.005V5.005C1.99999 3.355 3.34999 2.005 4.99999 2.005H14V4.005H4.99999C4.44999 4.005 3.99999 4.455 3.99999 5.005V17.005C3.99999 17.555 4.44999 18.005 4.99999 18.005H7.99999C8.54999 18.005 8.99999 18.455 8.99999 19.005V20.595L11.29 18.305C11.48 18.115 11.73 18.015 12 18.015H20V10.015V10.005ZM10.1 9.49501L16.79 2.795C18.01 1.575 19.99 1.575 21.2 2.795C22.41 4.015 22.42 5.99501 21.2 7.20501L14.5 13.905L8.60999 15.375L10.08 9.485L10.1 9.49501ZM18.21 4.215L17.42 5.005L19.01 6.59501L19.8 5.80501C20.01 5.59501 20.13 5.31501 20.13 5.01501C20.13 4.71501 20.01 4.435 19.8 4.225C19.38 3.805 18.64 3.805 18.21 4.225V4.215ZM11.37 12.635L13.48 12.105L17.58 8.005L15.99 6.41501L11.89 10.515L11.36 12.625L11.37 12.635Z" />
</g>
<defs>
<clipPath id="clip0_22397_60021">
<rect width="24" height="24" fill="white"/>
</clipPath>
</defs>
</svg>
