<svg width="25" height="24" viewBox="0 0 25 24" xmlns="http://www.w3.org/2000/svg">
<path d="M12.5 1C6.42 1 1.5 5.92 1.5 12C1.5 18.08 6.42 23 12.5 23C18.58 23 23.5 18.08 23.5 12C23.5 5.92 18.58 1 12.5 1ZM12.5 21C7.54 21 3.5 16.96 3.5 12C3.5 7.04 7.54 3 12.5 3C17.46 3 21.5 7.04 21.5 12C21.5 16.96 17.46 21 12.5 21ZM17.41 10.25L11.47 6.95C10.85 6.6 10.1 6.61 9.49 6.97C8.87 7.33 8.5 7.98 8.5 8.69V15.29C8.5 16.01 8.87 16.65 9.49 17.01C9.81 17.2 10.15 17.29 10.5 17.29C10.85 17.29 11.17 17.21 11.47 17.04L17.41 13.74C18.04 13.39 18.44 12.72 18.44 11.99C18.44 11.26 18.05 10.59 17.41 10.24V10.25ZM10.5 15.3V8.7L16.44 12L10.5 15.3Z"/>
</svg>
