<svg width="22" height="22" viewBox="0 0 22 22" xmlns="http://www.w3.org/2000/svg">
<path d="M11 2C12.78 2 14.5201 2.52784 16.0001 3.51677C17.4802 4.50571 18.6337 5.91131 19.3149 7.55585C19.9961 9.20038 20.1743 11.01 19.8271 12.7558C19.4798 14.5016 18.6226 16.1053 17.364 17.364C16.1053 18.6226 14.5016 19.4798 12.7558 19.8271C11.01 20.1743 9.20039 19.9961 7.55585 19.3149C5.91132 18.6337 4.50571 17.4802 3.51678 16.0001C2.52785 14.5201 2.00001 12.78 2.00001 11C2.00001 8.61305 2.94822 6.32387 4.63604 4.63604C6.32387 2.94821 8.61306 2 11 2ZM11 0C8.82441 0 6.69767 0.645139 4.88873 1.85383C3.07979 3.06253 1.66989 4.78049 0.83733 6.79048C0.00476617 8.80047 -0.213071 11.0122 0.211367 13.146C0.635804 15.2798 1.68345 17.2398 3.22183 18.7782C4.76021 20.3166 6.72022 21.3642 8.85401 21.7886C10.9878 22.2131 13.1995 21.9952 15.2095 21.1627C17.2195 20.3301 18.9375 18.9202 20.1462 17.1113C21.3549 15.3023 22 13.1756 22 11C22 8.08262 20.8411 5.28473 18.7782 3.22183C16.7153 1.15893 13.9174 0 11 0ZM15 11L9 7V15L15 11Z" />
</svg>