<svg width="24" height="24" viewBox="0 0 24 24" xmlns="http://www.w3.org/2000/svg">
<path d="M12.01 2.993C11.8 2.993 11.59 3.023 11.37 3.043L12.71 1.703L11.3 0.292999L7.59 4.003L11.3 7.713L12.71 6.303L11.46 5.053C11.64 5.043 11.82 5.013 12 5.013C15.86 5.013 19 8.153 19 12.013C19 15.873 15.86 19.013 12 19.013C8.14 19.013 5 15.873 5 12.013C5 11.463 4.55 11.013 4 11.013C3.45 11.013 3 11.463 3 12.013C3 16.973 7.04 21.013 12 21.013C16.96 21.013 21 16.973 21 12.013C21 7.053 16.97 2.993 12.01 2.993Z"/>
</svg>
