<svg width="24" height="24" viewBox="0 0 24 24" xmlns="http://www.w3.org/2000/svg">
<path d="M24 17V19H9.1C9.5 18.4 9.9 17.7 10.2 17H24ZM11.9 9.00001C11 13.7 8.6 19.6 5 22.6C3.8 23.6 2 22.6 2 21.1C2 20.4 2.1 19.7 2.2 19H0V17H2.8C4.3 12.9 7.6 9.10001 10.2 7.60001C10.4 6.10001 10.4 4.80001 10.2 3.90001C9.9 3.30001 9.7 3.00001 9.6 3.00001C9.4 3.00001 7.8 2.90001 3.8 8.70001L2.2 7.60001C5.5 2.80001 7.9 0.700007 9.9 1.00001C12 1.20001 12.5 4.60001 12.2 6.90001C14.3 7.00001 14.8 8.20001 14.9 10.3C16.2 9.10001 18.1 7.90001 19.2 9.20001C20.8 8.90001 22.1 10.4 22.9 11.5L21.3 12.7C20.4 11.4 19.8 11.2 19.6 11.2C19.5 11.2 19.5 11.3 19.4 11.4C19 12 18.6 12.8 18 13.7C17.7 14.1 17.2 14.3 16.7 14.1C15.5 13.5 16.5 12.1 16.8 11.2C15.8 12 14.4 13.4 13.9 14.8C13.8 15.5 13.3 16.3 12.5 16.1C11.6 15.9 11.7 14.9 12 14.2C13.3 9.80001 12.5 9.00001 12.5 9.00001C12.5 8.90001 12.2 8.80001 11.9 9.00001ZM9.5 10.4C6.9 12.8 4.1 17.1 4 20.8C6.6 18.5 8.5 14.3 9.5 10.4Z" />
</svg>