<svg width="22" height="22" viewBox="0 0 22 22" xmlns="http://www.w3.org/2000/svg">
<path d="M20 4H15V2C15 1.46957 14.7893 0.960859 14.4142 0.585786C14.0391 0.210714 13.5304 0 13 0L9 0C8.46957 0 7.96086 0.210714 7.58579 0.585786C7.21071 0.960859 7 1.46957 7 2V4H2C1.46957 4 0.960859 4.21071 0.585786 4.58579C0.210714 4.96086 0 5.46957 0 6V12H1V20C1 20.5304 1.21071 21.0391 1.58579 21.4142C1.96086 21.7893 2.46957 22 3 22H19C19.5304 22 20.0391 21.7893 20.4142 21.4142C20.7893 21.0391 21 20.5304 21 20V12H22V6C22 5.46957 21.7893 4.96086 21.4142 4.58579C21.0391 4.21071 20.5304 4 20 4ZM9 2H13V4H9V2ZM19 20H3V12H8V16H14V12H19V20ZM10 14V10H12V14H10ZM20 10H14V8H8V10H2V6H20V10Z" />
</svg>
