<svg width="24" height="24" viewBox="0 0 24 24" xmlns="http://www.w3.org/2000/svg">
<path d="M12 4C7.2 4 3 7.2 0.5 12C3 16.8 7.2 20 12 20C16.8 20 20.9 16.8 23.5 12C20.9 7.2 16.7 4 12 4ZM12 18C8.5 18 5.1 15.8 2.8 12C5.1 8.2 8.5 6 12 6C15.5 6 18.9 8.2 21.2 12C18.9 15.8 15.5 18 12 18ZM12 7C9.2 7 7 9.2 7 12C7 14.8 9.2 17 12 17C14.8 17 17 14.8 17 12C17 9.2 14.7 7 12 7ZM12 15C10.3 15 9 13.7 9 12C9 11.7 9 11.5 9.1 11.3L12 12L10.3 9.5C10.8 9.2 11.3 9 12 9C13.7 9 15 10.3 15 12C15 13.7 13.6 15 12 15Z" />
</svg>