<?xml version="1.0" encoding="utf-8"?>
<!-- Generator: Adobe Illustrator 21.1.0, SVG Export Plug-In . SVG Version: 6.00 Build 0)  -->
<svg version="1.1" id="Layer_1" xmlns="http://www.w3.org/2000/svg" xmlns:xlink="http://www.w3.org/1999/xlink" x="0px" y="0px"
	 viewBox="0 0 16 16" style="enable-background:new 0 0 16 16;" xml:space="preserve">
<style type="text/css">
	.st0{fill:#3D4D5D;}
</style>
<g>
	<path class="st0" d="M15,6H8H7h0v10h0h1h8v-1H8v-2h7v2h1v-2v-1v-2V9V7V6H15z M15,12H8v-2h7V12z M15,9H8V7h7V9z"/>
	<polygon class="st0" points="3,10 1,10 1,4 3,4 3,3 1,3 1,3 0,3 0,3 0,4 0,10 0,11 0,11 3,11 	"/>
	<polygon class="st0" points="14,5 15,5 15,4 15,4 15,3 15,3 15,3 14,3 14,3 6,3 6,4 14,4 	"/>
	<polygon class="st0" points="5,1 6,1 6,0 5,0 4,0 3,0 3,1 4,1 4,12 3,12 3,13 6,13 6,12 5,12 	"/>
</g>
</svg>
