<?xml version="1.0" encoding="utf-8"?>
<!-- Generator: Adobe Illustrator 22.0.1, SVG Export Plug-In . SVG Version: 6.00 Build 0)  -->
<svg version="1.1" id="Layer_1" xmlns="http://www.w3.org/2000/svg" xmlns:xlink="http://www.w3.org/1999/xlink" x="0px" y="0px"
	 viewBox="0 0 16 16" style="enable-background:new 0 0 16 16;" xml:space="preserve">
<style type="text/css">
	.st0{fill:#3D4D5D;}
</style>
<g>
	<path class="st0" d="M11,3.4C11,2.1,9.9,1,8.6,1H8.4C7.1,1,6,2.1,6,3.4V5h5V3.4z"/>
	<path class="st0" d="M8.4,10h0.3C9.9,10,11,8.9,11,7.6V6H6v1.6C6,8.9,7.1,10,8.4,10z"/>
	<path class="st0" d="M12,6v0.9c0,2.2-1.6,4.1-3.5,4.1S5,9.1,5,6.9V6H4v1c0,2.5,1.8,4.6,4,4.9V14H6v1h5v-1H9v-2.1
		c2.2-0.3,4-2.4,4-4.9V6H12z"/>
</g>
</svg>
