<?xml version="1.0" encoding="utf-8"?>
<!-- Generator: Adobe Illustrator 21.1.0, SVG Export Plug-In . SVG Version: 6.00 Build 0)  -->
<svg version="1.1" id="Layer_1" xmlns="http://www.w3.org/2000/svg" xmlns:xlink="http://www.w3.org/1999/xlink" x="0px" y="0px"
	 viewBox="0 0 16 16" style="enable-background:new 0 0 16 16;" xml:space="preserve">
<style type="text/css">
	.st0{fill:#3D4D5D;}
</style>
<g>
	<path class="st0" d="M0,0v15h16V0H0z M15,14H1V1h14V14z"/>
	<path class="st0" d="M2.6,10.2c0.1,0.1,0.1,0.2,0.2,0.3c-0.2,0.3-0.4,0.6-0.7,0.8c0.2,0.2,0.4,0.4,0.7,0.7c0,0,0,0,0,0
		c0.2-0.3,0.5-0.6,0.7-0.9c0,0,0,0,0.1,0c0.2,0.1,0.9,0.1,1.1,0.1c1.5-0.1,2.3-0.5,2.8-0.8c0,0,0,0,0.1,0c0.2,0.1,0.4,0.2,0.6,0.3
		c0.2,0,0.4,0,0.6,0c0.7-0.1,1.9-0.8,2.5-1.2c0.2-0.1,0.5-0.3,0.5-0.3c0,0,0,0.2,0,0.2c0,0.2,0,0.3,0.1,0.5c0.1,0.3,0.3,0.4,0.6,0.5
		c0.2,0,0.4,0,0.5-0.1C13.1,10,13.8,9.3,14,9V8c-0.1,0.1-0.3,0.2-0.4,0.4c-0.2,0.2-0.5,0.4-0.8,0.6c0,0-0.1,0.1-0.1,0.1
		c0-0.1,0-0.2,0-0.3c0-0.2,0-0.4-0.1-0.5c-0.1-0.4-0.5-0.6-0.9-0.4c-0.1,0.1-0.4,0.2-0.6,0.4c-0.9,0.6-2,1.2-2.2,1.3
		C8.8,9.6,8.7,9.7,8.5,9.7c0,0,0,0,0,0c0,0,0.1-0.1,0.1-0.1C8.9,9.3,9.3,9,9.5,8.6C9.7,8.3,9.8,8,9.8,7.7c0-0.4,0-0.7-0.2-1.1
		C9.5,6.3,9.2,6,8.8,5.9c-0.2-0.1-0.4-0.1-0.7,0C7.9,6,7.6,6.1,7.4,6.3C7.1,6.6,6.9,6.9,6.8,7.3C6.7,7.5,6.7,7.8,6.7,8
		c0,0.4,0,0.7,0.1,1.1c0,0.2,0.1,0.3,0.2,0.5c-0.6,0.3-1.5,0.7-2.8,0.6c0,0,0,0,0-0.1C4.2,10,4.3,9.8,4.4,9.7C4.8,9,5.1,8.3,5.3,7.6
		C5.5,7,5.6,6.3,5.6,5.7c0-0.5,0-0.9,0-1.4c0-0.3-0.1-0.6-0.3-0.8C5.1,3.1,4.7,2.9,4.3,3C4,3.1,3.8,3.2,3.6,3.4
		C3.3,3.6,3,3.9,2.8,4.3C2.6,4.8,2.4,5.3,2.2,5.9C2.1,6.4,2,6.9,2,7.4c0,0.5,0,1,0.1,1.4C2.2,9.4,2.4,9.8,2.6,10.2z M7.6,7.7
		C7.7,7.5,7.8,7.2,8,7.1c0.2-0.2,0.4-0.2,0.7-0.2c0.1,0,0.2,0.1,0.2,0.2C9,7.4,9,7.7,8.8,7.9C8.6,8.2,8.4,8.5,8.2,8.7
		C8,8.9,7.9,9,7.7,9.1C7.6,9,7.6,8.9,7.6,8.7C7.6,8.4,7.6,8,7.6,7.7z M3,6.7c0.1-0.6,0.3-1.3,0.6-1.8c0.1-0.3,0.3-0.5,0.5-0.8
		C4.2,4.1,4.3,4,4.3,4c0.1-0.1,0.2,0,0.3,0.1c0.1,0.1,0.1,0.3,0.1,0.4c0,0.4,0.1,0.9,0,1.3C4.7,6.6,4.5,7.4,4.2,8.1
		C3.9,8.6,3.7,9.1,3.4,9.6c0,0,0,0,0,0C3.3,9.6,3.2,9.5,3.2,9.4C3,8.8,2.9,8.2,2.9,7.6C2.9,7.3,3,7,3,6.7z"/>
</g>
</svg>
