<?xml version="1.0" encoding="utf-8"?>
<!-- Generator: Adobe Illustrator 24.1.2, SVG Export Plug-In . SVG Version: 6.00 Build 0)  -->
<svg version="1.1" id="Layer_1" xmlns="http://www.w3.org/2000/svg" xmlns:xlink="http://www.w3.org/1999/xlink" x="0px" y="0px"
	 viewBox="0 0 730 1340" style="enable-background:new 0 0 730 1340;" xml:space="preserve">
<style type="text/css">
	.st0{fill:#404040;}
	.st1{fill:transparent;}
</style>
<g>
	<path class="st0" d="M635.9,1300.5H100.7c-45.7,0-82.8-37.1-82.8-82.8v-1108c0-45.7,37.1-82.8,82.8-82.8H636
		c45.7,0,82.8,37.1,82.8,82.8v1108C718.7,1263.3,681.6,1300.5,635.9,1300.5z M100.7,29.1c-44.4,0-80.6,36.1-80.6,80.6v1108
		c0,44.4,36.1,80.6,80.6,80.6H636c44.4,0,80.6-36.1,80.6-80.6v-1108c0-44.4-36.1-80.6-80.6-80.6H100.7z"/>
	<g>
		<path class="st0" d="M366.9,71.1c-5,0-9.1-4.1-9.1-9.1s4.1-9.1,9.1-9.1S376,57,376,62C376,67.1,371.9,71.1,366.9,71.1z
			 M366.9,55.2c-3.8,0-6.8,3.1-6.8,6.8c0,3.7,3.1,6.8,6.8,6.8c3.8,0,6.8-3.1,6.8-6.8C373.7,58.3,370.7,55.2,366.9,55.2z"/>
		<path class="st0" d="M269.3,116.5c-6.9,0-12.5-5.6-12.5-12.5s5.6-12.5,12.5-12.5s12.5,5.6,12.5,12.5S276.2,116.5,269.3,116.5z
			 M269.3,93.8c-5.6,0-10.2,4.6-10.2,10.2c0,5.6,4.6,10.2,10.2,10.2s10.2-4.6,10.2-10.2C279.6,98.4,275,93.8,269.3,93.8z"/>
		<path class="st0" d="M408.6,109.7h-84.5c-3.6,0-6.5-2.9-6.5-6.5s2.9-6.5,6.5-6.5h84.5c3.6,0,6.5,2.9,6.5,6.5
			S412.2,109.7,408.6,109.7z M324.1,98.9c-2.4,0-4.3,1.9-4.3,4.3c0,2.4,1.9,4.3,4.3,4.3h84.5c2.4,0,4.3-1.9,4.3-4.3
			c0-2.4-1.9-4.3-4.3-4.3H324.1z"/>
	</g>
	<g>
		<path class="st0" d="M368.3,1267.8c-23.5,0-42.5-19.1-42.5-42.5c0-23.5,19.1-42.5,42.5-42.5c23.5,0,42.5,19.1,42.5,42.5
			C410.8,1248.8,391.7,1267.8,368.3,1267.8z M368.3,1185c-22.2,0-40.3,18.1-40.3,40.3c0,22.2,18.1,40.3,40.3,40.3
			c22.2,0,40.3-18.1,40.3-40.3C408.6,1203.1,390.5,1185,368.3,1185z"/>
		<path class="st0" d="M368.3,1276.2c-28.1,0-50.9-22.8-50.9-50.9s22.8-50.9,50.9-50.9s50.9,22.8,50.9,50.9
			C419.2,1253.4,396.3,1276.2,368.3,1276.2z M368.3,1176.6c-26.8,0-48.7,21.8-48.7,48.7c0,26.8,21.8,48.7,48.7,48.7
			c26.8,0,48.7-21.8,48.7-48.7C416.9,1198.5,395.1,1176.6,368.3,1176.6z"/>
	</g>
	<g>
		<path class="st0" d="M8.5,245.4h-8.7v-60h8.7V245.4z M2,243.2h4.2v-55.6H2V243.2z"/>
	</g>
	<g>
		<path class="st0" d="M8.5,330.4h-8.7v-60h8.7V330.4z M2,328.2h4.2v-55.6H2V328.2z"/>
	</g>
	<g>
		<rect x="48.5" y="183.2" class="st1" width="639" height="959"/>
		<path class="st0" d="M687,183.7v958H49v-958H687 M688,182.7H48v960h640V182.7L688,182.7z"/>
	</g>
	<polygon class="st0" points="8.7,344.7 8.7,327 2.1,327 2.1,273.7 8.7,273.7 8.7,259.7 4.2,259.7 4.2,269.2 -2.4,269.2 -2.4,331.5 
		4.2,331.5 4.2,344.7 	"/>
	<path class="st0" d="M645.5,13.7h-6.8l-9.5-0.5V6.7h-62.3v6.6l-13.2,0.5H91.1c-47.9,0-86.8,39-86.8,86.8v83.7h-6.6v62.3h6.6v25.1
		h4.5V242H2.1v-53.3h6.6v-88.2c0-45.4,36.9-82.4,82.4-82.4h554.5C691,18.1,728,55,728,100.5v1127.3c0,45.4-36.9,82.4-82.4,82.4H91.1
		c-45.4,0-82.4-36.9-82.4-82.4V514.7v-187H4.2v187v713.1c0,47.9,39,86.9,86.8,86.9h554.5c47.9,0,86.8-39,86.8-86.9V100.5
		C732.4,52.7,693.4,13.7,645.5,13.7z M571.3,11.2h53.3v2.5h-53.3V11.2z"/>
</g>
</svg>
