<?xml version="1.0" encoding="utf-8"?>
<!-- Generator: Adobe Illustrator 21.1.0, SVG Export Plug-In . SVG Version: 6.00 Build 0)  -->
<svg version="1.1" id="Layer_1" xmlns="http://www.w3.org/2000/svg" xmlns:xlink="http://www.w3.org/1999/xlink" x="0px" y="0px"
	 viewBox="0 0 16 16" style="enable-background:new 0 0 16 16;" xml:space="preserve">
<g>
	<polygon points="15,9 11,13 9,11 8,12 11,15 16,10 	"/>
	<path d="M4,4v1h2v1H3v1v1v1h3h1V8V7V6V5V4H6H4z M6,8H4V7h2V8z"/>
	<rect x="8" y="8" width="1" height="1"/>
	<polygon points="1,1 14,1 14,8 15,7 15,1 15,0 14,0 1,0 0,0 0,1 0,11 0,12 1,12 6,12 7,11 1,11 	"/>
	<rect x="10" y="4" width="1" height="1"/>
	<rect x="9" y="5" width="1" height="1"/>
	<rect x="11" y="5" width="1" height="1"/>
	<rect x="11" y="3" width="1" height="1"/>
	<rect x="9" y="3" width="1" height="1"/>
</g>
</svg>
