<?xml version="1.0" encoding="utf-8"?>
<!-- Generator: Adobe Illustrator 21.0.0, SVG Export Plug-In . SVG Version: 6.00 Build 0)  -->
<svg version="1.1" id="Layer_1" xmlns="http://www.w3.org/2000/svg" xmlns:xlink="http://www.w3.org/1999/xlink" x="0px" y="0px"
	 viewBox="0 0 24 24" enable-background="new 0 0 24 24" xml:space="preserve">
<g>
	<rect x="10" y="17" opacity="0.5" width="3" height="5"/>
	<rect x="10" y="1" opacity="0.9" width="3" height="5"/>
	<rect x="2" y="9" transform="matrix(-1.836970e-16 1 -1 -1.836970e-16 15 8)" opacity="0.2" width="3" height="5"/>
	
		<rect x="18" y="9" transform="matrix(-1.836970e-16 1 -1 -1.836970e-16 31 -8)" opacity="0.7" width="3" height="5"/>
	
		<rect x="15.7" y="14.7" transform="matrix(0.7071 -0.7071 0.7071 0.7071 -7.1066 17.1569)" opacity="0.6" width="3" height="5"/>
	
		<rect x="4.3" y="3.3" transform="matrix(0.7071 -0.7071 0.7071 0.7071 -2.4203 5.8431)" opacity="0.1" width="3" height="5"/>
	
		<rect x="4.3" y="14.7" transform="matrix(0.7071 0.7071 -0.7071 0.7071 13.8431 0.8934)" opacity="0.3" width="3" height="5"/>
	
		<rect x="15.7" y="3.3" transform="matrix(0.7071 0.7071 -0.7071 0.7071 9.1569 -10.4203)" opacity="0.8" width="3" height="5"/>
</g>
</svg>
