<?xml version="1.0" encoding="utf-8"?>
<!-- Generator: Adobe Illustrator 24.1.2, SVG Export Plug-In . SVG Version: 6.00 Build 0)  -->
<svg version="1.1" id="Layer_1" xmlns="http://www.w3.org/2000/svg" xmlns:xlink="http://www.w3.org/1999/xlink" x="0px" y="0px"
	 viewBox="0 0 16 16" style="enable-background:new 0 0 16 16;" xml:space="preserve">
<path d="M2,8c0,3.3,2.7,6,6,6c2.4,0,4.4-1.4,5.4-3.4l-1.7-1.1C11.1,10.9,9.7,12,8,12c-2.2,0-4-1.8-4-4s1.8-4,4-4
	c1.1,0,2.1,0.5,2.8,1.2L9,7h2.9h2H14V2l-1.8,1.8C11.1,2.7,9.7,2,8,2C4.7,2,2,4.7,2,8z"/>
</svg>
