<?xml version="1.0" encoding="utf-8"?>
<!-- Generator: Adobe Illustrator 23.0.3, SVG Export Plug-In . SVG Version: 6.00 Build 0)  -->
<svg version="1.1" id="Layer_1" xmlns="http://www.w3.org/2000/svg" xmlns:xlink="http://www.w3.org/1999/xlink" x="0px" y="0px"
	 viewBox="0 0 12 12" style="enable-background:new 0 0 12 12;" xml:space="preserve">
<path d="M6,0c1.66,0,3.14,0.69,4.23,1.78L12,0.01v4.99h-0.09H9.86H7l1.82-1.82C8.1,2.46,7.11,2,6,2C3.79,2,2,3.79,2,6
	c0,2.21,1.79,4,4,4c1.68,0,3.12-1.05,3.71-2.52L11.4,8.6C10.43,10.61,8.38,12,6,12c-3.31,0-6-2.69-6-6C0,2.69,2.69,0,6,0z"/>
</svg>
