<?xml version="1.0" encoding="utf-8"?>
<!-- Generator: Adobe Illustrator 23.0.3, SVG Export Plug-In . SVG Version: 6.00 Build 0)  -->
<svg version="1.1" id="Layer_1" xmlns="http://www.w3.org/2000/svg" xmlns:xlink="http://www.w3.org/1999/xlink" x="0px" y="0px"
	 viewBox="0 0 12 12" style="enable-background:new 0 0 12 12;" xml:space="preserve">
<path d="M6,0C4.34,0,2.86,0.69,1.77,1.78L0,0.01v4.99h0.09h2.05H5L3.18,3.19C3.9,2.46,4.89,2,6,2c2.21,0,4,1.79,4,4
	c0,2.21-1.79,4-4,4c-1.68,0-3.12-1.05-3.71-2.52L0.6,8.6C1.57,10.61,3.62,12,6,12c3.31,0,6-2.69,6-6C12,2.69,9.31,0,6,0z"/>
</svg>
