<?xml version="1.0" encoding="utf-8"?>
<!-- Generator: Adobe Illustrator 23.0.3, SVG Export Plug-In . SVG Version: 6.00 Build 0)  -->
<svg version="1.1" id="Layer_1" xmlns="http://www.w3.org/2000/svg" xmlns:xlink="http://www.w3.org/1999/xlink" x="0px" y="0px"
	 viewBox="0 0 12 12" style="enable-background:new 0 0 12 12;" xml:space="preserve">
<path d="M12,7V5H9.86C9.76,4.64,9.62,4.3,9.43,3.98l1.52-1.52L9.54,1.05L8.02,2.57C7.7,2.39,7.36,2.24,7,2.15V0H5v2.15
	C4.64,2.24,4.3,2.39,3.98,2.57L2.46,1.05L1.05,2.46l1.52,1.52C2.38,4.3,2.24,4.64,2.14,5H0v2h2.14c0.09,0.36,0.24,0.71,0.42,1.02
	L1.05,9.54l1.41,1.41l1.51-1.51C4.29,9.63,4.63,9.77,5,9.87V12h2V9.87c0.37-0.09,0.71-0.24,1.02-0.43l1.51,1.51l1.41-1.41L9.44,8.02
	C9.62,7.71,9.77,7.36,9.86,7H12z M6,8.01c-1.1,0-2-0.9-2-2c0-1.1,0.9-2,2-2s2,0.9,2,2C8,7.11,7.1,8.01,6,8.01z"/>
</svg>
