<?xml version="1.0" encoding="utf-8"?>
<!-- Generator: Adobe Illustrator 22.0.1, SVG Export Plug-In . SVG Version: 6.00 Build 0)  -->
<svg version="1.1" id="Layer_1" xmlns="http://www.w3.org/2000/svg" xmlns:xlink="http://www.w3.org/1999/xlink" x="0px" y="0px"
	 viewBox="0 0 16 16" style="enable-background:new 0 0 16 16;" xml:space="preserve">
<polygon points="3,10 0,7 6,7 "/>
<polygon points="13,7 16,10 10,10 "/>
<g>
	<path d="M8,4c1.5,0,2.8,0.8,3.4,2h2.2c-0.8-2.3-3-4-5.7-4C4.7,2,2,4.7,2,8h2C4,5.8,5.8,4,8,4z"/>
	<path d="M11.9,9c-0.4,1.7-2,3-3.9,3c-1,0-1.9-0.4-2.6-1H2.8c1,1.8,3,3,5.2,3c3,0,5.4-2.2,5.9-5H11.9z"/>
</g>
</svg>
