<?xml version="1.0" encoding="utf-8"?>
<!-- Generator: Adobe Illustrator 22.0.1, SVG Export Plug-In . SVG Version: 6.00 Build 0)  -->
<svg version="1.1" id="Layer_1" xmlns="http://www.w3.org/2000/svg" xmlns:xlink="http://www.w3.org/1999/xlink" x="0px" y="0px"
	 viewBox="0 0 16 16" style="enable-background:new 0 0 16 16;" xml:space="preserve">
<style type="text/css">
	.st0{fill:#1AB394;}
</style>
<path class="st0" d="M7.3,8H1v2h5.2C6.4,9.3,6.8,8.6,7.3,8z"/>
<path class="st0" d="M10,6.2V5H1v2h7.3C8.8,6.7,9.4,6.4,10,6.2z"/>
<rect x="1" y="2" class="st0" width="9" height="2"/>
<path class="st0" d="M11.5,7C9,7,7,9,7,11.5S9,16,11.5,16s4.5-2,4.5-4.5S14,7,11.5,7z M14,12h-2v2h-1v-2H9v-1h2V9h1v2h2V12z"/>
</svg>
