<?xml version="1.0" encoding="utf-8"?>
<!-- Generator: Adobe Illustrator 22.0.1, SVG Export Plug-In . SVG Version: 6.00 Build 0)  -->
<svg version="1.1" id="Layer_1" xmlns="http://www.w3.org/2000/svg" xmlns:xlink="http://www.w3.org/1999/xlink" x="0px" y="0px"
	 viewBox="0 0 16 16" style="enable-background:new 0 0 16 16;" xml:space="preserve">
<style type="text/css">
	.st0{fill:#1AB394;}
</style>
<g>
	<path class="st0" d="M1,7.7l0.9-2.7C4,5.6,5.5,6.3,6.4,6.8C6.2,4.5,6,2.9,6,2h3c0,1.3-0.3,2.9-0.5,4.8c1.3-0.7,2.9-1.3,4.6-1.8
		L14,7.7c-1.7,0.5-3.3,0.9-4.9,1.1c0.8,0.7,1.9,1.9,3.4,3.6L10.1,14c-0.8-1-1.7-2.4-2.7-4.1c-1,1.8-1.8,3.2-2.6,4.1l-2.3-1.6
		c1.5-1.8,2.6-3,3.3-3.6C4.1,8.4,2.5,8.1,1,7.7z"/>
</g>
</svg>
