<?xml version="1.0" encoding="utf-8"?>
<!-- Generator: Adobe Illustrator 22.0.1, SVG Export Plug-In . SVG Version: 6.00 Build 0)  -->
<svg version="1.1" id="Layer_1" xmlns="http://www.w3.org/2000/svg" xmlns:xlink="http://www.w3.org/1999/xlink" x="0px" y="0px"
	 viewBox="0 0 16 16" style="enable-background:new 0 0 16 16;" xml:space="preserve">
<style type="text/css">
	.st0{fill:#1AB394;}
</style>
<g>
	<path class="st0" d="M15.7,7.7C15.6,7.5,11.7,3,8,3S0.4,7.5,0.3,7.7L0,8l0.3,0.3C0.4,8.5,4.3,13,8,13s7.6-4.5,7.7-4.7L16,8
		L15.7,7.7z M8,11c-2.6,0-5.2-2.2-6-3c0.8-0.8,3.4-3,6-3c2.6,0,5.2,2.2,6,3C13.2,8.8,10.6,11,8,11z"/>
	<circle class="st0" cx="8" cy="8" r="3"/>
</g>
</svg>
