
<svg width="1248px" height="884px" viewBox="0 0 1248 884" version="1.1" xmlns="http://www.w3.org/2000/svg" xmlns:xlink="http://www.w3.org/1999/xlink">
    <!-- Generator: Sketch 47.1 (45422) - http://www.bohemiancoding.com/sketch -->
    <desc>Created with Sketch.</desc>
    <defs>
        <filter x="-7.4%" y="-8.3%" width="114.8%" height="121.7%" filterUnits="objectBoundingBox" id="filter-1">
            <feOffset dx="0" dy="20" in="SourceAlpha" result="shadowOffsetOuter1"></feOffset>
            <feGaussianBlur stdDeviation="25" in="shadowOffsetOuter1" result="shadowBlurOuter1"></feGaussianBlur>
            <feColorMatrix values="0 0 0 0 0   0 0 0 0 0   0 0 0 0 0  0 0 0 0.1 0" type="matrix" in="shadowBlurOuter1" result="shadowMatrixOuter1"></feColorMatrix>
            <feMerge>
                <feMergeNode in="shadowMatrixOuter1"></feMergeNode>
                <feMergeNode in="SourceGraphic"></feMergeNode>
            </feMerge>
        </filter>
    </defs>
    <g id="Page-1" stroke="none" stroke-width="1" fill="none" fill-rule="evenodd">
        <g id="iPad" transform="translate(-1406.000000, -436.000000)">
            <g id="Horizontal" filter="url(#filter-1)" transform="translate(1456.000000, 466.000000)">
                <path d="M188,-122 L960,-122 L960,906 L188,906 L188,-122 Z M190,-120 L190,904 L958,904 L958,-120 L190,-120 Z" id="Combined-Shape-Copy" fill="#E7E7E7" transform="translate(574.000000, 392.000000) rotate(-90.000000) translate(-574.000000, -392.000000) "></path>
                <rect id="Rectangle-Copy-4" fill="#F4F4F4" transform="translate(574.000000, 392.000000) rotate(-90.000000) translate(-574.000000, -392.000000) " x="190" y="-120" width="768" height="1024"></rect>
                <path d="M-342,362 L402,362 L402,362 C413.045695,362 422,370.954305 422,382 L422,422 L-362,422 L-362,382 L-362,382 C-362,370.954305 -353.045695,362 -342,362 Z" id="Rectangle-Copy-5" fill="#FFFFFF" transform="translate(30.000000, 392.000000) rotate(-90.000000) translate(-30.000000, -392.000000) "></path>
                <path d="M726,362 L1510,362 L1510,402 L1510,402 C1510,413.045695 1501.04569,422 1490,422 L746,422 L746,422 C734.954305,422 726,413.045695 726,402 L726,362 Z" id="Rectangle-Copy-6" fill="#FFFFFF" transform="translate(1118.000000, 392.000000) rotate(-90.000000) translate(-1118.000000, -392.000000) "></path>
                <rect id="Rectangle-3-Copy" fill="#F4F4F4" transform="translate(1118.000000, 392.000000) rotate(-90.000000) translate(-1118.000000, -392.000000) " x="1086" y="376" width="64" height="32" rx="16"></rect>
                <g id="Group-Copy-2" transform="translate(30.000000, 392.000000) rotate(-90.000000) translate(-30.000000, -392.000000) translate(-13.000000, 388.000000)" fill-rule="nonzero" fill="#F4F4F4">
                    <rect id="Rectangle-2" x="0" y="0" width="70" height="8" rx="4"></rect>
                    <circle id="Oval" cx="82" cy="4" r="4"></circle>
                </g>
                <rect id="Rectangle-2-Copy-2" fill="#FFFFFF" transform="translate(574.000000, 781.000000) rotate(-90.000000) translate(-574.000000, -781.000000) " x="571" y="267" width="6" height="1028"></rect>
                <rect id="Rectangle-2-Copy-3" fill="#FFFFFF" transform="translate(574.000000, 3.000000) rotate(-90.000000) translate(-574.000000, -3.000000) " x="571" y="-511" width="6" height="1028"></rect>
            </g>
        </g>
    </g>
</svg>