
<svg width="884px" height="1248px" viewBox="0 0 884 1248" version="1.1" xmlns="http://www.w3.org/2000/svg" xmlns:xlink="http://www.w3.org/1999/xlink">
    <!-- Generator: Sketch 47.1 (45422) - http://www.bohemiancoding.com/sketch -->
    <desc>Created with Sketch.</desc>
    <defs>
        <filter x="-10.8%" y="-5.7%" width="121.7%" height="114.8%" filterUnits="objectBoundingBox" id="filter-1">
            <feOffset dx="0" dy="20" in="SourceAlpha" result="shadowOffsetOuter1"></feOffset>
            <feGaussianBlur stdDeviation="25" in="shadowOffsetOuter1" result="shadowBlurOuter1"></feGaussianBlur>
            <feColorMatrix values="0 0 0 0 0   0 0 0 0 0   0 0 0 0 0  0 0 0 0.1 0" type="matrix" in="shadowBlurOuter1" result="shadowMatrixOuter1"></feColorMatrix>
            <feMerge>
                <feMergeNode in="shadowMatrixOuter1"></feMergeNode>
                <feMergeNode in="SourceGraphic"></feMergeNode>
            </feMerge>
        </filter>
    </defs>
    <g id="Page-1" stroke="none" stroke-width="1" fill="none" fill-rule="evenodd">
        <g id="iPad" transform="translate(-358.000000, -436.000000)">
            <g id="Vertical" filter="url(#filter-1)" transform="translate(408.000000, 466.000000)">
                <g id="Group-2">
                    <path d="M6,60 L778,60 L778,1088 L6,1088 L6,60 Z M8,62 L8,1086 L776,1086 L776,62 L8,62 Z" id="Combined-Shape" fill="#E7E7E7"></path>
                    <rect id="Rectangle" fill="#F4F4F4" x="8" y="62" width="768" height="1024"></rect>
                    <path d="M20,0 L764,0 L764,0 C775.045695,5.68342263e-14 784,8.954305 784,20 L784,60 L0,60 L0,20 L0,20 C-1.3527075e-15,8.954305 8.954305,-5.0763661e-15 20,-7.10542736e-15 Z" id="Rectangle-Copy" fill="#FFFFFF"></path>
                    <path d="M0,1088 L784,1088 L784,1128 L784,1128 C784,1139.04569 775.045695,1148 764,1148 L20,1148 L20,1148 C8.954305,1148 1.3527075e-15,1139.04569 0,1128 L0,1088 Z" id="Rectangle-Copy-2" fill="#FFFFFF"></path>
                    <rect id="Rectangle-3" fill="#F4F4F4" x="360" y="1102" width="64" height="32" rx="16"></rect>
                    <g id="Group-Copy" transform="translate(349.000000, 26.000000)" fill-rule="nonzero" fill="#F4F4F4">
                        <rect id="Rectangle-2" x="0" y="0" width="70" height="8" rx="4"></rect>
                        <circle id="Oval" cx="82" cy="4" r="4"></circle>
                    </g>
                    <rect id="Rectangle-2" fill="#FFFFFF" x="0" y="60" width="6" height="1028"></rect>
                    <rect id="Rectangle-2-Copy" fill="#FFFFFF" x="778" y="60" width="6" height="1028"></rect>
                </g>
            </g>
        </g>
    </g>
</svg>