<?xml version="1.0" encoding="utf-8"?>
<!-- Generator: Adobe Illustrator 24.1.2, SVG Export Plug-In . SVG Version: 6.00 Build 0)  -->
<svg version="1.1" id="Layer_1" xmlns="http://www.w3.org/2000/svg" xmlns:xlink="http://www.w3.org/1999/xlink" x="0px" y="0px"
	 viewBox="0 0 16 16" style="enable-background:new 0 0 16 16;" xml:space="preserve">
<path d="M15,9V7h-2.1c-0.1-0.6-0.4-1.2-0.7-1.8l1.5-1.5l-1.4-1.4l-1.5,1.5C10.2,3.5,9.6,3.2,9,3.1V1H7v2.1
	C6.4,3.2,5.8,3.5,5.2,3.8L3.8,2.3L2.3,3.8l1.5,1.5C3.5,5.8,3.2,6.4,3.1,7H1v2h2.1c0.1,0.6,0.4,1.2,0.7,1.8l-1.5,1.5l1.4,1.4l1.5-1.5
	c0.5,0.3,1.1,0.6,1.8,0.7V15h2v-2.1c0.6-0.1,1.2-0.4,1.8-0.7l1.5,1.5l1.4-1.4l-1.5-1.5c0.3-0.5,0.6-1.1,0.7-1.8H15z M8,11
	c-1.7,0-3-1.3-3-3s1.3-3,3-3s3,1.3,3,3S9.7,11,8,11z"/>
</svg>
