<?xml version="1.0" encoding="utf-8"?>
<!-- Generator: Adobe Illustrator 24.1.2, SVG Export Plug-In . SVG Version: 6.00 Build 0)  -->
<svg version="1.1" id="Layer_1" xmlns="http://www.w3.org/2000/svg" xmlns:xlink="http://www.w3.org/1999/xlink" x="0px" y="0px"
	 viewBox="0 0 16 16" style="enable-background:new 0 0 16 16;" xml:space="preserve">
<g>
	<path d="M2.6,2.9c0-0.8,0.1-1.3,0.4-1.7c0.2-0.3,0.4-0.3,0.6,0c1.6,2.4,3.3,4.9,4.9,7.3c0.2,0.3,0.4,0.7,0.5,1
		c0.3,0.6,0.5,0.8,1.2,0.7c0.6-0.1,1.2-0.1,1.7,0c1.2,0.3,2.1,1.5,2,2.8c0,1.2-1,2.3-2.2,2.5c-1.1,0.2-2-0.2-2.6-1
		c-0.5-0.6-0.7-1.4-0.7-2.2c0-0.6-0.2-1.2-0.5-1.7c-0.3-0.4-0.6-0.8-1.1-1.1C6.2,9.3,5.7,8.8,5.3,8.3C4.5,7.2,3.7,6,3.2,4.8
		C2.9,4.1,2.7,3.4,2.6,2.9z M9.7,12.9c0,0.9,0.7,1.6,1.6,1.6c0.9,0,1.6-0.7,1.6-1.6c0-0.9-0.7-1.6-1.6-1.6
		C10.4,11.3,9.7,12,9.7,12.9z M7.5,9.1C7.8,9.1,8,8.9,8,8.6c0-0.3-0.2-0.5-0.5-0.5C7.2,8.1,7,8.3,7,8.6C7,8.9,7.2,9.1,7.5,9.1z"/>
	<path d="M5.9,9.6c0.4,0.3,0.8,0.6,1.2,0.9c0,0,0.1,0.1,0,0.2c-0.4,0.6-0.5,1.3-0.5,2c-0.1,0.9-0.4,1.7-1.1,2.3
		c-0.8,0.7-1.7,0.9-2.7,0.5c-1-0.4-1.6-1.1-1.7-2.2c-0.2-1.6,1-3.1,2.6-3.1c0.4,0,0.8,0,1.1,0.1C5.4,10.3,5.6,10.2,5.9,9.6z
		 M5.3,12.9c0-0.9-0.7-1.6-1.6-1.6C2.8,11.3,2,12,2,12.9c0,0.9,0.7,1.6,1.6,1.6C4.6,14.6,5.3,13.8,5.3,12.9z"/>
	<path d="M9.3,8.7C8.8,8,8.4,7.3,7.9,6.6c0,0,0-0.1,0-0.2c1.2-1.7,2.3-3.5,3.5-5.2c0.1-0.2,0.3-0.2,0.5,0c0.3,0.3,0.4,0.8,0.5,1.2
		c0.1,0.8-0.2,1.6-0.5,2.4C11.3,5.9,10.6,7,9.8,8.1C9.6,8.3,9.5,8.5,9.3,8.7C9.3,8.7,9.3,8.7,9.3,8.7z"/>
</g>
</svg>
