<?xml version="1.0" encoding="utf-8"?>
<!-- Generator: Adobe Illustrator 22.0.1, SVG Export Plug-In . SVG Version: 6.00 Build 0)  -->
<svg version="1.1" id="Layer_1" xmlns="http://www.w3.org/2000/svg" xmlns:xlink="http://www.w3.org/1999/xlink" x="0px" y="0px"
	 viewBox="0 0 16 16" style="enable-background:new 0 0 16 16;" xml:space="preserve">
<path d="M15.7,7.7c-0.1-0.1-1.5-1.7-3.4-3L15,2l-1-1l-2.9,2.9C10.1,3.4,9,3,8,3C4.3,3,0.4,7.5,0.3,7.7L0,8l0.3,0.3
	c0.1,0.1,1.5,1.7,3.4,3L1,14l1,1l2.9-2.9C5.9,12.6,7,13,8,13c3.7,0,7.6-4.5,7.7-4.7L16,8L15.7,7.7z M2,8c0.8-0.8,3.4-3,6-3
	c0.6,0,0.6,0,0,0C6.3,5,5,6.3,5,8c0,0.6,0.2,1.1,0.4,1.6l-0.6,0.6C3.5,9.4,2.5,8.5,2,8z M8,11C7.4,11,7.4,11,8,11c1.7,0,3-1.3,3-3
	c0-0.6-0.2-1.1-0.4-1.6l0.6-0.6C12.5,6.6,13.5,7.5,14,8C13.2,8.8,10.6,11,8,11z"/>
</svg>
