<svg xmlns="http://www.w3.org/2000/svg" width="24" height="24" viewBox="0 0 24 24">
  <path d="M10 6C7.79 6 6 7.79 6 10C6 12.21 7.79 14 10 14C12.21 14 14 12.21 14 10C14 7.79 12.21 6 10 6ZM10 12C8.9 12 8 11.1 8 10C8 8.9 8.9 8 10 8C11.1 8 12 8.9 12 10C12 11.1 11.1 12 10 12ZM22.71 21.29L17.03 15.61C18.26 14.07 19 12.12 19 10C19 5.04 14.96 1 10 1C5.04 1 1 5.04 1 10C1 14.96 5.04 19 10 19C12.12 19 14.07 18.26 15.61 17.03L21.29 22.71L22.7 21.3L22.71 21.29ZM3 10C3 6.14 6.14 3 10 3C13.86 3 17 6.14 17 10C17 13.86 13.86 17 10 17C6.14 17 3 13.86 3 10Z"/>
</svg>