<svg width="24" height="24" viewBox="0 0 24 24" xmlns="http://www.w3.org/2000/svg">
<path d="M20 2H4C2.9 2 2 2.9 2 4V20C2 21.1 2.9 22 4 22H20C21.1 22 22 21.1 22 20V4C22 2.9 21.1 2 20 2ZM4 20V4H20V20H4ZM9 11C9 11.37 8.89 11.7 8.72 12C8.89 12.3 9 12.63 9 13V14.5C9 14.78 9.22 15 9.5 15H10C10.55 15 11 15.45 11 16C11 16.55 10.55 17 10 17H9.5C8.12 17 7 15.88 7 14.5V13C6.45 13 6 12.55 6 12C6 11.45 6.45 11 7 11V9.5C7 8.12 8.12 7 9.5 7H10C10.55 7 11 7.45 11 8C11 8.55 10.55 9 10 9H9.5C9.22 9 9 9.22 9 9.5V11ZM18 12C18 12.55 17.55 13 17 13V14.5C17 15.88 15.88 17 14.5 17H14C13.45 17 13 16.55 13 16C13 15.45 13.45 15 14 15H14.5C14.78 15 15 14.78 15 14.5V13C15 12.63 15.11 12.3 15.28 12C15.11 11.7 15 11.37 15 11V9.5C15 9.22 14.78 9 14.5 9H14C13.45 9 13 8.55 13 8C13 7.45 13.45 7 14 7H14.5C15.88 7 17 8.12 17 9.5V11C17.55 11 18 11.45 18 12Z" />
</svg>
