<svg width="16" height="16" viewBox="0 0 16 16" xmlns="http://www.w3.org/2000/svg">
<path d="M11.71 12.29C12.1 12.68 12.1 13.31 11.71 13.7C11.51 13.9 11.26 13.99 11 13.99C10.74 13.99 10.49 13.89 10.29 13.7L9 12.41V15C9 15.55 8.55 16 8 16C7.45 16 7 15.55 7 15V12.41L5.71 13.7C5.32 14.09 4.69 14.09 4.3 13.7C3.91 13.31 3.91 12.68 4.3 12.29L7.3 9.29C7.69 8.9 8.32 8.9 8.71 9.29L11.71 12.29ZM7.29 6.71C7.49 6.91 7.74 7 8 7C8.26 7 8.51 6.9 8.71 6.71L11.71 3.71C12.1 3.32 12.1 2.69 11.71 2.3C11.32 1.91 10.69 1.91 10.3 2.3L9.01 3.59V1C9.01 0.45 8.56 0 8.01 0C7.46 0 7.01 0.45 7.01 1V3.59L5.72 2.3C5.33 1.91 4.7 1.91 4.31 2.3C3.92 2.69 3.9 3.32 4.29 3.71L7.29 6.71Z" />
</svg>
