<svg width="24" height="16" viewBox="0 0 24 16" xmlns="http://www.w3.org/2000/svg">
<path d="M10 7C10 7.55 9.55 8 9 8C8.45 8 8 7.55 8 7C8 6.45 8.45 6 9 6C9.55 6 10 6.45 10 7ZM9 9C8.45 9 8 9.45 8 10C8 10.55 8.45 11 9 11C9.55 11 10 10.55 10 10C10 9.45 9.55 9 9 9ZM12 6C11.45 6 11 6.45 11 7C11 7.55 11.45 8 12 8C12.55 8 13 7.55 13 7C13 6.45 12.55 6 12 6ZM12 9C11.45 9 11 9.45 11 10C11 10.55 11.45 11 12 11C12.55 11 13 10.55 13 10C13 9.45 12.55 9 12 9ZM15 8C15.55 8 16 7.55 16 7C16 6.45 15.55 6 15 6C14.45 6 14 6.45 14 7C14 7.55 14.45 8 15 8ZM15 9C14.45 9 14 9.45 14 10C14 10.55 14.45 11 15 11C15.55 11 16 10.55 16 10C16 9.45 15.55 9 15 9Z" />
</svg>
