<svg width="24" height="24" viewBox="0 0 24 24" xmlns="http://www.w3.org/2000/svg">
<path d="M21.9 4.80001L19.1 2.00001C18.5 1.50001 17.8 1.20001 17 1.20001C16.2 1.20001 15.5 1.50001 14.9 2.10001L4.6 12.3C2.9 14 2 16.3 2 18.7V21C2 21.6 2.4 22 3 22H5.3C7.7 22 10 21.1 11.7 19.4L21.9 9.10001C23.1 7.90001 23.1 6.00001 21.9 4.80001ZM10.2 17.9C8.9 19.2 7.1 20 5.3 20H4V18.7C4 16.8 4.7 15.1 6.1 13.8L12.3 7.60001L16.5 11.8L10.2 17.9ZM20.5 7.70001L17.8 10.4L13.6 6.20001L16.3 3.50001C16.5 3.20001 16.8 3.20001 17 3.20001C17.2 3.20001 17.5 3.20001 17.7 3.50001L20.5 6.30001C20.9 6.60001 20.9 7.30001 20.5 7.70001Z" />
</svg>
