<svg width="16" height="16" viewBox="0 0 16 16" xmlns="http://www.w3.org/2000/svg">
<g clip-path="url(#clip0_2693_58208)">
<path d="M15.3 2.8L13.2 0.7C12.7 0.2 12.2 0 11.6 0C11 0 10.4 0.2 10 0.7L2 8.6C0.7 9.9 0 11.7 0 13.5V15.3C0 15.7 0.3 16 0.8 16H2.6C4.4 16 6.2 15.3 7.5 14L15.4 6.1C16.2 5.2 16.2 3.7 15.3 2.8ZM6 12.6C5.1 13.5 3.8 14 2.5 14H2V13.5C2 12.2 2.5 10.9 3.4 10L8 5.4L10.6 8L6 12.6ZM13.9 4.7L12 6.6L9.4 4L11.3 2.1C11.4 2 11.5 2 11.6 2C11.7 2 11.7 2 11.8 2.1L13.9 4.2C14 4.3 14 4.5 13.9 4.7Z" />
</g>
<defs>
<clipPath id="clip0_2693_58208">
<rect width="16" height="16" fill="white"/>
</clipPath>
</defs>
</svg>
