<svg width="16" height="16" viewBox="0 0 16 16" xmlns="http://www.w3.org/2000/svg">
<g clip-path="url(#clip0_21945_90234)">
<path d="M4.29 4.71C3.9 4.32 3.9 3.69 4.29 3.3L7.29 0.289998C7.68 -0.100002 8.31 -0.100002 8.7 0.289998L11.7 3.29C12.09 3.68 12.09 4.31 11.7 4.7C11.5 4.9 11.25 4.99 10.99 4.99C10.73 4.99 10.48 4.89 10.28 4.7L8.99 3.41V6C8.99 6.55 8.54 7 7.99 7C7.44 7 6.99 6.55 6.99 6V3.41L5.7 4.7C5.31 5.09 4.68 5.09 4.29 4.7V4.71ZM10.29 11.29L9 12.58V9.99C9 9.44 8.55 8.99 8 8.99C7.45 8.99 7 9.44 7 9.99V12.58L5.71 11.29C5.32 10.9 4.69 10.9 4.3 11.29C3.91 11.68 3.91 12.31 4.3 12.7L7.3 15.7C7.5 15.9 7.75 15.99 8.01 15.99C8.27 15.99 8.52 15.89 8.72 15.7L11.72 12.7C12.11 12.31 12.11 11.68 11.72 11.29C11.33 10.9 10.7 10.9 10.31 11.29H10.29Z" />
</g>
<defs>
<clipPath id="clip0_21945_90234">
<rect width="16" height="16" fill="white"/>
</clipPath>
</defs>
</svg>
