<svg width="24" height="24" viewBox="0 0 24 24" xmlns="http://www.w3.org/2000/svg">
<path d="M2.3 3.70001L7.8 9.20001L4.6 12.4C2.9 14.1 2 16.4 2 18.8V21.1C2 21.7 2.4 22.1 3 22.1H5.3C7.7 22.1 10 21.2 11.7 19.5L14.9 16.3L20.4 21.8L21.8 20.4L3.8 2.40001L2.3 3.70001ZM10.2 17.9C8.9 19.2 7.1 20 5.3 20H4V18.7C4 16.8 4.7 15.1 6.1 13.8L9.3 10.6L13.5 14.8L10.2 17.9ZM21.9 9.10001L17.2 13.8L15.8 12.4L20.5 7.70001C20.9 7.30001 20.9 6.70001 20.5 6.30001L17.7 3.50001C17.5 3.20001 17.2 3.20001 17 3.20001C16.8 3.20001 16.5 3.20001 16.3 3.50001L11.6 8.20001L10.2 6.80001L14.9 2.10001C15.5 1.50001 16.2 1.20001 17 1.20001C17.8 1.20001 18.5 1.50001 19.1 2.10001L21.9 4.90001C23.1 6.00001 23.1 7.90001 21.9 9.10001Z" />
</svg>
