<svg width="24" height="24" viewBox="0 0 24 24" xmlns="http://www.w3.org/2000/svg">
<g clip-path="url(#clip0_19268_561903)">
<path d="M8.71 11.2901L5.71 8.29006C5.32 7.90006 4.69 7.90006 4.3 8.29006C3.91 8.68006 3.91 9.31006 4.3 9.70006L5.59 10.9901H1C0.45 10.9901 0 11.4401 0 11.9901C0 12.5401 0.45 12.9901 1 12.9901H5.59L4.3 14.2801C3.91 14.6701 3.91 15.3001 4.3 15.6901C4.5 15.8901 4.75 15.9801 5.01 15.9801C5.27 15.9801 5.52 15.8801 5.72 15.6901L8.72 12.6901C8.81 12.6001 8.89 12.4901 8.94 12.3601C9.04 12.1201 9.04 11.8401 8.94 11.6001C8.89 11.4801 8.82 11.3701 8.72 11.2701L8.71 11.2901Z" />
<path d="M15.71 10.29C15.32 9.89999 14.69 9.89999 14.3 10.29C13.91 10.68 13.91 11.31 14.3 11.7L16.3 13.7C16.5 13.9 16.75 13.99 17.01 13.99C17.27 13.99 17.52 13.89 17.72 13.7L23.72 7.69999C24.11 7.30999 24.11 6.67999 23.72 6.28999C23.33 5.89999 22.7 5.89999 22.31 6.28999L21.05 7.54999C19.99 6.57999 18.57 5.98999 17.02 5.98999C13.71 5.98999 11.02 8.67999 11.02 11.99C11.02 15.3 13.71 17.99 17.02 17.99C20.33 17.99 23.02 15.3 23.02 11.99C23.02 11.5 22.96 11.03 22.85 10.58L20.98 12.45C20.75 14.44 19.07 15.99 17.03 15.99C14.82 15.99 13.03 14.2 13.03 11.99C13.03 9.77999 14.82 7.98999 17.03 7.98999C18.03 7.98999 18.93 8.36999 19.63 8.97999L17.03 11.58L15.74 10.29H15.71Z" />
</g>
<defs>
<clipPath id="clip0_19268_561903">
<rect width="24" height="24" fill="white"/>
</clipPath>
</defs>
</svg>
