<svg width="24" height="24" viewBox="0 0 24 24" xmlns="http://www.w3.org/2000/svg">
<path d="M12.5 3C12.78 3 13 3.22 13 3.5V5.08C14.18 5.25 15.27 5.71 16.19 6.4L17.31 5.28C17.41 5.18 17.54 5.13 17.66 5.13C17.78 5.13 17.92 5.18 18.01 5.28L18.72 5.99C18.92 6.19 18.92 6.5 18.72 6.7L17.6 7.82C18.29 8.74 18.75 9.82 18.92 11.01H20.5C20.78 11.01 21 11.23 21 11.51V12.51C21 12.79 20.78 13.01 20.5 13.01H18.92C18.75 14.19 18.29 15.28 17.6 16.2L18.72 17.32C18.92 17.52 18.92 17.83 18.72 18.03L18.01 18.74C17.91 18.84 17.78 18.89 17.66 18.89C17.54 18.89 17.4 18.84 17.31 18.74L16.19 17.62C15.27 18.31 14.19 18.77 13 18.94V20.52C13 20.8 12.78 21.02 12.5 21.02H11.5C11.22 21.02 11 20.8 11 20.52V18.94C9.82 18.77 8.73 18.31 7.81 17.62L6.69 18.74C6.59 18.84 6.46 18.89 6.34 18.89C6.22 18.89 6.08 18.84 5.99 18.74L5.28 18.03C5.08 17.83 5.08 17.52 5.28 17.32L6.4 16.2C5.71 15.28 5.25 14.2 5.08 13.01H3.5C3.22 13.01 3 12.79 3 12.51V11.51C3 11.23 3.22 11.01 3.5 11.01H5.08C5.25 9.83 5.71 8.74 6.4 7.82L5.28 6.7C5.08 6.5 5.08 6.19 5.28 5.99L5.99 5.28C6.09 5.18 6.22 5.13 6.34 5.13C6.46 5.13 6.6 5.18 6.69 5.28L7.81 6.4C8.73 5.71 9.81 5.25 11 5.08V3.5C11 3.22 11.22 3 11.5 3H12.5ZM12 16C14.21 16 16 14.21 16 12C16 9.79 14.21 8 12 8C9.79 8 8 9.79 8 12C8 14.21 9.79 16 12 16ZM12.5 1H11.5C10.12 1 9 2.12 9 3.5V3.52C8.7 3.63 8.41 3.75 8.13 3.88L8.11 3.86C7.64 3.39 7.01 3.13 6.34 3.13C5.67 3.13 5.04 3.39 4.57 3.86L3.86 4.57C2.89 5.55 2.89 7.13 3.86 8.11L3.88 8.13C3.74 8.41 3.62 8.71 3.52 9H3.5C2.12 9 1 10.12 1 11.5V12.5C1 13.88 2.12 15 3.5 15H3.52C3.63 15.3 3.75 15.59 3.88 15.87L3.86 15.89C2.89 16.87 2.89 18.45 3.86 19.43L4.57 20.14C5.04 20.61 5.67 20.87 6.34 20.87C7.01 20.87 7.64 20.61 8.11 20.14L8.13 20.12C8.41 20.26 8.71 20.38 9 20.48V20.5C9 21.88 10.12 23 11.5 23H12.5C13.88 23 15 21.88 15 20.5V20.48C15.3 20.37 15.59 20.25 15.87 20.12L15.89 20.14C16.36 20.61 16.99 20.87 17.66 20.87C18.33 20.87 18.96 20.61 19.43 20.14L20.14 19.43C21.11 18.46 21.11 16.87 20.14 15.89L20.12 15.87C20.26 15.59 20.38 15.29 20.48 15H20.5C21.88 15 23 13.88 23 12.5V11.5C23 10.12 21.88 9 20.5 9H20.48C20.37 8.7 20.25 8.41 20.12 8.13L20.14 8.11C21.11 7.14 21.11 5.55 20.14 4.57L19.43 3.86C18.96 3.39 18.33 3.13 17.66 3.13C16.99 3.13 16.36 3.39 15.89 3.86L15.87 3.88C15.59 3.74 15.29 3.62 15 3.52V3.5C15 2.12 13.88 1 12.5 1ZM12 14C10.9 14 10 13.1 10 12C10 10.9 10.9 10 12 10C13.1 10 14 10.9 14 12C14 13.1 13.1 14 12 14Z" />
</svg>
