<svg width="24" height="24" viewBox="0 0 24 24" xmlns="http://www.w3.org/2000/svg">
<path d="M17.88 3.25C15.62 3.25 13.31 3.64 12 4.24C10.7 3.65 8.38 3.25 6.12 3.25C3 3.25 0 4 0 6V22.76C0 20.76 3 20.01 6.12 20.01C7.88 20.01 9.67 20.25 11 20.63C11.38 20.74 11.71 20.86 12 20.99C12.29 20.86 12.62 20.74 13 20.63C14.32 20.25 16.12 20.01 17.88 20.01C21 20.01 24 20.76 24 22.76V6C24 4 21 3.25 17.88 3.25ZM11 18.56C8.97 18.06 6.79 18.02 6.12 18.02C4.54 18.02 3.15 18.19 2 18.52V6.07C2.29 5.79 3.61 5.25 6.12 5.25C8.32 5.25 10.15 5.64 11 5.97V18.56ZM22 18.52C20.84 18.19 19.46 18.02 17.88 18.02C17.21 18.02 15.04 18.06 13 18.56V5.97C13.85 5.64 15.67 5.25 17.88 5.25C20.4 5.25 21.72 5.79 22 6.07V18.51V18.52ZM3.87 7.94C5.48 7.73 7.35 7.76 9.14 8.01C9.69 8.09 10.07 8.59 9.99 9.14C9.92 9.64 9.49 10 9 10C8.95 10 8.91 10 8.86 10C7.27 9.77 5.54 9.75 4.13 9.93C3.58 10 3.08 9.62 3.01 9.07C2.94 8.52 3.32 8.02 3.87 7.95V7.94ZM9.99 13.14C9.92 13.64 9.49 14 9 14C8.95 14 8.91 14 8.86 14C7.27 13.77 5.55 13.75 4.13 13.93C3.58 14 3.08 13.61 3.01 13.07C2.94 12.52 3.32 12.02 3.87 11.95C5.48 11.74 7.35 11.77 9.14 12.02C9.69 12.1 10.07 12.61 9.99 13.15V13.14ZM20.13 7.94C20.68 8.01 21.06 8.51 20.99 9.06C20.92 9.61 20.42 10 19.87 9.92C18.46 9.74 16.74 9.76 15.14 9.99C15.09 9.99 15.04 9.99 15 9.99C14.51 9.99 14.08 9.63 14.01 9.13C13.93 8.58 14.31 8.08 14.86 8C16.65 7.75 18.53 7.72 20.13 7.93V7.94ZM20.99 13.06C20.92 13.61 20.42 13.99 19.87 13.92C18.45 13.74 16.73 13.76 15.14 13.99C15.09 13.99 15.04 13.99 15 13.99C14.51 13.99 14.08 13.63 14.01 13.13C13.93 12.58 14.31 12.08 14.86 12C16.65 11.74 18.52 11.72 20.13 11.93C20.68 12 21.06 12.5 20.99 13.05V13.06Z" />
</svg>
