<svg width="24" height="24" viewBox="0 0 24 24" xmlns="http://www.w3.org/2000/svg">
<path d="M2.3 3.7L3.6 5C2 6.9 1 9.3 1 12C1 18.1 5.9 23 12 23C14.7 23 17.1 22 19 20.4L20.3 21.7L21.7 20.3L3.7 2.3L2.3 3.7ZM12 21C7 21 3 17 3 12C3 9.9 3.7 7.9 5 6.4L10.8 12.2C10.7 12.3 10.6 12.4 10.6 12.5C10.5 12.7 10.4 13 10.4 13.3C10.4 13.6 10.5 13.9 10.6 14.1C10.7 14.3 10.8 14.5 10.9 14.8C11 15 11.2 15.1 11.4 15.1C11.5 15.1 11.5 15.1 11.6 15.1H11.7C11.8 15.1 11.9 15.1 12.1 15C12.4 14.9 12.6 14.7 12.6 14.5V14.4V14.1L17.5 19C16.1 20.3 14.1 21 12 21ZM7.8 4.1L6.3 2.6C8 1.6 9.9 1 12 1C18.1 1 23 5.9 23 12C23 14.1 22.4 16 21.4 17.7L19.9 16.2C20.6 15 21 13.5 21 12C21 7 17 3 12 3C10.5 3 9 3.4 7.8 4.1ZM13.5 9.8C13.5 9.7 13.6 9.6 13.6 9.4C13.6 9 13.5 8.6 13.2 8.4C12.8 8 12.4 7.9 12 7.9C11.9 7.9 11.8 7.9 11.6 7.9L10.1 6.4C10.2 6.4 10.2 6.3 10.3 6.3C11.5 5.9 12.7 5.9 13.6 6.1C14.1 6.2 14.5 6.4 14.9 6.6C15.6 7.3 16 8.1 16 9.3C16 10.1 15.7 10.8 15.2 11.4L13.5 9.8ZM11.8 15.9C12.5 15.9 13 16.2 13.3 16.8C13.4 17 13.4 17.2 13.4 17.4C13.4 17.8 13.2 18.2 13 18.5C12.7 18.8 12.3 18.9 11.9 18.9C11.5 18.9 11.1 18.7 10.8 18.5C10.5 18.2 10.4 17.8 10.4 17.4C10.4 17 10.6 16.6 10.8 16.3C11 16 11.4 15.9 11.8 15.9Z" />
</svg>
