<svg width="16" height="16" viewBox="0 0 16 16" xmlns="http://www.w3.org/2000/svg">
<g clip-path="url(#clip0_21403_120504)">
<path d="M1.53333 2.46669L2.4 3.33335C1.33333 4.60002 0.666664 6.20002 0.666664 8.00002C0.666664 12.0667 3.93333 15.3334 8 15.3334C9.8 15.3334 11.4 14.6667 12.6667 13.6L13.5333 14.4667L14.4667 13.5334L2.46666 1.53335L1.53333 2.46669ZM8 14C4.66666 14 2 11.3334 2 8.00002C2 6.60002 2.46666 5.26669 3.33333 4.26669L7.2 8.13335C7.13333 8.20002 7.06666 8.26669 7.06666 8.33335C7 8.46669 6.93333 8.66669 6.93333 8.86669C6.93333 9.06669 7 9.26669 7.06666 9.40002C7.13333 9.53335 7.2 9.66669 7.26666 9.86669C7.33333 10 7.46666 10.0667 7.6 10.0667C7.66666 10.0667 7.66666 10.0667 7.73333 10.0667H7.8C7.86666 10.0667 7.93333 10.0667 8.06666 10C8.26666 9.93335 8.4 9.80002 8.4 9.66669V9.60002V9.40002L11.6667 12.6667C10.7333 13.5334 9.4 14 8 14ZM5.2 2.73335L4.2 1.73335C5.33333 1.06669 6.6 0.666687 8 0.666687C12.0667 0.666687 15.3333 3.93335 15.3333 8.00002C15.3333 9.40002 14.9333 10.6667 14.2667 11.8L13.2667 10.8C13.7333 10 14 9.00002 14 8.00002C14 4.66669 11.3333 2.00002 8 2.00002C7 2.00002 6 2.26669 5.2 2.73335ZM9 6.53335C9 6.46669 9.06666 6.40002 9.06666 6.26669C9.06666 6.00002 9 5.73335 8.8 5.60002C8.53333 5.33335 8.26666 5.26669 8 5.26669C7.93333 5.26669 7.86666 5.26669 7.73333 5.26669L6.73333 4.26669C6.8 4.26669 6.8 4.20002 6.86666 4.20002C7.66666 3.93335 8.46666 3.93335 9.06666 4.06669C9.4 4.13335 9.66666 4.26669 9.93333 4.40002C10.4 4.86669 10.6667 5.40002 10.6667 6.20002C10.6667 6.73335 10.4667 7.20002 10.1333 7.60002L9 6.53335ZM7.86666 10.6C8.33333 10.6 8.66666 10.8 8.86666 11.2C8.93333 11.3334 8.93333 11.4667 8.93333 11.6C8.93333 11.8667 8.8 12.1334 8.66666 12.3334C8.46666 12.5334 8.2 12.6 7.93333 12.6C7.66666 12.6 7.4 12.4667 7.2 12.3334C7 12.1334 6.93333 11.8667 6.93333 11.6C6.93333 11.3334 7.06666 11.0667 7.2 10.8667C7.33333 10.6667 7.6 10.6 7.86666 10.6Z" />
</g>
<defs>
<clipPath id="clip0_21403_120504">
<rect width="16" height="16" fill="white"/>
</clipPath>
</defs>
</svg>
