<svg width="16" height="16" viewBox="0 0 16 16" xmlns="http://www.w3.org/2000/svg">
<g clip-path="url(#clip0_21248_353340)">
<path d="M8.00002 0.666687C3.93335 0.666687 0.666687 3.93335 0.666687 8.00002C0.666687 12.0667 3.93335 15.3334 8.00002 15.3334C12.0667 15.3334 15.3334 12.0667 15.3334 8.00002C15.3334 3.93335 12.0667 0.666687 8.00002 0.666687ZM8.00002 14C4.66669 14 2.00002 11.3334 2.00002 8.00002C2.00002 4.66669 4.66669 2.00002 8.00002 2.00002C11.3334 2.00002 14 4.66669 14 8.00002C14 11.3334 11.3334 14 8.00002 14ZM8.86669 11.2C8.93335 11.3334 8.93335 11.4667 8.93335 11.6C8.93335 11.8667 8.80002 12.1334 8.66669 12.3334C8.46669 12.5334 8.20002 12.6 7.93335 12.6C7.66669 12.6 7.40002 12.4667 7.20002 12.3334C7.00002 12.1334 6.93335 11.8667 6.93335 11.6C6.93335 11.3334 7.06669 11.0667 7.20002 10.8667C7.40002 10.6667 7.66669 10.5334 7.93335 10.5334C8.33335 10.6 8.66669 10.8 8.86669 11.2ZM10.6667 6.20002C10.6667 6.93335 10.3334 7.46669 9.73335 7.93335C9.60002 8.06669 9.40002 8.13335 9.26669 8.26669L8.86669 8.53335C8.66669 8.66669 8.60002 8.73335 8.60002 8.73335C8.53335 8.80002 8.53335 8.86669 8.53335 8.93335C8.53335 9.06669 8.46669 9.20002 8.46669 9.40002V9.60002V9.66669C8.40002 9.80002 8.26669 9.93335 8.13335 10C8.00002 10.0667 7.93335 10.0667 7.86669 10.0667H7.80002C7.73335 10.0667 7.73335 10.0667 7.66669 10.0667C7.53335 10 7.40002 9.93335 7.33335 9.86669C7.26669 9.73335 7.13335 9.60002 7.13335 9.40002C7.06669 9.20002 7.00002 9.06669 7.00002 8.86669C7.00002 8.66669 7.06669 8.46669 7.13335 8.33335C7.20002 8.20002 7.33335 8.06669 7.46669 7.93335C7.60002 7.80002 7.73335 7.73335 7.86669 7.66669L8.26669 7.46669C8.66669 7.26669 8.80002 7.13335 8.86669 7.06669C9.06669 6.86669 9.13335 6.60002 9.13335 6.33335C9.13335 6.06669 9.06669 5.80002 8.86669 5.66669C8.53335 5.33335 8.26669 5.26669 8.00002 5.26669C7.26669 5.26669 7.06669 5.60002 7.06669 5.86669C6.93335 6.20002 6.93335 6.26669 6.93335 6.26669V6.40002C6.93335 6.46669 6.93335 6.46669 6.93335 6.53335L7.00002 6.80002L6.80002 6.86669C6.40002 7.06669 6.06669 7.06669 5.80002 6.93335C5.73335 6.86669 5.60002 6.73335 5.53335 6.66669C5.40002 6.46669 5.33335 6.26669 5.33335 6.00002C5.33335 5.73335 5.40002 5.53335 5.46669 5.33335C5.53335 5.13335 5.66669 5.00002 5.80002 4.86669C5.93335 4.73335 6.06669 4.60002 6.26669 4.46669C6.46669 4.40002 6.66669 4.26669 6.86669 4.20002C7.66669 3.93335 8.46669 3.93335 9.06669 4.06669C9.40002 4.13335 9.66669 4.26669 9.93335 4.40002C10.4 4.86669 10.6667 5.40002 10.6667 6.20002Z" />
</g>
<defs>
<clipPath id="clip0_21248_353340">
<rect width="16" height="16" fill="white"/>
</clipPath>
</defs>
</svg>
