<svg width="40" height="40" viewBox="0 0 40 40" xmlns="http://www.w3.org/2000/svg">
<path d="M31.45 3.5H8.55C4.11 3.5 0.5 7.11 0.5 11.55V25.55C0.5 28.73 2.39 31.57 5.19 32.86C4.82 33.58 4.67 34.39 4.8 35.2C4.96 36.21 5.5 37.09 6.32 37.69C6.98 38.17 7.76 38.42 8.56 38.42C8.76 38.42 8.96 38.4 9.16 38.37C10.17 38.21 11.05 37.67 11.65 36.85L17.99 28.14C19.19 28.41 20.43 28.46 21.65 28.26C24.2 27.86 26.45 26.48 27.97 24.39C29.49 22.3 30.11 19.74 29.7 17.19C29.45 15.59 28.8 14.07 27.81 12.8C27.52 12.43 27.05 12.23 26.6 12.22C26.13 12.22 25.69 12.46 25.41 12.84L22.15 17.31C21.89 17.67 21.38 17.75 21.01 17.49C20.83 17.36 20.72 17.17 20.68 16.96C20.65 16.75 20.7 16.53 20.83 16.35L24.09 11.87C24.37 11.49 24.45 11 24.31 10.54C24.17 10.09 23.83 9.73 23.38 9.57C21.86 9.03 20.22 8.87 18.62 9.13C16.07 9.53 13.82 10.91 12.3 13C10.78 15.09 10.16 17.65 10.57 20.2C10.76 21.42 11.19 22.59 11.81 23.64L6.95 30.32C4.92 29.65 3.49 27.73 3.49 25.55V11.55C3.49 8.77 5.75 6.5 8.54 6.5H31.45C34.23 6.5 36.5 8.76 36.5 11.55V25.55C36.5 28.33 34.24 30.59 31.45 30.59H27.5V34L22.95 30.59H18.25C17.42 30.59 16.75 31.26 16.75 32.09C16.75 32.92 17.42 33.59 18.25 33.59H21.95L30.5 40V33.59H31.45C35.89 33.59 39.5 29.98 39.5 25.55V11.55C39.5 7.11 35.89 3.5 31.45 3.5ZM14.87 24.56C15.26 24.02 15.25 23.29 14.85 22.76C14.17 21.88 13.72 20.83 13.55 19.73C13.27 17.97 13.7 16.2 14.75 14.76C15.8 13.32 17.35 12.37 19.11 12.09C19.46 12.04 19.8 12.01 20.15 12.01C20.2 12.01 20.24 12.01 20.29 12.01L18.42 14.58C17.82 15.4 17.58 16.41 17.74 17.42C17.9 18.43 18.44 19.31 19.26 19.91C20.08 20.51 21.09 20.75 22.1 20.59C23.11 20.43 23.99 19.89 24.59 19.07L26.46 16.5C26.59 16.87 26.68 17.26 26.75 17.65C27.03 19.41 26.6 21.18 25.55 22.62C24.5 24.06 22.95 25.01 21.19 25.29C20.09 25.46 18.95 25.36 17.91 24.98C17.28 24.76 16.58 24.98 16.19 25.51L9.23 35.07C9.1 35.25 8.91 35.36 8.7 35.4C8.48 35.43 8.27 35.38 8.09 35.25C7.91 35.12 7.8 34.93 7.76 34.72C7.73 34.51 7.78 34.29 7.91 34.11L14.87 24.55V24.56Z" />
</svg>
