<svg width="24" height="24" viewBox="0 0 24 24" xmlns="http://www.w3.org/2000/svg">
<path d="M20 8H19V1H5V8H4V13H5V13.14C5 14.72 6.28 16 7.86 16C8.2 16 8.41 16.19 8.51 16.3C8.61 16.41 8.76 16.65 8.71 16.98L8.44 18.89C8.29 19.92 8.6 20.97 9.28 21.76C9.96 22.55 10.96 23 12 23C13.04 23 14.04 22.55 14.72 21.76C15.4 20.97 15.71 19.93 15.57 18.89L15.3 16.98C15.25 16.64 15.41 16.41 15.5 16.3C15.59 16.19 15.81 16 16.15 16C17.73 16 19.01 14.72 19.01 13.14V13H20.01V8H20ZM18 11H6V10H18V11ZM7 3H11V5H13V3H14V6H16V3H17V8H7V3ZM17 13.14C17 13.61 16.62 14 16.14 14C15.31 14 14.52 14.36 13.98 14.98C13.44 15.61 13.19 16.44 13.31 17.26L13.58 19.17C13.65 19.64 13.51 20.09 13.2 20.45C12.59 21.15 11.39 21.15 10.78 20.45C10.47 20.09 10.34 19.64 10.4 19.17L10.67 17.26C10.79 16.44 10.54 15.61 10 14.98C9.46 14.35 8.67 13.99 7.84 13.99C7.37 13.99 6.98 13.61 6.98 13.13V12.99H16.98V13.13L17 13.14ZM11 19C11 18.45 11.45 18 12 18C12.55 18 13 18.45 13 19C13 19.55 12.55 20 12 20C11.45 20 11 19.55 11 19Z" />
</svg>
