<svg width="24" height="24" viewBox="0 0 24 24" xmlns="http://www.w3.org/2000/svg">
<path d="M18 14.59L16.59 16L18.59 18H7.82C7.79 17.9 7.75 17.81 7.7 17.71L17.71 7.7C18.1 7.89 18.53 8 19 8C20.65 8 22 6.65 22 5C22 3.35 20.65 2 19 2C17.7 2 16.6 2.84 16.18 4H7.82C7.41 2.84 6.31 2 5 2C3.35 2 2 3.35 2 5C2 6.65 3.35 8 5 8C6.3 8 7.4 7.16 7.82 6H16.19C16.22 6.1 16.26 6.19 16.31 6.29L6.29 16.3C5.9 16.11 5.47 16 5 16C3.35 16 2 17.35 2 19C2 20.65 3.35 22 5 22C6.3 22 7.4 21.16 7.82 20H18.59L16.59 22L18 23.41L22.41 19L18 14.59ZM19 4C19.55 4 20 4.45 20 5C20 5.55 19.55 6 19 6C18.45 6 18 5.55 18 5C18 4.45 18.45 4 19 4ZM5 6C4.45 6 4 5.55 4 5C4 4.45 4.45 4 5 4C5.55 4 6 4.45 6 5C6 5.55 5.55 6 5 6ZM5 20C4.45 20 4 19.55 4 19C4 18.45 4.45 18 5 18C5.55 18 6 18.45 6 19C6 19.55 5.55 20 5 20Z" />
</svg>
