<svg width="24" height="24" viewBox="0 0 24 24" xmlns="http://www.w3.org/2000/svg">
<path d="M20.01 14.98H22.01V17.98C22.01 19.08 21.11 19.98 20.01 19.98H12.42L8.71 23.69C8.52 23.88 8.26 23.98 8 23.98C7.87 23.98 7.74 23.96 7.62 23.9C7.25 23.75 7 23.38 7 22.98V19.98H4C2.9 19.98 2 19.08 2 17.98V3.98C2 2.88 2.9 1.98 4 1.98H8V3.98H4.01V17.98H8.01C8.56 17.98 9.01 18.43 9.01 18.98V20.57L11.3 18.28C11.49 18.09 11.74 17.99 12.01 17.99H20.01V14.99V14.98ZM23.01 7.48C23.01 8.39 22.43 9.16 21.62 9.44C21.51 9.77 21.38 10.09 21.22 10.4C21.59 11.17 21.46 12.13 20.82 12.78C20.43 13.17 19.9 13.39 19.35 13.39C19.03 13.39 18.73 13.32 18.45 13.18C18.14 13.34 17.82 13.47 17.49 13.58C17.2 14.39 16.43 14.97 15.53 14.97C14.63 14.97 13.85 14.39 13.57 13.58C13.24 13.47 12.92 13.34 12.61 13.18C11.85 13.55 10.85 13.39 10.23 12.77C9.84 12.38 9.62 11.85 9.62 11.3C9.62 10.98 9.69 10.67 9.83 10.4C9.67 10.09 9.54 9.77 9.43 9.44C8.62 9.15 8.04 8.38 8.04 7.48C8.04 6.58 8.62 5.8 9.43 5.52C9.54 5.19 9.67 4.87 9.83 4.56C9.7 4.28 9.62 3.97 9.62 3.66C9.62 3.1 9.84 2.58 10.23 2.19C10.87 1.55 11.83 1.41 12.61 1.79C12.92 1.63 13.24 1.5 13.57 1.39C13.86 0.58 14.63 0 15.53 0C16.43 0 17.21 0.58 17.49 1.39C17.82 1.5 18.14 1.63 18.45 1.79C19.22 1.42 20.18 1.55 20.83 2.19C21.47 2.83 21.61 3.79 21.24 4.57C21.4 4.88 21.53 5.2 21.64 5.53C22.45 5.82 23.03 6.59 23.03 7.49L23.01 7.48ZM21.01 7.48C21.01 7.48 20.97 7.4 20.93 7.4H20L19.84 6.6C19.73 6.05 19.51 5.53 19.19 5.05L18.74 4.37L19.4 3.71C19.4 3.71 19.43 3.62 19.4 3.59C19.37 3.56 19.32 3.56 19.28 3.59L18.62 4.25L17.94 3.8C17.46 3.48 16.94 3.27 16.39 3.15L15.59 2.99V2.06C15.59 1.97 15.42 1.97 15.42 2.06V2.99L14.62 3.15C14.07 3.26 13.55 3.48 13.07 3.8L12.39 4.25L11.73 3.59C11.73 3.59 11.65 3.56 11.61 3.59V3.71L12.26 4.37L11.81 5.05C11.49 5.53 11.28 6.05 11.16 6.6L11 7.4H10.07C10.07 7.4 9.99 7.44 9.99 7.48C9.99 7.52 10.03 7.56 10.07 7.56H11L11.16 8.36C11.27 8.91 11.49 9.43 11.81 9.91L12.26 10.59L11.61 11.25V11.37H11.73L12.39 10.72L13.07 11.17C13.55 11.49 14.07 11.71 14.62 11.82L15.42 11.98V12.91C15.42 13 15.59 13 15.59 12.91V11.98L16.39 11.82C16.94 11.71 17.46 11.49 17.94 11.17L18.62 10.72L19.28 11.38H19.4C19.4 11.38 19.43 11.3 19.4 11.26L18.74 10.6L19.19 9.92C19.51 9.44 19.72 8.92 19.84 8.37L20 7.57H20.93C20.93 7.57 21.01 7.53 21.01 7.49V7.48ZM15.51 4.98C14.13 4.98 13.01 6.1 13.01 7.48C13.01 8.86 14.13 9.98 15.51 9.98C16.89 9.98 18.01 8.86 18.01 7.48C18.01 6.1 16.89 4.98 15.51 4.98Z" />
</svg>
