<svg width="24" height="24" viewBox="0 0 24 24" xmlns="http://www.w3.org/2000/svg">
<path d="M10.97 12.84C10.97 12.84 11.03 12.92 11.06 12.95C11.08 12.97 11.1 12.98 11.12 13C12.38 14.24 14.11 15 16.01 15C19.87 15 23.01 11.86 23.01 8C23.01 6.12 22.26 4.42 21.05 3.16C21.02 3.12 20.99 3.08 20.96 3.05C20.93 3.02 20.88 2.98 20.84 2.95C19.58 1.75 17.88 1 16.01 1C12.15 1 9.01 4.14 9.01 8C9.01 9.88 9.76 11.58 10.97 12.84ZM12.93 6.33C12.18 7.18 11.56 8.09 11.11 8.98C11.05 8.66 11.01 8.34 11.01 8C11.01 6.98 11.32 6.04 11.84 5.25L12.92 6.33H12.93ZM19.33 4.43C19.45 4.43 19.51 4.45 19.54 4.46C19.58 4.53 19.66 4.93 19.29 5.8C18.95 6.59 18.37 7.45 17.68 8.25L15.76 6.33C16.56 5.63 17.42 5.06 18.21 4.72C18.76 4.48 19.12 4.43 19.33 4.43ZM21.01 8C21.01 9.02 20.7 9.96 20.18 10.75L19.1 9.67C19.85 8.82 20.47 7.91 20.92 7.02C20.98 7.34 21.02 7.66 21.02 8H21.01ZM16.27 9.67C15.47 10.37 14.61 10.94 13.82 11.28C12.95 11.65 12.55 11.58 12.49 11.54C12.45 11.47 12.37 11.07 12.74 10.2C13.08 9.41 13.66 8.55 14.35 7.75L16.27 9.67ZM15.03 12.9C15.92 12.46 16.83 11.83 17.68 11.08L18.76 12.16C17.97 12.68 17.02 12.99 16.01 12.99C15.68 12.99 15.35 12.95 15.03 12.89V12.9ZM16.99 3.1C16.1 3.54 15.19 4.17 14.34 4.92L13.26 3.84C14.05 3.32 15 3.01 16.01 3.01C16.34 3.01 16.67 3.05 16.99 3.11V3.1ZM20.01 15H22.01V18C22.01 19.1 21.11 20 20.01 20H12.42L8.71 23.71C8.52 23.9 8.26 24 8 24C7.87 24 7.74 23.98 7.62 23.92C7.25 23.77 7 23.4 7 23V20H5C3.35 20 2 18.65 2 17V5C2.01 3.35 3.36 2 5.01 2H9.01V4H5.01C4.46 4 4.01 4.45 4.01 5V17C4.01 17.55 4.46 18 5.01 18H8.01C8.56 18 9.01 18.45 9.01 19V20.59L11.3 18.3C11.49 18.11 11.74 18.01 12.01 18.01H20.01V15.01V15Z"/>
</svg>
