<svg width="24" height="24" viewBox="0 0 24 24" xmlns="http://www.w3.org/2000/svg">
<path d="M12 1C5.92 1 1 5.92 1 12C1 18.08 5.92 23 12 23C18.08 23 23 18.08 23 12C23 5.92 18.08 1 12 1ZM12 21C7.04 21 3 16.96 3 12C3 7.04 7.04 3 12 3C16.96 3 21 7.04 21 12C21 16.96 16.96 21 12 21ZM16.91 10.25L10.97 6.95C10.35 6.6 9.6 6.61 8.99 6.97C8.37 7.33 8 7.98 8 8.69V15.29C8 16.01 8.37 16.65 8.99 17.01C9.31 17.2 9.65 17.29 10 17.29C10.35 17.29 10.67 17.21 10.97 17.04L16.91 13.74C17.54 13.39 17.94 12.72 17.94 11.99C17.94 11.26 17.55 10.59 16.91 10.24V10.25ZM10 15.3V8.7L15.94 12L10 15.3Z" />
</svg>
