<svg width="24" height="24" viewBox="0 0 24 24" xmlns="http://www.w3.org/2000/svg">
<path d="M21.98 11.0038C21.99 10.8337 22 10.6737 22 10.5036C22 6.3616 18.64 3 14.5 3C11.66 3 9.14 4.58075 7.87 7.00191C4.78 7.07194 2.26 9.48309 2.02 12.5245C0.82 13.2149 0 14.5155 0 15.9962C0 18.2072 1.79 19.9981 4 19.9981H10V17.9971H4C2.9 17.9971 2 17.0967 2 15.9962C2 14.8957 2.9 13.9952 4 13.9952H4.14C4.06 13.6751 4 13.3449 4 12.9948C4 10.7837 5.79 8.99285 8 8.99285C8.41 8.99285 8.79 9.07289 9.16 9.18294C9.75 6.7818 11.91 4.99095 14.5 4.99095C17.54 4.99095 20 7.45212 20 10.4936C20 11.0538 19.92 11.5941 19.76 12.1043C21.05 12.4445 22 13.6051 22 14.9957C22 16.6565 20.66 17.9971 19 17.9971H14V13.405L17 16.4064L18.41 14.9957L13 9.58314L7.59 14.9957L9 16.4064L12 13.405V24H14V19.9981H19C21.76 19.9981 24 17.757 24 14.9957C24 13.3849 23.22 11.9142 21.98 10.9938V11.0038Z" />
</svg>
