<svg width="24" height="24" viewBox="0 0 24 24" xmlns="http://www.w3.org/2000/svg">
<path d="M12.01 2.99297C11.8 2.99297 11.59 3.02297 11.37 3.04297L12.71 1.70297L11.3 0.292969L7.59 4.00297L11.3 7.71297L12.71 6.30297L11.46 5.05297C11.64 5.04297 11.82 5.01297 12 5.01297C15.86 5.01297 19 8.15297 19 12.013C19 15.873 15.86 19.013 12 19.013C8.14 19.013 5 15.873 5 12.013C5 11.463 4.55 11.013 4 11.013C3.45 11.013 3 11.463 3 12.013C3 16.973 7.04 21.013 12 21.013C16.96 21.013 21 16.973 21 12.013C21 7.05297 16.97 2.99297 12.01 2.99297Z" />
</svg>
