<svg width="16" height="16" viewBox="0 0 16 16" xmlns="http://www.w3.org/2000/svg">
<path d="M6.8 2C6.4 0.8 5.3 0 4 0C2.3 0 1 1.3 1 3C1 4.7 2.3 6 4 6C5.3 6 6.4 5.2 6.8 4H15V2H6.8ZM4 4C3.4 4 3 3.6 3 3C3 2.4 3.4 2 4 2C4.6 2 5 2.4 5 3C5 3.6 4.6 4 4 4ZM12 5C10.7 5 9.6 5.8 9.2 7H1V9H9.2C9.6 10.2 10.7 11 12 11C13.7 11 15 9.7 15 8C15 6.3 13.7 5 12 5ZM12 9C11.4 9 11 8.6 11 8C11 7.4 11.4 7 12 7C12.6 7 13 7.4 13 8C13 8.6 12.6 9 12 9ZM6 10C4.7 10 3.6 10.8 3.2 12H1V14H3.2C3.6 15.2 4.7 16 6 16C7.3 16 8.4 15.2 8.8 14H15V12H8.8C8.4 10.8 7.3 10 6 10ZM6 14C5.4 14 5 13.6 5 13C5 12.4 5.4 12 6 12C6.6 12 7 12.4 7 13C7 13.6 6.6 14 6 14Z" />
</svg>
