<svg width="24" height="24" viewBox="0 0 24 24" xmlns="http://www.w3.org/2000/svg">
<path d="M9.9 4C9.4 2.3 7.9 1 6 1C3.8 1 2 2.8 2 5C2 7.2 3.8 9 6 9C7.9 9 9.4 7.7 9.9 6H22V4H9.9ZM6 7C4.9 7 4 6.1 4 5C4 3.9 4.9 3 6 3C7.1 3 8 3.9 8 5C8 6.1 7.1 7 6 7ZM9 15C7.1 15 5.6 16.3 5.1 18H2V20H5.1C5.5 21.7 7.1 23 9 23C10.9 23 12.4 21.7 12.9 20H22V18H12.9C12.4 16.3 10.9 15 9 15ZM9 21C7.9 21 7 20.1 7 19C7 17.9 7.9 17 9 17C10.1 17 11 17.9 11 19C11 20.1 10.1 21 9 21ZM18 8C16.1 8 14.6 9.3 14.1 11H2V13H14.1C14.5 14.7 16.1 16 18 16C20.2 16 22 14.2 22 12C22 9.8 20.2 8 18 8ZM18 14C16.9 14 16 13.1 16 12C16 10.9 16.9 10 18 10C19.1 10 20 10.9 20 12C20 13.1 19.1 14 18 14Z" />
</svg>
