<svg xmlns="http://www.w3.org/2000/svg" width="20" height="20" viewBox="0 0 20 20">
  <path d="M2.67969 18.2148L2.75488 18.2266L2.875 18.2441C2.91594 18.2482 2.95765 18.25 3 18.25H3.4375L3.51465 18.2539C3.89262 18.2925 4.1875 18.6118 4.1875 19C4.1875 19.3882 3.89262 19.7075 3.51465 19.7461L3.4375 19.75H3C2.90855 19.75 2.818 19.7451 2.72852 19.7363L2.46387 19.6973L2.38965 19.6787C2.02615 19.5676 1.79867 19.1973 1.87402 18.8164C1.94941 18.4353 2.30108 18.1789 2.67969 18.2148ZM6.9375 18.25L7.01465 18.2539C7.39262 18.2925 7.6875 18.6118 7.6875 19C7.6875 19.3882 7.39262 19.7075 7.01465 19.7461L6.9375 19.75H6.0625C5.64829 19.75 5.3125 19.4142 5.3125 19C5.3125 18.5858 5.64829 18.25 6.0625 18.25H6.9375ZM10.4375 18.25L10.5146 18.2539C10.8926 18.2925 11.1875 18.6118 11.1875 19C11.1875 19.3882 10.8926 19.7075 10.5146 19.7461L10.4375 19.75H9.5625C9.14829 19.75 8.8125 19.4142 8.8125 19C8.8125 18.5858 9.14829 18.25 9.5625 18.25H10.4375ZM13.9375 18.25L14.0146 18.2539C14.3926 18.2925 14.6875 18.6118 14.6875 19C14.6875 19.3882 14.3926 19.7075 14.0146 19.7461L13.9375 19.75H13.0625C12.6483 19.75 12.3125 19.4142 12.3125 19C12.3125 18.5858 12.6483 18.25 13.0625 18.25H13.9375ZM17.2451 18.2266C17.6514 18.1463 18.0456 18.4102 18.126 18.8164C18.2063 19.2226 17.9423 19.6167 17.5361 19.6973C17.3622 19.7317 17.1827 19.75 17 19.75H16.5625C16.1483 19.75 15.8125 19.4142 15.8125 19C15.8125 18.5858 16.1483 18.25 16.5625 18.25H17C17.0844 18.25 17.1666 18.2421 17.2451 18.2266ZM0.25 17V16.5625C0.25 16.1483 0.585786 15.8125 1 15.8125C1.41421 15.8125 1.75 16.1483 1.75 16.5625V17C1.75 17.0424 1.75183 17.0841 1.75586 17.125L1.77344 17.2451L1.78516 17.3203C1.8211 17.6989 1.56467 18.0506 1.18359 18.126C0.802683 18.2013 0.432391 17.9739 0.321289 17.6104L0.302734 17.5361L0.263672 17.2715C0.254872 17.182 0.25 17.0914 0.25 17ZM18.25 17V16.5625C18.25 16.1483 18.5858 15.8125 19 15.8125C19.4142 15.8125 19.75 16.1483 19.75 16.5625V17C19.75 17.1827 19.7317 17.3622 19.6973 17.5361C19.6167 17.9423 19.2226 18.2063 18.8164 18.126C18.4102 18.0456 18.1463 17.6514 18.2266 17.2451C18.2421 17.1666 18.25 17.0844 18.25 17ZM0.25 13.9375V13.0625C0.25 12.6483 0.585786 12.3125 1 12.3125C1.41421 12.3125 1.75 12.6483 1.75 13.0625V13.9375C1.75 14.3517 1.41421 14.6875 1 14.6875C0.585786 14.6875 0.25 14.3517 0.25 13.9375ZM18.25 13.9375V13.0625C18.25 12.6483 18.5858 12.3125 19 12.3125C19.4142 12.3125 19.75 12.6483 19.75 13.0625V13.9375C19.75 14.3517 19.4142 14.6875 19 14.6875C18.5858 14.6875 18.25 14.3517 18.25 13.9375ZM0.25 10.4375V9.5625C0.25 9.14829 0.585786 8.8125 1 8.8125C1.41421 8.8125 1.75 9.14829 1.75 9.5625V10.4375C1.75 10.8517 1.41421 11.1875 1 11.1875C0.585786 11.1875 0.25 10.8517 0.25 10.4375ZM18.25 10.4375V9.5625C18.25 9.14829 18.5858 8.8125 19 8.8125C19.4142 8.8125 19.75 9.14829 19.75 9.5625V10.4375C19.75 10.8517 19.4142 11.1875 19 11.1875C18.5858 11.1875 18.25 10.8517 18.25 10.4375ZM0.25 6.9375V6.0625C0.25 5.64829 0.585786 5.3125 1 5.3125C1.41421 5.3125 1.75 5.64829 1.75 6.0625V6.9375C1.75 7.35171 1.41421 7.6875 1 7.6875C0.585786 7.6875 0.25 7.35171 0.25 6.9375ZM18.25 6.9375V6.0625C18.25 5.64829 18.5858 5.3125 19 5.3125C19.4142 5.3125 19.75 5.64829 19.75 6.0625V6.9375C19.75 7.35171 19.4142 7.6875 19 7.6875C18.5858 7.6875 18.25 7.35171 18.25 6.9375ZM0.25 3.4375V3C0.25 2.8173 0.268328 2.63779 0.302734 2.46387C0.383266 2.05772 0.777367 1.79366 1.18359 1.87402C1.58985 1.95439 1.85366 2.34864 1.77344 2.75488C1.7579 2.83345 1.75 2.91556 1.75 3V3.4375C1.75 3.85171 1.41421 4.1875 1 4.1875C0.585786 4.1875 0.25 3.85171 0.25 3.4375ZM18.25 3.4375V3C18.25 2.95765 18.2482 2.91594 18.2441 2.875L18.2266 2.75488L18.2148 2.67969C18.1789 2.30108 18.4353 1.94941 18.8164 1.87402C19.1973 1.79867 19.5676 2.02615 19.6787 2.38965L19.6973 2.46387L19.7363 2.72852C19.7451 2.818 19.75 2.90855 19.75 3V3.4375C19.75 3.85171 19.4142 4.1875 19 4.1875C18.5858 4.1875 18.25 3.85171 18.25 3.4375ZM3.4375 0.25L3.51465 0.253906C3.89262 0.292528 4.1875 0.611834 4.1875 1C4.1875 1.38817 3.89262 1.70747 3.51465 1.74609L3.4375 1.75H3C2.95765 1.75 2.91594 1.75183 2.875 1.75586L2.75488 1.77344C2.34864 1.85366 1.95439 1.58985 1.87402 1.18359C1.79366 0.777367 2.05772 0.383266 2.46387 0.302734L2.72852 0.263672C2.818 0.254872 2.90855 0.25 3 0.25H3.4375ZM17 0.25C17.0914 0.25 17.182 0.254872 17.2715 0.263672L17.5361 0.302734L17.6104 0.321289C17.9739 0.432391 18.2013 0.802682 18.126 1.18359C18.0506 1.56467 17.6989 1.8211 17.3203 1.78516L17.2451 1.77344L17.125 1.75586C17.0841 1.75183 17.0424 1.75 17 1.75H16.5625C16.1483 1.75 15.8125 1.41421 15.8125 1C15.8125 0.585786 16.1483 0.25 16.5625 0.25H17ZM6.9375 0.25C7.35171 0.25 7.6875 0.585786 7.6875 1C7.6875 1.41421 7.35171 1.75 6.9375 1.75H6.0625C5.64829 1.75 5.3125 1.41421 5.3125 1C5.3125 0.585786 5.64829 0.25 6.0625 0.25H6.9375ZM10.4375 0.25C10.8517 0.25 11.1875 0.585786 11.1875 1C11.1875 1.41421 10.8517 1.75 10.4375 1.75H9.5625C9.14829 1.75 8.8125 1.41421 8.8125 1C8.8125 0.585786 9.14829 0.25 9.5625 0.25H10.4375ZM13.9375 0.25C14.3517 0.25 14.6875 0.585786 14.6875 1C14.6875 1.41421 14.3517 1.75 13.9375 1.75H13.0625C12.6483 1.75 12.3125 1.41421 12.3125 1C12.3125 0.585786 12.6483 0.25 13.0625 0.25H13.9375Z"/>
</svg>