<svg width="16" height="16" viewBox="0 0 16 16" xmlns="http://www.w3.org/2000/svg">
<path d="M13.3333 1.33331H2.66659C1.93325 1.33331 1.33325 1.93331 1.33325 2.66665V3.99998C1.33325 4.73331 1.93325 5.33331 2.66659 5.33331V13.3333C2.66659 14.0666 3.26659 14.6666 3.99992 14.6666H13.3333C14.0666 14.6666 14.6666 14.0666 14.6666 13.3333V5.33331V3.99998V2.66665C14.6666 1.93331 14.0666 1.33331 13.3333 1.33331ZM13.3333 13.3333H3.99992V5.33331H13.3333V13.3333ZM2.66659 3.99998V2.66665H13.3333V3.99998H2.66659ZM11.9999 7.99998H5.33325V6.66665H11.9999V7.99998ZM11.9999 10.6666H5.33325V9.33331H11.9999V10.6666Z" />
</svg>
