<svg width="16" height="16" viewBox="0 0 16 16" xmlns="http://www.w3.org/2000/svg">
<g clip-path="url(#clip0_22761_58144)">
<path d="M8 4.53333L8.6 6.46666L8.86667 7.4H9.86667H11.8667L10.2667 8.6L9.46667 9.2L9.73333 10.1333L10.3333 12.0667L8.73333 10.8667L8 10.2L7.2 10.8L5.6 12L6.2 10.0667L6.46667 9.13333L5.66667 8.53333L4.06667 7.33333H6.06667H7.06667L7.33333 6.4L8 4.53333ZM8 0.199997L6.13333 6H0L4.93333 9.6L3.06667 15.4L8 11.8L12.9333 15.4L11.0667 9.6L16 6H9.86667L8 0.199997Z" />
</g>
<defs>
<clipPath id="clip0_22761_58144">
<rect width="16" height="16" fill="white"/>
</clipPath>
</defs>
</svg>
