<svg width="16" height="16" viewBox="0 0 16 16" xmlns="http://www.w3.org/2000/svg">
<path d="M13.3333 0.333333C12.9333 0.133333 12.4667 0 11.8667 0C10.6 0 9.53333 0.533333 8.66667 1.53333C7.66667 2.73333 6.73333 4.73333 6 7.66667H4.13333L3.86667 8.66667H5.66667L5.53333 9.33333C5.46667 9.6 5.4 9.93333 5.26667 10.4667C5.13333 10.9333 5.06667 11.4 5 11.7333C4.53333 13.7333 4.06667 14.6 3.73333 14.9333C3.73333 14.7333 3.66667 14.5333 3.46667 14.4C3.13333 14.2 2.53333 14.1333 2.2 14.5333C2.06667 14.6667 2 14.9333 2 15.1333C2 15.4 2.06667 15.6 2.26667 15.7333C2.46667 15.9333 2.8 16 3.2 16C3.6 16 4 15.9333 4.33333 15.7333C5.26667 15.3333 6 14.4667 6.53333 13.0667C6.8 12.3333 7.2 11.1333 7.6 9.4L7.8 8.6H10.0667L10.3333 7.6H8.06667C8.73333 4.8 9.46667 2.8 10.2 1.8C10.4 1.53333 10.6 1.33333 10.8 1.2C11.0667 1 11.2 1 11.3333 1C11.4667 1 11.6 1 11.8 1.06667C11.6667 1.26667 11.6667 1.46667 11.6667 1.66667C11.6667 1.93333 11.8 2.2 12 2.4C12.4667 2.73333 13.2 2.73333 13.6667 2.4C13.8667 2.13333 14 1.86667 14 1.53333C14 1 13.8 0.6 13.3333 0.333333Z" />
</svg>
