<svg width="16" height="16" viewBox="0 0 16 16" xmlns="http://www.w3.org/2000/svg">
<path d="M13.3333 0.666656H2.66659C1.93325 0.666656 1.33325 1.26666 1.33325 1.99999V5.99999C1.33325 6.73332 1.93325 7.33332 2.66659 7.33332H13.3333C14.0666 7.33332 14.6666 6.73332 14.6666 5.99999V1.99999C14.6666 1.26666 14.0666 0.666656 13.3333 0.666656ZM13.3333 5.99999H2.66659V1.99999H13.3333V5.99999ZM9.33325 4.66666H3.99992V3.33332H9.33325V4.66666ZM13.3333 8.66666H2.66659C1.93325 8.66666 1.33325 9.26666 1.33325 9.99999V14C1.33325 14.7333 1.93325 15.3333 2.66659 15.3333H13.3333C14.0666 15.3333 14.6666 14.7333 14.6666 14V9.99999C14.6666 9.26666 14.0666 8.66666 13.3333 8.66666ZM13.3333 14H2.66659V9.99999H13.3333V14ZM9.33325 12.6667H3.99992V11.3333H9.33325V12.6667Z" />
</svg>
