<svg width="16" height="16" viewBox="0 0 16 16" xmlns="http://www.w3.org/2000/svg">
<path d="M11.3333 3.33331H2.66659C1.93325 3.33331 1.33325 3.93331 1.33325 4.66665V13.3333C1.33325 14.0666 1.93325 14.6666 2.66659 14.6666H11.3333C12.0666 14.6666 12.6666 14.0666 12.6666 13.3333V4.66665C12.6666 3.93331 12.0666 3.33331 11.3333 3.33331ZM11.3333 13.3333H2.66659V4.66665H11.3333V13.3333ZM3.99992 7.33331C3.99992 6.59998 4.59992 5.99998 5.33325 5.99998C6.06659 5.99998 6.66658 6.59998 6.66658 7.33331C6.66658 8.06665 6.06659 8.66665 5.33325 8.66665C4.59992 8.66665 3.99992 8.06665 3.99992 7.33331ZM10.6666 12.6666H3.33325L10.6666 9.33331V12.6666ZM14.6666 2.66665V11.3333C14.6666 12.0666 14.0666 12.6666 13.3333 12.6666V11.3333V2.66665H4.66658H3.33325C3.33325 1.93331 3.93325 1.33331 4.66658 1.33331H13.3333C14.0666 1.33331 14.6666 1.93331 14.6666 2.66665Z" />
</svg>
