<svg width="16" height="16" viewBox="0 0 16 16" xmlns="http://www.w3.org/2000/svg">
<path d="M14.6666 4.66669V4.00002C14.6666 3.26669 14.0666 2.66669 13.3333 2.66669H10.6666C9.93325 2.66669 9.33325 3.26669 9.33325 4.00002V4.66669C9.33325 5.40002 9.93325 6.00002 10.6666 6.00002H13.3333C14.0666 6.00002 14.6666 5.40002 14.6666 4.66669ZM13.3333 4.66669H10.6666V4.00002H13.3333V4.66669ZM1.33325 4.00002V4.66669C1.33325 5.40002 1.93325 6.00002 2.66659 6.00002H7.33325C8.06659 6.00002 8.66658 5.40002 8.66658 4.66669V4.00002C8.66658 3.26669 8.06659 2.66669 7.33325 2.66669H2.66659C1.93325 2.66669 1.33325 3.26669 1.33325 4.00002ZM2.66659 4.00002H7.33325V4.66669H2.66659V4.00002ZM5.99992 8.00002V8.66669C5.99992 9.40002 6.59992 10 7.33325 10H13.3333C14.0666 10 14.6666 9.40002 14.6666 8.66669V8.00002C14.6666 7.26669 14.0666 6.66669 13.3333 6.66669H7.33325C6.59992 6.66669 5.99992 7.26669 5.99992 8.00002ZM7.33325 8.00002H13.3333V8.66669H7.33325V8.00002ZM1.33325 12V12.6667C1.33325 13.4 1.93325 14 2.66659 14H9.99992C10.7333 14 11.3333 13.4 11.3333 12.6667V12C11.3333 11.2667 10.7333 10.6667 9.99992 10.6667H2.66659C1.93325 10.6667 1.33325 11.2667 1.33325 12ZM2.66659 12H9.99992V12.6667H2.66659V12ZM1.33325 8.00002V8.66669C1.33325 9.40002 1.93325 10 2.66659 10H3.99992C4.73325 10 5.33325 9.40002 5.33325 8.66669V8.00002C5.33325 7.26669 4.73325 6.66669 3.99992 6.66669H2.66659C1.93325 6.66669 1.33325 7.26669 1.33325 8.00002ZM2.66659 8.00002H3.99992V8.66669H2.66659V8.00002Z" />
</svg>
