<svg width="16" height="16" viewBox="0 0 16 16" xmlns="http://www.w3.org/2000/svg">
<g clip-path="url(#clip0_22761_58174)">
<path d="M4.66675 2.66666C4.66675 3.79999 3.80008 4.66666 2.66675 4.66666C1.53341 4.66666 0.666748 3.79999 0.666748 2.66666C0.666748 1.53332 1.53341 0.666656 2.66675 0.666656C3.80008 0.666656 4.66675 1.53332 4.66675 2.66666ZM10.0001 2.66666C10.0001 3.79999 9.13342 4.66666 8.00008 4.66666C6.86675 4.66666 6.00008 3.79999 6.00008 2.66666C6.00008 1.53332 6.86675 0.666656 8.00008 0.666656C9.13342 0.666656 10.0001 1.53332 10.0001 2.66666ZM8.66675 2.66666C8.66675 2.26666 8.40008 1.99999 8.00008 1.99999C7.60008 1.99999 7.33342 2.26666 7.33342 2.66666C7.33342 3.06666 7.60008 3.33332 8.00008 3.33332C8.40008 3.33332 8.66675 3.06666 8.66675 2.66666ZM11.3334 2.66666C11.3334 1.53332 12.2001 0.666656 13.3334 0.666656C14.4667 0.666656 15.3334 1.53332 15.3334 2.66666C15.3334 3.79999 14.4667 4.66666 13.3334 4.66666C12.2001 4.66666 11.3334 3.79999 11.3334 2.66666ZM12.6667 2.66666C12.6667 3.06666 12.9334 3.33332 13.3334 3.33332C13.7334 3.33332 14.0001 3.06666 14.0001 2.66666C14.0001 2.26666 13.7334 1.99999 13.3334 1.99999C12.9334 1.99999 12.6667 2.26666 12.6667 2.66666ZM4.66675 7.99999C4.66675 9.13332 3.80008 9.99999 2.66675 9.99999C1.53341 9.99999 0.666748 9.13332 0.666748 7.99999C0.666748 6.86666 1.53341 5.99999 2.66675 5.99999C3.80008 5.99999 4.66675 6.86666 4.66675 7.99999ZM3.33341 7.99999C3.33341 7.59999 3.06675 7.33332 2.66675 7.33332C2.26675 7.33332 2.00008 7.59999 2.00008 7.99999C2.00008 8.39999 2.26675 8.66666 2.66675 8.66666C3.06675 8.66666 3.33341 8.39999 3.33341 7.99999ZM8.00008 5.99999C6.86675 5.99999 6.00008 6.86666 6.00008 7.99999C6.00008 9.13332 6.86675 9.99999 8.00008 9.99999C9.13342 9.99999 10.0001 9.13332 10.0001 7.99999C10.0001 6.86666 9.13342 5.99999 8.00008 5.99999ZM13.3334 5.99999C12.2001 5.99999 11.3334 6.86666 11.3334 7.99999C11.3334 9.13332 12.2001 9.99999 13.3334 9.99999C14.4667 9.99999 15.3334 9.13332 15.3334 7.99999C15.3334 6.86666 14.4667 5.99999 13.3334 5.99999ZM3.33341 11.3333H2.00008V12.6667H0.666748V14H2.00008V15.3333H3.33341V14H4.66675V12.6667H3.33341V11.3333Z" />
</g>
<defs>
<clipPath id="clip0_22761_58174">
<rect width="16" height="16" fill="white"/>
</clipPath>
</defs>
</svg>
