<svg width="24" height="24" viewBox="0 0 24 24" xmlns="http://www.w3.org/2000/svg">
<g clip-path="url(#clip0_554_309749)">
<path d="M12 6.8L12.9 9.7L13.3 11.1H14.8H17.8L15.4 12.9L14.2 13.8L14.6 15.2L15.5 18.1L13.1 16.3L12 15.3L10.8 16.2L8.4 18L9.3 15.1L9.7 13.7L8.5 12.8L6.1 11H9.1H10.6L11 9.6L12 6.8ZM12 0.300003L9.2 9H0L7.4 14.4L4.6 23.1L12 17.7L19.4 23.1L16.6 14.4L24 9H14.8L12 0.300003Z" />
</g>
<defs>
<clipPath id="clip0_554_309749">
<rect width="24" height="24" fill="white"/>
</clipPath>
</defs>
</svg>
