<svg width="16" height="16" viewBox="0 0 16 16" xmlns="http://www.w3.org/2000/svg">
<path d="M13.3333 1.33333H2.66659C1.93325 1.33333 1.33325 1.93333 1.33325 2.66666V13.3333C1.33325 14.0667 1.93325 14.6667 2.66659 14.6667H13.3333C14.0666 14.6667 14.6666 14.0667 14.6666 13.3333V2.66666C14.6666 1.93333 14.0666 1.33333 13.3333 1.33333ZM13.3333 13.3333H2.66659V2.66666H13.3333V13.3333ZM4.66658 5.33333C4.66658 4.59999 5.26659 3.99999 5.99992 3.99999C6.73325 3.99999 7.33325 4.59999 7.33325 5.33333C7.33325 6.06666 6.73325 6.66666 5.99992 6.66666C5.26659 6.66666 4.66658 6.06666 4.66658 5.33333ZM12.6666 12.6667H3.33325L5.99992 9.33333L7.33325 9.99999L9.33325 7.99999L12.6666 12.6667Z" />
</svg>
