<svg width="16" height="16" viewBox="0 0 16 16" xmlns="http://www.w3.org/2000/svg">
<path d="M7.99992 2.66665C10.9333 2.66665 13.3333 5.06665 13.3333 7.99998C13.3333 10.9333 10.9333 13.3333 7.99992 13.3333C5.06659 13.3333 2.66659 10.9333 2.66659 7.99998C2.66659 5.06665 5.06659 2.66665 7.99992 2.66665ZM7.99992 1.33331C4.33325 1.33331 1.33325 4.33331 1.33325 7.99998C1.33325 11.6666 4.33325 14.6666 7.99992 14.6666C11.6666 14.6666 14.6666 11.6666 14.6666 7.99998C14.6666 4.33331 11.6666 1.33331 7.99992 1.33331ZM7.99992 6.66665C8.73325 6.66665 9.33325 7.26665 9.33325 7.99998C9.33325 8.73331 8.73325 9.33331 7.99992 9.33331C7.26658 9.33331 6.66658 8.73331 6.66658 7.99998C6.66658 7.26665 7.26658 6.66665 7.99992 6.66665ZM7.99992 5.33331C6.53325 5.33331 5.33325 6.53331 5.33325 7.99998C5.33325 9.46665 6.53325 10.6666 7.99992 10.6666C9.46659 10.6666 10.6666 9.46665 10.6666 7.99998C10.6666 6.53331 9.46659 5.33331 7.99992 5.33331Z" />
</svg>
