<svg width="24" height="24" viewBox="0 0 24 24" xmlns="http://www.w3.org/2000/svg">
<path d="M6 1C3.2 1 1 3.2 1 6C1 8.8 3.2 11 6 11C8.8 11 11 8.8 11 6C11 3.2 8.8 1 6 1ZM6 9C4.3 9 3 7.7 3 6C3 4.3 4.3 3 6 3C7.7 3 9 4.3 9 6C9 7.7 7.7 9 6 9ZM8 6C8 7.1 7.1 8 6 8C4.9 8 4 7.1 4 6C4 4.9 4.9 4 6 4C7.1 4 8 4.9 8 6ZM20 18C20 19.1 19.1 20 18 20C16.9 20 16 19.1 16 18C16 16.9 16.9 16 18 16C19.1 16 20 16.9 20 18ZM6 13C3.2 13 1 15.2 1 18C1 20.8 3.2 23 6 23C8.8 23 11 20.8 11 18C11 15.2 8.8 13 6 13ZM6 21C4.3 21 3 19.7 3 18C3 16.3 4.3 15 6 15C7.7 15 9 16.3 9 18C9 19.7 7.7 21 6 21ZM18 11C20.8 11 23 8.8 23 6C23 3.2 20.8 1 18 1C15.2 1 13 3.2 13 6C13 8.8 15.2 11 18 11ZM18 3C19.7 3 21 4.3 21 6C21 7.7 19.7 9 18 9C16.3 9 15 7.7 15 6C15 4.3 16.3 3 18 3ZM18 13C15.2 13 13 15.2 13 18C13 20.8 15.2 23 18 23C20.8 23 23 20.8 23 18C23 15.2 20.8 13 18 13ZM18 21C16.3 21 15 19.7 15 18C15 16.3 16.3 15 18 15C19.7 15 21 16.3 21 18C21 19.7 19.7 21 18 21Z" />
</svg>
