<svg width="24" height="24" viewBox="0 0 24 24" xmlns="http://www.w3.org/2000/svg">
<path d="M22 7V6C22 4.9 21.1 4 20 4H16C14.9 4 14 4.9 14 6V7C14 8.1 14.9 9 16 9H20C21.1 9 22 8.1 22 7ZM20 7H16V6H20V7ZM2 6V7C2 8.1 2.9 9 4 9H11C12.1 9 13 8.1 13 7V6C13 4.9 12.1 4 11 4H4C2.9 4 2 4.9 2 6ZM4 6H11V7H4V6ZM9 12V13C9 14.1 9.9 15 11 15H20C21.1 15 22 14.1 22 13V12C22 10.9 21.1 10 20 10H11C9.9 10 9 10.9 9 12ZM11 12H20V13H11V12ZM2 18V19C2 20.1 2.9 21 4 21H15C16.1 21 17 20.1 17 19V18C17 16.9 16.1 16 15 16H4C2.9 16 2 16.9 2 18ZM4 18H15V19H4V18ZM2 12V13C2 14.1 2.9 15 4 15H6C7.1 15 8 14.1 8 13V12C8 10.9 7.1 10 6 10H4C2.9 10 2 10.9 2 12ZM4 12H6V13H4V12Z" />
</svg>
