<svg width="24" height="24" viewBox="0 0 24 24" xmlns="http://www.w3.org/2000/svg">
<path d="M7 4C7 5.7 5.7 7 4 7C2.3 7 1 5.7 1 4C1 2.3 2.3 1 4 1C5.7 1 7 2.3 7 4ZM15 4C15 5.7 13.7 7 12 7C10.3 7 9 5.7 9 4C9 2.3 10.3 1 12 1C13.7 1 15 2.3 15 4ZM13 4C13 3.4 12.6 3 12 3C11.4 3 11 3.4 11 4C11 4.6 11.4 5 12 5C12.6 5 13 4.6 13 4ZM17 4C17 2.3 18.3 1 20 1C21.7 1 23 2.3 23 4C23 5.7 21.7 7 20 7C18.3 7 17 5.7 17 4ZM19 4C19 4.6 19.4 5 20 5C20.6 5 21 4.6 21 4C21 3.4 20.6 3 20 3C19.4 3 19 3.4 19 4ZM7 12C7 13.7 5.7 15 4 15C2.3 15 1 13.7 1 12C1 10.3 2.3 9 4 9C5.7 9 7 10.3 7 12ZM5 12C5 11.4 4.6 11 4 11C3.4 11 3 11.4 3 12C3 12.6 3.4 13 4 13C4.6 13 5 12.6 5 12ZM12 9C10.3 9 9 10.3 9 12C9 13.7 10.3 15 12 15C13.7 15 15 13.7 15 12C15 10.3 13.7 9 12 9ZM20 9C18.3 9 17 10.3 17 12C17 13.7 18.3 15 20 15C21.7 15 23 13.7 23 12C23 10.3 21.7 9 20 9ZM5 17H3V19H1V21H3V23H5V21H7V19H5V17Z" />
</svg>
