<svg width="16" height="16" viewBox="0 0 16 16" xmlns="http://www.w3.org/2000/svg">
<g clip-path="url(#clip0_22761_58139)">
<path d="M16 11.3333V12.6667H6.06667C6.33333 12.2667 6.6 11.8 6.8 11.3333H16ZM7.93333 6C7.33333 9.13333 5.73333 13.0667 3.33333 15.0667C2.53333 15.7333 1.33333 15.0667 1.33333 14.0667C1.33333 13.6 1.4 13.1333 1.46667 12.6667H0V11.3333H1.86667C2.86667 8.6 5.06667 6.06667 6.8 5.06667C6.93333 4.06667 6.93333 3.2 6.8 2.6C6.6 2.2 6.46667 2 6.4 2C6.26667 2 5.2 1.93333 2.53333 5.8L1.46667 5.06667C3.66667 1.86667 5.26667 0.466666 6.6 0.666666C8 0.799999 8.33333 3.06667 8.13333 4.6C9.53333 4.66667 9.86667 5.46667 9.93333 6.86667C10.8 6.06667 12.0667 5.26667 12.8 6.13333C13.8667 5.93333 14.7333 6.93333 15.2667 7.66667L14.2 8.46667C13.6 7.6 13.2 7.46667 13.0667 7.46667C13 7.46667 13 7.53333 12.9333 7.6C12.6667 8 12.4 8.53333 12 9.13333C11.8 9.4 11.4667 9.53333 11.1333 9.4C10.3333 9 11 8.06667 11.2 7.46667C10.5333 8 9.6 8.93333 9.26667 9.86667C9.2 10.3333 8.86667 10.8667 8.33333 10.7333C7.73333 10.6 7.8 9.93333 8 9.46667C8.86667 6.53333 8.33333 6 8.33333 6C8.33333 5.93333 8.13333 5.86667 7.93333 6ZM6.33333 6.93333C4.6 8.53333 2.73333 11.4 2.66667 13.8667C4.4 12.3333 5.66667 9.53333 6.33333 6.93333Z" />
</g>
<defs>
<clipPath id="clip0_22761_58139">
<rect width="16" height="16" fill="white"/>
</clipPath>
</defs>
</svg>
