<svg width="16" height="16" viewBox="0 0 16 16" xmlns="http://www.w3.org/2000/svg">
<path d="M7.99992 2.66665C10.9399 2.66665 13.3333 4.75998 13.3333 7.33331C13.3267 7.95199 13.1883 8.56216 12.9274 9.12314C12.6664 9.68413 12.2889 10.1831 11.8199 10.5866C11.6735 10.72 11.5586 10.8844 11.4837 11.0678C11.4087 11.2511 11.3755 11.4489 11.3866 11.6466C11.1834 11.5315 10.9535 11.4717 10.7199 11.4733C10.549 11.4746 10.3798 11.5062 10.2199 11.5666C9.51469 11.8526 8.76091 11.9997 7.99992 12C5.05992 12 2.66659 9.90665 2.66659 7.33331C2.66659 4.75998 5.05992 2.66665 7.99992 2.66665ZM7.99992 1.33331C4.31992 1.33331 1.33325 3.99998 1.33325 7.33331C1.33325 10.6666 4.31992 13.3333 7.99992 13.3333C8.93406 13.333 9.85954 13.1543 10.7266 12.8066L13.3333 14.6666L12.7133 11.5733C13.3197 11.0445 13.8072 10.3932 14.1439 9.66246C14.4806 8.93167 14.6587 8.13788 14.6666 7.33331C14.6666 3.99998 11.6799 1.33331 7.99992 1.33331Z" />
</svg>
