<svg width="16" height="16" viewBox="0 0 16 16" xmlns="http://www.w3.org/2000/svg">
<path d="M5.99992 1.33334V2.66668H2.66659V6.00001H1.33325V2.66668C1.33325 2.31305 1.47373 1.97392 1.72378 1.72387C1.97382 1.47382 2.31296 1.33334 2.66659 1.33334H5.99992ZM13.3333 1.33334H9.99992V2.66668H13.3333V6.00001H14.6666V2.66668C14.6666 2.31305 14.5261 1.97392 14.2761 1.72387C14.026 1.47382 13.6869 1.33334 13.3333 1.33334ZM2.66659 13.3333V10H1.33325V13.3333C1.33325 13.687 1.47373 14.0261 1.72378 14.2762C1.97382 14.5262 2.31296 14.6667 2.66659 14.6667H5.99992V13.3333H2.66659ZM13.3333 13.3333H9.99992V14.6667H13.3333C13.6869 14.6667 14.026 14.5262 14.2761 14.2762C14.5261 14.0261 14.6666 13.687 14.6666 13.3333V10H13.3333V13.3333ZM11.3333 8.66668H9.99992V7.33334H8.66658V8.66668H7.33325V10H8.66658V11.3333H9.99992V10H11.3333V8.66668Z" />
</svg>
