<svg width="16" height="16" viewBox="0 0 16 16" xmlns="http://www.w3.org/2000/svg">
<g clip-path="url(#clip0_22761_58164)">
<path d="M4.00008 0.666656C2.13341 0.666656 0.666748 2.13332 0.666748 3.99999C0.666748 5.86666 2.13341 7.33332 4.00008 7.33332C5.86675 7.33332 7.33342 5.86666 7.33342 3.99999C7.33342 2.13332 5.86675 0.666656 4.00008 0.666656ZM4.00008 5.99999C2.86675 5.99999 2.00008 5.13332 2.00008 3.99999C2.00008 2.86666 2.86675 1.99999 4.00008 1.99999C5.13341 1.99999 6.00008 2.86666 6.00008 3.99999C6.00008 5.13332 5.13341 5.99999 4.00008 5.99999ZM5.33342 3.99999C5.33342 4.73332 4.73341 5.33332 4.00008 5.33332C3.26675 5.33332 2.66675 4.73332 2.66675 3.99999C2.66675 3.26666 3.26675 2.66666 4.00008 2.66666C4.73341 2.66666 5.33342 3.26666 5.33342 3.99999ZM13.3334 12C13.3334 12.7333 12.7334 13.3333 12.0001 13.3333C11.2667 13.3333 10.6667 12.7333 10.6667 12C10.6667 11.2667 11.2667 10.6667 12.0001 10.6667C12.7334 10.6667 13.3334 11.2667 13.3334 12ZM4.00008 8.66666C2.13341 8.66666 0.666748 10.1333 0.666748 12C0.666748 13.8667 2.13341 15.3333 4.00008 15.3333C5.86675 15.3333 7.33342 13.8667 7.33342 12C7.33342 10.1333 5.86675 8.66666 4.00008 8.66666ZM4.00008 14C2.86675 14 2.00008 13.1333 2.00008 12C2.00008 10.8667 2.86675 9.99999 4.00008 9.99999C5.13341 9.99999 6.00008 10.8667 6.00008 12C6.00008 13.1333 5.13341 14 4.00008 14ZM12.0001 7.33332C13.8667 7.33332 15.3334 5.86666 15.3334 3.99999C15.3334 2.13332 13.8667 0.666656 12.0001 0.666656C10.1334 0.666656 8.66675 2.13332 8.66675 3.99999C8.66675 5.86666 10.1334 7.33332 12.0001 7.33332ZM12.0001 1.99999C13.1334 1.99999 14.0001 2.86666 14.0001 3.99999C14.0001 5.13332 13.1334 5.99999 12.0001 5.99999C10.8667 5.99999 10.0001 5.13332 10.0001 3.99999C10.0001 2.86666 10.8667 1.99999 12.0001 1.99999ZM12.0001 8.66666C10.1334 8.66666 8.66675 10.1333 8.66675 12C8.66675 13.8667 10.1334 15.3333 12.0001 15.3333C13.8667 15.3333 15.3334 13.8667 15.3334 12C15.3334 10.1333 13.8667 8.66666 12.0001 8.66666ZM12.0001 14C10.8667 14 10.0001 13.1333 10.0001 12C10.0001 10.8667 10.8667 9.99999 12.0001 9.99999C13.1334 9.99999 14.0001 10.8667 14.0001 12C14.0001 13.1333 13.1334 14 12.0001 14Z" />
</g>
<defs>
<clipPath id="clip0_22761_58164">
<rect width="16" height="16" fill="white"/>
</clipPath>
</defs>
</svg>
