<svg width="24" height="24" viewBox="0 0 24 24" xmlns="http://www.w3.org/2000/svg">
<g clip-path="url(#clip0_554_309751)">
<path d="M24 17V19H9.1C9.5 18.4 9.9 17.7 10.2 17H24ZM11.9 9C11 13.7 8.6 19.6 5 22.6C3.8 23.6 2 22.6 2 21.1C2 20.4 2.1 19.7 2.2 19H0V17H2.8C4.3 12.9 7.6 9.1 10.2 7.6C10.4 6.1 10.4 4.8 10.2 3.9C9.9 3.3 9.7 3 9.6 3C9.4 3 7.8 2.9 3.8 8.7L2.2 7.6C5.5 2.8 7.9 0.699999 9.9 0.999999C12 1.2 12.5 4.6 12.2 6.9C14.3 7 14.8 8.2 14.9 10.3C16.2 9.1 18.1 7.9 19.2 9.2C20.8 8.9 22.1 10.4 22.9 11.5L21.3 12.7C20.4 11.4 19.8 11.2 19.6 11.2C19.5 11.2 19.5 11.3 19.4 11.4C19 12 18.6 12.8 18 13.7C17.7 14.1 17.2 14.3 16.7 14.1C15.5 13.5 16.5 12.1 16.8 11.2C15.8 12 14.4 13.4 13.9 14.8C13.8 15.5 13.3 16.3 12.5 16.1C11.6 15.9 11.7 14.9 12 14.2C13.3 9.8 12.5 9 12.5 9C12.5 8.9 12.2 8.8 11.9 9ZM9.5 10.4C6.9 12.8 4.1 17.1 4 20.8C6.6 18.5 8.5 14.3 9.5 10.4Z" />
</g>
<defs>
<clipPath id="clip0_554_309751">
<rect width="24" height="24" fill="white"/>
</clipPath>
</defs>
</svg>
