<svg width="16" height="16" viewBox="0 0 16 16" xmlns="http://www.w3.org/2000/svg">
<path d="M4.66658 7.33334H11.3333C13.1999 7.33334 14.6666 5.86667 14.6666 4.00001C14.6666 2.13334 13.1999 0.666672 11.3333 0.666672H4.66658C2.79992 0.666672 1.33325 2.13334 1.33325 4.00001C1.33325 5.86667 2.79992 7.33334 4.66658 7.33334ZM4.66658 2.00001H11.3333C12.4666 2.00001 13.3333 2.86667 13.3333 4.00001C13.3333 5.13334 12.4666 6.00001 11.3333 6.00001H4.66658C3.53325 6.00001 2.66659 5.13334 2.66659 4.00001C2.66659 2.86667 3.53325 2.00001 4.66658 2.00001ZM3.33325 4.00001C3.33325 3.26667 3.93325 2.66667 4.66658 2.66667C5.39992 2.66667 5.99992 3.26667 5.99992 4.00001C5.99992 4.73334 5.39992 5.33334 4.66658 5.33334C3.93325 5.33334 3.33325 4.73334 3.33325 4.00001ZM12.6666 12C12.6666 12.7333 12.0666 13.3333 11.3333 13.3333C10.5999 13.3333 9.99992 12.7333 9.99992 12C9.99992 11.2667 10.5999 10.6667 11.3333 10.6667C12.0666 10.6667 12.6666 11.2667 12.6666 12ZM11.3333 8.66667H4.66658C2.79992 8.66667 1.33325 10.1333 1.33325 12C1.33325 13.8667 2.79992 15.3333 4.66658 15.3333H11.3333C13.1999 15.3333 14.6666 13.8667 14.6666 12C14.6666 10.1333 13.1999 8.66667 11.3333 8.66667ZM11.3333 14H4.66658C3.53325 14 2.66659 13.1333 2.66659 12C2.66659 10.8667 3.53325 10 4.66658 10H11.3333C12.4666 10 13.3333 10.8667 13.3333 12C13.3333 13.1333 12.4666 14 11.3333 14Z" />
</svg>
