<svg width="24" height="24" viewBox="0 0 24 24" xmlns="http://www.w3.org/2000/svg">
<path d="M7.7 16.3C8.1 16.7 8.1 17.3 7.7 17.7L3.7 21.7C3.5 21.9 3.3 22 3 22C2.7 22 2.5 21.9 2.3 21.7C1.9 21.3 1.9 20.7 2.3 20.3L6.3 16.3C6.7 15.9 7.3 15.9 7.7 16.3ZM20.5 10L23 13.7L18.6 14.6L17.7 19L14 16.5L10.3 19L9.4 14.6L5 13.7L7.5 10L5 6.3L9.4 5.4L10.3 1L14 3.5L17.7 1L18.6 5.4L23 6.3L20.5 10ZM18.1 10L18.8 8.9L19.6 7.7L18.1 7.4L16.8 7.1L16.5 5.8L16.2 4.3L15 5.1L14 5.9L12.9 5.2L11.7 4.3L11.4 5.8L11.1 7.1L9.8 7.4L8.3 7.7L9.1 8.9L9.9 10L9.2 11.1L8.4 12.3L9.9 12.6L11.2 12.9L11.5 14.2L11.8 15.7L13 14.9L14.1 14.2L15.2 14.9L16.4 15.7L16.7 14.2L17 12.9L18.3 12.6L19.8 12.3L19 11.1L18.1 10Z" />
</svg>
