<svg width="24" height="24" viewBox="0 0 24 24" xmlns="http://www.w3.org/2000/svg">
<path d="M23.0336 16.4803L14.5736 2.45346C13.9936 1.4878 12.9936 1 12.0036 1C11.0136 1 10.0136 1.4878 9.43364 2.45346L0.973642 16.4803C-0.226358 18.4714 1.21364 21 3.54364 21H20.4536C22.7836 21 24.2236 18.4714 23.0236 16.4803H23.0336ZM21.3336 18.5112C21.2436 18.6605 20.9936 19.0189 20.4636 19.0189H3.54364C3.01364 19.0189 2.76364 18.6705 2.67364 18.5112C2.58364 18.3519 2.41364 17.9537 2.68364 17.5057L11.1436 3.47885C11.4036 3.04082 11.8336 2.99104 12.0036 2.99104C12.1736 2.99104 12.5936 3.04082 12.8636 3.47885L21.3136 17.5057C21.5836 17.9537 21.4136 18.3519 21.3236 18.5112H21.3336ZM13.0036 8.05824V13.0358C13.0036 13.5834 12.5536 14.0314 12.0036 14.0314C11.4536 14.0314 11.0036 13.5834 11.0036 13.0358V8.05824C11.0036 7.5107 11.4536 7.06272 12.0036 7.06272C12.5536 7.06272 13.0036 7.5107 13.0036 8.05824ZM13.0036 16.0224C13.0036 16.5699 12.5536 17.0179 12.0036 17.0179C11.4536 17.0179 11.0036 16.5699 11.0036 16.0224C11.0036 15.4749 11.4536 15.0269 12.0036 15.0269C12.5536 15.0269 13.0036 15.4749 13.0036 16.0224Z" />
</svg>
