<svg width="24" height="24" viewBox="0 0 24 24" xmlns="http://www.w3.org/2000/svg">
<g clip-path="url(#clip0_19764_194726)">
<path d="M14.8099 2.19999C15.4199 2.19999 16.0099 2.28999 16.5799 2.42999L13.3099 5.69999C11.9299 7.07999 11.9299 9.31999 13.3099 10.7C13.9999 11.39 14.9099 11.74 15.8099 11.74C16.7099 11.74 17.6199 11.39 18.3099 10.7L21.5799 7.42999C21.7299 7.99999 21.8099 8.58999 21.8099 9.19999C21.8099 13.07 18.6799 16.2 14.8099 16.2C13.6499 16.2 12.5599 15.91 11.5999 15.41L5.80993 21.2C5.39993 21.61 4.84993 21.82 4.30993 21.82C3.76993 21.82 3.21993 21.61 2.80993 21.2C1.97993 20.37 1.97993 19.03 2.80993 18.2L8.59993 12.41C8.09993 11.45 7.80993 10.36 7.80993 9.19999C7.80993 5.32999 10.9399 2.19999 14.8099 2.19999ZM14.8099 0.199993C9.84993 0.199993 5.80993 4.23999 5.80993 9.19999C5.80993 10.13 5.95993 11.06 6.23993 11.94L1.38993 16.79C0.609932 17.57 0.179932 18.6 0.179932 19.7C0.179932 20.8 0.609932 21.84 1.38993 22.61C2.16993 23.39 3.19993 23.82 4.29993 23.82C5.39993 23.82 6.43993 23.39 7.20993 22.61L12.0599 17.76C12.9499 18.04 13.8699 18.19 14.7999 18.19C19.7599 18.19 23.7999 14.15 23.7999 9.18999C23.7999 8.43999 23.6999 7.67999 23.4999 6.91999C23.3199 6.22999 22.7799 5.67999 22.0899 5.48999C21.9199 5.43999 21.7399 5.41999 21.5699 5.41999C21.0499 5.41999 20.5399 5.62999 20.1599 6.00999L16.8899 9.27999C16.5999 9.56999 16.2099 9.72999 15.7999 9.72999C15.3899 9.72999 14.9999 9.56999 14.7099 9.27999C14.4199 8.98999 14.2599 8.59999 14.2599 8.18999C14.2599 7.77999 14.4199 7.38999 14.7099 7.09999L17.9799 3.82999C18.4899 3.31999 18.6799 2.57999 18.4999 1.88999C18.3099 1.19999 17.7699 0.659993 17.0699 0.479993C16.3099 0.279993 15.5499 0.179993 14.7999 0.179993L14.8099 0.199993Z" />
</g>
<defs>
<clipPath id="clip0_19764_194726">
<rect width="24" height="24" fill="white"/>
</clipPath>
</defs>
</svg>
