<?xml version="1.0" encoding="utf-8"?>
<!-- Generator: Adobe Illustrator 24.1.2, SVG Export Plug-In . SVG Version: 6.00 Build 0)  -->
<svg version="1.1" id="Layer_1" xmlns="http://www.w3.org/2000/svg" xmlns:xlink="http://www.w3.org/1999/xlink" x="0px" y="0px"
	 viewBox="0 0 850 1630" style="enable-background:new 0 0 850 1630;" xml:space="preserve">
<style type="text/css">
	.st0{fill:#404040;}
	.st1{fill:transparent;}
	.st2{fill:none;stroke:#404040;stroke-width:4;stroke-miterlimit:10;}
</style>
<g>
	<g>
		<path class="st0" d="M771.1,27c22.6,0,41,18.4,41,41v1492c0,22.6-18.4,41-41,41h-695c-22.6,0-41-18.4-41-41V68
			c0-22.6,18.4-41,41-41H771.1 M771.1,23h-695c-24.8,0-45,20.3-45,45v1492c0,24.8,20.3,45,45,45h695c24.8,0,45-20.3,45-45V68
			C816.1,43.3,795.9,23,771.1,23L771.1,23z"/>
	</g>
	<g>
		<rect x="64.1" y="164.5" class="st1" width="719" height="1279"/>
		<path class="st0" d="M782.6,165v1278h-718V165H782.6 M783.6,164h-720v1280h720V164L783.6,164z"/>
	</g>
	<g>
		<g>
			<path class="st0" d="M466,90.8c3.6,0,6.5,2.9,6.5,6.5s-2.9,6.5-6.5,6.5h-84c-3.6,0-6.5-2.9-6.5-6.5s2.9-6.5,6.5-6.5H466
				 M466,86.8h-84c-5.8,0-10.5,4.7-10.5,10.5s4.7,10.5,10.5,10.5h84c5.8,0,10.5-4.7,10.5-10.5C476.5,91.6,471.8,86.8,466,86.8
				L466,86.8z"/>
		</g>
		<g>
			<path class="st0" d="M337,90.8c3.6,0,6.5,2.9,6.5,6.5s-2.9,6.5-6.5,6.5h-31c-3.6,0-6.5-2.9-6.5-6.5s2.9-6.5,6.5-6.5H337
				 M337,86.8h-31c-5.8,0-10.5,4.7-10.5,10.5s4.7,10.5,10.5,10.5h31c5.8,0,10.5-4.7,10.5-10.5C347.5,91.6,342.8,86.8,337,86.8
				L337,86.8z"/>
		</g>
		<g>
			<path class="st0" d="M547.5,84.3c7.2,0,13,5.8,13,13s-5.8,13-13,13s-13-5.8-13-13S540.3,84.3,547.5,84.3 M547.5,80.3
				c-9.4,0-17,7.6-17,17s7.6,17,17,17s17-7.6,17-17S556.9,80.3,547.5,80.3L547.5,80.3z"/>
		</g>
	</g>
	<g>
		<path class="st0" d="M825.5,289v244h-9V289H825.5 M829.5,285h-17v252h17V285L829.5,285z"/>
	</g>
	<g>
		<path class="st0" d="M825.5,616v91h-9v-91H825.5 M829.5,612h-17v99h17V612L829.5,612z"/>
	</g>
	<g>
		<g>
			<rect x="175.8" y="1505" class="st0" width="32" height="4"/>
			<rect x="175.8" y="1518" class="st0" width="32" height="4"/>
			<rect x="175.8" y="1531" class="st0" width="32" height="4"/>
		</g>
		<path class="st2" d="M436.8,1534h-18c-2.8,0-5-2.3-5-5v-18c0-2.8,2.3-5,5-5h18c2.8,0,5,2.3,5,5v18
			C441.8,1531.8,439.5,1534,436.8,1534z"/>
		<polygon class="st0" points="671.4,1506.7 668.6,1503.8 652,1520.4 652.2,1520.5 652,1520.7 668.6,1537.2 671.4,1534.4 
			657.5,1520.5 		"/>
	</g>
</g>
</svg>
