<?xml version="1.0" encoding="utf-8"?>
<!-- Generator: Adobe Illustrator 24.1.2, SVG Export Plug-In . SVG Version: 6.00 Build 0)  -->
<svg version="1.1" xmlns="http://www.w3.org/2000/svg" xmlns:xlink="http://www.w3.org/1999/xlink" x="0px" y="0px"
	 viewBox="0 0 850 1630" style="enable-background:new 0 0 850 1630;" xml:space="preserve">
<style type="text/css">
	.st0{fill:#404040;}
	.st1{fill:transparent;}
	.st2{fill:none;stroke:#404040;stroke-width:4;stroke-miterlimit:10;}
</style>
<g id="Layer_1">
	<g>
		<g>
			<path class="st0" d="M771.1,38c22.6,0,41,18.4,41,41v1492c0,22.6-18.4,41-41,41h-695c-22.6,0-41-18.4-41-41V79
				c0-22.6,18.4-41,41-41H771.1 M771.1,34h-695c-24.8,0-45,20.3-45,45v1492c0,24.8,20.3,45,45,45h695c24.8,0,45-20.3,45-45V79
				C816.1,54.3,795.9,34,771.1,34L771.1,34z"/>
		</g>
		<g>
			<rect x="64.1" y="175.5" class="st1" width="719" height="1279"/>
			<path class="st0" d="M782.6,176v1278h-718V176H782.6 M783.6,175h-720v1280h720V175L783.6,175z"/>
		</g>
		<g>
			<g>
				<path class="st0" d="M466,101.8c3.6,0,6.5,2.9,6.5,6.5s-2.9,6.5-6.5,6.5h-84c-3.6,0-6.5-2.9-6.5-6.5s2.9-6.5,6.5-6.5H466
					 M466,97.8h-84c-5.8,0-10.5,4.7-10.5,10.5s4.7,10.5,10.5,10.5h84c5.8,0,10.5-4.7,10.5-10.5C476.5,102.6,471.8,97.8,466,97.8
					L466,97.8z"/>
			</g>
			<g>
				<path class="st0" d="M337,101.8c3.6,0,6.5,2.9,6.5,6.5s-2.9,6.5-6.5,6.5h-31c-3.6,0-6.5-2.9-6.5-6.5s2.9-6.5,6.5-6.5H337
					 M337,97.8h-31c-5.8,0-10.5,4.7-10.5,10.5s4.7,10.5,10.5,10.5h31c5.8,0,10.5-4.7,10.5-10.5C347.5,102.6,342.8,97.8,337,97.8
					L337,97.8z"/>
			</g>
			<g>
				<path class="st0" d="M547.5,95.3c7.2,0,13,5.8,13,13s-5.8,13-13,13s-13-5.8-13-13S540.3,95.3,547.5,95.3 M547.5,91.3
					c-9.4,0-17,7.6-17,17s7.6,17,17,17s17-7.6,17-17S556.9,91.3,547.5,91.3L547.5,91.3z"/>
			</g>
		</g>
		<g>
			<path class="st0" d="M825.5,300v244h-9V300H825.5 M829.5,296h-17v252h17V296L829.5,296z"/>
		</g>
		<g>
			<path class="st0" d="M825.5,627v91h-9v-91H825.5 M829.5,623h-17v99h17V623L829.5,623z"/>
		</g>
		<g>
			<g>
				<rect x="175.8" y="1516" class="st0" width="32" height="4"/>
				<rect x="175.8" y="1529" class="st0" width="32" height="4"/>
				<rect x="175.8" y="1542" class="st0" width="32" height="4"/>
			</g>
			<path class="st2" d="M436.8,1545h-18c-2.8,0-5-2.3-5-5v-18c0-2.8,2.3-5,5-5h18c2.8,0,5,2.3,5,5v18
				C441.8,1542.8,439.5,1545,436.8,1545z"/>
			<polygon class="st0" points="671.4,1517.7 668.6,1514.8 652,1531.4 652.2,1531.5 652,1531.7 668.6,1548.2 671.4,1545.4 
				657.5,1531.5 			"/>
		</g>
	</g>
</g>
<g id="Layer_2">
</g>
</svg>
