<?xml version="1.0" encoding="utf-8"?>
<!-- Generator: Adobe Illustrator 24.1.2, SVG Export Plug-In . SVG Version: 6.00 Build 0)  -->
<svg version="1.1" id="Layer_1" xmlns="http://www.w3.org/2000/svg" xmlns:xlink="http://www.w3.org/1999/xlink" x="0px" y="0px"
	 viewBox="0 0 1070 1480" style="enable-background:new 0 0 1070 1480;" xml:space="preserve">
<style type="text/css">
	.st0{fill:transparent;}
	.st1{fill:#404040;}
	.st2{fill:none;stroke:#404040;stroke-width:6;stroke-miterlimit:10;}
	.st3{fill:none;stroke:#404040;stroke-width:4;stroke-miterlimit:10;}
</style>
<g>
	<g>
		<rect x="135" y="101.1" class="st0" width="799" height="1279"/>
		<path class="st1" d="M933.5,101.6v1278h-798v-1278L933.5,101.6 M934.5,100.6h-800v1280h800V100.6L934.5,100.6z"/>
	</g>
	<path class="st2" d="M973.5,1456.1h-882c-28,0-51-22.9-51-51V76c0-28,22.9-51,51-51h882.1c28,0,51,22.9,51,51v1329.1
		C1024.5,1433.1,1001.6,1456.1,973.5,1456.1z"/>
	<path class="st3" d="M971.4,1447.8H93.6c-24.8,0-45-20.3-45-45V78.3c0-24.8,20.3-45,45-45h877.8c24.8,0,45,20.3,45,45v1324.5
		C1016.4,1427.6,996.2,1447.8,971.4,1447.8z"/>
	<circle class="st3" cx="79.5" cy="740.6" r="12"/>
</g>
</svg>
