<?xml version="1.0" encoding="utf-8"?>
<!-- Generator: Adobe Illustrator 24.1.2, SVG Export Plug-In . SVG Version: 6.00 Build 0)  -->
<svg version="1.1" id="Layer_1" xmlns="http://www.w3.org/2000/svg" xmlns:xlink="http://www.w3.org/1999/xlink" x="0px" y="0px"
	 viewBox="0 0 1410 2980" style="enable-background:new 0 0 1410 2980;" xml:space="preserve">
<style type="text/css">
	.st0{fill:#404040;}
	.st1{fill:transparent;}
</style>
<g>
	<g>
		<path class="st0" d="M1208.5,116c39.4,0,76.5,15.4,104.5,43.5s43.5,65.2,43.5,104.5v2489c0,39.4-15.4,76.5-43.5,104.5
			s-65.2,43.5-104.5,43.5H174.6c-39.4,0-76.5-15.4-104.5-43.5s-43.5-65.2-43.5-104.5V264c0-39.4,15.4-76.5,43.5-104.5
			S135.2,116,174.6,116H1208.5 M1208.5,110H174.6c-84.7,0-154,69.3-154,154v2489c0,84.7,69.3,154,154,154h1033.9
			c84.7,0,154-69.3,154-154V264C1362.5,179.3,1293.2,110,1208.5,110L1208.5,110z"/>
	</g>
	<g>
		<path class="st0" d="M1212.5,144c31.9,0,62,12.5,84.7,35.3c22.7,22.7,35.3,52.8,35.3,84.7v2489c0,31.9-12.5,62-35.3,84.7
			c-22.7,22.7-52.8,35.3-84.7,35.3h-1042c-31.9,0-62-12.5-84.7-35.3c-22.7-22.7-35.3-52.8-35.3-84.7V264c0-31.9,12.5-62,35.3-84.7
			c22.7-22.7,52.8-35.3,84.7-35.3H1212.5 M1212.5,140h-1042c-68.2,0-124,55.8-124,124v2489c0,68.2,55.8,124,124,124h1042
			c68.2,0,124-55.8,124-124V264C1336.5,195.8,1280.7,140,1212.5,140L1212.5,140z"/>
	</g>
	<g>
		<path class="st0" d="M830.3,189c0-11.5,9.3-20.8,20.8-20.8s20.8,9.3,20.8,20.8s-9.3,20.8-20.8,20.8S830.3,200.5,830.3,189z
			 M834.1,189c0,9.4,7.6,17,17,17s17-7.6,17-17s-7.6-17-17-17C841.7,172,834.1,179.6,834.1,189z"/>
		<path class="st0" d="M608.3,187.6c0-6,4.9-10.8,10.8-10.8h140.8c6,0,10.8,4.9,10.8,10.8s-4.9,10.8-10.8,10.8H619.1
			C613.1,198.5,608.3,193.6,608.3,187.6z M619.1,180.5c-3.9,0-7.1,3.2-7.1,7.1c0,3.9,3.2,7.1,7.1,7.1h140.8c3.9,0,7.1-3.2,7.1-7.1
			c0-3.9-3.2-7.1-7.1-7.1H619.1z"/>
	</g>
	<g>
		<path class="st1" d="M184.3,2851.5c-63,0-114.3-51.3-114.3-114.3V278.8c0-63,51.3-114.3,114.3-114.3H378c0.7,0,1.3,0.3,1.8,0.7
			c0.5,0.4,0.7,1.1,0.7,1.8v26.9c0,27.9,22.7,50.6,50.6,50.6h519.8c27.9,0,50.6-22.7,50.6-50.6V167c0-0.7,0.2-1.3,0.7-1.8
			c0.5-0.5,1.1-0.7,1.7-0.7h192.8c63,0,114.3,51.3,114.3,114.3v2458.4c0,63-51.3,114.3-114.3,114.3L184.3,2851.5L184.3,2851.5z"/>
		<path class="st0" d="M1196.7,165c30.4,0,59,11.8,80.5,33.3c21.5,21.5,33.3,50.1,33.3,80.5v2458.4c0,30.4-11.8,59-33.3,80.5
			c-21.5,21.5-50.1,33.3-80.5,33.3H184.3c-30.4,0-59-11.8-80.5-33.3c-21.5-21.5-33.3-50.1-33.3-80.5V278.8c0-30.4,11.8-59,33.3-80.5
			s50.1-33.3,80.5-33.3H378c0.5,0,1,0.2,1.4,0.6c0.4,0.4,0.6,0.9,0.6,1.4v26.9c0,28.2,22.9,51.1,51.1,51.1h519.8
			c28.2,0,51.1-22.9,51.1-51.1V167c0-0.5,0.2-1,0.6-1.4c0.4-0.4,0.8-0.6,1.4-0.6H1196.7 M1196.7,164h-192.8c-1.6,0-2.9,1.3-2.9,3
			l0,0v26.9c0,27.5-22.5,50.1-50.1,50.1H431.1c-27.5,0-50.1-22.5-50.1-50.1V167c0-1.7-1.3-3-3-3H184.3
			c-63.4,0-114.8,51.4-114.8,114.8v2458.4c0,63.4,51.4,114.8,114.8,114.8h1012.4c63.4,0,114.8-51.4,114.8-114.8V278.8
			C1311.5,215.4,1260.1,164,1196.7,164L1196.7,164z"/>
	</g>
</g>
</svg>
