<?xml version="1.0" encoding="utf-8"?>
<!-- Generator: Adobe Illustrator 24.1.2, SVG Export Plug-In . SVG Version: 6.00 Build 0)  -->
<svg version="1.1" id="Layer_1" xmlns="http://www.w3.org/2000/svg" xmlns:xlink="http://www.w3.org/1999/xlink" x="0px" y="0px"
	 viewBox="0 0 1330 2680" style="enable-background:new 0 0 1330 2680;" xml:space="preserve">
<style type="text/css">
	.st0{fill:#404040;}
	.st1{fill:transparent;}
</style>
<g>
	<g>
		<path class="st0" d="M1141,95.5c40.2,0,78,15.8,106.6,44.4s44.4,66.5,44.4,106.6v2268c0,40.2-15.8,78-44.4,106.6
			s-66.5,44.4-106.6,44.4H187.1c-40.2,0-78-15.8-106.6-44.4c-28.6-28.6-44.4-66.5-44.4-106.6v-2268c0-40.2,15.8-78,44.4-106.6
			S147,95.5,187.1,95.5L1141,95.5 M1141,89.5H187.1c-86.4,0-157,70.7-157,157v2268c0,86.4,70.6,157,157,157H1141
			c86.4,0,157-70.6,157-157v-2268C1298,160.2,1227.3,89.5,1141,89.5L1141,89.5z"/>
	</g>
	<g>
		<path class="st0" d="M1148,123.5c31.9,0,62,12.5,84.7,35.3c22.7,22.7,35.3,52.8,35.3,84.7v2274c0,31.9-12.5,62-35.3,84.7
			c-22.7,22.7-52.8,35.3-84.7,35.3H180c-31.9,0-62-12.5-84.7-35.3c-22.7-22.7-35.3-52.8-35.3-84.7v-2274c0-31.9,12.5-62,35.3-84.7
			c22.7-22.7,52.8-35.3,84.7-35.3H1148 M1148,119.5H180c-68.2,0-124,55.8-124,124v2274c0,68.2,55.8,124,124,124h968
			c68.2,0,124-55.8,124-124v-2274C1272,175.3,1216.2,119.5,1148,119.5L1148,119.5z"/>
	</g>
	<g>
		<path class="st0" d="M807.8,187.5c0-11.5,9.3-20.8,20.8-20.8s20.8,9.3,20.8,20.8s-9.3,20.8-20.8,20.8S807.8,199,807.8,187.5z
			 M811.6,187.5c0,9.4,7.6,17,17,17s17-7.6,17-17s-7.6-17-17-17C819.2,170.5,811.6,178.1,811.6,187.5z"/>
		<path class="st0" d="M585.8,186.1c0-6,4.9-10.8,10.8-10.8h140.8c6,0,10.8,4.9,10.8,10.8s-4.9,10.8-10.8,10.8H596.6
			C590.6,197,585.8,192.1,585.8,186.1z M596.6,179c-3.9,0-7.1,3.2-7.1,7.1c0,3.9,3.2,7.1,7.1,7.1h140.8c3.9,0,7.1-3.2,7.1-7.1
			c0-3.9-3.2-7.1-7.1-7.1H596.6z"/>
	</g>
	<g>
		<path class="st1" d="M216.4,2598c-63,0-114.3-51.3-114.3-114.3V277.3c0-63,51.3-114.3,114.3-114.3H351c0.7,0,1.3,0.3,1.8,0.7
			c0.5,0.5,0.7,1.1,0.7,1.8v26.9c0,27.9,22.7,50.6,50.6,50.6h519.8c27.9,0,50.6-22.7,50.6-50.6v-26.9c0-0.7,0.3-1.3,0.7-1.8
			c0.4-0.5,1.1-0.7,1.7-0.7h134.8c63,0,114.3,51.3,114.3,114.3v2206.4c0,63-51.3,114.3-114.3,114.3L216.4,2598L216.4,2598z"/>
		<path class="st0" d="M1111.7,163.5c30.4,0,59,11.8,80.5,33.3c21.5,21.5,33.3,50.1,33.3,80.5v2206.4c0,30.4-11.8,59-33.3,80.5
			c-21.5,21.5-50.1,33.3-80.5,33.3H216.4c-30.4,0-59-11.8-80.5-33.3c-21.5-21.5-33.3-50.1-33.3-80.5V277.3c0-30.4,11.8-59,33.3-80.5
			s50.1-33.3,80.5-33.3H351c0.5,0,1,0.2,1.4,0.6c0.4,0.4,0.6,0.9,0.6,1.4v26.9c0,28.2,22.9,51.1,51.1,51.1h519.8
			c28.2,0,51.1-22.9,51.1-51.1v-26.9c0-0.5,0.2-1,0.6-1.4s0.8-0.6,1.4-0.6L1111.7,163.5 M1111.7,162.5H976.9c-1.6,0-2.9,1.3-2.9,3
			l0,0v26.9c0,27.5-22.5,50.1-50.1,50.1H404.1c-27.5,0-50.1-22.5-50.1-50.1v-26.9c0-1.7-1.3-3-3-3H216.4
			c-63.4,0-114.8,51.4-114.8,114.8v2206.4c0,63.4,51.4,114.8,114.8,114.8h895.4c63.4,0,114.8-51.4,114.8-114.8V277.3
			C1226.6,213.9,1175.1,162.5,1111.7,162.5L1111.7,162.5z"/>
	</g>
</g>
</svg>
