<?xml version="1.0" encoding="utf-8"?>
<!-- Generator: Adobe Illustrator 24.1.2, SVG Export Plug-In . SVG Version: 6.00 Build 0)  -->
<svg version="1.1" id="Layer_1" xmlns="http://www.w3.org/2000/svg" xmlns:xlink="http://www.w3.org/1999/xlink" x="0px" y="0px"
	 viewBox="0 0 990 1860" style="enable-background:new 0 0 990 1860;" xml:space="preserve">
<style type="text/css">
	.st0{fill:#404040;}
	.st1{fill:none;stroke:#404040;stroke-width:4;stroke-miterlimit:10;}
	.st2{fill:transparent;}
</style>
<g>
	<g>
		<g>
			<path class="st0" d="M560.7,189.4H437.9c-6,0-10.8-4.9-10.8-10.8s4.9-10.8,10.8-10.8h122.8c6,0,10.8,4.9,10.8,10.8
				S566.7,189.4,560.7,189.4z M437.9,171.4c-3.9,0-7.1,3.2-7.1,7.1c0,3.9,3.2,7.1,7.1,7.1h122.8c3.9,0,7.1-3.2,7.1-7.1
				c0-3.9-3.2-7.1-7.1-7.1H437.9z"/>
			<circle class="st1" cx="359.5" cy="178.6" r="15.5"/>
			<circle class="st1" cx="499.3" cy="126.5" r="9.5"/>
		</g>
		<g>
			<g>
				<path class="st0" d="M781.5,60c38.3,0,74.4,15,101.7,42.3s42.3,63.4,42.3,101.7v1465c0,38.3-15,74.4-42.3,101.7
					c-27.3,27.3-63.4,42.3-101.7,42.3h-565c-38.3,0-74.4-15-101.7-42.3s-42.3-63.4-42.3-101.7V204c0-38.3,15-74.4,42.3-101.7
					S178.2,60,216.5,60H781.5 M781.5,54h-565c-82.5,0-150,67.5-150,150v1465c0,82.5,67.5,150,150,150h565c82.5,0,150-67.5,150-150
					V204C931.5,121.5,864,54,781.5,54L781.5,54z"/>
			</g>
			<g>
				<path class="st0" d="M782.5,77.7c33.5,0,65.1,13.1,89,37s37,55.5,37,89v1464.6c0,33.5-13.1,65.1-37,89s-55.5,37-89,37h-567
					c-33.5,0-65.1-13.1-89-37s-37-55.5-37-89V203.7c0-33.5,13.1-65.1,37-89s55.5-37,89-37H782.5 M782.5,73.7h-567
					c-71.5,0-130,58.5-130,130v1464.6c0,71.5,58.5,130,130,130h567c71.5,0,130-58.5,130-130V203.7C912.5,132.2,854,73.7,782.5,73.7
					L782.5,73.7z"/>
			</g>
		</g>
		<g>
			<path class="st0" d="M55,646v142c0,6.3,4.9,11.4,11,11.9v-4c-3.9-0.5-7-3.9-7-7.9V646c0-4.1,3.1-7.4,7-7.9v-4
				C59.9,634.6,55,639.7,55,646z"/>
			<path class="st0" d="M55,449v142c0,6.3,4.9,11.4,11,11.9v-4c-3.9-0.5-7-3.9-7-7.9V449c0-4.1,3.1-7.4,7-7.9v-4
				C59.9,437.6,55,442.7,55,449z"/>
			<path class="st0" d="M932,527.9v4c6.1-0.5,11-5.7,11-11.9V399c0-6.3-4.9-11.4-11-11.9v4c3.9,0.5,7,3.9,7,7.9v121
				C939,524.1,935.9,527.4,932,527.9z"/>
		</g>
		<g>
			<circle class="st1" cx="493" cy="1689" r="66.5"/>
			<circle class="st1" cx="493" cy="1689" r="55"/>
		</g>
	</g>
	<g>
		<rect x="121.5" y="263.5" class="st2" width="749" height="1333"/>
		<path class="st0" d="M870,264v1332H122V264H870 M871,263H121v1334h750V263L871,263z"/>
	</g>
</g>
</svg>
