<?xml version="1.0" encoding="utf-8"?>
<!-- Generator: Adobe Illustrator 24.1.2, SVG Export Plug-In . SVG Version: 6.00 Build 0)  -->
<svg version="1.1" id="Layer_1" xmlns="http://www.w3.org/2000/svg" xmlns:xlink="http://www.w3.org/1999/xlink" x="0px" y="0px"
	 viewBox="0 0 990 1860" style="enable-background:new 0 0 990 1860;" xml:space="preserve">
<style type="text/css">
	.st0{fill:#404040;}
	.st1{fill:none;stroke:#404040;stroke-width:4;stroke-miterlimit:10;}
	.st2{fill:transparent;}
</style>
<g>
	<g>
		<g>
			<path class="st0" d="M557.7,172.4H434.9c-6,0-10.8-4.9-10.8-10.8s4.9-10.8,10.8-10.8h122.8c6,0,10.8,4.9,10.8,10.8
				S563.7,172.4,557.7,172.4z M434.9,154.4c-3.9,0-7.1,3.2-7.1,7.1c0,3.9,3.2,7.1,7.1,7.1h122.8c3.9,0,7.1-3.2,7.1-7.1
				c0-3.9-3.2-7.1-7.1-7.1H434.9z"/>
			<circle class="st1" cx="356.5" cy="161.6" r="15.5"/>
			<circle class="st1" cx="496.3" cy="109.5" r="9.5"/>
		</g>
		<g>
			<rect x="117.5" y="248.5" class="st2" width="749" height="1331"/>
			<path d="M866,249v1330H118V249H866 M867,248H117v1332h750V248L867,248z"/>
		</g>
		<g>
			<g>
				<path class="st0" d="M778.5,43c38.3,0,74.4,15,101.7,42.3s42.3,63.4,42.3,101.7v1465c0,38.3-15,74.4-42.3,101.7
					c-27.3,27.3-63.4,42.3-101.7,42.3h-565c-38.3,0-74.4-15-101.7-42.3s-42.3-63.4-42.3-101.7V187c0-38.3,15-74.4,42.3-101.7
					S175.2,43,213.5,43H778.5 M778.5,37h-565c-82.5,0-150,67.5-150,150v1465c0,82.5,67.5,150,150,150h565c82.5,0,150-67.5,150-150
					V187C928.5,104.5,861,37,778.5,37L778.5,37z"/>
			</g>
			<g>
				<path class="st0" d="M779.5,60.7c33.5,0,65.1,13.1,89,37s37,55.5,37,89v1464.6c0,33.5-13.1,65.1-37,89s-55.5,37-89,37h-567
					c-33.5,0-65.1-13.1-89-37s-37-55.5-37-89V186.7c0-33.5,13.1-65.1,37-89s55.5-37,89-37L779.5,60.7 M779.5,56.7h-567
					c-71.5,0-130,58.5-130,130v1464.6c0,71.5,58.5,130,130,130h567c71.5,0,130-58.5,130-130V186.7C909.5,115.2,851,56.7,779.5,56.7
					L779.5,56.7z"/>
			</g>
		</g>
		<g>
			<path class="st0" d="M52,629v142c0,6.3,4.9,11.4,11,11.9v-4c-3.9-0.5-7-3.9-7-7.9V629c0-4.1,3.1-7.4,7-7.9v-4
				C56.9,617.6,52,622.7,52,629z"/>
			<path class="st0" d="M52,432v142c0,6.3,4.9,11.4,11,11.9v-4c-3.9-0.5-7-3.9-7-7.9V432c0-4.1,3.1-7.4,7-7.9v-4
				C56.9,420.6,52,425.7,52,432z"/>
			<path class="st0" d="M929,510.9v4c6.1-0.5,11-5.7,11-11.9V382c0-6.3-4.9-11.4-11-11.9v4c3.9,0.5,7,3.9,7,7.9v121
				C936,507.1,932.9,510.4,929,510.9z"/>
		</g>
		<g>
			<circle class="st1" cx="490" cy="1672" r="66.5"/>
			<circle class="st1" cx="490" cy="1672" r="55"/>
		</g>
	</g>
	<g>
		<rect x="118.5" y="246.5" class="st2" width="749" height="1333"/>
		<path class="st0" d="M867,247v1332H119V247H867 M868,246H118v1334h750V246L868,246z"/>
	</g>
</g>
</svg>
