<?xml version="1.0" encoding="utf-8"?>
<!-- Generator: Adobe Illustrator 24.1.2, SVG Export Plug-In . SVG Version: 6.00 Build 0)  -->
<svg version="1.1" id="Layer_1" xmlns="http://www.w3.org/2000/svg" xmlns:xlink="http://www.w3.org/1999/xlink" x="0px" y="0px"
	 viewBox="0 0 1330 2550" style="enable-background:new 0 0 1330 2550;" xml:space="preserve">
<style type="text/css">
	.st0{fill:#404040;}
	.st1{fill:transparent;}
</style>
<g>
	<g>
		<path class="st0" d="M695.1,128.2c-8.3,0-15.1-6.8-15.1-15.1S686.8,98,695.1,98s15.1,6.8,15.1,15.1
			C710.2,121.4,703.4,128.2,695.1,128.2z M695.1,101.7c-6.3,0-11.4,5.1-11.4,11.4s5.1,11.4,11.4,11.4c6.3,0,11.4-5.1,11.4-11.4
			C706.4,106.8,701.4,101.7,695.1,101.7z"/>
		<path class="st0" d="M532.5,203.8c-11.5,0-20.8-9.3-20.8-20.8s9.3-20.8,20.8-20.8s20.8,9.3,20.8,20.8S544,203.8,532.5,203.8z
			 M532.5,166c-9.4,0-17,7.6-17,17s7.6,17,17,17s17-7.6,17-17C549.6,173.6,541.9,166,532.5,166z"/>
		<path class="st0" d="M764.5,192.5H623.7c-6,0-10.8-4.9-10.8-10.8s4.9-10.8,10.8-10.8h140.8c6,0,10.8,4.9,10.8,10.8
			S770.5,192.5,764.5,192.5z M623.7,174.5c-3.9,0-7.1,3.2-7.1,7.1c0,3.9,3.2,7.1,7.1,7.1h140.8c3.9,0,7.1-3.2,7.1-7.1
			c0-3.9-3.2-7.1-7.1-7.1H623.7z"/>
	</g>
	<g>
		<path class="st0" d="M695,2421.1c-38,0-68.9-30.9-68.9-68.9s30.9-68.9,68.9-68.9s68.9,30.9,68.9,68.9S733,2421.1,695,2421.1z
			 M695,2286.9c-36,0-65.3,29.3-65.3,65.3s29.3,65.3,65.3,65.3s65.3-29.3,65.3-65.3S731,2286.9,695,2286.9z"/>
		<path class="st0" d="M695,2434.6c-45.5,0-82.5-37-82.5-82.5s37-82.5,82.5-82.5s82.5,37,82.5,82.5S740.5,2434.6,695,2434.6z
			 M695,2273.3c-43.5,0-78.8,35.4-78.8,78.8c0,43.5,35.4,78.8,78.8,78.8c43.5,0,78.8-35.4,78.8-78.8S738.5,2273.3,695,2273.3z"/>
	</g>
	<g>
		<rect x="155.5" y="310.5" class="st1" width="1079" height="1919"/>
		<path class="st0" d="M1234,311v1918H156V311H1234 M1235,310H155v1920h1080V310L1235,310z"/>
	</g>
	<g>
		<g>
			<path class="st0" d="M1149.5,37c38.3,0,74.4,15,101.7,42.3c27.3,27.3,42.3,63.4,42.3,101.7v2172c0,38.3-15,74.4-42.3,101.7
				s-63.4,42.3-101.7,42.3h-909c-38.3,0-74.4-15-101.7-42.3s-42.3-63.4-42.3-101.7V181c0-38.3,15-74.4,42.3-101.7S202.2,37,240.5,37
				H1149.5 M1149.5,31h-909c-82.5,0-150,67.5-150,150v2172c0,82.5,67.5,150,150,150h909c82.5,0,150-67.5,150-150V181
				C1299.5,98.5,1232,31,1149.5,31L1149.5,31z"/>
		</g>
		<g>
			<path class="st0" d="M1151.5,53.7c33.5,0,65.1,13.1,89,37s37,55.5,37,89v2174.6c0,33.5-13.1,65.1-37,89s-55.5,37-89,37h-912
				c-33.5,0-65.1-13.1-89-37s-37-55.5-37-89V179.7c0-33.5,13.1-65.1,37-89s55.5-37,89-37L1151.5,53.7 M1151.5,49.7h-912
				c-71.5,0-130,58.5-130,130v2174.6c0,71.5,58.5,130,130,130h912c71.5,0,130-58.5,130-130V179.7
				C1281.5,108.2,1223,49.7,1151.5,49.7L1151.5,49.7z"/>
		</g>
	</g>
	<g>
		<path class="st0" d="M79,697v142c0,6.3,4.9,11.4,11,11.9v-4c-3.9-0.5-7-3.9-7-7.9V697c0-4.1,3.1-7.4,7-7.9v-4
			C83.9,685.6,79,690.7,79,697z"/>
		<path class="st0" d="M79,500v142c0,6.3,4.9,11.4,11,11.9v-4c-3.9-0.5-7-3.9-7-7.9V500c0-4.1,3.1-7.4,7-7.9v-4
			C83.9,488.6,79,493.7,79,500z"/>
		<path class="st0" d="M90,312.1v-4c-6.1,0.5-11,5.7-11,11.9v66c0,6.3,4.9,11.4,11,11.9v-4c-3.9-0.5-7-3.9-7-7.9v-66
			C83,315.9,86.1,312.6,90,312.1z"/>
	</g>
</g>
</svg>
