<?xml version="1.0" encoding="utf-8"?>
<!-- Generator: Adobe Illustrator 24.1.2, SVG Export Plug-In . SVG Version: 6.00 Build 0)  -->
<svg version="1.1" id="Layer_1" xmlns="http://www.w3.org/2000/svg" xmlns:xlink="http://www.w3.org/1999/xlink" x="0px" y="0px"
	 viewBox="0 0 740 1480" style="enable-background:new 0 0 740 1480;" xml:space="preserve">
<style type="text/css">
	.st0{fill:#404040;}
	.st1{fill:transparent;}
</style>
<g>
	<path class="st0" d="M640.9,1466.8H105.7c-45.7,0-82.8-37.1-82.8-82.8V99c0-45.7,37.1-82.8,82.8-82.8H641
		c45.7,0,82.8,37.1,82.8,82.8v1285C723.7,1429.6,686.6,1466.8,640.9,1466.8z M105.7,18.4c-44.4,0-80.6,36.1-80.6,80.6v1285
		c0,44.4,36.1,80.6,80.6,80.6H641c44.4,0,80.6-36.1,80.6-80.6V99c0-44.4-36.1-80.6-80.6-80.6C641,18.4,105.7,18.4,105.7,18.4z"/>
	<g>
		<path class="st0" d="M371.9,60.4c-5,0-9.1-4.1-9.1-9.1s4.1-9.1,9.1-9.1s9.1,4.1,9.1,9.1C381,56.4,376.9,60.4,371.9,60.4z
			 M371.9,44.5c-3.8,0-6.8,3.1-6.8,6.8s3.1,6.8,6.8,6.8c3.8,0,6.8-3.1,6.8-6.8S375.7,44.5,371.9,44.5z"/>
		<path class="st0" d="M274.3,105.8c-6.9,0-12.5-5.6-12.5-12.5s5.6-12.5,12.5-12.5s12.5,5.6,12.5,12.5
			C286.8,100.2,281.2,105.8,274.3,105.8z M274.3,83.1c-5.6,0-10.2,4.6-10.2,10.2s4.6,10.2,10.2,10.2s10.2-4.6,10.2-10.2
			C284.6,87.7,280,83.1,274.3,83.1z"/>
		<path class="st0" d="M413.6,99h-84.5c-3.6,0-6.5-2.9-6.5-6.5s2.9-6.5,6.5-6.5h84.5c3.6,0,6.5,2.9,6.5,6.5S417.2,99,413.6,99z
			 M329.1,88.2c-2.4,0-4.3,1.9-4.3,4.3s1.9,4.3,4.3,4.3h84.5c2.4,0,4.3-1.9,4.3-4.3s-1.9-4.3-4.3-4.3H329.1z"/>
	</g>
	<g>
		<path class="st0" d="M373.3,1434.1c-23.5,0-42.5-19.1-42.5-42.5c0-23.5,19.1-42.5,42.5-42.5c23.5,0,42.5,19.1,42.5,42.5
			C415.8,1415.1,396.7,1434.1,373.3,1434.1z M373.3,1351.3c-22.2,0-40.3,18.1-40.3,40.3c0,22.2,18.1,40.3,40.3,40.3
			c22.2,0,40.3-18.1,40.3-40.3C413.6,1369.4,395.5,1351.3,373.3,1351.3z"/>
		<path class="st0" d="M373.3,1442.5c-28.1,0-50.9-22.8-50.9-50.9s22.8-50.9,50.9-50.9s50.9,22.8,50.9,50.9
			C424.2,1419.7,401.3,1442.5,373.3,1442.5z M373.3,1342.9c-26.8,0-48.7,21.8-48.7,48.7c0,26.8,21.8,48.7,48.7,48.7
			c26.8,0,48.7-21.8,48.7-48.7C421.9,1364.8,400.1,1342.9,373.3,1342.9z"/>
	</g>
	<g>
		<path class="st0" d="M12.5,234.7H3.8v-60h8.7V234.7z M6,232.5h4.2v-55.6H6V232.5z"/>
		<path class="st0" d="M12.5,382H3.8v-94.5h8.7V382z M6,379.8h4.2v-90H6V379.8z"/>
		<path class="st0" d="M12.5,494.9H3.8v-94.5h8.7V494.9z M6,492.6h4.2v-90H6V492.6z"/>
	</g>
	<path class="st0" d="M650.5,1481H96.1c-47.9,0-86.8-39-86.8-86.9V496H2.6v-96.8h6.6v-16.1H2.6v-96.8h6.6v-50.6H2.6v-62.3h6.6V89.8
		C9.2,42,48.2,3,96.1,3h554.5c47.9,0,86.8,39,86.8,86.8v1304.3C737.4,1442,698.4,1481,650.5,1481z M7.1,491.5h6.6v902.6
		c0,45.4,36.9,82.4,82.4,82.4h554.5c45.4,0,82.4-36.9,82.4-82.4V89.8c0-45.4-36.9-82.4-82.4-82.4H96.1c-45.4,0-82.4,36.9-82.4,82.4
		V178H7.1v53.3h6.6v59.5H7.1v87.8h6.6v25.1H7.1V491.5z"/>
</g>
<g>
	<rect x="53.5" y="174.5" class="st1" width="639" height="1135"/>
	<path class="st0" d="M692,175v1134H54V175H692 M693,174H53v1136h640V174L693,174z"/>
</g>
</svg>
