<?xml version="1.0" encoding="utf-8"?>
<!-- Generator: Adobe Illustrator 24.1.2, SVG Export Plug-In . SVG Version: 6.00 Build 0)  -->
<svg version="1.1" id="Layer_1" xmlns="http://www.w3.org/2000/svg" xmlns:xlink="http://www.w3.org/1999/xlink" x="0px" y="0px"
	 viewBox="0 0 960 1750" style="enable-background:new 0 0 960 1750;" xml:space="preserve">
<style type="text/css">
	.st0{fill:#404040;}
	.st1{fill:transparent;}
</style>
<g>
	<path class="st0" d="M479.8,103.4c-5,0-9.1-4.1-9.1-9.1s4.1-9.1,9.1-9.1s9.1,4.1,9.1,9.1C488.9,99.4,484.8,103.4,479.8,103.4z
		 M479.8,87.5c-3.8,0-6.8,3.1-6.8,6.8c0,3.8,3.1,6.8,6.8,6.8c3.8,0,6.8-3.1,6.8-6.8C486.6,90.6,483.6,87.5,479.8,87.5z"/>
	<path class="st0" d="M382.2,148.8c-6.9,0-12.5-5.6-12.5-12.5s5.6-12.5,12.5-12.5s12.5,5.6,12.5,12.5S389.1,148.8,382.2,148.8z
		 M382.2,126.1c-5.6,0-10.2,4.6-10.2,10.2s4.6,10.2,10.2,10.2s10.2-4.6,10.2-10.2C392.5,130.7,387.9,126.1,382.2,126.1z"/>
	<path class="st0" d="M521.5,142H437c-3.6,0-6.5-2.9-6.5-6.5s2.9-6.5,6.5-6.5h84.5c3.6,0,6.5,2.9,6.5,6.5S525.1,142,521.5,142z
		 M437,131.2c-2.4,0-4.3,1.9-4.3,4.3c0,2.4,1.9,4.3,4.3,4.3h84.5c2.4,0,4.3-1.9,4.3-4.3c0-2.4-1.9-4.3-4.3-4.3H437z"/>
</g>
<g>
	<path class="st0" d="M476,1675.1c-23.5,0-42.5-19.1-42.5-42.5c0-23.5,19.1-42.5,42.5-42.5c23.5,0,42.5,19.1,42.5,42.5
		C518.5,1656.1,499.5,1675.1,476,1675.1z M476,1592.3c-22.2,0-40.3,18.1-40.3,40.3c0,22.2,18.1,40.3,40.3,40.3
		c22.2,0,40.3-18.1,40.3-40.3S498.2,1592.3,476,1592.3z"/>
	<path class="st0" d="M476,1683.5c-28.1,0-50.9-22.8-50.9-50.9s22.8-50.9,50.9-50.9s50.9,22.8,50.9,50.9S504.1,1683.5,476,1683.5z
		 M476,1583.9c-26.8,0-48.7,21.8-48.7,48.7c0,26.8,21.8,48.7,48.7,48.7c26.8,0,48.7-21.8,48.7-48.7
		C524.7,1605.8,502.8,1583.9,476,1583.9z"/>
</g>
<g>
	<path class="st0" d="M801.9,1707.8H156.7c-45.7,0-82.8-37.1-82.8-82.8V142c0-45.7,37.1-82.8,82.8-82.8H802
		c45.7,0,82.8,37.1,82.8,82.8v1483C884.7,1670.6,847.6,1707.8,801.9,1707.8z M156.7,61.4c-44.4,0-80.6,36.1-80.6,80.6v1483
		c0,44.4,36.1,80.6,80.6,80.6H802c44.4,0,80.6-36.1,80.6-80.6V142c0-44.4-36.1-80.6-80.6-80.6H156.7z"/>
	<path class="st0" d="M811.5,1722H147.1c-47.9,0-86.8-39-86.8-86.9V539h-6.6v-96.8h6.6v-16.1h-6.6v-96.8h6.6v-50.6h-6.6v-62.3h6.6
		v-83.7c0-47.9,39-86.8,86.8-86.8h664.5c47.9,0,86.8,39,86.8,86.8V1635C898.4,1683,859.4,1722,811.5,1722z M58.1,534.5h6.6v1100.6
		c0,45.4,36.9,82.4,82.4,82.4h664.5c45.4,0,82.4-36.9,82.4-82.4V132.8c0-45.4-36.9-82.4-82.4-82.4H147.1
		c-45.4,0-82.4,36.9-82.4,82.4V221h-6.6v53.3h6.6v59.5h-6.6v87.8h6.6v25.1h-6.6C58.1,446.7,58.1,534.5,58.1,534.5z"/>
</g>
<g>
	<rect x="104.5" y="208.5" class="st1" width="749" height="1333"/>
	<path class="st0" d="M853,209v1332H105V209H853 M854,208H104v1334h750V208L854,208z"/>
</g>
</svg>
