<?xml version="1.0" encoding="utf-8"?>
<!-- Generator: Adobe Illustrator 24.1.2, SVG Export Plug-In . SVG Version: 6.00 Build 0)  -->
<svg version="1.1" id="Layer_1" xmlns="http://www.w3.org/2000/svg" xmlns:xlink="http://www.w3.org/1999/xlink" x="0px" y="0px"
	 viewBox="0 0 1040 1620" style="enable-background:new 0 0 1040 1620;" xml:space="preserve">
<style type="text/css">
	.st0{fill:transparent;}
	.st1{fill:#404040;}
</style>
<g>
	<g>
		<rect x="133.5" y="132.5" class="st0" width="767" height="1365"/>
		<path class="st1" d="M900,133v1364H134V133H900 M901,132H133v1366h768V132L901,132z"/>
	</g>
	<g>
		<g>
			<polygon class="st1" points="950.3,819.5 950.3,835.5 963.7,835.5 965.7,819.5 			"/>
			<polygon class="st1" points="950.3,815.9 966.2,815.9 969,794.5 950.3,794.5 			"/>
		</g>
		<g>
			<polygon class="st1" points="930.8,815.9 946.7,815.9 946.7,794.5 928,794.5 			"/>
			<polygon class="st1" points="931.3,819.5 933.3,835.5 946.7,835.5 946.7,819.5 			"/>
		</g>
	</g>
	<g>
		<path class="st1" d="M980,37c11,0,20,9,20,20v1516c0,11-9,20-20,20H56c-11,0-20-9-20-20V57c0-11,9-20,20-20H980 M980,33H56
			c-13.3,0-24,10.7-24,24v1516c0,13.3,10.7,24,24,24h924c13.3,0,24-10.7,24-24V57C1004,43.7,993.3,33,980,33L980,33z"/>
	</g>
</g>
</svg>
