<?xml version="1.0" encoding="utf-8"?>
<!-- Generator: Adobe Illustrator 24.1.2, SVG Export Plug-In . SVG Version: 6.00 Build 0)  -->
<svg version="1.1" id="Layer_1" xmlns="http://www.w3.org/2000/svg" xmlns:xlink="http://www.w3.org/1999/xlink" x="0px" y="0px"
	 viewBox="0 0 460 810" style="enable-background:new 0 0 460 810;" xml:space="preserve">
<style type="text/css">
	.st0{opacity:0.5;}
	.st1{fill:transparent;}
	.st2{fill:#404040;}
	.st3{fill:none;stroke:#404040;stroke-width:3;stroke-miterlimit:10;}
</style>
<g>
	<g class="st0">
		<rect x="63.5" y="96.5" class="st1" width="329" height="567"/>
		<path class="st2" d="M392,97v566H64V97H392 M393,96H63v568h330V96L393,96z"/>
	</g>
	<g>
		<path class="st2" d="M435,16c0.5,0,1,0.5,1,1v774c0,0.5-0.5,1-1,1H19c-0.5,0-1-0.5-1-1V17c0-0.5,0.5-1,1-1H435 M435,12H19
			c-2.8,0-5,2.3-5,5v774c0,2.8,2.3,5,5,5h416c2.8,0,5-2.3,5-5V17C440,14.3,437.8,12,435,12L435,12z"/>
	</g>
	<g>
		<path class="st2" d="M402.5,29C416,29,427,40,427,53.5v700c0,13.5-11,24.5-24.5,24.5h-351C38,778,27,767,27,753.5v-700
			C27,40,38,29,51.5,29H402.5 M402.5,27h-351C36.9,27,25,38.9,25,53.5v700c0,14.6,11.9,26.5,26.5,26.5h351
			c14.6,0,26.5-11.9,26.5-26.5v-700C429,38.9,417.1,27,402.5,27L402.5,27z"/>
	</g>
	<g>
		<path class="st2" d="M253,49c0.5,0,1,0.5,1,1s-0.5,1-1,1h-55c-0.5,0-1-0.5-1-1s0.5-1,1-1H253 M253,47h-55c-1.6,0-3,1.4-3,3
			s1.4,3,3,3h55c1.6,0,3-1.4,3-3S254.6,47,253,47L253,47z"/>
	</g>
	<g>
		<rect x="439" y="160" class="st2" width="5" height="121"/>
	</g>
	<g>
		<rect x="439" y="338" class="st2" width="5" height="61"/>
	</g>
	<g>
		<polygon class="st2" points="95,700 84.6,700 90.5,694.1 86.2,694.2 81.2,699.2 79.1,701.3 81.2,703.4 86.2,708.4 90.5,708.5 
			85,703 95,703 		"/>
	</g>
	<g>
		<g>
			<polygon class="st2" points="225,702 216,702 216,709.5 225,710.7 			"/>
			<polygon class="st2" points="227,702 227,710.9 239,712.5 239,702 			"/>
		</g>
		<g>
			<polygon class="st2" points="227,691.1 227,700 239,700 239,689.5 			"/>
			<polygon class="st2" points="225,691.3 216,692.5 216,700 225,700 			"/>
		</g>
	</g>
	<g>
		<circle class="st3" cx="369.5" cy="702.5" r="6"/>
		<path class="st2" d="M360.3,712.2L360.3,712.2c-0.6-0.6-0.6-1.5,0-2.1l4.4-4.4l2.1,2.1l-4.4,4.4
			C361.8,712.8,360.8,712.8,360.3,712.2z"/>
	</g>
</g>
</svg>
