<?xml version="1.0" encoding="utf-8"?>
<!-- Generator: Adobe Illustrator 21.0.0, SVG Export Plug-In . SVG Version: 6.00 Build 0)  -->
<svg version="1.1" id="Layer_1" xmlns="http://www.w3.org/2000/svg" xmlns:xlink="http://www.w3.org/1999/xlink" x="0px" y="0px"
	 viewBox="0 0 24 24" style="enable-background:new 0 0 24 24;" xml:space="preserve">
<style type="text/css">
	.st0{fill:#1AB394;}
</style>
<path class="st0" d="M75,6.5C75,4.6,73.4,3,71.5,3S68,4.6,68,6.5c0,1.4,0.8,2.6,2,3.2c-0.2,1-0.7,1.8-1.7,2.3
	c-0.4,0.2-0.9,0.4-1.3,0.6c-0.8,0.3-1.7,0.6-2.5,0.9c-0.2,0.1-0.3,0.1-0.5,0.2v-6c1.2-0.6,2-1.8,2-3.2C66,2.6,64.4,1,62.5,1
	C60.6,1,59,2.6,59,4.5c0,1.4,0.8,2.6,2,3.2v9.7c-1.2,0.6-2,1.8-2,3.2c0,1.8,1.6,3.4,3.5,3.4s3.5-1.6,3.5-3.5c0-1.4-0.8-2.6-2-3.2
	l0,0c0.1-0.5,0.4-1,0.9-1.2c0.3-0.1,0.6-0.3,1-0.4c1.1-0.4,2.1-0.7,3.2-1.2c1.4-0.6,2.5-1.5,3.1-2.9c0.2-0.4,0.3-1.1,0.4-1.8
	C74,9.3,75,8.1,75,6.5z M62.5,3C63.3,3,64,3.7,64,4.5S63.3,6,62.5,6S61,5.3,61,4.5S61.7,3,62.5,3z M62.5,22c-0.8,0-1.5-0.7-1.5-1.5
	s0.7-1.5,1.5-1.5s1.5,0.7,1.5,1.5S63.3,22,62.5,22z M70,6.5C70,5.7,70.7,5,71.5,5C72.3,5,73,5.7,73,6.5S72.3,8,71.5,8
	C70.7,8,70,7.3,70,6.5z"/>
<g>
	<polygon class="st0" points="9,18 10,19 12,17 12,23 14,23 14,17 16,19 17,18 13,14 	"/>
	<path class="st0" d="M20.9,7.9C21,7.6,21,7.3,21,7c0-2.8-2.2-5-5-5c-2.6,0-4.7,1.9-4.9,4.4C10.3,5.6,9.2,5,8,5h0C5.8,5,4,6.8,4,9
		v0.2C2.3,9.6,1,10.5,1,13c0,2.3,2.4,3,4,3h3l5-5l5,5c2.8,0,5-1.2,5-4C23,10.3,22.2,8.9,20.9,7.9z"/>
</g>
</svg>
