<?xml version="1.0" encoding="utf-8"?>
<svg version="1.1" id="Layer_1" xmlns="http://www.w3.org/2000/svg" xmlns:xlink="http://www.w3.org/1999/xlink" x="0px" y="0px"
	 viewBox="0 0 12 12" style="enable-background:new 0 0 12 12;" xml:space="preserve">
<path class="gear-icon" fill="#1ab394" d="M12,7V5H9.9C9.8,4.6,9.6,4.3,9.4,4l1.5-1.5L9.5,1.1L8,2.6C7.7,2.4,7.4,2.2,7,2.1V0H5v2.1C4.6,2.2,4.3,2.4,4,2.6
	L2.5,1.1L1.1,2.5L2.6,4C2.4,4.3,2.2,4.6,2.1,5H0v2h2.1c0.1,0.4,0.2,0.7,0.4,1L1.1,9.5l1.4,1.4L4,9.4c0.3,0.2,0.7,0.3,1,0.4V12h2V9.9
	c0.4-0.1,0.7-0.2,1-0.4l1.5,1.5l1.4-1.4L9.4,8c0.2-0.3,0.3-0.7,0.4-1H12z M6,8C4.9,8,4,7.1,4,6c0-1.1,0.9-2,2-2c1.1,0,2,0.9,2,2
	C8,7.1,7.1,8,6,8z"/>
</svg>
