<?xml version="1.0" encoding="utf-8"?>
<!-- Generator: Adobe Illustrator 21.0.0, SVG Export Plug-In . SVG Version: 6.00 Build 0)  -->
<svg version="1.1" id="Layer_1" xmlns="http://www.w3.org/2000/svg" xmlns:xlink="http://www.w3.org/1999/xlink" x="0px" y="0px"
	 viewBox="0 0 16 16" enable-background="new 0 0 16 16" xml:space="preserve">
<g>
	<path fill="#3D4D5D" d="M4,1C2.3,1,1,2.3,1,4s1.3,3,3,3s3-1.3,3-3S5.7,1,4,1z M4,6C2.9,6,2,5.1,2,4c0-1.1,0.9-2,2-2s2,0.9,2,2
		C6,5.1,5.1,6,4,6z"/>
	<circle fill="#3D4D5D" cx="4" cy="4" r="1"/>
	<path fill="#3D4D5D" d="M12,7c1.7,0,3-1.3,3-3s-1.3-3-3-3S9,2.3,9,4S10.3,7,12,7z M12,2c1.1,0,2,0.9,2,2c0,1.1-0.9,2-2,2
		s-2-0.9-2-2C10,2.9,10.9,2,12,2z"/>
	<path fill="#3D4D5D" d="M4,9c-1.7,0-3,1.3-3,3s1.3,3,3,3s3-1.3,3-3S5.7,9,4,9z M4,14c-1.1,0-2-0.9-2-2c0-1.1,0.9-2,2-2s2,0.9,2,2
		C6,13.1,5.1,14,4,14z"/>
	<circle fill="#3D4D5D" cx="4" cy="12" r="1"/>
	<path fill="#3D4D5D" d="M12,9c-1.7,0-3,1.3-3,3s1.3,3,3,3s3-1.3,3-3S13.7,9,12,9z M12,14c-1.1,0-2-0.9-2-2c0-1.1,0.9-2,2-2
		s2,0.9,2,2C14,13.1,13.1,14,12,14z"/>
</g>
</svg>
