<?xml version="1.0" encoding="utf-8"?>
<!-- Generator: Adobe Illustrator 21.0.0, SVG Export Plug-In . SVG Version: 6.00 Build 0)  -->
<svg version="1.1" id="Layer_1" xmlns="http://www.w3.org/2000/svg" xmlns:xlink="http://www.w3.org/1999/xlink" x="0px" y="0px"
	 viewBox="0 0 24 24" enable-background="new 0 0 24 24" xml:space="preserve">
<g>
	<path opacity="0.9" fill="#9D9FA1" d="M14,11V8h-1.2c-0.1-0.4-0.3-0.8-0.5-1.2L13.2,6L11,3.8l-0.9,0.9C9.8,4.5,9.4,4.3,9,4.2V3H6
		v1.2C5.6,4.3,5.2,4.5,4.8,4.7L4,3.8L1.8,6l0.9,0.9C2.5,7.2,2.3,7.6,2.2,8H1v3h1.2c0.1,0.4,0.3,0.8,0.5,1.2L1.8,13L4,15.2l0.9-0.9
		c0.4,0.2,0.8,0.4,1.2,0.5V16h3v-1.2c0.4-0.1,0.8-0.3,1.2-0.5l0.9,0.9l2.1-2.1l-0.9-0.9c0.2-0.4,0.4-0.8,0.5-1.2H14z M7.5,12.5
		c-1.7,0-3-1.3-3-3s1.3-3,3-3s3,1.3,3,3S9.2,12.5,7.5,12.5z"/>
	<path opacity="0.6" fill="#9D9FA1" d="M24,17v-2h-1.1c-0.1-0.4-0.2-0.7-0.4-1l0.8-0.8l-1.4-1.4L21,12.6c-0.3-0.2-0.7-0.3-1-0.4V11
		h-2v1.1c-0.4,0.1-0.7,0.2-1,0.4l-0.8-0.8l-1.4,1.4l0.8,0.8c-0.2,0.3-0.3,0.7-0.4,1H14v2h1.1c0.1,0.4,0.2,0.7,0.4,1l-0.8,0.8
		l1.4,1.4l0.8-0.8c0.3,0.2,0.7,0.3,1,0.4V21h2v-1.1c0.4-0.1,0.7-0.2,1-0.4l0.8,0.8l1.4-1.4L22.4,18c0.2-0.3,0.3-0.7,0.4-1H24z
		 M19,18c-1.1,0-2-0.9-2-2c0-1.1,0.9-2,2-2s2,0.9,2,2C21,17.1,20.1,18,19,18z"/>
</g>
</svg>
