<?xml version="1.0" encoding="utf-8"?>
<!-- Generator: Adobe Illustrator 22.0.1, SVG Export Plug-In . SVG Version: 6.00 Build 0)  -->
<svg version="1.1" id="Layer_1" xmlns="http://www.w3.org/2000/svg" xmlns:xlink="http://www.w3.org/1999/xlink" x="0px" y="0px"
	 viewBox="0 0 20 20" style="enable-background:new 0 0 20 20;" xml:space="preserve">
<path d="M10,0C4.5,0,0,4.5,0,10c0,5.5,4.5,10,10,10s10-4.5,10-10C20,4.5,15.5,0,10,0z M2,10c0-1.4,0.4-2.8,1.1-3.9
	l7.6,7.6c-0.3,0.1-0.6,0.2-0.9,0.2c-1.1,0-2.1-0.4-3-1.1l-1,1.8c0.2,0.2,0.5,0.5,0.9,0.7s0.9,0.4,1.4,0.5c0.3,0.1,0.6,0.1,0.9,0.2
	V17h2v-1.3c0.5-0.1,0.9-0.3,1.2-0.5l1.7,1.7C12.8,17.6,11.4,18,10,18C5.6,18,2,14.4,2,10z M16.1,15.1l-2.4-2.4c0-0.1,0-0.2,0-0.3v0
	c0-0.6-0.1-1.2-0.3-1.6s-0.5-0.7-0.8-0.9c-0.3-0.2-0.7-0.4-1.1-0.5c-0.4-0.1-0.8-0.2-1.2-0.3C10.2,9,10.1,9,9.9,8.9L8.4,7.4
	c0-0.3,0.2-0.6,0.4-0.8c0.3-0.2,0.7-0.3,1.3-0.3c0.8,0,1.6,0.3,2.4,1l0.9-1.8c-0.5-0.4-1-0.7-1.6-0.9c-0.3-0.1-0.6-0.2-0.9-0.2V3H9
	v1.4C8.3,4.5,7.7,4.7,7.3,5.1C7.1,5.3,6.9,5.5,6.8,5.8L4.9,3.9C6.3,2.7,8,2,10,2c4.4,0,8,3.6,8,8C18,12,17.3,13.7,16.1,15.1z"/>
</svg>
