<?xml version="1.0" encoding="utf-8"?>
<!-- Generator: Adobe Illustrator 21.0.0, SVG Export Plug-In . SVG Version: 6.00 Build 0)  -->
<svg version="1.1" id="Layer_1" xmlns="http://www.w3.org/2000/svg" xmlns:xlink="http://www.w3.org/1999/xlink" x="0px" y="0px"
	 viewBox="0 0 16 16" style="enable-background:new 0 0 16 16;" xml:space="preserve">
<style type="text/css">
	.st0{fill:#3D4D5D;}
</style>
<g>
	<g>
		<path class="st0" d="M3,1C1.3,1,0,2.3,0,4c0,1.7,1.3,3,3,3c1.7,0,3-1.3,3-3C6,2.3,4.7,1,3,1z M3,5C2.4,5,2,4.6,2,4
			c0-0.6,0.4-1,1-1c0.6,0,1,0.4,1,1C4,4.6,3.6,5,3,5z M3,9c-1.7,0-3,1.3-3,3c0,1.7,1.3,3,3,3c1.7,0,3-1.3,3-3C6,10.3,4.7,9,3,9z
			 M3,13c-0.6,0-1-0.4-1-1c0-0.6,0.4-1,1-1c0.6,0,1,0.4,1,1C4,12.6,3.6,13,3,13z M8,3v2h8V3H8z M8,13h8v-2H8V13z"/>
	</g>
</g>
</svg>
