<?xml version="1.0" encoding="utf-8"?>
<!-- Generator: Adobe Illustrator 24.1.2, SVG Export Plug-In . SVG Version: 6.00 Build 0)  -->
<svg version="1.1" id="Layer_1" xmlns="http://www.w3.org/2000/svg" xmlns:xlink="http://www.w3.org/1999/xlink" x="0px" y="0px"
	 viewBox="0 0 1330 2550" style="enable-background:new 0 0 1330 2550;" xml:space="preserve">
<style type="text/css">
	.st0{fill:#404040;}
	.st1{fill:transparent;}
</style>
<g>
	<g>
		<path class="st0" d="M668.1,133.2c-8.3,0-15.1-6.8-15.1-15.1s6.8-15.1,15.1-15.1s15.1,6.8,15.1,15.1
			C683.2,126.4,676.4,133.2,668.1,133.2z M668.1,106.7c-6.3,0-11.4,5.1-11.4,11.4s5.1,11.4,11.4,11.4c6.3,0,11.4-5.1,11.4-11.4
			C679.4,111.8,674.4,106.7,668.1,106.7z"/>
		<path class="st0" d="M505.5,208.8c-11.5,0-20.8-9.3-20.8-20.8s9.3-20.8,20.8-20.8s20.8,9.3,20.8,20.8S517,208.8,505.5,208.8z
			 M505.5,171c-9.4,0-17,7.6-17,17s7.6,17,17,17s17-7.6,17-17C522.6,178.6,514.9,171,505.5,171z"/>
		<path class="st0" d="M737.5,197.5H596.7c-6,0-10.8-4.9-10.8-10.8s4.9-10.8,10.8-10.8h140.8c6,0,10.8,4.9,10.8,10.8
			S743.5,197.5,737.5,197.5z M596.7,179.5c-3.9,0-7.1,3.2-7.1,7.1c0,3.9,3.2,7.1,7.1,7.1h140.8c3.9,0,7.1-3.2,7.1-7.1
			c0-3.9-3.2-7.1-7.1-7.1H596.7z"/>
	</g>
	<g>
		<path d="M668,2426.1c-38,0-68.9-30.9-68.9-68.9s30.9-68.9,68.9-68.9s68.9,30.9,68.9,68.9S706,2426.1,668,2426.1z M668,2291.9
			c-36,0-65.3,29.3-65.3,65.3s29.3,65.3,65.3,65.3s65.3-29.3,65.3-65.3S704,2291.9,668,2291.9z"/>
		<path d="M668,2439.6c-45.5,0-82.5-37-82.5-82.5s37-82.5,82.5-82.5s82.5,37,82.5,82.5S713.5,2439.6,668,2439.6z M668,2278.3
			c-43.5,0-78.8,35.4-78.8,78.8c0,43.5,35.4,78.8,78.8,78.8c43.5,0,78.8-35.4,78.8-78.8S711.5,2278.3,668,2278.3z"/>
	</g>
	<g>
		<rect x="128.5" y="315.5" class="st1" width="1079" height="1919"/>
		<path class="st0" d="M1207,316v1918H129V316H1207 M1208,315H128v1920h1080V315L1208,315z"/>
	</g>
	<g>
		<g>
			<path class="st0" d="M1122.5,42c38.3,0,74.4,15,101.7,42.3c27.3,27.3,42.3,63.4,42.3,101.7v2172c0,38.3-15,74.4-42.3,101.7
				s-63.4,42.3-101.7,42.3h-909c-38.3,0-74.4-15-101.7-42.3s-42.3-63.4-42.3-101.7V186c0-38.3,15-74.4,42.3-101.7S175.2,42,213.5,42
				H1122.5 M1122.5,36h-909c-82.5,0-150,67.5-150,150v2172c0,82.5,67.5,150,150,150h909c82.5,0,150-67.5,150-150V186
				C1272.5,103.5,1205,36,1122.5,36L1122.5,36z"/>
		</g>
		<g>
			<path class="st0" d="M1124.5,58.7c33.5,0,65.1,13.1,89,37s37,55.5,37,89v2174.6c0,33.5-13.1,65.1-37,89s-55.5,37-89,37h-912
				c-33.5,0-65.1-13.1-89-37s-37-55.5-37-89V184.7c0-33.5,13.1-65.1,37-89s55.5-37,89-37L1124.5,58.7 M1124.5,54.7h-912
				c-71.5,0-130,58.5-130,130v2174.6c0,71.5,58.5,130,130,130h912c71.5,0,130-58.5,130-130V184.7
				C1254.5,113.2,1196,54.7,1124.5,54.7L1124.5,54.7z"/>
		</g>
	</g>
	<g>
		<path class="st0" d="M52,702v142c0,6.3,4.9,11.4,11,11.9v-4c-3.9-0.5-7-3.9-7-7.9V702c0-4.1,3.1-7.4,7-7.9v-4
			C56.9,690.6,52,695.7,52,702z"/>
		<path class="st0" d="M52,505v142c0,6.3,4.9,11.4,11,11.9v-4c-3.9-0.5-7-3.9-7-7.9V505c0-4.1,3.1-7.4,7-7.9v-4
			C56.9,493.6,52,498.7,52,505z"/>
		<path class="st0" d="M63,317.1v-4c-6.1,0.5-11,5.7-11,11.9v66c0,6.3,4.9,11.4,11,11.9v-4c-3.9-0.5-7-3.9-7-7.9v-66
			C56,320.9,59.1,317.6,63,317.1z"/>
	</g>
</g>
</svg>
