<?xml version="1.0" encoding="utf-8"?>
<!-- Generator: Adobe Illustrator 24.1.2, SVG Export Plug-In . SVG Version: 6.00 Build 0)  -->
<svg version="1.1" id="Layer_1" xmlns="http://www.w3.org/2000/svg" xmlns:xlink="http://www.w3.org/1999/xlink" x="0px" y="0px"
	 viewBox="0 0 480 845.2" style="enable-background:new 0 0 480 845.2;" xml:space="preserve">
<style type="text/css">
	.st0{opacity:0.5;}
	.st1{fill:transparent;}
	.st2{fill:#404040;}
	.st3{fill:none;stroke:#404040;stroke-width:3;stroke-miterlimit:10;}
</style>
<g>
	<g class="st0">
		<rect x="76.5" y="138.1" class="st1" width="329" height="567"/>
		<path class="st2" d="M405,138.6v566H77v-566H405 M406,137.6H76v568h330V137.6L406,137.6z"/>
	</g>
	<g>
		<path class="st2" d="M448,57.6c0.5,0,1,0.5,1,1v774c0,0.5-0.5,1-1,1H32c-0.5,0-1-0.5-1-1v-774c0-0.5,0.5-1,1-1H448 M448,53.6H32
			c-2.8,0-5,2.3-5,5v774c0,2.8,2.3,5,5,5h416c2.8,0,5-2.3,5-5v-774C453,55.9,450.8,53.6,448,53.6L448,53.6z"/>
	</g>
	<g>
		<path class="st2" d="M415.5,70.6c13.5,0,24.5,11,24.5,24.5v700c0,13.5-11,24.5-24.5,24.5h-351c-13.5,0-24.5-11-24.5-24.5v-700
			c0-13.5,11-24.5,24.5-24.5H415.5 M415.5,68.6h-351C49.9,68.6,38,80.5,38,95.1v700c0,14.6,11.9,26.5,26.5,26.5h351
			c14.6,0,26.5-11.9,26.5-26.5v-700C442,80.5,430.1,68.6,415.5,68.6L415.5,68.6z"/>
	</g>
	<g>
		<path class="st2" d="M266,90.6c0.5,0,1,0.5,1,1s-0.5,1-1,1h-55c-0.5,0-1-0.5-1-1s0.5-1,1-1H266 M266,88.6h-55c-1.6,0-3,1.4-3,3
			s1.4,3,3,3h55c1.6,0,3-1.4,3-3S267.6,88.6,266,88.6L266,88.6z"/>
	</g>
	<g>
		<rect x="452" y="201.6" class="st2" width="5" height="121"/>
	</g>
	<g>
		<rect x="452" y="379.6" class="st2" width="5" height="61"/>
	</g>
	<g>
		<polygon class="st2" points="108,741.6 97.6,741.6 103.5,735.7 99.2,735.8 94.2,740.8 92.1,742.9 94.2,745 99.2,750 103.5,750.1 
			98,744.6 108,744.6 		"/>
	</g>
	<g>
		<g>
			<polygon class="st2" points="238,743.6 229,743.6 229,751.1 238,752.3 			"/>
			<polygon class="st2" points="240,743.6 240,752.5 252,754.1 252,743.6 			"/>
		</g>
		<g>
			<polygon class="st2" points="240,732.7 240,741.6 252,741.6 252,731.1 			"/>
			<polygon class="st2" points="238,732.9 229,734.1 229,741.6 238,741.6 			"/>
		</g>
	</g>
	<g>
		<circle class="st3" cx="382.5" cy="744.1" r="6"/>
		<path class="st2" d="M373.3,753.8L373.3,753.8c-0.6-0.6-0.6-1.5,0-2.1l4.4-4.4l2.1,2.1l-4.4,4.4
			C374.8,754.4,373.8,754.4,373.3,753.8z"/>
	</g>
</g>
</svg>
