<svg width="32" height="32" viewBox="0 0 32 32" xmlns="http://www.w3.org/2000/svg">
<g clip-path="url(#clip0_2568_9)">
<path d="M25.16 2.79999H6.84002C3.28802 2.79999 0.400024 5.68799 0.400024 9.23999V20.44C0.400024 22.984 1.91202 25.256 4.15202 26.288C3.85602 26.864 3.73602 27.512 3.84002 28.16C3.96802 28.968 4.40002 29.672 5.05602 30.152C5.58402 30.536 6.20802 30.736 6.84802 30.736C7.00802 30.736 7.16802 30.72 7.32802 30.696C8.13602 30.568 8.84002 30.136 9.32002 29.48L14.392 22.512C15.352 22.728 16.344 22.768 17.32 22.608C19.36 22.288 21.16 21.184 22.376 19.512C23.592 17.84 24.088 15.792 23.76 13.752C23.56 12.472 23.04 11.256 22.248 10.24C22.016 9.94399 21.64 9.78399 21.28 9.77599C20.904 9.77599 20.552 9.96799 20.328 10.272L17.72 13.848C17.512 14.136 17.104 14.2 16.808 13.992C16.664 13.888 16.576 13.736 16.544 13.568C16.52 13.4 16.56 13.224 16.664 13.08L19.272 9.49599C19.496 9.19199 19.56 8.79999 19.448 8.43199C19.336 8.07199 19.064 7.78399 18.704 7.65599C17.488 7.22399 16.176 7.09599 14.896 7.30399C12.856 7.62399 11.056 8.72799 9.84002 10.4C8.62402 12.072 8.12802 14.12 8.45602 16.16C8.60802 17.136 8.95202 18.072 9.44802 18.912L5.56002 24.256C3.93602 23.72 2.79202 22.184 2.79202 20.44V9.23999C2.79202 7.01599 4.60002 5.19999 6.83202 5.19999H25.16C27.384 5.19999 29.2 7.00799 29.2 9.23999V20.44C29.2 22.664 27.392 24.472 25.16 24.472H22V27.2L18.36 24.472H14.6C13.936 24.472 13.4 25.008 13.4 25.672C13.4 26.336 13.936 26.872 14.6 26.872H17.56L24.4 32V26.872H25.16C28.712 26.872 31.6 23.984 31.6 20.44V9.23999C31.6 5.68799 28.712 2.79999 25.16 2.79999ZM11.896 19.648C12.208 19.216 12.2 18.632 11.88 18.208C11.336 17.504 10.976 16.664 10.84 15.784C10.616 14.376 10.96 12.96 11.8 11.808C12.64 10.656 13.88 9.89599 15.288 9.67199C15.568 9.63199 15.84 9.60799 16.12 9.60799C16.16 9.60799 16.192 9.60799 16.232 9.60799L14.736 11.664C14.256 12.32 14.064 13.128 14.192 13.936C14.32 14.744 14.752 15.448 15.408 15.928C16.064 16.408 16.872 16.6 17.68 16.472C18.488 16.344 19.192 15.912 19.672 15.256L21.168 13.2C21.272 13.496 21.344 13.808 21.4 14.12C21.624 15.528 21.28 16.944 20.44 18.096C19.6 19.248 18.36 20.008 16.952 20.232C16.072 20.368 15.16 20.288 14.328 19.984C13.824 19.808 13.264 19.984 12.952 20.408L7.38402 28.056C7.28002 28.2 7.12802 28.288 6.96002 28.32C6.78402 28.344 6.61602 28.304 6.47202 28.2C6.32802 28.096 6.24002 27.944 6.20802 27.776C6.18402 27.608 6.22402 27.432 6.32802 27.288L11.896 19.64V19.648Z"/>
</g>
<defs>
<clipPath id="clip0_2568_9">
<rect width="32" height="32"/>
</clipPath>
</defs>
</svg>
