<svg width="21" height="21" viewBox="0 0 21 21" fill="none" xmlns="http://www.w3.org/2000/svg">
<path d="M5.7 15.3C6.1 15.7 6.1 16.3 5.7 16.7L1.7 20.7C1.5 20.9 1.3 21 1 21C0.7 21 0.5 20.9 0.3 20.7C-0.1 20.3 -0.1 19.7 0.3 19.3L4.3 15.3C4.7 14.9 5.3 14.9 5.7 15.3ZM18.5 9L21 12.7L16.6 13.6L15.7 18L12 15.5L8.3 18L7.4 13.6L3 12.7L5.5 9L3 5.3L7.4 4.4L8.3 0L12 2.5L15.7 0L16.6 4.4L21 5.3L18.5 9ZM16.1 9L16.8 7.9L17.6 6.7L16.1 6.4L14.8 6.1L14.5 4.8L14.2 3.3L13 4.1L12 4.9L10.9 4.2L9.7 3.3L9.4 4.8L9.1 6.1L7.8 6.4L6.3 6.7L7.1 7.9L7.9 9L7.2 10.1L6.4 11.3L7.9 11.6L9.2 11.9L9.5 13.2L9.8 14.7L11 13.9L12.1 13.2L13.2 13.9L14.4 14.7L14.7 13.2L15 11.9L16.3 11.6L17.8 11.3L17 10.1L16.1 9Z" fill="#909090"/>
</svg>
