<svg xmlns="http://www.w3.org/2000/svg" width="24" height="24" viewBox="0 0 24 24">
  <path d="M10 6.25C7.93 6.25 6.25 7.93 6.25 10C6.25 12.07 7.93 13.75 10 13.75C12.07 13.75 13.75 12.07 13.75 10C13.75 7.93 12.07 6.25 10 6.25ZM10 12.25C8.76 12.25 7.75 11.24 7.75 10C7.75 8.76 8.76 7.75 10 7.75C11.24 7.75 12.25 8.76 12.25 10C12.25 11.24 11.24 12.25 10 12.25ZM21.53 20.47L15.98 14.92C17.08 13.58 17.75 11.87 17.75 10C17.75 5.73 14.27 2.25 10 2.25C5.73 2.25 2.25 5.73 2.25 10C2.25 14.27 5.73 17.75 10 17.75C11.87 17.75 13.58 17.09 14.92 15.98L20.47 21.53C20.62 21.68 20.81 21.75 21 21.75C21.19 21.75 21.38 21.68 21.53 21.53C21.82 21.24 21.82 20.76 21.53 20.47ZM3.75 10C3.75 6.55 6.55 3.75 10 3.75C13.45 3.75 16.25 6.55 16.25 10C16.25 13.45 13.45 16.25 10 16.25C6.55 16.25 3.75 13.45 3.75 10Z"/>
</svg>