<svg width="24" height="24" viewBox="0 0 24 24" xmlns="http://www.w3.org/2000/svg">
<path d="M12 2.25C6.62 2.25 2.25 6.62 2.25 12C2.25 17.38 6.62 21.75 12 21.75C17.38 21.75 21.75 17.38 21.75 12C21.75 6.62 17.38 2.25 12 2.25ZM12 20.25C7.45 20.25 3.75 16.55 3.75 12C3.75 7.45 7.45 3.75 12 3.75C16.55 3.75 20.25 7.45 20.25 12C20.25 16.55 16.55 20.25 12 20.25ZM16.53 8.47C16.82 8.76 16.82 9.24 16.53 9.53L10.53 15.53C10.38 15.68 10.19 15.75 10 15.75C9.81 15.75 9.62 15.68 9.47 15.53L7.47 13.53C7.18 13.24 7.18 12.76 7.47 12.47C7.76 12.18 8.24 12.18 8.53 12.47L10 13.94L15.47 8.47C15.76 8.18 16.24 8.18 16.53 8.47Z" />
</svg>
