<svg width="24" height="24" viewBox="0 0 24 24" xmlns="http://www.w3.org/2000/svg">
<path d="M21.69 12.2875C21.65 12.3775 21.6 12.4575 21.53 12.5275L15.53 18.5275C15.38 18.6775 15.19 18.7475 15 18.7475C14.81 18.7475 14.62 18.6775 14.47 18.5275C14.18 18.2375 14.18 17.7575 14.47 17.4675L19.19 12.7475H3C2.59 12.7475 2.25 12.4075 2.25 11.9975C2.25 11.5875 2.59 11.2475 3 11.2475H19.19L14.47 6.5275C14.18 6.2375 14.18 5.7575 14.47 5.4675C14.76 5.1775 15.24 5.1775 15.53 5.4675L21.53 11.4675C21.6 11.5375 21.65 11.6175 21.69 11.7075C21.77 11.8875 21.77 12.0975 21.69 12.2775V12.2875Z" />
</svg>
