<svg width="24" height="24" viewBox="0 0 24 24" xmlns="http://www.w3.org/2000/svg">
<path d="M16.5275 11.53C16.3775 11.68 16.1875 11.75 15.9975 11.75C15.8075 11.75 15.6175 11.68 15.4675 11.53L12.7475 8.81V16C12.7475 16.41 12.4075 16.75 11.9975 16.75C11.5875 16.75 11.2475 16.41 11.2475 16V8.81L8.5275 11.53C8.2375 11.82 7.7575 11.82 7.4675 11.53C7.1775 11.24 7.1775 10.76 7.4675 10.47L11.4675 6.47C11.5375 6.4 11.6175 6.35 11.7075 6.31C11.8875 6.23 12.0975 6.23 12.2775 6.31C12.3675 6.35 12.4475 6.4 12.5175 6.47L16.5175 10.47C16.8075 10.76 16.8075 11.24 16.5175 11.53H16.5275Z" />
</svg>
