<svg width="24" height="24" viewBox="0 0 24 24" xmlns="http://www.w3.org/2000/svg">
<path d="M21.75 11.9975C21.75 12.4075 21.41 12.7475 21 12.7475H4.81L9.53 17.4675C9.82 17.7575 9.82 18.2375 9.53 18.5275C9.38 18.6775 9.19 18.7475 9 18.7475C8.81 18.7475 8.62 18.6775 8.47 18.5275L2.47 12.5275C2.4 12.4575 2.35 12.3775 2.31 12.2875C2.23 12.1075 2.23 11.8975 2.31 11.7175C2.35 11.6275 2.4 11.5475 2.47 11.4775L8.47 5.4675C8.76 5.1775 9.24 5.1775 9.53 5.4675C9.82 5.7575 9.82 6.2375 9.53 6.5275L4.81 11.2475H21C21.41 11.2475 21.75 11.5875 21.75 11.9975Z" />
</svg>
