<svg width="24" height="24" viewBox="0 0 24 24" xmlns="http://www.w3.org/2000/svg">
<path d="M16.5275 12.53L12.5275 16.53C12.4575 16.6 12.3775 16.65 12.2875 16.69C12.1975 16.73 12.0975 16.75 11.9975 16.75C11.8975 16.75 11.7975 16.73 11.7075 16.69C11.6175 16.65 11.5375 16.6 11.4675 16.53L7.4675 12.53C7.1775 12.24 7.1775 11.76 7.4675 11.47C7.7575 11.18 8.2375 11.18 8.5275 11.47L11.2475 14.19V7C11.2475 6.59 11.5875 6.25 11.9975 6.25C12.4075 6.25 12.7475 6.59 12.7475 7V14.19L15.4675 11.47C15.7575 11.18 16.2375 11.18 16.5275 11.47C16.8175 11.76 16.8175 12.24 16.5275 12.53Z" />
</svg>
