<svg width="24" height="24" viewBox="0 0 24 24" xmlns="http://www.w3.org/2000/svg">
<path d="M19 3.25H5C3.48 3.25 2.25 4.48 2.25 6V18C2.25 19.52 3.48 20.75 5 20.75H19C20.52 20.75 21.75 19.52 21.75 18V6C21.75 4.48 20.52 3.25 19 3.25ZM20.25 18C20.25 18.69 19.69 19.25 19 19.25H5C4.31 19.25 3.75 18.69 3.75 18V6C3.75 5.31 4.31 4.75 5 4.75H19C19.69 4.75 20.25 5.31 20.25 6V18ZM8.75 11C8.75 11.37 8.63 11.72 8.43 12C8.63 12.28 8.75 12.63 8.75 13V14.5C8.75 14.91 9.09 15.25 9.5 15.25H10C10.41 15.25 10.75 15.59 10.75 16C10.75 16.41 10.41 16.75 10 16.75H9.5C8.26 16.75 7.25 15.74 7.25 14.5V13C7.25 12.86 7.14 12.75 7 12.75C6.59 12.75 6.25 12.41 6.25 12C6.25 11.59 6.59 11.25 7 11.25C7.14 11.25 7.25 11.14 7.25 11V9.5C7.25 8.26 8.26 7.25 9.5 7.25H10C10.41 7.25 10.75 7.59 10.75 8C10.75 8.41 10.41 8.75 10 8.75H9.5C9.09 8.75 8.75 9.09 8.75 9.5V11ZM17.75 12C17.75 12.41 17.41 12.75 17 12.75C16.86 12.75 16.75 12.86 16.75 13V14.5C16.75 15.74 15.74 16.75 14.5 16.75H14C13.59 16.75 13.25 16.41 13.25 16C13.25 15.59 13.59 15.25 14 15.25H14.5C14.91 15.25 15.25 14.91 15.25 14.5V13C15.25 12.63 15.37 12.28 15.57 12C15.37 11.72 15.25 11.37 15.25 11V9.5C15.25 9.09 14.91 8.75 14.5 8.75H14C13.59 8.75 13.25 8.41 13.25 8C13.25 7.59 13.59 7.25 14 7.25H14.5C15.74 7.25 16.75 8.26 16.75 9.5V11C16.75 11.14 16.86 11.25 17 11.25C17.41 11.25 17.75 11.59 17.75 12Z" />
</svg>
