<svg width="16" height="16" viewBox="0 0 16 16" xmlns="http://www.w3.org/2000/svg">
<path d="M10.53 11.47C10.82 11.76 10.82 12.24 10.53 12.53C10.38 12.68 10.19 12.75 10 12.75C9.81 12.75 9.62 12.68 9.47 12.53L8.75 11.81V14C8.75 14.41 8.41 14.75 8 14.75C7.59 14.75 7.25 14.41 7.25 14V11.81L6.53 12.53C6.24 12.82 5.76 12.82 5.47 12.53C5.18 12.24 5.18 11.76 5.47 11.47L7.47 9.47C7.54 9.4 7.62 9.35 7.71 9.31C7.89 9.23 8.1 9.23 8.28 9.31C8.37 9.35 8.45 9.4 8.52 9.47L10.52 11.47H10.53ZM9.47 3.47L8.75 4.19V2C8.75 1.59 8.41 1.25 8 1.25C7.59 1.25 7.25 1.59 7.25 2V4.19L6.53 3.47C6.24 3.18 5.76 3.18 5.47 3.47C5.18 3.76 5.18 4.24 5.47 4.53L7.47 6.53C7.54 6.6 7.62 6.65 7.71 6.69C7.8 6.73 7.9 6.75 8 6.75C8.1 6.75 8.2 6.73 8.29 6.69C8.38 6.65 8.46 6.6 8.53 6.53L10.53 4.53C10.82 4.24 10.82 3.76 10.53 3.47C10.24 3.18 9.76 3.18 9.47 3.47ZM3 6.75C3.41 6.75 3.75 6.41 3.75 6C3.75 5.59 3.41 5.25 3 5.25C2.04 5.25 1.25 6.04 1.25 7V9C1.25 9.96 2.04 10.75 3 10.75C3.41 10.75 3.75 10.41 3.75 10C3.75 9.59 3.41 9.25 3 9.25C2.86 9.25 2.75 9.14 2.75 9V7C2.75 6.86 2.86 6.75 3 6.75ZM13 5.25C12.59 5.25 12.25 5.59 12.25 6C12.25 6.41 12.59 6.75 13 6.75C13.14 6.75 13.25 6.86 13.25 7V9C13.25 9.14 13.14 9.25 13 9.25C12.59 9.25 12.25 9.59 12.25 10C12.25 10.41 12.59 10.75 13 10.75C13.96 10.75 14.75 9.96 14.75 9V7C14.75 6.04 13.96 5.25 13 5.25Z" />
</svg>
