<svg width="24" height="24" viewBox="0 0 24 24" xmlns="http://www.w3.org/2000/svg">
<path d="M16.5275 17.47C16.8175 17.76 16.8175 18.24 16.5275 18.53C16.3775 18.68 16.1875 18.75 15.9975 18.75C15.8075 18.75 15.6175 18.68 15.4675 18.53L12.7475 15.81V21C12.7475 21.41 12.4075 21.75 11.9975 21.75C11.5875 21.75 11.2475 21.41 11.2475 21V15.81L8.5275 18.53C8.2375 18.82 7.7575 18.82 7.4675 18.53C7.1775 18.24 7.1775 17.76 7.4675 17.47L11.4675 13.47C11.5375 13.4 11.6175 13.35 11.7075 13.31C11.8875 13.23 12.0975 13.23 12.2775 13.31C12.3675 13.35 12.4475 13.4 12.5175 13.47L16.5175 17.47H16.5275ZM11.4675 10.53C11.5375 10.6 11.6175 10.65 11.7075 10.69C11.7975 10.73 11.8975 10.75 11.9975 10.75C12.0975 10.75 12.1975 10.73 12.2875 10.69C12.3775 10.65 12.4575 10.6 12.5275 10.53L16.5275 6.53C16.8175 6.24 16.8175 5.76 16.5275 5.47C16.2375 5.18 15.7575 5.18 15.4675 5.47L12.7475 8.19V3C12.7475 2.59 12.4075 2.25 11.9975 2.25C11.5875 2.25 11.2475 2.59 11.2475 3V8.19L8.5275 5.47C8.2375 5.18 7.7575 5.18 7.4675 5.47C7.1775 5.76 7.1775 6.24 7.4675 6.53L11.4675 10.53Z" />
</svg>
