<svg width="24" height="24" viewBox="0 0 24 24" xmlns="http://www.w3.org/2000/svg">
<path d="M16.69 12.29C16.65 12.38 16.6 12.46 16.53 12.53L13.53 15.53C13.38 15.68 13.19 15.75 13 15.75C12.81 15.75 12.62 15.68 12.47 15.53C12.18 15.24 12.18 14.76 12.47 14.47L14.19 12.75H3C2.59 12.75 2.25 12.41 2.25 12C2.25 11.59 2.59 11.25 3 11.25H14.19L12.47 9.53C12.18 9.24 12.18 8.76 12.47 8.47C12.76 8.18 13.24 8.18 13.53 8.47L16.53 11.47C16.6 11.54 16.65 11.62 16.69 11.71C16.77 11.89 16.77 12.1 16.69 12.28V12.29ZM20 3.25C19.59 3.25 19.25 3.59 19.25 4V20C19.25 20.41 19.59 20.75 20 20.75C20.41 20.75 20.75 20.41 20.75 20V4C20.75 3.59 20.41 3.25 20 3.25Z" />
</svg>
