<svg width="24" height="24" viewBox="0 0 24 24" xmlns="http://www.w3.org/2000/svg">
<path d="M15.53 18.47C15.82 18.76 15.82 19.24 15.53 19.53C15.38 19.68 15.19 19.75 15 19.75C14.81 19.75 14.62 19.68 14.47 19.53L12.75 17.81V22C12.75 22.41 12.41 22.75 12 22.75C11.59 22.75 11.25 22.41 11.25 22V17.81L9.53 19.53C9.24 19.82 8.76 19.82 8.47 19.53C8.18 19.24 8.18 18.76 8.47 18.47L11.47 15.47C11.54 15.4 11.62 15.35 11.71 15.31C11.89 15.23 12.1 15.23 12.28 15.31C12.37 15.35 12.45 15.4 12.52 15.47L15.52 18.47H15.53ZM11.47 8.53C11.54 8.6 11.62 8.65 11.71 8.69C11.8 8.73 11.9 8.75 12 8.75C12.1 8.75 12.2 8.73 12.29 8.69C12.38 8.65 12.46 8.6 12.53 8.53L15.53 5.53C15.82 5.24 15.82 4.76 15.53 4.47C15.24 4.18 14.76 4.18 14.47 4.47L12.75 6.19V2C12.75 1.59 12.41 1.25 12 1.25C11.59 1.25 11.25 1.59 11.25 2V6.19L9.53 4.47C9.24 4.18 8.76 4.18 8.47 4.47C8.18 4.76 8.18 5.24 8.47 5.53L11.47 8.53ZM21 11.25H3C2.59 11.25 2.25 11.59 2.25 12C2.25 12.41 2.59 12.75 3 12.75H21C21.41 12.75 21.75 12.41 21.75 12C21.75 11.59 21.41 11.25 21 11.25Z" />
</svg>
