<svg width="16" height="16" viewBox="0 0 16 16" xmlns="http://www.w3.org/2000/svg">
<path d="M9 5.25H3C2.04 5.25 1.25 6.04 1.25 7V13C1.25 13.96 2.04 14.75 3 14.75H9C9.96 14.75 10.75 13.96 10.75 13V7C10.75 6.04 9.96 5.25 9 5.25ZM9.25 13C9.25 13.14 9.14 13.25 9 13.25H3C2.86 13.25 2.75 13.14 2.75 13V7C2.75 6.86 2.86 6.75 3 6.75H9C9.14 6.75 9.25 6.86 9.25 7V13ZM14.75 3V9C14.75 9.96 13.96 10.75 13 10.75H12C11.59 10.75 11.25 10.41 11.25 10C11.25 9.59 11.59 9.25 12 9.25H13C13.14 9.25 13.25 9.14 13.25 9V3C13.25 2.86 13.14 2.75 13 2.75H7C6.86 2.75 6.75 2.86 6.75 3V4C6.75 4.41 6.41 4.75 6 4.75C5.59 4.75 5.25 4.41 5.25 4V3C5.25 2.04 6.04 1.25 7 1.25H13C13.96 1.25 14.75 2.04 14.75 3Z" />
</svg>
