<svg width="24" height="24" viewBox="0 0 24 24" xmlns="http://www.w3.org/2000/svg">
<path d="M13 8.25H6C4.48 8.25 3.25 9.48 3.25 11V18C3.25 19.52 4.48 20.75 6 20.75H13C14.52 20.75 15.75 19.52 15.75 18V11C15.75 9.48 14.52 8.25 13 8.25ZM14.25 18C14.25 18.69 13.69 19.25 13 19.25H6C5.31 19.25 4.75 18.69 4.75 18V11C4.75 10.31 5.31 9.75 6 9.75H13C13.69 9.75 14.25 10.31 14.25 11V18ZM20.75 6V13C20.75 14.52 19.52 15.75 18 15.75C17.59 15.75 17.25 15.41 17.25 15C17.25 14.59 17.59 14.25 18 14.25C18.69 14.25 19.25 13.69 19.25 13V6C19.25 5.31 18.69 4.75 18 4.75H11C10.31 4.75 9.75 5.31 9.75 6C9.75 6.41 9.41 6.75 9 6.75C8.59 6.75 8.25 6.41 8.25 6C8.25 4.48 9.48 3.25 11 3.25H18C19.52 3.25 20.75 4.48 20.75 6Z" />
</svg>
