<svg width="24" height="24" viewBox="0 0 24 24" xmlns="http://www.w3.org/2000/svg">
<path d="M16.35 15.65C16.55 15.85 16.55 16.16 16.35 16.36C16.25 16.46 16.12 16.51 16 16.51C15.88 16.51 15.74 16.46 15.65 16.36L12 12.71L8.35 16.36C8.25 16.46 8.12 16.51 8 16.51C7.88 16.51 7.74 16.46 7.65 16.36C7.45 16.16 7.45 15.85 7.65 15.65L11.3 12L7.65 8.35C7.45 8.16 7.45 7.84 7.65 7.65C7.85 7.46 8.16 7.45 8.35 7.65L12 11.3L15.65 7.65C15.85 7.45 16.16 7.45 16.36 7.65C16.56 7.85 16.56 8.16 16.36 8.36L12.71 12.01L16.36 15.66L16.35 15.65Z" />
</svg>
