<svg width="24" height="24" viewBox="0 0 24 24" xmlns="http://www.w3.org/2000/svg">
<path d="M22 14.25H20.75V7C20.75 5.48 19.52 4.25 18 4.25H6C4.48 4.25 3.25 5.48 3.25 7V14.25H2C1.59 14.25 1.25 14.59 1.25 15V17C1.25 18.52 2.58 19.75 4.22 19.75H19.77C21.41 19.75 22.74 18.52 22.74 17V15C22.74 14.59 22.4 14.25 21.99 14.25H22ZM4.75 7C4.75 6.31 5.31 5.75 6 5.75H18C18.69 5.75 19.25 6.31 19.25 7V14.25H4.75V7ZM21.25 17C21.25 17.69 20.59 18.25 19.78 18.25H4.22C3.41 18.25 2.75 17.69 2.75 17V15.75H21.25V17Z" />
</svg>
