<svg width="24" height="24" viewBox="0 0 24 24" xmlns="http://www.w3.org/2000/svg">
<path d="M20.75 16V18C20.75 19.52 19.52 20.75 18 20.75H6C4.48 20.75 3.25 19.52 3.25 18V16C3.25 15.59 3.59 15.25 4 15.25C4.41 15.25 4.75 15.59 4.75 16V18C4.75 18.69 5.31 19.25 6 19.25H18C18.69 19.25 19.25 18.69 19.25 18V16C19.25 15.59 19.59 15.25 20 15.25C20.41 15.25 20.75 15.59 20.75 16ZM11.47 16.53C11.54 16.6 11.62 16.65 11.71 16.69C11.8 16.73 11.9 16.75 12 16.75C12.1 16.75 12.2 16.73 12.29 16.69C12.38 16.65 12.46 16.6 12.53 16.53L16.53 12.53C16.82 12.24 16.82 11.76 16.53 11.47C16.24 11.18 15.76 11.18 15.47 11.47L12.75 14.19V4C12.75 3.59 12.41 3.25 12 3.25C11.59 3.25 11.25 3.59 11.25 4V14.19L8.53 11.47C8.24 11.18 7.76 11.18 7.47 11.47C7.18 11.76 7.18 12.24 7.47 12.53L11.47 16.53Z" />
</svg>
