<svg width="24" height="16" viewBox="0 0 24 16" xmlns="http://www.w3.org/2000/svg">
<path d="M16.5 9.25C15.81 9.25 15.25 9.81 15.25 10.5C15.25 11.19 15.81 11.75 16.5 11.75C17.19 11.75 17.75 11.19 17.75 10.5C17.75 9.81 17.19 9.25 16.5 9.25ZM16.25 10.5C16.25 10.36 16.36 10.25 16.5 10.25C16.64 10.25 16.75 10.36 16.75 10.5C16.75 10.78 16.25 10.78 16.25 10.5ZM16.5 7.75C17.19 7.75 17.75 7.19 17.75 6.5C17.75 5.81 17.19 5.25 16.5 5.25C15.81 5.25 15.25 5.81 15.25 6.5C15.25 7.19 15.81 7.75 16.5 7.75ZM16.5 6.25C16.64 6.25 16.75 6.36 16.75 6.5C16.75 6.78 16.25 6.78 16.25 6.5C16.25 6.36 16.36 6.25 16.5 6.25ZM12.5 9.25C11.81 9.25 11.25 9.81 11.25 10.5C11.25 11.19 11.81 11.75 12.5 11.75C13.19 11.75 13.75 11.19 13.75 10.5C13.75 9.81 13.19 9.25 12.5 9.25ZM12.25 10.5C12.25 10.36 12.36 10.25 12.5 10.25C12.64 10.25 12.75 10.36 12.75 10.5C12.75 10.78 12.25 10.78 12.25 10.5ZM12.5 5.25C11.81 5.25 11.25 5.81 11.25 6.5C11.25 7.19 11.81 7.75 12.5 7.75C13.19 7.75 13.75 7.19 13.75 6.5C13.75 5.81 13.19 5.25 12.5 5.25ZM12.25 6.5C12.25 6.36 12.36 6.25 12.5 6.25C12.64 6.25 12.75 6.36 12.75 6.5C12.75 6.78 12.25 6.78 12.25 6.5ZM8.5 9.25C7.81 9.25 7.25 9.81 7.25 10.5C7.25 11.19 7.81 11.75 8.5 11.75C9.19 11.75 9.75 11.19 9.75 10.5C9.75 9.81 9.19 9.25 8.5 9.25ZM8.25 10.5C8.25 10.36 8.36 10.25 8.5 10.25C8.64 10.25 8.75 10.36 8.75 10.5C8.75 10.78 8.25 10.78 8.25 10.5ZM8.5 5.25C7.81 5.25 7.25 5.81 7.25 6.5C7.25 7.19 7.81 7.75 8.5 7.75C9.19 7.75 9.75 7.19 9.75 6.5C9.75 5.81 9.19 5.25 8.5 5.25ZM8.25 6.5C8.25 6.36 8.36 6.25 8.5 6.25C8.64 6.25 8.75 6.36 8.75 6.5C8.75 6.78 8.25 6.78 8.25 6.5Z" />
</svg>
