<svg width="16" height="16" viewBox="0 0 16 16" xmlns="http://www.w3.org/2000/svg">
<path d="M3.31 15C2.69 15 2.11 14.76 1.68 14.32C0.780005 13.42 0.780005 11.95 1.68 11.05L2.45 10.28C2.45 10.18 2.44 10.08 2.44 9.98C2.44 9.02 2.81 8.12 3.49 7.44L5.6 5.33C5.37 5.04 5.25 4.68 5.25 4.31C5.25 3.86 5.42 3.44 5.74 3.12C6.06 2.8 6.48 2.63 6.92 2.63C7.29 2.63 7.65 2.75 7.94 2.98L8.88 2.04C9.56001 1.36 10.46 0.989998 11.41 0.989998C12.36 0.989998 13.27 1.36 13.95 2.04C14.63 2.72 15 3.62 15 4.58C15 5.54 14.63 6.44 13.95 7.12L12.94 8.13C13.04 8.34 13.09 8.58 13.09 8.82C13.09 9.27 12.92 9.69 12.6 10C12.28 10.31 11.86 10.49 11.42 10.49C11.18 10.49 10.94 10.44 10.73 10.34L8.56 12.51C7.88 13.19 6.98 13.56 6.03 13.56C5.93001 13.56 5.83 13.56 5.73 13.54L4.97 14.3C4.53 14.74 3.95 14.98 3.34 14.98L3.31 15Z" fill="black" fill-opacity="0.15"/>
<path d="M14 4.58C14 3.89 13.73 3.24 13.24 2.75C12.23 1.74 10.59 1.74 9.58 2.75L7.94 4.39L7.39 3.84C7.13 3.58 6.7 3.58 6.44 3.84C6.18 4.1 6.18 4.53 6.44 4.79L6.99 5.34L4.18 8.15C3.69 8.64 3.42 9.29 3.42 9.98C3.42 10.2 3.46 10.41 3.51 10.62L2.38 11.75C1.87 12.26 1.87 13.09 2.38 13.61C2.64 13.87 2.97 13.99 3.31 13.99C3.65 13.99 3.98 13.86 4.24 13.61L5.37 12.48C5.58 12.53 5.79 12.57 6.01 12.57C6.7 12.57 7.35 12.3 7.84 11.81L10.65 9L10.94 9.29C11.07 9.42 11.24 9.49 11.42 9.49C11.6 9.49 11.77 9.42 11.9 9.29C12.16 9.03 12.16 8.6 11.9 8.34L11.61 8.05L13.25 6.41C13.74 5.92 14.01 5.27 14.01 4.58H14ZM6.89 10.86C6.42 11.33 5.61 11.33 5.14 10.86C4.91 10.63 4.78 10.32 4.78 9.99C4.78 9.66 4.91 9.35 5.14 9.12L7.95 6.31L9.7 8.06L6.89 10.87V10.86Z" fill="white"/>
</svg>
