<svg width="16" height="16" viewBox="0 0 16 16" xmlns="http://www.w3.org/2000/svg">
<path d="M14.1209 2.0525L13.9509 1.8825C12.8809 0.812502 11.1309 0.812502 10.0609 1.8825L2.47089 9.4625C2.37089 9.5625 2.31089 9.6825 2.27089 9.8125L1.27089 13.8125C1.21089 14.0625 1.28089 14.3425 1.47089 14.5225C1.61089 14.6625 1.80089 14.7425 2.00089 14.7425C2.06089 14.7425 2.12089 14.7425 2.18089 14.7225L6.18089 13.7225C6.31089 13.6925 6.43089 13.6225 6.53089 13.5225L14.1209 5.9325C15.1909 4.8625 15.1909 3.1125 14.1209 2.0425V2.0525ZM5.62089 12.3125L3.04089 12.9625L3.69089 10.3825L9.00089 5.0525L10.9409 6.9925L5.62089 12.3125ZM13.0609 4.8725L12.0009 5.9325L10.0609 3.9925L11.1209 2.9325C11.6109 2.4425 12.4009 2.4425 12.8909 2.9325L13.0609 3.1025C13.5509 3.5925 13.5509 4.3825 13.0609 4.8725Z" />
</svg>
