<svg width="16" height="16" viewBox="0 0 16 16" xmlns="http://www.w3.org/2000/svg">
<path d="M13.1209 3.0525L12.9509 2.8825C11.8809 1.8125 10.1309 1.8125 9.06089 2.8825L3.47089 8.4625C3.37089 8.5625 3.31089 8.6825 3.27089 8.8125L2.27089 12.8125C2.21089 13.0625 2.28089 13.3425 2.47089 13.5225C2.61089 13.6625 2.80089 13.7425 3.00089 13.7425C3.06089 13.7425 3.12089 13.7425 3.18089 13.7225L7.18089 12.7225C7.31089 12.6925 7.43089 12.6225 7.53089 12.5225L13.1209 6.9325C14.1909 5.8625 14.1909 4.1125 13.1209 3.0425V3.0525ZM6.62089 11.3125L4.04089 11.9625L4.69089 9.3825L8.01089 6.0625L9.95089 8.0025L6.63089 11.3225L6.62089 11.3125ZM12.0609 5.8725L11.0009 6.9325L9.06089 4.9925L10.1209 3.9325C10.6109 3.4425 11.4009 3.4425 11.8909 3.9325L12.0609 4.1025C12.5509 4.5925 12.5509 5.3825 12.0609 5.8725Z" />
</svg>
