<svg width="24" height="24" viewBox="0 0 24 24" xmlns="http://www.w3.org/2000/svg">
<path d="M20.1301 6.05249L17.9601 3.88249C16.8901 2.81249 15.1401 2.81249 14.0701 3.88249L4.48014 13.4625C4.37014 13.5725 4.30014 13.7125 4.27014 13.8725L3.26014 19.8725C3.22014 20.1125 3.30014 20.3525 3.47014 20.5225C3.61014 20.6625 3.80014 20.7425 4.00014 20.7425C4.04014 20.7425 4.08014 20.7425 4.12014 20.7425L10.1201 19.7425C10.2701 19.7125 10.4201 19.6425 10.5301 19.5325L20.1201 9.94249C20.6401 9.42249 20.9301 8.73249 20.9301 8.00249C20.9301 7.27249 20.6401 6.57249 20.1201 6.06249L20.1301 6.05249ZM16.0101 11.9325L12.0701 7.99249L13.0101 7.05249L16.9501 10.9925L16.0101 11.9325ZM9.65014 18.2925L4.92014 19.0825L5.71014 14.3525L11.0101 9.05249L14.9501 12.9925L9.65014 18.2925ZM19.0701 8.87249L18.0101 9.93249L14.0701 5.99249L15.1301 4.93249C15.6201 4.44249 16.4101 4.44249 16.9001 4.93249L19.0701 7.10249C19.3101 7.34249 19.4401 7.65249 19.4401 7.98249C19.4401 8.31249 19.3101 8.63249 19.0701 8.86249V8.87249Z" />
</svg>
