<svg width="16" height="16" viewBox="0 0 16 16" xmlns="http://www.w3.org/2000/svg">
<path d="M8 1.25C4.28 1.25 1.25 4.28 1.25 8C1.25 11.72 4.28 14.75 8 14.75C11.72 14.75 14.75 11.72 14.75 8C14.75 4.28 11.72 1.25 8 1.25ZM8 13.25C5.11 13.25 2.75 10.89 2.75 8C2.75 5.11 5.11 2.75 8 2.75C10.89 2.75 13.25 5.11 13.25 8C13.25 10.89 10.89 13.25 8 13.25ZM10.53 6.53L9.06 8L10.53 9.47C10.82 9.76 10.82 10.24 10.53 10.53C10.38 10.68 10.19 10.75 10 10.75C9.81 10.75 9.62 10.68 9.47 10.53L8 9.06L6.53 10.53C6.38 10.68 6.19 10.75 6 10.75C5.81 10.75 5.62 10.68 5.47 10.53C5.18 10.24 5.18 9.76 5.47 9.47L6.94 8L5.47 6.53C5.18 6.24 5.18 5.76 5.47 5.47C5.76 5.18 6.24 5.18 6.53 5.47L8 6.94L9.47 5.47C9.76 5.18 10.24 5.18 10.53 5.47C10.82 5.76 10.82 6.24 10.53 6.53Z" />
</svg>
