<svg width="24" height="24" viewBox="0 0 24 24" xmlns="http://www.w3.org/2000/svg">
<path d="M12 5.25C8.28 5.25 5.25 8.28 5.25 12C5.25 15.72 8.28 18.75 12 18.75C15.72 18.75 18.75 15.72 18.75 12C18.75 8.28 15.72 5.25 12 5.25ZM12 17.25C9.11 17.25 6.75 14.89 6.75 12C6.75 9.11 9.11 6.75 12 6.75C14.89 6.75 17.25 9.11 17.25 12C17.25 14.89 14.89 17.25 12 17.25ZM14.53 10.53L13.06 12L14.53 13.47C14.82 13.76 14.82 14.24 14.53 14.53C14.38 14.68 14.19 14.75 14 14.75C13.81 14.75 13.62 14.68 13.47 14.53L12 13.06L10.53 14.53C10.38 14.68 10.19 14.75 10 14.75C9.81 14.75 9.62 14.68 9.47 14.53C9.18 14.24 9.18 13.76 9.47 13.47L10.94 12L9.47 10.53C9.18 10.24 9.18 9.76 9.47 9.47C9.76 9.18 10.24 9.18 10.53 9.47L12 10.94L13.47 9.47C13.76 9.18 14.24 9.18 14.53 9.47C14.82 9.76 14.82 10.24 14.53 10.53Z" />
</svg>
