<svg xmlns="http://www.w3.org/2000/svg" width="24" height="24" viewBox="0 0 24 24">
  <path d="M20.53 12.5301C20.6 12.4601 20.65 12.3801 20.69 12.2901C20.73 12.2001 20.75 12.1001 20.75 12.0001C20.75 11.9001 20.73 11.8001 20.69 11.7101C20.65 11.6201 20.6 11.5401 20.53 11.4701L16.53 7.47006C16.24 7.18006 15.76 7.18006 15.47 7.47006C15.18 7.76006 15.18 8.24006 15.47 8.53006L18.19 11.2501H8C7.59 11.2501 7.25 11.5901 7.25 12.0001C7.25 12.4101 7.59 12.7501 8 12.7501H18.19L15.47 15.4701C15.18 15.7601 15.18 16.2401 15.47 16.5301C15.76 16.8201 16.24 16.8201 16.53 16.5301L20.53 12.5301Z"/>
  <path d="M8 3.25L6 3.25C4.48 3.25 3.25 4.48 3.25 6L3.25 18C3.25 19.52 4.48 20.75 6 20.75H8C8.41 20.75 8.75 20.41 8.75 20C8.75 19.59 8.41 19.25 8 19.25H6C5.31 19.25 4.75 18.69 4.75 18L4.75 6C4.75 5.31 5.31 4.75 6 4.75L8 4.75C8.41 4.75 8.75 4.41 8.75 4C8.75 3.59 8.41 3.25 8 3.25Z"/>
</svg>
