<svg width="16" height="16" viewBox="0 0 16 16" xmlns="http://www.w3.org/2000/svg">
<path d="M10.53 3.47C10.82 3.76 10.82 4.24 10.53 4.53C10.38 4.68 10.19 4.75 10 4.75C9.81 4.75 9.62 4.68 9.47 4.53L8.75 3.81V6C8.75 6.41 8.41 6.75 8 6.75C7.59 6.75 7.25 6.41 7.25 6V3.81L6.53 4.53C6.24 4.82 5.76 4.82 5.47 4.53C5.18 4.24 5.18 3.76 5.47 3.47L7.47 1.47C7.54 1.4 7.62 1.35 7.71 1.31C7.89 1.23 8.1 1.23 8.28 1.31C8.37 1.35 8.45 1.4 8.52 1.47L10.52 3.47H10.53ZM9.47 11.47L8.75 12.19V10C8.75 9.59 8.41 9.25 8 9.25C7.59 9.25 7.25 9.59 7.25 10V12.19L6.53 11.47C6.24 11.18 5.76 11.18 5.47 11.47C5.18 11.76 5.18 12.24 5.47 12.53L7.47 14.53C7.54 14.6 7.62 14.65 7.71 14.69C7.8 14.73 7.9 14.75 8 14.75C8.1 14.75 8.2 14.73 8.29 14.69C8.38 14.65 8.46 14.6 8.53 14.53L10.53 12.53C10.82 12.24 10.82 11.76 10.53 11.47C10.24 11.18 9.76 11.18 9.47 11.47ZM3 3.75C3.41 3.75 3.75 3.41 3.75 3C3.75 2.59 3.41 2.25 3 2.25C2.04 2.25 1.25 3.04 1.25 4V12C1.25 12.96 2.04 13.75 3 13.75C3.41 13.75 3.75 13.41 3.75 13C3.75 12.59 3.41 12.25 3 12.25C2.86 12.25 2.75 12.14 2.75 12V4C2.75 3.86 2.86 3.75 3 3.75ZM13 2.25C12.59 2.25 12.25 2.59 12.25 3C12.25 3.41 12.59 3.75 13 3.75C13.14 3.75 13.25 3.86 13.25 4V12C13.25 12.14 13.14 12.25 13 12.25C12.59 12.25 12.25 12.59 12.25 13C12.25 13.41 12.59 13.75 13 13.75C13.96 13.75 14.75 12.96 14.75 12V4C14.75 3.04 13.96 2.25 13 2.25Z" />
</svg>
