<svg width="16" height="16" viewBox="0 0 16 16" xmlns="http://www.w3.org/2000/svg">
<g clip-path="url(#clip0_22167_104453)">
<path d="M11.75 8C11.75 8.41 11.41 8.75 11 8.75H8.75V11C8.75 11.41 8.41 11.75 8 11.75C7.59 11.75 7.25 11.41 7.25 11V8.75H5C4.59 8.75 4.25 8.41 4.25 8C4.25 7.59 4.59 7.25 5 7.25H7.25V5C7.25 4.59 7.59 4.25 8 4.25C8.41 4.25 8.75 4.59 8.75 5V7.25H11C11.41 7.25 11.75 7.59 11.75 8Z" />
<path d="M13 3C13 1.35 11.65 0 10 0H6C4.35 0 3 1.35 3 3C1.35 3 0 4.35 0 6V10C0 11.65 1.35 13 3 13C3 14.65 4.35 16 6 16H10C11.65 16 13 14.65 13 13C14.65 13 16 11.65 16 10V6C16 4.35 14.65 3 13 3ZM14 10C14 10.55 13.55 11 13 11H12C11.45 11 11 11.45 11 12V13C11 13.55 10.55 14 10 14H6C5.45 14 5 13.55 5 13V12C5 11.45 4.55 11 4 11H3C2.45 11 2 10.55 2 10V6C2 5.45 2.45 5 3 5H4C4.55 5 5 4.55 5 4V3C5 2.45 5.45 2 6 2H10C10.55 2 11 2.45 11 3V4C11 4.55 11.45 5 12 5H13C13.55 5 14 5.45 14 6V10Z" />
</g>
<defs>
<clipPath id="clip0_22167_104453">
<rect width="16" height="16" fill="white"/>
</clipPath>
</defs>
</svg>
