<svg width="24" height="24" viewBox="0 0 24 24" xmlns="http://www.w3.org/2000/svg">
<path d="M6.53 14.47C6.82 14.76 6.82 15.24 6.53 15.53C6.38 15.68 6.19 15.75 6 15.75C5.81 15.75 5.62 15.68 5.47 15.53L2.47 12.53C2.4 12.46 2.35 12.38 2.31 12.29C2.23 12.11 2.23 11.9 2.31 11.72C2.35 11.63 2.4 11.55 2.47 11.48L5.47 8.48C5.76 8.19 6.24 8.19 6.53 8.48C6.82 8.77 6.82 9.25 6.53 9.54L4.81 11.26H13C13.41 11.26 13.75 11.6 13.75 12.01C13.75 12.42 13.41 12.76 13 12.76H4.81L6.53 14.48V14.47ZM18 3.25H12C10.48 3.25 9.25 4.48 9.25 6V9C9.25 9.41 9.59 9.75 10 9.75C10.41 9.75 10.75 9.41 10.75 9V6C10.75 5.31 11.31 4.75 12 4.75H18C18.69 4.75 19.25 5.31 19.25 6V18C19.25 18.69 18.69 19.25 18 19.25H12C11.31 19.25 10.75 18.69 10.75 18V15C10.75 14.59 10.41 14.25 10 14.25C9.59 14.25 9.25 14.59 9.25 15V18C9.25 19.52 10.48 20.75 12 20.75H18C19.52 20.75 20.75 19.52 20.75 18V6C20.75 4.48 19.52 3.25 18 3.25Z" />
</svg>
