<svg width="24" height="24" viewBox="0 0 24 24" xmlns="http://www.w3.org/2000/svg">
<path d="M8.47 5.53C8.18 5.24 8.18 4.76 8.47 4.47L11.47 1.47C11.54 1.4 11.62 1.35 11.71 1.31C11.89 1.23 12.1 1.23 12.28 1.31C12.37 1.35 12.45 1.4 12.52 1.47L15.52 4.47C15.81 4.76 15.81 5.24 15.52 5.53C15.37 5.68 15.18 5.75 14.99 5.75C14.8 5.75 14.61 5.68 14.46 5.53L12.74 3.81V9C12.74 9.41 12.4 9.75 11.99 9.75C11.58 9.75 11.24 9.41 11.24 9V3.81L9.52 5.53C9.23 5.82 8.75 5.82 8.46 5.53H8.47ZM14.47 18.47L12.75 20.19V15C12.75 14.59 12.41 14.25 12 14.25C11.59 14.25 11.25 14.59 11.25 15V20.19L9.53 18.47C9.24 18.18 8.76 18.18 8.47 18.47C8.18 18.76 8.18 19.24 8.47 19.53L11.47 22.53C11.54 22.6 11.62 22.65 11.71 22.69C11.8 22.73 11.9 22.75 12 22.75C12.1 22.75 12.2 22.73 12.29 22.69C12.38 22.65 12.46 22.6 12.53 22.53L15.53 19.53C15.82 19.24 15.82 18.76 15.53 18.47C15.24 18.18 14.76 18.18 14.47 18.47ZM19 8.25H16C15.59 8.25 15.25 8.59 15.25 9C15.25 9.41 15.59 9.75 16 9.75H19C19.69 9.75 20.25 10.31 20.25 11V13C20.25 13.69 19.69 14.25 19 14.25H16C15.59 14.25 15.25 14.59 15.25 15C15.25 15.41 15.59 15.75 16 15.75H19C20.52 15.75 21.75 14.52 21.75 13V11C21.75 9.48 20.52 8.25 19 8.25ZM8.75 15C8.75 14.59 8.41 14.25 8 14.25H5C4.31 14.25 3.75 13.69 3.75 13V11C3.75 10.31 4.31 9.75 5 9.75H8C8.41 9.75 8.75 9.41 8.75 9C8.75 8.59 8.41 8.25 8 8.25H5C3.48 8.25 2.25 9.48 2.25 11V13C2.25 14.52 3.48 15.75 5 15.75H8C8.41 15.75 8.75 15.41 8.75 15Z" />
</svg>
