<svg width="24" height="24" viewBox="0 0 24 24" xmlns="http://www.w3.org/2000/svg">
<path d="M7.4675 7.53C7.1775 7.24 7.1775 6.76 7.4675 6.47L11.4675 2.47C11.5375 2.4 11.6175 2.35 11.7075 2.31C11.8875 2.23 12.0975 2.23 12.2775 2.31C12.3675 2.35 12.4475 2.4 12.5175 2.47L16.5175 6.47C16.8075 6.76 16.8075 7.24 16.5175 7.53C16.3675 7.68 16.1775 7.75 15.9875 7.75C15.7975 7.75 15.6075 7.68 15.4575 7.53L12.7375 4.81V10C12.7375 10.41 12.3975 10.75 11.9875 10.75C11.5775 10.75 11.2375 10.41 11.2375 10V4.81L8.5175 7.53C8.2275 7.82 7.7475 7.82 7.4575 7.53H7.4675ZM15.4675 16.47L12.7475 19.19V14C12.7475 13.59 12.4075 13.25 11.9975 13.25C11.5875 13.25 11.2475 13.59 11.2475 14V19.19L8.5275 16.47C8.2375 16.18 7.7575 16.18 7.4675 16.47C7.1775 16.76 7.1775 17.24 7.4675 17.53L11.4675 21.53C11.5375 21.6 11.6175 21.65 11.7075 21.69C11.7975 21.73 11.8975 21.75 11.9975 21.75C12.0975 21.75 12.1975 21.73 12.2875 21.69C12.3775 21.65 12.4575 21.6 12.5275 21.53L16.5275 17.53C16.8175 17.24 16.8175 16.76 16.5275 16.47C16.2375 16.18 15.7575 16.18 15.4675 16.47Z" />
</svg>
