<svg width="24" height="24" viewBox="0 0 24 24" xmlns="http://www.w3.org/2000/svg">
<path d="M11.5301 8.53249L13.0001 7.06249L16.9401 11.0025L15.4701 12.4725C15.1801 12.7625 15.1801 13.2425 15.4701 13.5325C15.6201 13.6825 15.8101 13.7525 16.0001 13.7525C16.1901 13.7525 16.3801 13.6825 16.5301 13.5325L20.1201 9.94249C21.1901 8.87249 21.1901 7.12249 20.1201 6.05249L17.9501 3.88249C16.8801 2.81249 15.1301 2.81249 14.0601 3.88249L10.4701 7.47249C10.1801 7.76249 10.1801 8.24249 10.4701 8.53249C10.7601 8.82249 11.2401 8.82249 11.5301 8.53249ZM16.8801 4.94249L19.0501 7.11249C19.5401 7.60249 19.5401 8.39249 19.0501 8.88249L17.9901 9.94249L14.0501 6.00249L15.1101 4.94249C15.6001 4.45249 16.3901 4.45249 16.8801 4.94249ZM13.5301 15.4725C13.8201 15.7625 13.8201 16.2425 13.5301 16.5325L10.5301 19.5325C10.4201 19.6425 10.2801 19.7125 10.1201 19.7425L4.12014 20.7425C4.12014 20.7425 4.04014 20.7425 4.00014 20.7425C3.80014 20.7425 3.61014 20.6625 3.47014 20.5225C3.30014 20.3525 3.22014 20.1025 3.26014 19.8725L4.26014 13.8725C4.29014 13.7225 4.36014 13.5725 4.47014 13.4625L7.47014 10.4625C7.76014 10.1725 8.24014 10.1725 8.53014 10.4625C8.82014 10.7525 8.82014 11.2325 8.53014 11.5225L5.70014 14.3525L4.91014 19.0825L9.64014 18.2925L12.4701 15.4625C12.7601 15.1725 13.2401 15.1725 13.5301 15.4625V15.4725ZM20.5301 19.4725C20.8201 19.7625 20.8201 20.2425 20.5301 20.5325C20.3801 20.6825 20.1901 20.7525 20.0001 20.7525C19.8101 20.7525 19.6201 20.6825 19.4701 20.5325L3.47014 4.53249C3.18014 4.24249 3.18014 3.76249 3.47014 3.47249C3.76014 3.18249 4.24014 3.18249 4.53014 3.47249L20.5301 19.4725Z" />
</svg>
