<svg width="24" height="24" viewBox="0 0 24 24" xmlns="http://www.w3.org/2000/svg">
<path d="M11.99 8.25C9.92 8.25 8.24 9.93 8.24 12C8.24 14.07 9.92 15.75 11.99 15.75C14.06 15.75 15.74 14.07 15.74 12C15.74 9.93 14.06 8.25 11.99 8.25ZM11.99 14.25C10.75 14.25 9.74 13.24 9.74 12C9.74 10.76 10.75 9.75 11.99 9.75C13.23 9.75 14.24 10.76 14.24 12C14.24 13.24 13.23 14.25 11.99 14.25ZM20.37 10.09L20.13 10.04C19.72 9.95 19.39 9.65 19.23 9.24C19.18 9.11 19.12 8.98 19.07 8.85C18.89 8.44 18.91 7.99 19.14 7.63L19.27 7.42C19.71 6.72 19.61 5.83 19.03 5.25L18.75 4.97C18.17 4.39 17.27 4.29 16.57 4.73L16.36 4.86C16.01 5.08 15.55 5.11 15.15 4.92C15.02 4.86 14.89 4.81 14.76 4.76C14.34 4.6 14.04 4.26 13.95 3.86L13.9 3.62C13.72 2.81 13.02 2.25 12.19 2.25H11.79C10.96 2.25 10.26 2.81 10.08 3.62L10.03 3.86C9.94 4.27 9.64 4.6 9.23 4.76C9.1 4.81 8.97 4.87 8.84 4.92C8.43 5.1 7.98 5.08 7.63 4.86L7.42 4.73C6.72 4.29 5.83 4.39 5.25 4.97L4.97 5.25C4.39 5.83 4.29 6.73 4.73 7.43L4.86 7.64C5.08 7.99 5.11 8.45 4.92 8.85C4.86 8.98 4.81 9.11 4.76 9.24C4.6 9.66 4.26 9.96 3.86 10.05L3.62 10.1C2.81 10.28 2.25 10.98 2.25 11.81V12.21C2.25 13.04 2.81 13.74 3.62 13.92L3.86 13.97C4.27 14.06 4.6 14.36 4.76 14.77C4.81 14.9 4.87 15.03 4.92 15.16C5.1 15.57 5.08 16.02 4.85 16.38L4.72 16.59C4.28 17.29 4.38 18.18 4.96 18.76L5.24 19.04C5.82 19.62 6.72 19.72 7.42 19.28L7.63 19.15C7.98 18.93 8.44 18.9 8.84 19.09C8.97 19.15 9.1 19.2 9.23 19.25C9.65 19.41 9.95 19.75 10.04 20.15L10.09 20.39C10.27 21.2 10.97 21.76 11.8 21.76H12.2C13.03 21.76 13.73 21.2 13.91 20.39L13.96 20.15C14.05 19.74 14.35 19.41 14.76 19.25C14.89 19.2 15.02 19.14 15.15 19.09C15.56 18.9 16.01 18.93 16.36 19.15L16.57 19.28C17.27 19.72 18.16 19.62 18.74 19.04L19.02 18.76C19.6 18.18 19.7 17.28 19.26 16.58L19.13 16.37C18.91 16.02 18.88 15.56 19.07 15.16C19.13 15.03 19.18 14.9 19.23 14.77C19.39 14.35 19.73 14.05 20.13 13.96L20.37 13.91C21.18 13.73 21.74 13.03 21.74 12.2V11.8C21.74 10.97 21.18 10.27 20.37 10.09ZM20.24 12.2C20.24 12.32 20.16 12.42 20.04 12.44L19.8 12.49C18.9 12.69 18.16 13.34 17.82 14.23C17.78 14.33 17.74 14.44 17.69 14.54C17.3 15.41 17.36 16.39 17.86 17.17L17.99 17.38C18.05 17.48 18.04 17.61 17.96 17.69L17.68 17.97C17.6 18.05 17.47 18.07 17.37 18.01L17.16 17.88C16.38 17.38 15.39 17.32 14.53 17.71C14.43 17.76 14.33 17.8 14.22 17.84C13.33 18.18 12.69 18.92 12.49 19.82L12.44 20.06C12.41 20.18 12.32 20.26 12.2 20.26H11.8C11.68 20.26 11.58 20.18 11.56 20.06L11.51 19.82C11.31 18.92 10.66 18.18 9.77 17.84C9.67 17.8 9.56 17.76 9.46 17.71C9.08 17.54 8.68 17.46 8.29 17.46C7.78 17.46 7.27 17.6 6.83 17.88L6.62 18.01C6.52 18.07 6.39 18.06 6.31 17.98L6.03 17.7C5.95 17.62 5.93 17.49 5.99 17.39L6.12 17.18C6.62 16.4 6.68 15.42 6.29 14.54C6.24 14.44 6.2 14.34 6.16 14.23C5.82 13.34 5.08 12.7 4.18 12.5L3.94 12.45C3.82 12.42 3.74 12.33 3.74 12.21V11.81C3.74 11.69 3.82 11.59 3.94 11.57L4.18 11.52C5.08 11.32 5.82 10.67 6.16 9.78C6.2 9.68 6.24 9.57 6.29 9.47C6.68 8.6 6.62 7.62 6.12 6.84L5.99 6.63C5.93 6.53 5.94 6.4 6.02 6.32L6.3 6.04C6.38 5.96 6.51 5.94 6.61 6.01L6.82 6.14C7.6 6.64 8.58 6.7 9.45 6.31C9.55 6.26 9.65 6.22 9.76 6.18C10.65 5.84 11.29 5.1 11.49 4.2L11.54 3.96C11.57 3.84 11.66 3.76 11.78 3.76H12.18C12.3 3.76 12.4 3.84 12.42 3.96L12.47 4.2C12.67 5.1 13.32 5.84 14.21 6.18C14.31 6.22 14.42 6.26 14.52 6.31C15.39 6.7 16.38 6.64 17.15 6.14L17.36 6.01C17.46 5.95 17.59 5.96 17.67 6.04L17.95 6.32C18.03 6.4 18.05 6.53 17.99 6.63L17.86 6.84C17.36 7.62 17.3 8.6 17.69 9.48C17.74 9.58 17.78 9.68 17.82 9.79C18.16 10.68 18.9 11.32 19.8 11.52L20.04 11.57C20.16 11.6 20.24 11.69 20.24 11.81V12.21V12.2Z" />
</svg>
