<svg width="24" height="24" viewBox="0 0 24 24" xmlns="http://www.w3.org/2000/svg">
<path d="M12 2.25C6.62 2.25 2.25 6.62 2.25 12C2.25 17.38 6.62 21.75 12 21.75C17.38 21.75 21.75 17.38 21.75 12C21.75 6.62 17.38 2.25 12 2.25ZM12 20.25C7.45 20.25 3.75 16.55 3.75 12C3.75 7.45 7.45 3.75 12 3.75C16.55 3.75 20.25 7.45 20.25 12C20.25 16.55 16.55 20.25 12 20.25ZM12.59 15.38C12.8 15.59 12.9 15.83 12.9 16.12C12.9 16.41 12.8 16.67 12.59 16.88C12.38 17.09 12.13 17.19 11.83 17.19C11.53 17.19 11.28 17.09 11.08 16.88C10.88 16.67 10.78 16.42 10.78 16.12C10.78 15.82 10.88 15.58 11.09 15.38C11.3 15.18 11.54 15.07 11.83 15.07C12.12 15.07 12.38 15.17 12.59 15.38ZM14.76 8.28C14.99 8.62 15.11 8.99 15.11 9.39C15.11 9.75 15.05 10.06 14.92 10.32C14.79 10.58 14.64 10.79 14.46 10.95C14.28 11.11 14.04 11.3 13.75 11.52C13.48 11.72 13.26 11.88 13.11 12.02C12.95 12.16 12.82 12.33 12.71 12.54C12.6 12.75 12.55 12.99 12.55 13.27V13.68H11.05V13.2C11.05 12.8 11.12 12.46 11.25 12.17C11.38 11.88 11.55 11.65 11.74 11.47C11.93 11.29 12.18 11.09 12.48 10.86C12.82 10.6 13.08 10.38 13.24 10.2C13.4 10.02 13.48 9.79 13.48 9.51C13.48 9.17 13.35 8.91 13.07 8.72C12.8 8.53 12.45 8.43 12.02 8.43C11.68 8.43 11.35 8.51 11.02 8.67C10.69 8.83 10.39 9.07 10.13 9.4L9.08 8.59C9.9 7.64 10.93 7.16 12.17 7.16C12.78 7.16 13.3 7.26 13.75 7.47C14.2 7.68 14.53 7.95 14.76 8.3V8.28Z" />
</svg>
