<svg width="24" height="24" viewBox="0 0 24 24" xmlns="http://www.w3.org/2000/svg">
<path d="M11.84 17.18C11.54 17.18 11.29 17.08 11.09 16.87C10.89 16.66 10.79 16.41 10.79 16.11C10.79 15.81 10.89 15.57 11.1 15.37C11.31 15.17 11.55 15.06 11.84 15.06C12.13 15.06 12.39 15.16 12.6 15.37C12.81 15.58 12.91 15.82 12.91 16.11C12.91 16.4 12.81 16.66 12.6 16.87C12.39 17.08 12.14 17.18 11.84 17.18ZM14.28 11.1C14.34 11.05 14.41 10.99 14.46 10.94C14.64 10.78 14.79 10.57 14.92 10.31C15.05 10.05 15.11 9.74 15.11 9.38C15.11 8.99 14.99 8.62 14.76 8.27C14.53 7.92 14.19 7.65 13.75 7.44C13.31 7.23 12.78 7.13 12.17 7.13C11.61 7.13 11.1 7.24 10.63 7.43L11.64 8.44C11.76 8.42 11.89 8.4 12.01 8.4C12.44 8.4 12.79 8.5 13.06 8.69C13.33 8.88 13.47 9.15 13.47 9.48C13.47 9.72 13.4 9.92 13.28 10.09L14.28 11.09V11.1ZM16.18 19.1C14.91 19.85 13.46 20.25 12 20.25C7.45 20.25 3.75 16.55 3.75 12C3.75 10.54 4.15 9.09 4.9 7.82C5.11 7.46 4.99 7 4.64 6.79C4.28 6.58 3.82 6.7 3.61 7.05C2.72 8.55 2.25 10.26 2.25 12C2.25 17.38 6.62 21.75 12 21.75C13.73 21.75 15.44 21.28 16.95 20.39C17.31 20.18 17.43 19.72 17.21 19.36C17 19 16.54 18.88 16.18 19.1ZM7.82 4.9C9.09 4.15 10.54 3.75 12 3.75C16.55 3.75 20.25 7.45 20.25 12C20.25 13.46 19.85 14.91 19.1 16.18C18.89 16.54 19.01 17 19.36 17.21C19.48 17.28 19.61 17.31 19.74 17.31C20 17.31 20.25 17.18 20.39 16.94C21.28 15.44 21.75 13.73 21.75 11.99C21.75 6.62 17.38 2.25 12 2.25C10.27 2.25 8.56 2.72 7.05 3.61C6.69 3.82 6.57 4.28 6.79 4.64C7 5 7.46 5.12 7.82 4.9ZM4.53 3.47C4.24 3.18 3.76 3.18 3.47 3.47C3.18 3.76 3.18 4.24 3.47 4.53L19.47 20.53C19.62 20.68 19.81 20.75 20 20.75C20.19 20.75 20.38 20.68 20.53 20.53C20.82 20.24 20.82 19.76 20.53 19.47L4.53 3.47Z" />
</svg>
