<svg width="16" height="16" viewBox="0 0 16 16" xmlns="http://www.w3.org/2000/svg">
<path d="M10.13 5.45C10.3 5.69 10.38 5.95 10.38 6.24C10.38 6.5 10.33 6.72 10.24 6.9C10.16 7.06 10.06 7.19 9.95 7.29L7.43 4.77C7.68 4.71 7.94 4.66 8.22 4.66C8.68 4.66 9.07 4.73 9.39 4.87C9.71 5.01 9.96 5.2 10.13 5.44V5.45ZM8.56 11.24L7.37 10.05C7.21 10.21 7.13 10.4 7.13 10.63C7.13 10.87 7.21 11.07 7.38 11.23C7.55 11.4 7.74 11.48 7.98 11.48C8.22 11.48 8.4 11.4 8.57 11.24H8.56ZM5.95 3.18C6.6 2.9 7.29 2.76 8 2.76C10.89 2.76 13.25 5.12 13.25 8.01C13.25 8.72 13.11 9.41 12.83 10.06C12.67 10.44 12.85 10.88 13.23 11.04C13.33 11.08 13.43 11.1 13.52 11.1C13.81 11.1 14.09 10.93 14.21 10.64C14.57 9.8 14.75 8.92 14.75 8C14.75 4.28 11.72 1.25 8 1.25C7.09 1.25 6.2 1.43 5.36 1.79C4.98 1.95 4.8 2.39 4.96 2.77C5.12 3.15 5.56 3.33 5.94 3.17L5.95 3.18ZM10.05 12.84C9.4 13.12 8.71 13.26 8 13.26C5.11 13.26 2.75 10.9 2.75 8.01C2.75 7.3 2.89 6.61 3.17 5.96C3.33 5.58 3.15 5.14 2.77 4.98C2.39 4.82 1.95 5 1.79 5.38C1.43 6.22 1.25 7.1 1.25 8.02C1.25 11.74 4.28 14.77 8 14.77C8.91 14.77 9.8 14.59 10.64 14.23C11.02 14.07 11.2 13.63 11.04 13.25C10.88 12.87 10.44 12.69 10.06 12.85L10.05 12.84ZM2.53 1.48C2.24 1.19 1.76 1.19 1.47 1.48C1.18 1.77 1.18 2.25 1.47 2.54L13.47 14.54C13.62 14.69 13.81 14.76 14 14.76C14.19 14.76 14.38 14.69 14.53 14.54C14.82 14.25 14.82 13.77 14.53 13.48L2.53 1.48Z" />
</svg>
