<svg width="16" height="16" viewBox="0 0 16 16" xmlns="http://www.w3.org/2000/svg">
<path d="M10.13 5.44C10.3 5.68 10.38 5.94 10.38 6.23C10.38 6.49 10.33 6.71 10.24 6.89C10.15 7.07 10.04 7.22 9.91 7.34C9.78 7.46 9.61 7.59 9.39 7.73C9.13 7.9 8.94 8.05 8.82 8.19C8.7 8.33 8.63 8.51 8.63 8.74V8.94H7.28V8.7C7.28 8.41 7.33 8.16 7.42 7.96C7.51 7.76 7.63 7.6 7.76 7.48C7.89 7.36 8.06 7.23 8.26 7.09C8.46 6.95 8.61 6.84 8.7 6.74C8.79 6.64 8.84 6.52 8.84 6.38C8.84 6.21 8.77 6.08 8.63 5.99C8.49 5.9 8.31 5.85 8.09 5.85C7.88 5.85 7.67 5.9 7.47 6C7.27 6.1 7.09 6.24 6.92 6.43L5.98 5.7C6.55 5.03 7.3 4.69 8.23 4.69C8.69 4.69 9.08 4.76 9.4 4.9C9.72 5.04 9.97 5.23 10.14 5.47L10.13 5.44ZM7.98 9.78C7.75 9.78 7.55 9.86 7.38 10.03C7.21 10.2 7.13 10.39 7.13 10.63C7.13 10.87 7.21 11.07 7.38 11.23C7.55 11.4 7.74 11.48 7.98 11.48C8.22 11.48 8.42 11.4 8.58 11.23C8.75 11.06 8.83 10.86 8.83 10.63C8.83 10.4 8.75 10.2 8.58 10.03C8.41 9.86 8.21 9.78 7.98 9.78ZM14.75 8C14.75 11.72 11.72 14.75 8 14.75C4.28 14.75 1.25 11.72 1.25 8C1.25 4.28 4.28 1.25 8 1.25C11.72 1.25 14.75 4.28 14.75 8ZM13.25 8C13.25 5.11 10.89 2.75 8 2.75C5.11 2.75 2.75 5.11 2.75 8C2.75 10.89 5.11 13.25 8 13.25C10.89 13.25 13.25 10.89 13.25 8Z" />
</svg>
