<svg width="24" height="24" viewBox="0 0 24 24" xmlns="http://www.w3.org/2000/svg">
<path d="M19.75 8.83V18C19.75 19.52 18.52 20.75 17 20.75H7C5.48 20.75 4.25 19.52 4.25 18V16C4.25 15.59 4.59 15.25 5 15.25C5.41 15.25 5.75 15.59 5.75 16V18C5.75 18.69 6.31 19.25 7 19.25H17C17.69 19.25 18.25 18.69 18.25 18V8.83C18.25 8.5 18.12 8.18 17.88 7.95L15.05 5.12C14.82 4.89 14.5 4.75 14.17 4.75H7C6.31 4.75 5.75 5.31 5.75 6V10C5.75 10.41 5.41 10.75 5 10.75C4.59 10.75 4.25 10.41 4.25 10V6C4.25 4.48 5.48 3.25 7 3.25H14.17C14.9 3.25 15.59 3.54 16.11 4.06L18.94 6.89C19.46 7.41 19.75 8.1 19.75 8.83ZM8.47 15.47C8.18 15.76 8.18 16.24 8.47 16.53C8.62 16.68 8.81 16.75 9 16.75C9.19 16.75 9.38 16.68 9.53 16.53L12.53 13.53C12.6 13.46 12.65 13.38 12.69 13.29C12.77 13.11 12.77 12.9 12.69 12.72C12.65 12.63 12.6 12.55 12.53 12.48L9.53 9.48C9.24 9.19 8.76 9.19 8.47 9.48C8.18 9.77 8.18 10.25 8.47 10.54L10.19 12.26H2C1.59 12.26 1.25 12.6 1.25 13.01C1.25 13.42 1.59 13.76 2 13.76H10.19L8.47 15.48V15.47ZM14 5.25C13.59 5.25 13.25 5.59 13.25 6V7C13.25 8.52 14.48 9.75 16 9.75H17C17.41 9.75 17.75 9.41 17.75 9C17.75 8.59 17.41 8.25 17 8.25H16C15.31 8.25 14.75 7.69 14.75 7V6C14.75 5.59 14.41 5.25 14 5.25Z" />
</svg>
