<svg width="24" height="24" viewBox="0 0 24 24" xmlns="http://www.w3.org/2000/svg">
<path d="M20.4449 14.3969C20.7749 14.6469 20.8449 15.1169 20.5949 15.4469C18.5349 18.1769 15.4049 19.7469 11.9949 19.7469C11.3849 19.7469 10.7349 19.6769 10.0149 19.5469C9.60488 19.4669 9.33488 19.0769 9.41488 18.6669C9.49488 18.2569 9.88488 17.9869 10.2949 18.0669C10.9249 18.1869 11.4749 18.2369 11.9949 18.2369C14.9249 18.2369 17.6249 16.8869 19.3949 14.5369C19.6449 14.2069 20.1149 14.1369 20.4449 14.3869V14.3969ZM5.97488 17.7169C6.20488 17.7169 6.42488 17.6169 6.57488 17.4169C6.82488 17.0869 6.76488 16.6169 6.42488 16.3669C5.70488 15.8169 5.08488 15.2069 4.58488 14.5469C4.33488 14.2169 3.86488 14.1469 3.53488 14.3969C3.20488 14.6469 3.13488 15.1169 3.38488 15.4469C3.96488 16.2169 4.68488 16.9269 5.51488 17.5569C5.64488 17.6569 5.80488 17.7069 5.96488 17.7069L5.97488 17.7169ZM11.9649 8.74692C12.3749 8.74692 12.7149 8.40692 12.7049 7.98692C12.6949 7.56692 12.3449 7.21692 11.9449 7.24692C9.35488 7.27692 7.24488 9.40692 7.24488 11.9969C7.24488 12.6069 7.36488 13.2069 7.59488 13.7769C7.71488 14.0669 7.99488 14.2469 8.29488 14.2469C8.38488 14.2469 8.48488 14.2269 8.57488 14.1969C8.95488 14.0369 9.14488 13.6069 8.98488 13.2169C8.82488 12.8269 8.74488 12.4169 8.74488 11.9969C8.74488 10.2269 10.1849 8.76692 11.9649 8.74692ZM12.0249 15.2469C11.6149 15.2469 11.2749 15.5869 11.2849 16.0069C11.2849 16.4169 11.6249 16.7469 12.0349 16.7469C14.6249 16.7169 16.7349 14.5869 16.7349 11.9969C16.7349 11.3869 16.6149 10.7869 16.3849 10.2169C16.2249 9.83692 15.7849 9.64692 15.4049 9.80692C15.0249 9.96692 14.8349 10.3969 14.9949 10.7869C15.1549 11.1769 15.2349 11.5869 15.2349 12.0069C15.2349 13.7769 13.7949 15.2369 12.0149 15.2569L12.0249 15.2469ZM23.6549 11.6469C22.4449 9.34692 20.6849 7.44692 18.5649 6.13692C18.2049 5.91692 17.7449 6.02692 17.5349 6.38692C17.3149 6.73692 17.4249 7.19692 17.7849 7.41692C19.6749 8.57692 21.2449 10.2869 22.3249 12.3469C22.4549 12.5969 22.7249 12.7469 22.9949 12.7469C23.1149 12.7469 23.2349 12.7169 23.3449 12.6569C23.7149 12.4669 23.8549 12.0069 23.6549 11.6469ZM11.9949 5.74692C12.5649 5.74692 13.1449 5.79692 13.7349 5.88692C14.1449 5.94692 14.5249 5.67692 14.5949 5.26692C14.6649 4.85692 14.3849 4.47692 13.9749 4.40692C8.38488 3.49692 3.05488 6.46692 0.334879 11.6469C0.144879 12.0169 0.284879 12.4669 0.644879 12.6569C0.754879 12.7169 0.874879 12.7469 0.994879 12.7469C1.26488 12.7469 1.52488 12.5969 1.66488 12.3469C3.79488 8.27692 7.76488 5.74692 11.9949 5.74692ZM18.4149 2.37692C18.0649 2.14692 17.6049 2.23692 17.3749 2.58692L5.37488 20.5769C5.14488 20.9169 5.23488 21.3869 5.58488 21.6169C5.71488 21.6969 5.85488 21.7469 6.00488 21.7469C6.24488 21.7469 6.48488 21.6269 6.62488 21.4169L18.6149 3.41692C18.8449 3.07692 18.7549 2.60692 18.4049 2.37692H18.4149Z" />
</svg>
