<svg width="24" height="24" viewBox="0 0 24 24" xmlns="http://www.w3.org/2000/svg">
  <path d="M17.53 14.47C17.24 14.18 16.76 14.18 16.47 14.47C16.18 14.76 16.18 15.24 16.47 15.53L18.19 17.25H8.63C8.57 17.05 8.49 16.85 8.39 16.67L16.67 8.39C17.07 8.61 17.52 8.75 18 8.75C19.52 8.75 20.75 7.52 20.75 6C20.75 4.48 19.52 3.25 18 3.25C16.75 3.25 15.7 4.1 15.37 5.25H8.64C8.31 4.1 7.26 3.25 6.01 3.25C4.48 3.25 3.25 4.48 3.25 6C3.25 7.52 4.48 8.75 6 8.75C7.25 8.75 8.3 7.9 8.63 6.75H15.36C15.42 6.95 15.5 7.15 15.6 7.33L7.33 15.61C6.93 15.39 6.48 15.25 6 15.25C4.48 15.25 3.25 16.48 3.25 18C3.25 19.52 4.48 20.75 6 20.75C7.25 20.75 8.3 19.9 8.63 18.75H18.19L16.47 20.47C16.18 20.76 16.18 21.24 16.47 21.53C16.62 21.68 16.81 21.75 17 21.75C17.19 21.75 17.38 21.68 17.53 21.53L20.53 18.53C20.82 18.24 20.82 17.76 20.53 17.47L17.53 14.47ZM6 7.25C5.31 7.25 4.75 6.69 4.75 6C4.75 5.31 5.31 4.75 6 4.75C6.69 4.75 7.25 5.31 7.25 6C7.25 6.69 6.69 7.25 6 7.25ZM18 4.75C18.69 4.75 19.25 5.31 19.25 6C19.25 6.69 18.69 7.25 18 7.25C17.31 7.25 16.75 6.69 16.75 6C16.75 5.31 17.31 4.75 18 4.75ZM6 19.25C5.31 19.25 4.75 18.69 4.75 18C4.75 17.31 5.31 16.75 6 16.75C6.69 16.75 7.25 17.31 7.25 18C7.25 18.69 6.69 19.25 6 19.25Z"/>
</svg>
