<svg width="24" height="24" viewBox="0 0 24 24" xmlns="http://www.w3.org/2000/svg">
<g clip-path="url(#clip0_17790_388137)">
<path fill-rule="evenodd" clip-rule="evenodd" d="M12.17 0L1 3.98L2.71 18.75L12.16 24L21.77 18.68L23.62 3.91L12.17 0ZM16.97 18.27L15.45 14.74H9.23L7.83 18.24L5.23 18.29L12.19 2.81L19.45 18.33L16.97 18.28V18.27ZM10.15 12.69L12.21 7.77L14.56 12.69H10.14H10.15Z" fill="#E23237"/>
<path fill-rule="evenodd" clip-rule="evenodd" d="M12.1899 12.69H12.1699V7.85L12.1999 7.77L14.5499 12.69H12.1799H12.1899ZM12.1699 0V2.84L12.1899 2.8L19.4499 18.32L16.9699 18.27L15.4499 14.74H12.1799V24L21.7899 18.68L23.6399 3.91L12.1699 0Z" fill="#B52E31"/>
</g>
<defs>
<clipPath id="clip0_17790_388137">
<rect width="22.63" height="24" fill="white" transform="translate(1)"/>
</clipPath>
</defs>
</svg>
