<svg width="24" height="24" viewBox="0 0 24 24" xmlns="http://www.w3.org/2000/svg">
<path d="M14.1459 11.9624C14.1459 13.1424 13.1855 14.1024 12.005 14.1024C10.8245 14.1024 9.86411 13.1424 9.86411 11.9624C9.86411 10.7824 10.8245 9.8224 12.005 9.8224C13.1855 9.8224 14.1459 10.7824 14.1459 11.9624ZM24 11.9624C24 13.4324 22.2593 14.9224 19.4581 15.8524C19.308 15.9024 19.168 15.9424 19.0079 15.9924C19.0679 16.2124 19.108 16.4224 19.158 16.6324C19.4181 17.9524 19.4581 19.1824 19.278 20.1824C19.0779 21.2424 18.6378 22.0024 17.9975 22.3724C17.6774 22.5624 17.2972 22.6524 16.877 22.6524C15.7165 22.6524 14.2359 21.9524 12.7053 20.6324C12.4852 20.4424 12.2751 20.2524 12.055 20.0424C11.885 20.2024 11.7249 20.3624 11.5548 20.5024C10.5344 21.3924 9.49396 22.0424 8.53356 22.3824C8.03335 22.5624 7.56315 22.6524 7.14298 22.6524C6.7228 22.6524 6.32263 22.5624 6.0025 22.3724C4.77199 21.6624 4.35181 19.6224 4.86203 16.9124C4.91205 16.6324 4.98208 16.3524 5.0521 16.0624C4.82201 16.0024 4.61192 15.9324 4.40183 15.8524C3.1213 15.4124 2.04085 14.8324 1.26053 14.1724C0.440183 13.4724 0 12.7024 0 11.9724C0 10.5524 1.56065 9.1624 4.17174 8.2624C4.46186 8.1624 4.76198 8.0724 5.06211 7.9824C4.99208 7.7124 4.93205 7.4524 4.88203 7.1924C4.63193 5.9024 4.58191 4.7224 4.74198 3.7624C4.92205 2.7224 5.34223 1.9824 5.97249 1.6224C7.24302 0.882403 9.41392 1.6424 11.6148 3.6024C11.7449 3.7224 11.8749 3.8424 12.015 3.9724C12.2151 3.7824 12.4152 3.5924 12.6153 3.4224C13.6057 2.5624 14.6161 1.9224 15.5165 1.5924C16.5069 1.2324 17.3572 1.2324 17.9775 1.5924C19.258 2.3224 19.6782 4.5824 19.0779 7.4724C19.0479 7.6524 18.9979 7.8224 18.9579 8.0024C19.218 8.0824 19.4781 8.1624 19.7282 8.2424C20.9687 8.6724 22.0192 9.2224 22.7595 9.8424C23.5698 10.5124 23.99 11.2524 23.99 11.9824L24 11.9624ZM13.2855 4.1924C13.1055 4.3524 12.9154 4.5224 12.7353 4.6924C13.4156 5.4224 14.0959 6.2824 14.7561 7.2224C15.8866 7.3324 16.9671 7.5024 17.9675 7.7324C18.0075 7.5724 18.0475 7.4124 18.0775 7.2624C18.6378 4.5424 18.1576 2.8724 17.4673 2.4824C17.1171 2.2824 16.5469 2.3024 15.8666 2.5624C15.0763 2.8524 14.1859 3.4224 13.2855 4.2024V4.1924ZM16.3868 11.9824C16.0767 11.3524 15.7266 10.7124 15.3464 10.0524C14.9762 9.4024 14.5861 8.7924 14.1859 8.2024C13.4756 8.1424 12.7453 8.1224 11.995 8.1224C11.2447 8.1224 10.5244 8.1524 9.81409 8.2024C9.40392 8.7924 9.02376 9.4124 8.6436 10.0624C8.27345 10.7024 7.93331 11.3524 7.62318 11.9924C7.93331 12.6424 8.27345 13.2824 8.65361 13.9324C9.03376 14.5824 9.41392 15.1924 9.82409 15.7924C10.5244 15.8324 11.2447 15.8624 11.995 15.8624C12.7453 15.8624 13.4856 15.8324 14.1959 15.7824C14.5861 15.2024 14.9662 14.5824 15.3464 13.9324C15.7165 13.2824 16.0667 12.6324 16.3768 11.9924L16.3868 11.9824ZM16.2368 14.4324C15.9967 14.8524 15.7466 15.2624 15.5065 15.6524C16.2968 15.5624 17.0471 15.4324 17.7474 15.2724C17.5373 14.6024 17.2672 13.8924 16.9371 13.1624C16.717 13.5824 16.4869 14.0124 16.2368 14.4324ZM13.4456 16.8424C12.9654 16.8624 12.4852 16.8724 11.995 16.8724C11.5048 16.8724 11.0546 16.8724 10.5944 16.8424C11.0646 17.4624 11.5548 18.0424 12.035 18.5724C12.5052 18.0524 12.9754 17.4724 13.4456 16.8324V16.8424ZM7.75323 14.4324C7.51313 14.0224 7.28303 13.6124 7.07295 13.1924C6.77282 13.9124 6.51271 14.6224 6.29262 15.3124C6.97291 15.4624 7.71321 15.5824 8.50354 15.6624C8.24343 15.2624 7.99333 14.8424 7.75323 14.4324ZM8.48353 8.3324C7.72322 8.4224 6.99291 8.5524 6.30263 8.7024C6.51271 9.3724 6.77282 10.0724 7.06294 10.7824C7.27303 10.3724 7.50313 9.9524 7.74323 9.5424C7.98333 9.1324 8.22343 8.7224 8.47353 8.3324H8.48353ZM10.5744 7.1224C11.0346 7.1024 11.5048 7.0924 11.985 7.0924C12.4652 7.0924 12.9454 7.1024 13.4156 7.1224C12.9454 6.5024 12.4752 5.9324 12.005 5.4224C11.5248 5.9424 11.0446 6.5124 10.5844 7.1224H10.5744ZM16.917 10.7924C17.2172 10.0824 17.4773 9.3824 17.6874 8.7224C16.9971 8.5624 16.2568 8.4324 15.4965 8.3424C15.7466 8.7324 15.9867 9.1324 16.2268 9.5424C16.4669 9.9624 16.697 10.3824 16.917 10.8024V10.7924ZM6.03251 7.7224C7.03293 7.4924 8.11338 7.3324 9.24385 7.2224C9.89412 6.2924 10.5844 5.4424 11.2847 4.7024C11.1647 4.5824 11.0446 4.4724 10.9246 4.3724C8.84369 2.5224 7.16298 2.1124 6.4727 2.5124C6.12255 2.7124 5.86244 3.2224 5.74239 3.9424C5.60233 4.7724 5.64235 5.8324 5.87245 6.9924C5.92247 7.2324 5.97249 7.4824 6.04252 7.7324L6.03251 7.7224ZM5.30221 15.0624C5.60233 14.0724 6.0025 13.0424 6.4827 11.9924C6.01251 10.9624 5.61234 9.9424 5.31221 8.9624C5.02209 9.0424 4.75198 9.1324 4.49187 9.2224C2.09087 10.0624 1.01042 11.2024 1.01042 11.9724C1.01042 12.7424 2.1709 14.0224 4.71196 14.8824C4.90204 14.9424 5.10213 15.0124 5.30221 15.0624ZM10.8545 19.7424C11.0046 19.6124 11.1546 19.4724 11.3147 19.3224C10.6144 18.5624 9.91413 17.7124 9.25386 16.7724C8.08337 16.6824 6.99291 16.5224 6.02251 16.3024C5.95248 16.5724 5.90246 16.8424 5.84243 17.0924C5.37224 19.5924 5.82243 21.0924 6.4827 21.4724C6.64277 21.5624 6.86286 21.6224 7.12297 21.6224C7.97332 21.6224 9.31388 21.0824 10.8545 19.7324V19.7424ZM18.0175 16.2524C17.0271 16.4824 15.9366 16.6524 14.7662 16.7524C14.1059 17.7124 13.4256 18.5724 12.7553 19.3024C12.9554 19.5024 13.1655 19.6824 13.3656 19.8524C15.2964 21.5124 16.827 21.8724 17.4873 21.4824C18.1776 21.0824 18.6778 19.4624 18.1576 16.8224C18.1175 16.6324 18.0675 16.4424 18.0275 16.2424L18.0175 16.2524ZM22.9696 11.9624C22.9696 11.5524 22.6594 11.0824 22.0992 10.6124C21.4489 10.0724 20.5185 9.5824 19.3881 9.1924C19.158 9.1124 18.9179 9.0424 18.6778 8.9624C18.3877 9.9124 17.9875 10.9324 17.5073 11.9624C18.0075 13.0224 18.4177 14.0424 18.7178 15.0024C18.8579 14.9624 18.9879 14.9124 19.128 14.8724C21.7691 14.0024 22.9696 12.7524 22.9696 11.9624Z" fill="#00D8FF"/>
</svg>
