<svg width="24" height="24" viewBox="0 0 24 24" xmlns="http://www.w3.org/2000/svg">
<path d="M23.42 17.5751C23.42 17.5751 20.43 25.5875 10.16 23.7169C7.55997 23.0467 5.16997 21.5963 3.35997 19.6157C3.00997 19.2356 2.67997 18.8354 2.37997 18.4153C-0.130033 14.9643 -1.02003 10.0228 1.51997 6.39164L3.17997 4.30101C0.199966 10.1128 4.07997 17.1649 9.63997 19.7657C14.13 22.0064 20.41 21.5263 23.41 17.5751H23.42ZM8.53997 12.4435C9.86997 14.3741 11.96 15.7845 14.23 16.3747C22.16 17.6851 24 11.6032 24 11.6032C18.31 19.1855 4.80997 10.6529 9.36997 2.07033L8.11997 3.83086C6.30997 6.41165 6.75997 9.96273 8.53997 12.4335V12.4435ZM16.9 9.72266C17.08 9.79268 17.27 9.8527 17.46 9.90272C21.84 10.743 23.03 7.66203 23.35 7.21189C21.99 9.39256 18.24 9.07246 16.2 7.47197C14.28 6.02153 13.09 3.26069 14.34 1C11.47 4.08094 13.21 8.36225 16.9 9.72266Z" fill="#0D61A8"/>
</svg>
