<svg width="24" height="24" viewBox="0 0 24 24" xmlns="http://www.w3.org/2000/svg">
<g clip-path="url(#clip0_17790_388139)">
<path d="M23.6098 20.0301C23.2398 19.8203 22.8498 19.6805 22.4198 19.6605C20.8398 19.6605 19.6398 19.6605 18.2098 19.6605C16.7898 19.7104 16.6398 18.1121 16.2198 17.0832C15.4698 15.1152 14.8298 13.0973 14.0598 11.1394C15.9698 9.15147 17.8298 7.1136 19.7298 5.12568C20.8498 4.09676 22.2798 2.13881 20.2898 1.17981C18.0898 0.880128 16.8298 3.6772 15.3098 4.90591C13.9298 6.46428 12.4398 7.92276 11.0798 9.48112C13.8898 4.27657 10.8798 -0.208732 5.07985 1.2897C1.39985 2.44849 -1.16015 6.95377 0.529846 10.6399C1.33985 12.2482 3.08985 13.447 4.89985 12.8776C5.75985 12.508 6.36985 11.4291 5.83985 10.55C5.51985 10.1704 5.06985 9.99059 4.61985 9.82077C3.57985 9.38123 3.20985 8.19247 3.47985 7.15356C3.83985 5.06575 7.02985 3.04786 8.43985 5.27553C8.75985 6.34441 8.15985 7.45325 7.80985 8.4522C6.89985 10.7798 5.96985 13.0874 5.04985 15.4049C4.68985 16.5138 3.93985 17.5627 4.09985 18.7714C4.89985 20.4397 6.86985 19.7803 7.55985 18.3518C8.52985 15.9344 9.58985 13.5269 10.4198 11.0795C11.7798 14.5558 12.8498 18.162 14.3298 21.5885C14.8598 22.6074 15.8598 22.957 16.9398 22.997C19.0098 22.997 20.3698 22.997 21.9098 22.997C22.2798 22.997 22.6298 22.8272 22.9898 22.7173C23.9298 22.2378 24.3698 20.8692 23.5998 20.0501L23.6098 20.0301Z" fill="#E42E16"/>
</g>
<defs>
<clipPath id="clip0_17790_388139">
<rect width="24" height="24" fill="white"/>
</clipPath>
</defs>
</svg>
