<svg width="16" height="16" viewBox="0 0 16 16" xmlns="http://www.w3.org/2000/svg">
<path d="M8 6.25C7.04 6.25 6.25 7.04 6.25 8C6.25 8.96 7.04 9.75 8 9.75C8.96 9.75 9.75 8.96 9.75 8C9.75 7.04 8.96 6.25 8 6.25ZM7.75 8C7.75 7.86 7.86 7.75 8 7.75C8.14 7.75 8.25 7.86 8.25 8C8.25 8.28 7.75 8.28 7.75 8ZM2 6.25C1.04 6.25 0.25 7.04 0.25 8C0.25 8.96 1.04 9.75 2 9.75C2.96 9.75 3.75 8.96 3.75 8C3.75 7.04 2.96 6.25 2 6.25ZM1.75 8C1.75 7.86 1.86 7.75 2 7.75C2.14 7.75 2.25 7.86 2.25 8C2.25 8.28 1.75 8.28 1.75 8ZM14 6.25C13.04 6.25 12.25 7.04 12.25 8C12.25 8.96 13.04 9.75 14 9.75C14.96 9.75 15.75 8.96 15.75 8C15.75 7.04 14.96 6.25 14 6.25ZM13.75 8C13.75 7.86 13.86 7.75 14 7.75C14.14 7.75 14.25 7.86 14.25 8C14.25 8.28 13.75 8.28 13.75 8Z" />
</svg>
