<svg width="24" height="24" viewBox="0 0 24 24" xmlns="http://www.w3.org/2000/svg">
<path d="M19.75 10.5C19.75 9.72 19.35 9.04 18.75 8.63V3C18.75 2.04 17.96 1.25 17 1.25H7C6.04 1.25 5.25 2.04 5.25 3V8.63C4.65 9.03 4.25 9.72 4.25 10.5C4.25 11.28 4.65 11.96 5.25 12.37V13.14C5.25 14.58 6.42 15.75 7.86 15.75C8.19 15.75 8.48 15.89 8.7 16.13C8.92 16.37 9.01 16.69 8.96 17.01L8.69 18.92C8.55 19.88 8.84 20.86 9.48 21.59C10.12 22.32 11.04 22.75 12.01 22.75C12.98 22.75 13.91 22.33 14.54 21.59C15.18 20.85 15.46 19.88 15.33 18.92L15.06 17.01C15.01 16.69 15.11 16.37 15.32 16.13C15.53 15.89 15.83 15.75 16.16 15.75C17.6 15.75 18.77 14.58 18.77 13.14V12.37C19.37 11.97 19.77 11.28 19.77 10.5H19.75ZM5.75 10.5C5.75 10.09 6.09 9.75 6.5 9.75H17.5C17.91 9.75 18.25 10.09 18.25 10.5C18.25 10.91 17.91 11.25 17.5 11.25H6.5C6.09 11.25 5.75 10.91 5.75 10.5ZM6.75 3C6.75 2.86 6.86 2.75 7 2.75H11.25V4C11.25 4.41 11.59 4.75 12 4.75C12.41 4.75 12.75 4.41 12.75 4V2.75H14.25V5C14.25 5.41 14.59 5.75 15 5.75C15.41 5.75 15.75 5.41 15.75 5V2.75H17C17.14 2.75 17.25 2.86 17.25 3V8.25H6.75V3ZM17.25 13.14C17.25 13.75 16.75 14.25 16.14 14.25C15.38 14.25 14.67 14.58 14.17 15.15C13.67 15.72 13.45 16.48 13.56 17.23L13.83 19.14C13.91 19.67 13.75 20.21 13.4 20.62C12.69 21.43 11.31 21.43 10.6 20.62C10.25 20.21 10.09 19.68 10.17 19.14L10.44 17.23C10.55 16.48 10.32 15.72 9.83 15.15C9.33 14.58 8.62 14.25 7.86 14.25C7.25 14.25 6.75 13.75 6.75 13.14V12.75H17.25V13.14ZM11 19C11 18.45 11.45 18 12 18C12.55 18 13 18.45 13 19C13 19.55 12.55 20 12 20C11.45 20 11 19.55 11 19Z" />
</svg>
