<svg width="24" height="24" viewBox="0 0 24 24" xmlns="http://www.w3.org/2000/svg">
<path d="M5.47 8.53C5.18 8.24 5.18 7.76 5.47 7.47L7.47 5.47C7.76 5.18 8.24 5.18 8.53 5.47C8.82 5.76 8.82 6.24 8.53 6.53L6.53 8.53C6.38 8.68 6.19 8.75 6 8.75C5.81 8.75 5.62 8.68 5.47 8.53ZM6 13.75C6.19 13.75 6.38 13.68 6.53 13.53L13.53 6.53C13.82 6.24 13.82 5.76 13.53 5.47C13.24 5.18 12.76 5.18 12.47 5.47L5.47 12.47C5.18 12.76 5.18 13.24 5.47 13.53C5.62 13.68 5.81 13.75 6 13.75ZM17.47 5.47L5.47 17.47C5.18 17.76 5.18 18.24 5.47 18.53C5.62 18.68 5.81 18.75 6 18.75C6.19 18.75 6.38 18.68 6.53 18.53L18.53 6.53C18.82 6.24 18.82 5.76 18.53 5.47C18.24 5.18 17.76 5.18 17.47 5.47ZM17.47 10.47L10.47 17.47C10.18 17.76 10.18 18.24 10.47 18.53C10.62 18.68 10.81 18.75 11 18.75C11.19 18.75 11.38 18.68 11.53 18.53L18.53 11.53C18.82 11.24 18.82 10.76 18.53 10.47C18.24 10.18 17.76 10.18 17.47 10.47ZM17.47 15.47L15.47 17.47C15.18 17.76 15.18 18.24 15.47 18.53C15.62 18.68 15.81 18.75 16 18.75C16.19 18.75 16.38 18.68 16.53 18.53L18.53 16.53C18.82 16.24 18.82 15.76 18.53 15.47C18.24 15.18 17.76 15.18 17.47 15.47ZM21.75 5V19C21.75 20.52 20.52 21.75 19 21.75H5C3.48 21.75 2.25 20.52 2.25 19V5C2.25 3.48 3.48 2.25 5 2.25H19C20.52 2.25 21.75 3.48 21.75 5ZM20.25 5C20.25 4.31 19.69 3.75 19 3.75H5C4.31 3.75 3.75 4.31 3.75 5V19C3.75 19.69 4.31 20.25 5 20.25H19C19.69 20.25 20.25 19.69 20.25 19V5Z" />
</svg>
