<svg width="24" height="24" viewBox="0 0 24 24" xmlns="http://www.w3.org/2000/svg">
<path d="M18.75 4V20C18.75 20.41 18.41 20.75 18 20.75C17.59 20.75 17.25 20.41 17.25 20V4C17.25 3.59 17.59 3.25 18 3.25C18.41 3.25 18.75 3.59 18.75 4ZM14 3.25C13.59 3.25 13.25 3.59 13.25 4V20C13.25 20.41 13.59 20.75 14 20.75C14.41 20.75 14.75 20.41 14.75 20V4C14.75 3.59 14.41 3.25 14 3.25ZM10 3.25C9.59 3.25 9.25 3.59 9.25 4V20C9.25 20.41 9.59 20.75 10 20.75C10.41 20.75 10.75 20.41 10.75 20V4C10.75 3.59 10.41 3.25 10 3.25ZM6 3.25C5.59 3.25 5.25 3.59 5.25 4V20C5.25 20.41 5.59 20.75 6 20.75C6.41 20.75 6.75 20.41 6.75 20V4C6.75 3.59 6.41 3.25 6 3.25Z" />
</svg>
