<svg width="24" height="24" viewBox="0 0 24 24" xmlns="http://www.w3.org/2000/svg">
<path d="M19.67 4.8C19.01 4.53 18.27 4.68 17.76 5.18L5.18 17.76C4.68 18.26 4.53 19.01 4.8 19.67C5.07 20.33 5.71 20.75 6.42 20.75H19.01C19.97 20.75 20.76 19.96 20.76 19V6.41C20.76 5.7 20.34 5.07 19.68 4.79L19.67 4.8ZM19.25 19C19.25 19.14 19.14 19.25 19 19.25H6.41C6.26 19.25 6.2 19.15 6.18 19.1C6.16 19.04 6.13 18.93 6.23 18.83L18.82 6.24C18.88 6.18 18.94 6.16 18.99 6.16C19.03 6.16 19.07 6.17 19.09 6.18C19.15 6.2 19.24 6.26 19.24 6.41V19H19.25ZM17.29 10.31C17.01 10.2 16.69 10.26 16.47 10.47L10.47 16.47C10.26 16.68 10.19 17.01 10.31 17.29C10.43 17.57 10.7 17.75 11 17.75H17C17.41 17.75 17.75 17.41 17.75 17V11C17.75 10.7 17.57 10.42 17.29 10.31ZM16.25 16.25H12.81L16.25 12.81V16.25ZM9 6.25C7.48 6.25 6.25 7.48 6.25 9C6.25 10.52 7.48 11.75 9 11.75C10.52 11.75 11.75 10.52 11.75 9C11.75 7.48 10.52 6.25 9 6.25ZM9 10.25C8.31 10.25 7.75 9.69 7.75 9C7.75 8.31 8.31 7.75 9 7.75C9.69 7.75 10.25 8.31 10.25 9C10.25 9.69 9.69 10.25 9 10.25ZM4.23 13.77C3.67 13.21 3.57 12.36 3.93 11.7C3.75 11.37 3.61 11.03 3.5 10.68C2.78 10.47 2.25 9.79 2.25 9C2.25 8.21 2.78 7.54 3.5 7.32C3.61 6.97 3.75 6.62 3.93 6.3C3.57 5.64 3.67 4.79 4.23 4.23C4.79 3.67 5.64 3.57 6.3 3.93C6.63 3.75 6.97 3.61 7.32 3.5C7.53 2.78 8.21 2.25 9 2.25C9.79 2.25 10.46 2.78 10.68 3.5C11.03 3.61 11.38 3.75 11.7 3.93C12.36 3.57 13.21 3.67 13.77 4.23C14.1 4.56 14.28 5 14.28 5.47C14.28 5.77 14.21 6.06 14.07 6.31C14.19 6.54 14.29 6.79 14.39 7.06C14.53 7.45 14.33 7.88 13.94 8.02C13.55 8.16 13.12 7.96 12.98 7.57C12.85 7.2 12.7 6.91 12.54 6.66C12.34 6.36 12.38 5.97 12.63 5.71L12.7 5.64C12.76 5.58 12.77 5.5 12.77 5.46C12.77 5.42 12.77 5.35 12.7 5.29C12.6 5.19 12.44 5.19 12.35 5.29L12.28 5.36C12.03 5.61 11.63 5.65 11.34 5.45C10.88 5.15 10.38 4.94 9.85 4.83C9.5 4.76 9.25 4.45 9.25 4.09V3.99C9.25 3.71 8.75 3.71 8.75 3.99V4.09C8.75 4.45 8.5 4.75 8.15 4.83C7.62 4.94 7.12 5.15 6.66 5.45C6.36 5.65 5.97 5.61 5.72 5.36L5.65 5.29C5.55 5.19 5.39 5.19 5.3 5.29C5.2 5.39 5.2 5.55 5.3 5.64L5.37 5.71C5.62 5.96 5.66 6.36 5.47 6.65C5.17 7.11 4.96 7.61 4.85 8.14C4.78 8.49 4.47 8.74 4.11 8.74H4.01C3.87 8.74 3.76 8.85 3.76 8.99C3.76 9.13 3.87 9.24 4.01 9.24H4.11C4.47 9.24 4.77 9.49 4.85 9.84C4.96 10.37 5.17 10.87 5.47 11.33C5.67 11.63 5.63 12.02 5.37 12.27L5.3 12.34C5.2 12.44 5.2 12.6 5.3 12.69C5.4 12.79 5.56 12.79 5.65 12.69L5.72 12.62C5.97 12.37 6.37 12.33 6.67 12.53C6.92 12.69 7.21 12.84 7.58 12.97C7.97 13.11 8.17 13.54 8.03 13.93C7.92 14.23 7.63 14.42 7.32 14.42C7.24 14.42 7.15 14.41 7.06 14.38C6.79 14.28 6.54 14.17 6.31 14.06C5.65 14.42 4.77 14.3 4.23 13.76V13.77Z" />
</svg>
