<svg width="24" height="24" viewBox="0 0 24 24" xmlns="http://www.w3.org/2000/svg">
<path d="M12 2.25C7.58 2.25 4.25 3.86 4.25 6V18C4.25 20.14 7.58 21.75 12 21.75C16.42 21.75 19.75 20.14 19.75 18V6C19.75 3.86 16.42 2.25 12 2.25ZM18.25 14C18.25 14.92 15.82 16.25 12 16.25C8.18 16.25 5.75 14.92 5.75 14V12.27C7.14 13.18 9.37 13.75 12 13.75C14.63 13.75 16.86 13.18 18.25 12.27V14ZM18.25 10C18.25 10.92 15.82 12.25 12 12.25C8.18 12.25 5.75 10.92 5.75 10V8.27C7.14 9.18 9.37 9.75 12 9.75C14.63 9.75 16.86 9.18 18.25 8.27V10ZM12 3.75C15.82 3.75 18.25 5.08 18.25 6C18.25 6.92 15.82 8.25 12 8.25C8.18 8.25 5.75 6.92 5.75 6C5.75 5.08 8.18 3.75 12 3.75ZM12 20.25C8.18 20.25 5.75 18.92 5.75 18V16.27C7.14 17.18 9.37 17.75 12 17.75C14.63 17.75 16.86 17.18 18.25 16.27V18C18.25 18.92 15.82 20.25 12 20.25Z" />
</svg>
