<svg width="24" height="24" viewBox="0 0 24 24" xmlns="http://www.w3.org/2000/svg">
<path d="M18 3.25H6C4.48 3.25 3.25 4.48 3.25 6V18C3.25 19.52 4.48 20.75 6 20.75H18C19.52 20.75 20.75 19.52 20.75 18V6C20.75 4.48 19.52 3.25 18 3.25ZM19.25 18C19.25 18.69 18.69 19.25 18 19.25H6C5.31 19.25 4.75 18.69 4.75 18V6C4.75 5.31 5.31 4.75 6 4.75H18C18.69 4.75 19.25 5.31 19.25 6V18ZM9.75 9C9.75 9.41 9.41 9.75 9 9.75H8C7.59 9.75 7.25 9.41 7.25 9C7.25 8.59 7.59 8.25 8 8.25H9C9.41 8.25 9.75 8.59 9.75 9ZM16.75 9C16.75 9.41 16.41 9.75 16 9.75H12C11.59 9.75 11.25 9.41 11.25 9C11.25 8.59 11.59 8.25 12 8.25H16C16.41 8.25 16.75 8.59 16.75 9ZM9.75 12C9.75 12.41 9.41 12.75 9 12.75H8C7.59 12.75 7.25 12.41 7.25 12C7.25 11.59 7.59 11.25 8 11.25H9C9.41 11.25 9.75 11.59 9.75 12ZM16.75 12C16.75 12.41 16.41 12.75 16 12.75H12C11.59 12.75 11.25 12.41 11.25 12C11.25 11.59 11.59 11.25 12 11.25H16C16.41 11.25 16.75 11.59 16.75 12ZM9.75 15C9.75 15.41 9.41 15.75 9 15.75H8C7.59 15.75 7.25 15.41 7.25 15C7.25 14.59 7.59 14.25 8 14.25H9C9.41 14.25 9.75 14.59 9.75 15ZM16.75 15C16.75 15.41 16.41 15.75 16 15.75H12C11.59 15.75 11.25 15.41 11.25 15C11.25 14.59 11.59 14.25 12 14.25H16C16.41 14.25 16.75 14.59 16.75 15Z" />
</svg>
