<svg width="24" height="24" viewBox="0 0 24 24" xmlns="http://www.w3.org/2000/svg">
<path d="M22.67 20.67L16.67 8.67C16.42 8.16 15.58 8.16 15.33 8.67L9.33 20.67C9.14 21.04 9.29 21.49 9.67 21.68C10.04 21.87 10.49 21.72 10.68 21.34L12.98 16.75C12.98 16.75 13 16.75 13.01 16.75H19.01C19.01 16.75 19.03 16.75 19.04 16.75L21.34 21.34C21.47 21.6 21.74 21.76 22.01 21.76C22.12 21.76 22.24 21.73 22.34 21.68C22.71 21.49 22.86 21.04 22.68 20.67H22.67ZM13.71 15.25L16 10.68L18.29 15.25H13.72H13.71ZM10.7 12.23C9.9 11.17 9.36 10.03 8.99 8.88C8.18 11.39 6.56 13.74 3.38 15.65C3.26 15.72 3.13 15.76 3 15.76C2.75 15.76 2.5 15.63 2.36 15.4C2.15 15.04 2.26 14.58 2.62 14.37C6.39 12.11 7.74 9.32 8.12 5.76H3C2.59 5.75 2.25 5.41 2.25 5C2.25 4.59 2.59 4.25 3 4.25H8.22C8.24 3.84 8.25 3.43 8.25 3C8.25 2.57 8.59 2.25 9 2.25C9.41 2.25 9.75 2.59 9.75 3C9.75 3.43 9.76 3.85 9.78 4.25H15C15.41 4.25 15.75 4.59 15.75 5C15.75 5.41 15.41 5.75 15 5.75H9.89C10.15 8.09 10.79 9.84 11.9 11.33C12.15 11.66 12.08 12.13 11.75 12.38C11.42 12.63 10.95 12.56 10.7 12.23Z" />
</svg>
