<svg width="24" height="24" viewBox="0 0 24 24" xmlns="http://www.w3.org/2000/svg">
<path d="M19 3.25H5C4.04 3.25 3.25 4.04 3.25 5V9C3.25 9.96 4.04 10.75 5 10.75H19C19.96 10.75 20.75 9.96 20.75 9V5C20.75 4.04 19.96 3.25 19 3.25ZM19.25 9C19.25 9.14 19.14 9.25 19 9.25H5C4.86 9.25 4.75 9.14 4.75 9V5C4.75 4.86 4.86 4.75 5 4.75H19C19.14 4.75 19.25 4.86 19.25 5V9ZM11 12.25H5C4.04 12.25 3.25 13.04 3.25 14V19C3.25 19.96 4.04 20.75 5 20.75H11C11.96 20.75 12.75 19.96 12.75 19V14C12.75 13.04 11.96 12.25 11 12.25ZM11.25 19C11.25 19.14 11.14 19.25 11 19.25H5C4.86 19.25 4.75 19.14 4.75 19V14C4.75 13.86 4.86 13.75 5 13.75H11C11.14 13.75 11.25 13.86 11.25 14V19ZM19 12.25H16C15.04 12.25 14.25 13.04 14.25 14V19C14.25 19.96 15.04 20.75 16 20.75H19C19.96 20.75 20.75 19.96 20.75 19V14C20.75 13.04 19.96 12.25 19 12.25ZM19.25 19C19.25 19.14 19.14 19.25 19 19.25H16C15.86 19.25 15.75 19.14 15.75 19V14C15.75 13.86 15.86 13.75 16 13.75H19C19.14 13.75 19.25 13.86 19.25 14V19Z" />
</svg>
