<svg width="24" height="24" viewBox="0 0 24 24" xmlns="http://www.w3.org/2000/svg">
<path d="M18 3.25H6C4.48 3.25 3.25 4.48 3.25 6V18C3.25 19.52 4.48 20.75 6 20.75H18C19.52 20.75 20.75 19.52 20.75 18V6C20.75 4.48 19.52 3.25 18 3.25ZM19.25 18C19.25 18.69 18.69 19.25 18 19.25H6C5.31 19.25 4.75 18.69 4.75 18V6C4.75 5.31 5.31 4.75 6 4.75H18C18.69 4.75 19.25 5.31 19.25 6V18ZM15.5 6.25C14.26 6.25 13.25 7.26 13.25 8.5C13.25 9.74 14.26 10.75 15.5 10.75C16.74 10.75 17.75 9.74 17.75 8.5C17.75 7.26 16.74 6.25 15.5 6.25ZM15.5 9.25C15.09 9.25 14.75 8.91 14.75 8.5C14.75 8.09 15.09 7.75 15.5 7.75C15.91 7.75 16.25 8.09 16.25 8.5C16.25 8.91 15.91 9.25 15.5 9.25ZM14.53 13.47C14.24 13.18 13.76 13.18 13.47 13.47L13 13.94L11.53 12.47C11.24 12.18 10.76 12.18 10.47 12.47L6.47 16.47C6.26 16.68 6.19 17.01 6.31 17.29C6.43 17.57 6.7 17.75 7 17.75H17C17.3 17.75 17.58 17.57 17.69 17.29C17.81 17.01 17.74 16.69 17.53 16.47L14.53 13.47ZM8.81 16.25L11 14.06L12.47 15.53C12.76 15.82 13.24 15.82 13.53 15.53L14 15.06L15.19 16.25H8.81Z" />
</svg>
