<svg width="24" height="24" viewBox="0 0 24 24" xmlns="http://www.w3.org/2000/svg">
<path d="M10.06 8.88C9.63 8.67 9.13 8.71 8.75 9L6.08 11C5.76 11.24 5.58 11.6 5.58 12C5.58 12.4 5.76 12.76 6.08 13L8.75 15C8.97 15.17 9.23 15.25 9.5 15.25C9.69 15.25 9.88 15.21 10.06 15.12C10.49 14.91 10.75 14.48 10.75 14V10C10.75 9.52 10.49 9.09 10.06 8.88ZM9.25 13.5L7.25 12L9.25 10.5V13.5ZM17.92 11L15.25 9C14.87 8.71 14.37 8.67 13.94 8.88C13.51 9.09 13.25 9.52 13.25 10V14C13.25 14.48 13.51 14.91 13.94 15.12C14.12 15.21 14.31 15.25 14.5 15.25C14.76 15.25 15.03 15.17 15.25 15L17.92 13C18.24 12.76 18.42 12.4 18.42 12C18.42 11.6 18.24 11.24 17.92 11ZM14.75 13.5V10.5L16.75 12L14.75 13.5ZM12 2.25C6.62 2.25 2.25 6.62 2.25 12C2.25 17.38 6.62 21.75 12 21.75C17.38 21.75 21.75 17.38 21.75 12C21.75 6.62 17.38 2.25 12 2.25ZM12 20.25C7.45 20.25 3.75 16.55 3.75 12C3.75 7.45 7.45 3.75 12 3.75C16.55 3.75 20.25 7.45 20.25 12C20.25 16.55 16.55 20.25 12 20.25Z" />
</svg>
