<svg xmlns="http://www.w3.org/2000/svg" width="24" height="24" viewBox="0 0 24 24" >
  <path d="M19 21.75H5C3.48 21.75 2.25 20.52 2.25 19V5C2.25 3.48 3.48 2.25 5 2.25H19C20.52 2.25 21.75 3.48 21.75 5V19C21.75 20.52 20.52 21.75 19 21.75ZM5 3.75C4.31 3.75 3.75 4.31 3.75 5V19C3.75 19.69 4.31 20.25 5 20.25H19C19.69 20.25 20.25 19.69 20.25 19V5C20.25 4.31 19.69 3.75 19 3.75H5ZM11.15 7.88C11.15 9 10.46 9.91 8.35 11.79H11.31L11.14 13H6.54V11.88C8.81 9.67 9.54 8.85 9.54 8.02C9.54 7.46 9.21 7.11 8.61 7.11C8.09 7.11 7.73 7.32 7.36 7.81L6.4 7.08C6.92 6.36 7.64 5.89 8.76 5.89C10.34 5.89 11.15 6.82 11.15 7.88Z" />
</svg>