<svg width="24" height="24" viewBox="0 0 24 24" xmlns="http://www.w3.org/2000/svg">
<path d="M20.75 15.01V16.01C20.75 17.53 19.52 18.76 18 18.76H12.31L8.53 22.54C8.39 22.68 8.2 22.76 8 22.76C7.9 22.76 7.81 22.74 7.71 22.7C7.43 22.58 7.25 22.31 7.25 22.01V18.76H6C4.48 18.76 3.25 17.53 3.25 16.01V6.01C3.25 4.49 4.48 3.26 6 3.26H9C9.41 3.26 9.75 3.6 9.75 4.01C9.75 4.42 9.41 4.76 9 4.76H6C5.31 4.76 4.75 5.32 4.75 6.01V16.01C4.75 16.7 5.31 17.26 6 17.26H8C8.41 17.26 8.75 17.6 8.75 18.01V20.2L11.47 17.48C11.61 17.34 11.8 17.26 12 17.26H18C18.69 17.26 19.25 16.7 19.25 16.01V15.01C19.25 14.6 19.59 14.26 20 14.26C20.41 14.26 20.75 14.6 20.75 15.01ZM22.75 8.01C22.75 8.8 22.22 9.47 21.5 9.69C21.39 10.04 21.25 10.38 21.07 10.71C21.21 10.96 21.28 11.25 21.28 11.55C21.28 12.02 21.1 12.46 20.77 12.79C20.44 13.12 20 13.3 19.53 13.3C19.23 13.3 18.95 13.23 18.69 13.09C18.36 13.27 18.02 13.41 17.67 13.52C17.46 14.24 16.78 14.77 15.99 14.77C15.2 14.77 14.53 14.24 14.31 13.52C13.96 13.41 13.62 13.27 13.29 13.09C13.04 13.23 12.75 13.3 12.45 13.3C11.98 13.3 11.54 13.12 11.21 12.79C10.88 12.46 10.7 12.02 10.7 11.55C10.7 11.25 10.77 10.97 10.91 10.71C10.73 10.38 10.59 10.04 10.48 9.69C9.76 9.48 9.23 8.8 9.23 8.01C9.23 7.22 9.76 6.55 10.48 6.33C10.59 5.98 10.73 5.64 10.91 5.31C10.77 5.06 10.7 4.77 10.7 4.47C10.7 4 10.88 3.56 11.21 3.23C11.54 2.9 11.98 2.72 12.45 2.72C12.75 2.72 13.03 2.79 13.29 2.93C13.62 2.75 13.96 2.61 14.31 2.5C14.52 1.78 15.2 1.25 15.99 1.25C16.78 1.25 17.45 1.78 17.67 2.5C18.02 2.61 18.36 2.75 18.69 2.93C18.94 2.79 19.23 2.72 19.53 2.72C20 2.72 20.44 2.9 20.77 3.23C21.1 3.56 21.28 4 21.28 4.47C21.28 4.77 21.21 5.05 21.07 5.31C21.25 5.64 21.39 5.98 21.5 6.33C22.22 6.54 22.75 7.22 22.75 8.01ZM21.25 8.01C21.25 7.87 21.14 7.76 21 7.76H20.9C20.54 7.76 20.24 7.51 20.16 7.16C20.05 6.63 19.84 6.13 19.54 5.67C19.34 5.37 19.38 4.98 19.63 4.73L19.7 4.66C19.76 4.6 19.77 4.52 19.77 4.48C19.77 4.44 19.77 4.37 19.7 4.31C19.63 4.25 19.56 4.24 19.52 4.24C19.52 4.24 19.41 4.24 19.34 4.31L19.27 4.38C19.02 4.63 18.62 4.67 18.33 4.47C17.87 4.17 17.37 3.96 16.84 3.85C16.49 3.78 16.24 3.47 16.24 3.11V3.01C16.24 2.73 15.74 2.73 15.74 3.01V3.11C15.74 3.47 15.49 3.77 15.14 3.85C14.61 3.96 14.11 4.17 13.65 4.47C13.36 4.67 12.96 4.63 12.71 4.38L12.64 4.31C12.52 4.19 12.41 4.18 12.29 4.31C12.23 4.37 12.22 4.45 12.22 4.49C12.22 4.53 12.22 4.6 12.29 4.67L12.36 4.74C12.61 4.99 12.65 5.39 12.45 5.68C12.15 6.14 11.94 6.64 11.83 7.17C11.76 7.52 11.45 7.77 11.09 7.77H10.99C10.85 7.77 10.74 7.88 10.74 8.02C10.74 8.16 10.85 8.27 10.99 8.27H11.09C11.45 8.27 11.75 8.52 11.83 8.87C11.94 9.4 12.15 9.9 12.45 10.36C12.65 10.66 12.61 11.05 12.36 11.3L12.29 11.37C12.23 11.43 12.22 11.51 12.22 11.55C12.22 11.59 12.22 11.66 12.29 11.72C12.36 11.79 12.44 11.79 12.47 11.79C12.51 11.79 12.58 11.79 12.65 11.72L12.72 11.65C12.86 11.51 13.06 11.43 13.25 11.43C13.39 11.43 13.54 11.47 13.66 11.55C14.12 11.85 14.62 12.06 15.15 12.17C15.5 12.24 15.75 12.55 15.75 12.91V13.01C15.75 13.29 16.25 13.29 16.25 13.01V12.91C16.25 12.55 16.5 12.25 16.85 12.17C17.38 12.06 17.88 11.85 18.34 11.55C18.64 11.35 19.03 11.39 19.28 11.64L19.35 11.71C19.47 11.83 19.58 11.84 19.7 11.71C19.76 11.65 19.77 11.57 19.77 11.53C19.77 11.49 19.77 11.42 19.7 11.35L19.63 11.28C19.38 11.03 19.34 10.63 19.54 10.34C19.84 9.88 20.05 9.38 20.16 8.85C20.23 8.5 20.54 8.25 20.9 8.25H21C21.14 8.25 21.25 8.14 21.25 8V8.01ZM18.75 8.01C18.75 9.53 17.52 10.76 16 10.76C14.48 10.76 13.25 9.53 13.25 8.01C13.25 6.49 14.48 5.26 16 5.26C17.52 5.26 18.75 6.49 18.75 8.01ZM17.25 8.01C17.25 7.32 16.69 6.76 16 6.76C15.31 6.76 14.75 7.32 14.75 8.01C14.75 8.7 15.31 9.26 16 9.26C16.69 9.26 17.25 8.7 17.25 8.01Z" />
</svg>
