<svg width="24" height="24" viewBox="0 0 24 24" xmlns="http://www.w3.org/2000/svg">
<path d="M3.25 6C3.25 5.59 3.59 5.25 4 5.25H20C20.41 5.25 20.75 5.59 20.75 6C20.75 6.41 20.41 6.75 20 6.75H4C3.59 6.75 3.25 6.41 3.25 6ZM20 9.25H4C3.59 9.25 3.25 9.59 3.25 10C3.25 10.41 3.59 10.75 4 10.75H20C20.41 10.75 20.75 10.41 20.75 10C20.75 9.59 20.41 9.25 20 9.25ZM20 13.25H4C3.59 13.25 3.25 13.59 3.25 14C3.25 14.41 3.59 14.75 4 14.75H20C20.41 14.75 20.75 14.41 20.75 14C20.75 13.59 20.41 13.25 20 13.25ZM20 17.25H4C3.59 17.25 3.25 17.59 3.25 18C3.25 18.41 3.59 18.75 4 18.75H20C20.41 18.75 20.75 18.41 20.75 18C20.75 17.59 20.41 17.25 20 17.25Z" />
</svg>
