<svg width="24" height="24" viewBox="0 0 24 24" xmlns="http://www.w3.org/2000/svg">
<path d="M20.75 11V16C20.75 17.52 19.52 18.75 18 18.75H12.31L8.53 22.53C8.39 22.67 8.2 22.75 8 22.75C7.9 22.75 7.81 22.73 7.71 22.69C7.43 22.57 7.25 22.3 7.25 22V18.75H6C4.48 18.75 3.25 17.52 3.25 16V6C3.25 4.48 4.48 3.25 6 3.25H13C13.41 3.25 13.75 3.59 13.75 4C13.75 4.41 13.41 4.75 13 4.75H6C5.31 4.75 4.75 5.31 4.75 6V16C4.75 16.69 5.31 17.25 6 17.25H8C8.41 17.25 8.75 17.59 8.75 18V20.19L11.47 17.47C11.61 17.33 11.8 17.25 12 17.25H18C18.69 17.25 19.25 16.69 19.25 16V11C19.25 10.59 19.59 10.25 20 10.25C20.41 10.25 20.75 10.59 20.75 11ZM21.03 7.03L14.53 13.53C14.43 13.63 14.31 13.69 14.18 13.73L10.18 14.73C10.12 14.74 10.06 14.75 10 14.75C9.8 14.75 9.61 14.67 9.47 14.53C9.28 14.34 9.21 14.07 9.27 13.82L10.27 9.82C10.3 9.69 10.37 9.57 10.47 9.47001L16.97 2.97C18.09 1.85 19.91 1.85 21.03 2.97C22.15 4.09 22.15 5.91001 21.03 7.03ZM17.94 8L16 6.06L11.68 10.38L11.03 12.96L13.61 12.31L17.93 7.99001L17.94 8ZM19.97 4.03C19.43 3.49 18.57 3.49 18.03 4.03L17.06 5L19 6.94L19.97 5.97C20.5 5.43 20.5 4.57 19.97 4.03Z" />
</svg>
