<svg width="24" height="24" viewBox="0 0 24 24" xmlns="http://www.w3.org/2000/svg">
<path d="M19 2.25H5C3.48 2.25 2.25 3.48 2.25 5V19C2.25 20.52 3.48 21.75 5 21.75H19C20.52 21.75 21.75 20.52 21.75 19V5C21.75 3.48 20.52 2.25 19 2.25ZM20.25 19C20.25 19.69 19.69 20.25 19 20.25H5C4.31 20.25 3.75 19.69 3.75 19V5C3.75 4.31 4.31 3.75 5 3.75H19C19.69 3.75 20.25 4.31 20.25 5V19ZM7 10.75H9C9.96 10.75 10.75 9.96 10.75 9V7C10.75 6.04 9.96 5.25 9 5.25H7C6.04 5.25 5.25 6.04 5.25 7V9C5.25 9.96 6.04 10.75 7 10.75ZM6.75 7C6.75 6.86 6.86 6.75 7 6.75H9C9.14 6.75 9.25 6.86 9.25 7V9C9.25 9.14 9.14 9.25 9 9.25H7C6.86 9.25 6.75 9.14 6.75 9V7ZM17 5.25H14C13.04 5.25 12.25 6.04 12.25 7V10C12.25 10.96 13.04 11.75 14 11.75H17C17.96 11.75 18.75 10.96 18.75 10V7C18.75 6.04 17.96 5.25 17 5.25ZM17.25 10C17.25 10.14 17.14 10.25 17 10.25H14C13.86 10.25 13.75 10.14 13.75 10V7C13.75 6.86 13.86 6.75 14 6.75H17C17.14 6.75 17.25 6.86 17.25 7V10ZM17 13.25H15C14.04 13.25 13.25 14.04 13.25 15V17C13.25 17.96 14.04 18.75 15 18.75H17C17.96 18.75 18.75 17.96 18.75 17V15C18.75 14.04 17.96 13.25 17 13.25ZM17.25 17C17.25 17.14 17.14 17.25 17 17.25H15C14.86 17.25 14.75 17.14 14.75 17V15C14.75 14.86 14.86 14.75 15 14.75H17C17.14 14.75 17.25 14.86 17.25 15V17ZM10 12.25H7C6.04 12.25 5.25 13.04 5.25 14V17C5.25 17.96 6.04 18.75 7 18.75H10C10.96 18.75 11.75 17.96 11.75 17V14C11.75 13.04 10.96 12.25 10 12.25ZM10.25 17C10.25 17.14 10.14 17.25 10 17.25H7C6.86 17.25 6.75 17.14 6.75 17V14C6.75 13.86 6.86 13.75 7 13.75H10C10.14 13.75 10.25 13.86 10.25 14V17Z" />
</svg>
