<svg width="24" height="24" viewBox="0 0 24 24" xmlns="http://www.w3.org/2000/svg">
<path d="M19.0008 20.75H5.00076C4.70076 20.75 4.42076 20.57 4.31076 20.29C4.19076 20.01 4.26076 19.69 4.47076 19.47L11.9408 12L4.47076 4.53C4.25076 4.32 4.19076 3.99 4.31076 3.71C4.43076 3.43 4.70076 3.25 5.00076 3.25H19.0008C19.4108 3.25 19.7508 3.59 19.7508 4C19.7508 4.41 19.4108 4.75 19.0008 4.75H6.81076L13.5308 11.47C13.8208 11.76 13.8208 12.24 13.5308 12.53L6.81076 19.25H19.0008C19.4108 19.25 19.7508 19.59 19.7508 20C19.7508 20.41 19.4108 20.75 19.0008 20.75Z" />
</svg>
