<svg width="24" height="24" viewBox="0 0 24 24" xmlns="http://www.w3.org/2000/svg">
<path d="M18.5275 17.4675C18.8175 17.7575 18.8175 18.2375 18.5275 18.5275C18.3775 18.6775 18.1875 18.7475 17.9975 18.7475C17.8075 18.7475 17.6175 18.6775 17.4675 18.5275L13.4675 14.5275C13.1775 14.2375 13.1775 13.7575 13.4675 13.4675C13.7575 13.1775 14.2375 13.1775 14.5275 13.4675L18.5275 17.4675ZM22.5275 10.5275L19.5275 13.5275C19.3775 13.6775 19.1875 13.7475 18.9975 13.7475C18.8075 13.7475 18.6175 13.6775 18.4675 13.5275L14.9975 10.0575L6.5275 18.5275C6.3775 18.6775 6.1875 18.7475 5.9975 18.7475C5.8075 18.7475 5.6175 18.6775 5.4675 18.5275C5.1775 18.2375 5.1775 17.7575 5.4675 17.4675L10.9375 11.9975L8.9975 10.0575L5.5275 13.5275C5.3775 13.6775 5.1875 13.7475 4.9975 13.7475C4.8075 13.7475 4.6175 13.6775 4.4675 13.5275L1.4675 10.5275C1.1775 10.2375 1.1775 9.7575 1.4675 9.4675L4.9375 5.9975L4.4675 5.5275C4.1775 5.2375 4.1775 4.7575 4.4675 4.4675C4.7575 4.1775 5.2375 4.1775 5.5275 4.4675L6.5275 5.4675L9.5275 8.4675L11.9975 10.9375L14.4675 8.4675L17.4675 5.4675L18.4675 4.4675C18.7575 4.1775 19.2375 4.1775 19.5275 4.4675C19.8175 4.7575 19.8175 5.2375 19.5275 5.5275L19.0575 5.9975L22.5275 9.4675C22.8175 9.7575 22.8175 10.2375 22.5275 10.5275ZM7.9375 8.9975L5.9975 7.0575L3.0575 9.9975L4.9975 11.9375L7.9375 8.9975ZM20.9375 9.9975L17.9975 7.0575L16.0575 8.9975L18.9975 11.9375L20.9375 9.9975Z" />
</svg>
