<svg width="24" height="24" viewBox="0 0 24 24" xmlns="http://www.w3.org/2000/svg">
<path d="M6.93 5.2475C7.1 5.6275 6.93 6.0675 6.55 6.2375L6.05 6.4575C5.95 6.4975 5.85 6.5175 5.75 6.5175C5.46 6.5175 5.19 6.3475 5.06 6.0675C4.89 5.6875 5.06 5.2475 5.44 5.0775L5.94 4.8575C6.32 4.6875 6.76 4.8575 6.93 5.2375V5.2475ZM8.76 5.1875C8.86 5.1875 8.97 5.1675 9.06 5.1275L9.56 4.9075C9.94 4.7375 10.11 4.2975 9.94 3.9175C9.77 3.5375 9.33 3.3675 8.95 3.5375L8.45 3.7575C8.07 3.9275 7.9 4.3675 8.07 4.7475C8.19 5.0275 8.47 5.1975 8.76 5.1975V5.1875ZM12.53 2.4175L12.3 2.3175C12.11 2.2275 11.88 2.2275 11.69 2.3175L11.46 2.4175C11.08 2.5875 10.91 3.0275 11.08 3.4075C11.24 3.7575 11.64 3.9275 11.99 3.8175C12.07 3.8375 12.14 3.8575 12.22 3.8575C12.51 3.8575 12.78 3.6875 12.91 3.4075C13.08 3.0275 12.91 2.5875 12.53 2.4175ZM15.55 3.7575L15.05 3.5375C14.67 3.3675 14.23 3.5375 14.06 3.9175C13.89 4.2975 14.06 4.7375 14.44 4.9075L14.94 5.1275C15.04 5.1675 15.14 5.1875 15.24 5.1875C15.53 5.1875 15.8 5.0175 15.93 4.7375C16.1 4.3575 15.93 3.9175 15.55 3.7475V3.7575ZM17.45 6.2375L17.95 6.4575C18.05 6.4975 18.15 6.5175 18.25 6.5175C18.54 6.5175 18.81 6.3475 18.94 6.0675C19.11 5.6875 18.94 5.2475 18.56 5.0775L18.06 4.8575C17.68 4.6875 17.24 4.8575 17.07 5.2375C16.9 5.6175 17.07 6.0575 17.45 6.2275V6.2375ZM21.7 6.7375C21.7 6.7375 21.68 6.6875 21.67 6.6675C21.64 6.6075 21.6 6.5575 21.56 6.5075C21.55 6.4875 21.53 6.4775 21.52 6.4575C21.46 6.3975 21.39 6.3475 21.31 6.3175L21.08 6.2175C20.7 6.0475 20.26 6.2175 20.09 6.5975C20.03 6.7275 20.01 6.8675 20.03 7.0075C20.01 7.1375 20.03 7.2775 20.09 7.4175C20.17 7.5975 20.31 7.7175 20.47 7.7875C20.61 7.9275 20.79 8.0075 21 8.0075C21.41 8.0075 21.75 7.6675 21.75 7.2575V7.0075C21.75 6.9175 21.73 6.8275 21.7 6.7475V6.7375ZM14.94 8.8675L14.44 9.0875C14.06 9.2575 13.89 9.6975 14.06 10.0775C14.18 10.3575 14.46 10.5275 14.75 10.5275C14.85 10.5275 14.96 10.5075 15.05 10.4675L15.55 10.2475C15.93 10.0775 16.1 9.6375 15.93 9.2575C15.76 8.8775 15.32 8.7075 14.94 8.8775V8.8675ZM17.95 7.5275L17.45 7.7475C17.07 7.9175 16.9 8.3575 17.07 8.7375C17.19 9.0175 17.47 9.1875 17.76 9.1875C17.86 9.1875 17.97 9.1675 18.06 9.1275L18.56 8.9075C18.94 8.7375 19.11 8.2975 18.94 7.9175C18.77 7.5375 18.32 7.3675 17.95 7.5375V7.5275ZM12 10.1775C11.64 10.0675 11.24 10.2375 11.09 10.5875C10.95 10.8975 11.05 11.2475 11.3 11.4575C11.39 11.7675 11.67 11.9975 12.01 11.9975C12.35 11.9975 12.63 11.7675 12.72 11.4575C12.97 11.2475 13.06 10.8975 12.93 10.5875C12.77 10.2375 12.37 10.0675 12.02 10.1775H12ZM9.56 9.0975L9.06 8.8775C8.68 8.7075 8.24 8.8775 8.07 9.2575C7.9 9.6375 8.07 10.0775 8.45 10.2475L8.95 10.4675C9.05 10.5075 9.15 10.5275 9.25 10.5275C9.54 10.5275 9.81 10.3575 9.94 10.0775C10.11 9.6975 9.94 9.2575 9.56 9.0875V9.0975ZM6.55 7.7575L6.05 7.5375C5.67 7.3675 5.23 7.5375 5.06 7.9175C4.89 8.2975 5.06 8.7375 5.44 8.9075L5.94 9.1275C6.04 9.1675 6.14 9.1875 6.24 9.1875C6.53 9.1875 6.8 9.0175 6.93 8.7375C7.1 8.3575 6.93 7.9175 6.55 7.7475V7.7575ZM21 12.6475C20.59 12.6475 20.25 12.9875 20.25 13.3975V13.9575C20.25 14.3675 20.59 14.7075 21 14.7075C21.41 14.7075 21.75 14.3675 21.75 13.9575V13.3975C21.75 12.9875 21.41 12.6475 21 12.6475ZM21 9.2875C20.59 9.2875 20.25 9.6275 20.25 10.0375V10.5975C20.25 11.0075 20.59 11.3475 21 11.3475C21.41 11.3475 21.75 11.0075 21.75 10.5975V10.0375C21.75 9.6275 21.41 9.2875 21 9.2875ZM21 15.9975C20.66 15.9975 20.38 16.2175 20.28 16.5275C20.03 16.7375 19.95 17.0875 20.08 17.3975C20.2 17.6775 20.48 17.8475 20.77 17.8475C20.87 17.8475 20.98 17.8275 21.07 17.7875L21.3 17.6875C21.57 17.5675 21.75 17.2975 21.75 16.9975V16.7475C21.75 16.3375 21.41 15.9975 21 15.9975ZM14.94 18.8675L14.44 19.0875C14.06 19.2575 13.89 19.6975 14.06 20.0775C14.18 20.3575 14.46 20.5275 14.75 20.5275C14.85 20.5275 14.96 20.5075 15.05 20.4675L15.55 20.2475C15.93 20.0775 16.1 19.6375 15.93 19.2575C15.76 18.8775 15.32 18.7075 14.94 18.8775V18.8675ZM17.95 17.5275L17.45 17.7475C17.07 17.9175 16.9 18.3575 17.07 18.7375C17.19 19.0175 17.47 19.1875 17.76 19.1875C17.86 19.1875 17.97 19.1675 18.06 19.1275L18.56 18.9075C18.94 18.7375 19.11 18.2975 18.94 17.9175C18.77 17.5375 18.32 17.3675 17.95 17.5375V17.5275ZM12.51 20.2075C12.38 20.0775 12.2 19.9975 12 19.9975C11.8 19.9975 11.62 20.0775 11.49 20.2075C11.32 20.2775 11.17 20.4075 11.09 20.5975C10.92 20.9775 11.09 21.4175 11.47 21.5875L11.7 21.6875C11.79 21.7275 11.89 21.7475 12 21.7475C12.11 21.7475 12.21 21.7275 12.3 21.6875L12.53 21.5875C12.91 21.4175 13.08 20.9775 12.91 20.5975C12.83 20.4175 12.68 20.2875 12.51 20.2175V20.2075ZM9.56 19.0975L9.06 18.8775C8.68 18.7075 8.24 18.8775 8.07 19.2575C7.9 19.6375 8.07 20.0775 8.45 20.2475L8.95 20.4675C9.05 20.5075 9.15 20.5275 9.25 20.5275C9.54 20.5275 9.81 20.3575 9.94 20.0775C10.11 19.6975 9.94 19.2575 9.56 19.0875V19.0975ZM6.55 17.7575L6.05 17.5375C5.67 17.3675 5.23 17.5375 5.06 17.9175C4.89 18.2975 5.06 18.7375 5.44 18.9075L5.94 19.1275C6.04 19.1675 6.14 19.1875 6.24 19.1875C6.53 19.1875 6.8 19.0175 6.93 18.7375C7.1 18.3575 6.93 17.9175 6.55 17.7475V17.7575ZM3 15.9975C2.59 15.9975 2.25 16.3375 2.25 16.7475V16.9975C2.25 17.2975 2.42 17.5675 2.7 17.6875L2.93 17.7875C3.03 17.8275 3.13 17.8475 3.23 17.8475C3.52 17.8475 3.79 17.6775 3.92 17.3975C4.06 17.0875 3.97 16.7375 3.72 16.5275C3.63 16.2175 3.34 15.9975 3 15.9975ZM3 14.7075C3.41 14.7075 3.75 14.3675 3.75 13.9575V13.3975C3.75 12.9875 3.41 12.6475 3 12.6475C2.59 12.6475 2.25 12.9875 2.25 13.3975V13.9575C2.25 14.3675 2.59 14.7075 3 14.7075ZM3 11.3475C3.41 11.3475 3.75 11.0075 3.75 10.5975V10.0375C3.75 9.6275 3.41 9.2875 3 9.2875C2.59 9.2875 2.25 9.6275 2.25 10.0375V10.5975C2.25 11.0075 2.59 11.3475 3 11.3475ZM3 7.9975C3.21 7.9975 3.39 7.9175 3.53 7.7775C3.69 7.7075 3.84 7.5775 3.91 7.4075C3.97 7.2775 3.99 7.1375 3.97 6.9975C3.99 6.8675 3.97 6.7275 3.91 6.5875C3.74 6.2075 3.29 6.0375 2.92 6.2075L2.69 6.3075C2.61 6.3475 2.54 6.3975 2.48 6.4475C2.46 6.4675 2.45 6.4775 2.44 6.4975C2.4 6.5475 2.36 6.5975 2.33 6.6575C2.32 6.6775 2.31 6.6975 2.3 6.7275C2.27 6.8075 2.25 6.8975 2.25 6.9875V7.2375C2.25 7.6475 2.59 7.9875 3 7.9875V7.9975ZM12 15.3475C12.41 15.3475 12.75 15.0075 12.75 14.5975V14.0375C12.75 13.6275 12.41 13.2875 12 13.2875C11.59 13.2875 11.25 13.6275 11.25 14.0375V14.5975C11.25 15.0075 11.59 15.3475 12 15.3475ZM11.25 17.9575C11.25 18.3675 11.59 18.7075 12 18.7075C12.41 18.7075 12.75 18.3675 12.75 17.9575V17.3975C12.75 16.9875 12.41 16.6475 12 16.6475C11.59 16.6475 11.25 16.9875 11.25 17.3975V17.9575Z" />
</svg>
