<svg width="24" height="24" viewBox="0 0 24 24" xmlns="http://www.w3.org/2000/svg">
<path d="M20.75 14.99V15.99C20.75 17.51 19.52 18.74 18 18.74H12.31L8.53 22.52C8.39 22.66 8.2 22.74 8 22.74C7.9 22.74 7.81 22.72 7.71 22.68C7.43 22.56 7.25 22.29 7.25 21.99V18.74H6C4.48 18.74 3.25 17.51 3.25 15.99V5.99C3.25 4.47 4.48 3.24 6 3.24H9C9.41 3.24 9.75 3.58 9.75 3.99C9.75 4.4 9.41 4.74 9 4.74H6C5.31 4.74 4.75 5.3 4.75 5.99V15.99C4.75 16.68 5.31 17.24 6 17.24H8C8.41 17.24 8.75 17.58 8.75 17.99V20.18L11.47 17.46C11.61 17.32 11.8 17.24 12 17.24H18C18.69 17.24 19.25 16.68 19.25 15.99V14.99C19.25 14.58 19.59 14.24 20 14.24C20.41 14.24 20.75 14.58 20.75 14.99ZM10.25 7.99C10.25 6.41 10.89 4.98 11.93 3.94C11.93 3.94 11.93 3.94 11.93 3.93C11.93 3.92 11.93 3.93 11.94 3.93C12.98 2.89 14.41 2.25 15.99 2.25C17.57 2.25 18.94 2.87 19.98 3.87C20.01 3.89 20.03 3.91 20.06 3.94C20.08 3.96 20.1 3.99 20.12 4.01C21.12 5.05 21.74 6.45 21.74 8C21.74 9.55 21.1 11.01 20.06 12.05C20.06 12.05 20.06 12.05 20.06 12.06C20.06 12.07 20.06 12.06 20.05 12.06C19.01 13.1 17.58 13.74 16 13.74C14.42 13.74 13.01 13.11 11.97 12.09C11.96 12.08 11.94 12.07 11.93 12.06C11.91 12.04 11.89 12.01 11.87 11.99C10.87 10.95 10.25 9.55 10.25 8V7.99ZM11.75 7.99C11.75 8.35 11.81 8.7 11.89 9.03C12.27 8.21 12.85 7.37 13.54 6.59L12.51 5.56C12.03 6.25 11.74 7.08 11.74 7.98L11.75 7.99ZM17.79 5.18C17.1 5.48 16.36 5.99 15.66 6.6L17.38 8.32C17.99 7.62 18.5 6.88 18.8 6.19C19.15 5.38 19.04 5.04 19 4.98C19 4.98 18.9 4.92 18.75 4.92C18.56 4.92 18.25 4.97 17.79 5.17V5.18ZM20.11 6.95C19.73 7.77 19.15 8.61 18.46 9.39L19.49 10.42C19.97 9.73 20.26 8.9 20.26 8C20.26 7.64 20.2 7.29 20.12 6.96L20.11 6.95ZM14.61 7.66C14 8.36 13.49 9.1 13.19 9.79C12.84 10.6 12.95 10.94 12.99 11C13.04 11.05 13.39 11.15 14.2 10.8C14.89 10.5 15.63 9.99 16.33 9.38L14.61 7.66ZM16 12.24C16.9 12.24 17.73 11.95 18.42 11.47L17.39 10.44C16.61 11.14 15.77 11.71 14.95 12.09C15.28 12.17 15.63 12.23 15.99 12.23L16 12.24ZM16 3.74C15.1 3.74 14.27 4.03 13.58 4.51L14.61 5.54C15.39 4.84 16.23 4.27 17.05 3.89C16.72 3.81 16.37 3.75 16.01 3.75L16 3.74Z"/>
</svg>
