<svg width="24" height="24" viewBox="0 0 24 24" xmlns="http://www.w3.org/2000/svg">
<path d="M15 3.25H9C7.48 3.25 6.25 4.48 6.25 6V18C6.25 19.52 7.48 20.75 9 20.75H15C16.52 20.75 17.75 19.52 17.75 18V6C17.75 4.48 16.52 3.25 15 3.25ZM16.25 18C16.25 18.69 15.69 19.25 15 19.25H9C8.31 19.25 7.75 18.69 7.75 18V6C7.75 5.31 8.31 4.75 9 4.75H15C15.69 4.75 16.25 5.31 16.25 6V18ZM13.75 6C13.75 6.41 13.41 6.75 13 6.75H11C10.59 6.75 10.25 6.41 10.25 6C10.25 5.59 10.59 5.25 11 5.25H13C13.41 5.25 13.75 5.59 13.75 6Z" />
</svg>
