<svg width="16" height="16" viewBox="0 0 16 16" xmlns="http://www.w3.org/2000/svg">
<path d="M10.75 8C10.75 8.41 10.41 8.75 10 8.75H8.75V10C8.75 10.41 8.41 10.75 8 10.75C7.59 10.75 7.25 10.41 7.25 10V8.75H6C5.59 8.75 5.25 8.41 5.25 8C5.25 7.59 5.59 7.25 6 7.25H7.25V6C7.25 5.59 7.59 5.25 8 5.25C8.41 5.25 8.75 5.59 8.75 6V7.25H10C10.41 7.25 10.75 7.59 10.75 8ZM13.75 4V12C13.75 12.96 12.96 13.75 12 13.75H4C3.04 13.75 2.25 12.96 2.25 12V4C2.25 3.04 3.04 2.25 4 2.25H12C12.96 2.25 13.75 3.04 13.75 4ZM12.25 4C12.25 3.86 12.14 3.75 12 3.75H4C3.86 3.75 3.75 3.86 3.75 4V12C3.75 12.14 3.86 12.25 4 12.25H12C12.14 12.25 12.25 12.14 12.25 12V4Z" />
</svg>
