<svg width="24" height="24" viewBox="0 0 24 24" xmlns="http://www.w3.org/2000/svg">
<path d="M12 2.25C6.62 2.25 2.25 6.62 2.25 12C2.25 17.38 6.62 21.75 12 21.75C17.38 21.75 21.75 17.38 21.75 12C21.75 6.62 17.38 2.25 12 2.25ZM12 20.25C7.45 20.25 3.75 16.55 3.75 12C3.75 7.45 7.45 3.75 12 3.75C16.55 3.75 20.25 7.45 20.25 12C20.25 16.55 16.55 20.25 12 20.25ZM15.17 10.54L11.97 8.41C11.43 8.05 10.74 8.02 10.17 8.32C9.6 8.62 9.25 9.22 9.25 9.86V14.12C9.25 14.77 9.6 15.36 10.17 15.66C10.43 15.8 10.71 15.87 11 15.87C11.34 15.87 11.68 15.77 11.97 15.58L15.17 13.45C15.66 13.12 15.95 12.58 15.95 11.99C15.95 11.4 15.66 10.86 15.17 10.53V10.54ZM14.34 12.21L11.14 14.34C11.03 14.41 10.93 14.38 10.88 14.35C10.83 14.32 10.75 14.26 10.75 14.13V9.87C10.75 9.74 10.83 9.68 10.88 9.65C10.91 9.64 10.95 9.62 11 9.62C11.04 9.62 11.09 9.63 11.14 9.66L14.34 11.79C14.44 11.85 14.45 11.95 14.45 12C14.45 12.05 14.44 12.14 14.34 12.21Z" />
</svg>
