<svg width="24" height="24" viewBox="0 0 24 24" xmlns="http://www.w3.org/2000/svg">
<path d="M16.74 21.18C16.66 21.52 16.35 21.75 16.01 21.75C15.95 21.75 15.89 21.75 15.83 21.73C11.3 20.6 10.63 16.96 10.98 13.09L9.54 14.53C9.25 14.82 8.77 14.82 8.48 14.53C8.19 14.24 8.19 13.76 8.48 13.47L11.48 10.47C11.48 10.47 11.52 10.45 11.53 10.44C11.57 10.41 11.61 10.38 11.65 10.36C11.69 10.34 11.73 10.32 11.78 10.3C11.83 10.29 11.87 10.28 11.92 10.27C11.97 10.27 12.02 10.27 12.07 10.27C12.09 10.27 12.11 10.27 12.13 10.27C12.16 10.27 12.18 10.29 12.21 10.3C12.26 10.31 12.3 10.33 12.35 10.35C12.4 10.37 12.44 10.4 12.48 10.44C12.5 10.46 12.53 10.46 12.54 10.48L15.54 13.48C15.83 13.77 15.83 14.25 15.54 14.54C15.39 14.69 15.2 14.76 15.01 14.76C14.82 14.76 14.63 14.69 14.48 14.54L12.54 12.6C11.91 18.02 13.48 19.6 16.19 20.28C16.59 20.38 16.84 20.79 16.74 21.19V21.18ZM18.6 7.29C18.05 4.94 15.96 3.25 13.51 3.25C11.06 3.25 8.99 4.92 8.43 7.25C6.2 7.29 4.39 9.05 4.26 11.26C2.68 11.12 1.25 12.4 1.25 14C1.25 15.52 2.48 16.75 4 16.75C4.41 16.75 4.75 16.41 4.75 16C4.75 15.59 4.41 15.25 4 15.25C3.31 15.25 2.75 14.69 2.75 14C2.75 13.31 3.31 12.75 4 12.75C4.25 12.75 4.49 12.82 4.7 12.96C4.96 13.13 5.29 13.13 5.55 12.96C5.8 12.78 5.92 12.47 5.85 12.17C5.79 11.92 5.76 11.71 5.76 11.51C5.76 9.99 6.99 8.76 8.51 8.76C8.66 8.76 8.8 8.78 8.94 8.81C9.14 8.84 9.35 8.79 9.52 8.66C9.68 8.53 9.79 8.35 9.81 8.14C10 6.21 11.6 4.76 13.52 4.76C15.44 4.76 17.01 6.19 17.23 8.1C17.27 8.48 17.64 8.76 18.02 8.76C19.81 8.76 21.27 10.22 21.27 12.01C21.27 13.8 19.81 15.26 18.02 15.26C17.61 15.26 17.27 15.6 17.27 16.01C17.27 16.42 17.61 16.76 18.02 16.76C20.64 16.76 22.77 14.63 22.77 12.01C22.77 9.6 20.97 7.61 18.61 7.3L18.6 7.29Z" />
</svg>
