<svg xmlns="http://www.w3.org/2000/svg" width="24" height="24" viewBox="0 0 24 24">
  <path d="M11.75 18C11.75 18.41 11.41 18.75 11 18.75H10.31L7.53 21.53C7.39 21.67 7.2 21.75 7 21.75C6.9 21.75 6.81 21.73 6.71 21.69C6.43 21.57 6.25 21.3 6.25 21V18.75H5C3.48 18.75 2.25 17.52 2.25 16V5C2.25 3.48 3.48 2.25 5 2.25H18C19.52 2.25 20.75 3.48 20.75 5V6C20.75 6.41 20.41 6.75 20 6.75C19.59 6.75 19.25 6.41 19.25 6V5C19.25 4.31 18.69 3.75 18 3.75H5C4.31 3.75 3.75 4.31 3.75 5V16C3.75 16.69 4.31 17.25 5 17.25H7C7.41 17.25 7.75 17.59 7.75 18V19.19L9.47 17.47C9.61 17.33 9.8 17.25 10 17.25H11C11.41 17.25 11.75 17.59 11.75 18ZM22.75 14V19C22.75 20.52 21.52 21.75 20 21.75H16C14.48 21.75 13.25 20.52 13.25 19V14C13.25 13.59 13.59 13.25 14 13.25H14.25V12C14.25 9.93 15.93 8.25 18 8.25C20.07 8.25 21.75 9.93 21.75 12V13.25H22C22.41 13.25 22.75 13.59 22.75 14ZM15.75 13.25H20.25V12C20.25 10.76 19.24 9.75 18 9.75C16.76 9.75 15.75 10.76 15.75 12V13.25ZM21.25 14.75H14.75V19C14.75 19.69 15.31 20.25 16 20.25H20C20.69 20.25 21.25 19.69 21.25 19V14.75ZM18 16.25C17.59 16.25 17.25 16.59 17.25 17V18C17.25 18.41 17.59 18.75 18 18.75C18.41 18.75 18.75 18.41 18.75 18V17C18.75 16.59 18.41 16.25 18 16.25Z"/>
</svg>