<svg width="24" height="24" viewBox="0 0 24 24" xmlns="http://www.w3.org/2000/svg">
<path d="M21.7067 11.2425C21.7067 11.2425 21.6867 11.2725 21.6767 11.2925C21.6767 11.3125 21.6767 11.3225 21.6667 11.3425C21.6567 11.3725 21.6267 11.3925 21.6067 11.4125C21.5767 11.4525 21.5467 11.4925 21.5167 11.5325C21.4867 11.5625 21.4467 11.5925 21.4067 11.6225C21.3767 11.6425 21.3567 11.6625 21.3367 11.6825L15.3067 14.6825C15.1967 14.7325 15.0867 14.7625 14.9767 14.7625C14.6967 14.7625 14.4367 14.6125 14.3067 14.3425C14.1267 13.9725 14.2767 13.5225 14.6467 13.3325L19.2767 11.0325C13.7467 8.64247 8.45669 8.45247 6.06669 10.6625C4.07669 12.5025 4.72669 15.5225 5.61669 17.7325C5.76669 18.1125 5.58669 18.5525 5.19669 18.7125C5.10669 18.7525 5.00669 18.7625 4.91669 18.7625C4.61669 18.7625 4.33669 18.5825 4.21669 18.2925C2.27669 13.4825 3.58669 10.8825 5.03669 9.55247C7.81669 6.98247 13.4167 7.00247 19.3767 9.45247L17.3067 5.34247C17.1167 4.97247 17.2667 4.52247 17.6367 4.33247C18.0067 4.14247 18.4567 4.29247 18.6467 4.66247L21.6667 10.6625C21.6667 10.6625 21.6667 10.6925 21.6767 10.7125C21.6967 10.7625 21.7067 10.8125 21.7167 10.8625C21.7167 10.9025 21.7367 10.9525 21.7367 10.9925C21.7367 11.0425 21.7367 11.0925 21.7167 11.1425C21.7167 11.1725 21.7167 11.2125 21.7067 11.2425Z" />
</svg>
