<svg width="16" height="16" viewBox="0 0 16 16" xmlns="http://www.w3.org/2000/svg">
<path d="M2 8.75C1.59 8.75 1.25 8.41 1.25 8C1.25 4.28 4.28 1.25 8 1.25C9.69 1.25 11.3 1.89 12.53 3.01L12.69 1.89C12.75 1.48 13.13 1.2 13.54 1.26C13.95 1.32 14.23 1.7 14.17 2.11L13.73 5.11C13.68 5.48 13.36 5.75 12.99 5.75H9.99C9.58 5.75 9.24 5.41 9.24 5C9.24 4.59 9.58 4.25 9.99 4.25H11.66C10.68 3.29 9.37 2.75 7.99 2.75C5.11 2.75 2.75 5.11 2.75 8C2.75 8.41 2.41 8.75 2 8.75ZM14 7.25C13.59 7.25 13.25 7.59 13.25 8C13.25 10.9 10.89 13.25 8 13.25C6.62 13.25 5.31 12.71 4.33 11.75H6C6.41 11.75 6.75 11.41 6.75 11C6.75 10.59 6.41 10.25 6 10.25H3C2.63 10.25 2.31 10.52 2.26 10.89L1.8 13.89C1.74 14.3 2.02 14.68 2.43 14.74C2.47 14.74 2.51 14.74 2.54 14.74C2.9 14.74 3.22 14.47 3.28 14.1L3.45 12.97C4.69 14.1 6.3 14.74 7.99 14.74C11.71 14.74 14.74 11.71 14.74 7.99C14.74 7.58 14.4 7.24 13.99 7.24L14 7.25Z" />
</svg>
