<svg width="16" height="16" viewBox="0 0 16 16" xmlns="http://www.w3.org/2000/svg">
<path d="M14.75 8C14.75 8.41 14.41 8.75 14 8.75H9.81L12.53 11.47C12.82 11.76 12.82 12.24 12.53 12.53C12.38 12.68 12.19 12.75 12 12.75C11.81 12.75 11.62 12.68 11.47 12.53L8.75 9.81V14C8.75 14.41 8.41 14.75 8 14.75C7.59 14.75 7.25 14.41 7.25 14V9.81L4.53 12.53C4.38 12.68 4.19 12.75 4 12.75C3.81 12.75 3.62 12.68 3.47 12.53C3.18 12.24 3.18 11.76 3.47 11.47L6.19 8.75H2C1.59 8.75 1.25 8.41 1.25 8C1.25 7.59 1.59 7.25 2 7.25H6.19L3.47 4.53C3.18 4.24 3.18 3.76 3.47 3.47C3.76 3.18 4.24 3.18 4.53 3.47L7.25 6.19V2C7.25 1.59 7.59 1.25 8 1.25C8.41 1.25 8.75 1.59 8.75 2V6.19L11.47 3.47C11.76 3.18 12.24 3.18 12.53 3.47C12.82 3.76 12.82 4.24 12.53 4.53L9.81 7.25H14C14.41 7.25 14.75 7.59 14.75 8Z" />
</svg>
