<svg width="24" height="24" viewBox="0 0 24 24" xmlns="http://www.w3.org/2000/svg">
<path d="M20.752 12.0003C20.752 16.8303 16.832 20.7503 12.002 20.7503C10.832 20.7503 9.69203 20.5203 8.61203 20.0703C7.35203 19.5403 6.21203 18.7003 5.32203 17.6503C4.73203 16.9603 4.26203 16.1903 3.91203 15.3503C3.75203 14.9703 3.93203 14.5303 4.31203 14.3703C4.70203 14.2103 5.13203 14.3903 5.29203 14.7703C5.58203 15.4603 5.97203 16.1003 6.46203 16.6803C7.20203 17.5503 8.14203 18.2403 9.19203 18.6803C10.082 19.0503 11.022 19.2403 12.002 19.2403C16.002 19.2403 19.252 15.9903 19.252 11.9903C19.252 7.99028 16.002 4.75028 12.002 4.75028C9.67203 4.75028 7.48203 5.88028 6.12203 7.77028L9.35203 7.80028C9.76203 7.80028 10.102 8.14028 10.092 8.56028C10.092 8.97028 9.75203 9.30028 9.34203 9.30028L4.40203 9.25028C4.01203 9.25028 3.69203 8.95028 3.66203 8.56028L3.27203 3.65028C3.24203 3.23028 3.55203 2.87028 3.96203 2.84028C4.37203 2.83028 4.73203 3.12028 4.77203 3.53028L5.02203 6.74028C6.67203 4.55028 9.25203 3.25028 12.002 3.25028C16.832 3.25028 20.752 7.17028 20.752 12.0003Z" />
</svg>
