<svg width="24" height="24" viewBox="0 0 24 24" xmlns="http://www.w3.org/2000/svg">
<path d="M17.75 13.9975V9.9975C17.75 8.4775 16.52 7.2475 15 7.2475H9C7.48 7.2475 6.25 8.4775 6.25 9.9975V13.9975C6.25 15.5175 7.48 16.7475 9 16.7475H15C16.52 16.7475 17.75 15.5175 17.75 13.9975ZM7.75 13.9975V9.9975C7.75 9.3075 8.31 8.7475 9 8.7475H15C15.69 8.7475 16.25 9.3075 16.25 9.9975V13.9975C16.25 14.6875 15.69 15.2475 15 15.2475H9C8.31 15.2475 7.75 14.6875 7.75 13.9975ZM8 4.7475C5.66 4.7475 3.75 6.6575 3.75 8.9975C3.75 9.4075 3.41 9.7475 3 9.7475C2.59 9.7475 2.25 9.4075 2.25 8.9975C2.25 5.8275 4.83 3.2475 8 3.2475H8.19L7.47 2.5275C7.18 2.2375 7.18 1.7575 7.47 1.4675C7.76 1.1775 8.24 1.1775 8.53 1.4675L10.53 3.4675C10.6 3.5375 10.65 3.6175 10.69 3.7075C10.77 3.8875 10.77 4.0975 10.69 4.2775C10.61 4.4575 10.47 4.6075 10.28 4.6875C10.19 4.7275 10.09 4.7475 9.99 4.7475H7.99H8ZM16 20.7475H15.81L16.53 21.4675C16.82 21.7575 16.82 22.2375 16.53 22.5275C16.38 22.6775 16.19 22.7475 16 22.7475C15.81 22.7475 15.62 22.6775 15.47 22.5275L13.47 20.5275C13.4 20.4575 13.35 20.3775 13.31 20.2875C13.23 20.1075 13.23 19.8975 13.31 19.7175C13.39 19.5375 13.53 19.3875 13.72 19.3075C13.81 19.2675 13.91 19.2475 14.01 19.2475H16.01C18.35 19.2475 20.26 17.3375 20.26 14.9975C20.26 14.5875 20.6 14.2475 21.01 14.2475C21.42 14.2475 21.76 14.5875 21.76 14.9975C21.76 18.1675 19.18 20.7475 16.01 20.7475H16Z" />
</svg>
