<svg width="24" height="24" viewBox="0 0 24 24" xmlns="http://www.w3.org/2000/svg">
<path d="M20 17.25C19.59 17.25 19.25 17.59 19.25 18C19.25 18.69 18.69 19.25 18 19.25H6C5.31 19.25 4.75 18.69 4.75 18V6.83C4.75 6.5 4.88 6.18 5.12 5.95L5.95 5.12C6.18 4.89 6.5 4.75 6.83 4.75H8.25V7C8.25 7.96 9.04 8.75 10 8.75H14C14.96 8.75 15.75 7.96 15.75 7V4.75H18C18.69 4.75 19.25 5.31 19.25 6V8C19.25 8.41 19.59 8.75 20 8.75C20.41 8.75 20.75 8.41 20.75 8V6C20.75 4.48 19.52 3.25 18 3.25H6.83C6.1 3.25 5.41 3.54 4.89 4.06L4.06 4.89C3.54 5.41 3.25 6.1 3.25 6.83V18C3.25 19.52 4.48 20.75 6 20.75H18C19.52 20.75 20.75 19.52 20.75 18C20.75 17.59 20.41 17.25 20 17.25ZM14.25 7C14.25 7.14 14.14 7.25 14 7.25H10C9.86 7.25 9.75 7.14 9.75 7V4.75H14.25V7ZM12 10.25C10.48 10.25 9.25 11.48 9.25 13C9.25 14.52 10.48 15.75 12 15.75C13.52 15.75 14.75 14.52 14.75 13C14.75 11.48 13.52 10.25 12 10.25ZM12 14.25C11.31 14.25 10.75 13.69 10.75 13C10.75 12.31 11.31 11.75 12 11.75C12.69 11.75 13.25 12.31 13.25 13C13.25 13.69 12.69 14.25 12 14.25ZM22.75 13C22.75 13.41 22.41 13.75 22 13.75H20.75V15C20.75 15.41 20.41 15.75 20 15.75C19.59 15.75 19.25 15.41 19.25 15V13.75H18C17.59 13.75 17.25 13.41 17.25 13C17.25 12.59 17.59 12.25 18 12.25H19.25V11C19.25 10.59 19.59 10.25 20 10.25C20.41 10.25 20.75 10.59 20.75 11V12.25H22C22.41 12.25 22.75 12.59 22.75 13Z" />
</svg>
