<svg width="24" height="24" viewBox="0 0 24 24" xmlns="http://www.w3.org/2000/svg">
<path d="M13 7.25H6C4.48 7.25 3.25 8.48 3.25 10V19C3.25 20.52 4.48 21.75 6 21.75H13C14.52 21.75 15.75 20.52 15.75 19V10C15.75 8.48 14.52 7.25 13 7.25ZM14.25 19C14.25 19.69 13.69 20.25 13 20.25H6C5.31 20.25 4.75 19.69 4.75 19V10C4.75 9.31 5.31 8.75 6 8.75H13C13.69 8.75 14.25 9.31 14.25 10V19ZM20.75 5V14C20.75 15.52 19.52 16.75 18 16.75C17.59 16.75 17.25 16.41 17.25 16C17.25 15.59 17.59 15.25 18 15.25C18.69 15.25 19.25 14.69 19.25 14V5C19.25 4.31 18.69 3.75 18 3.75H11C10.31 3.75 9.75 4.31 9.75 5C9.75 5.41 9.41 5.75 9 5.75C8.59 5.75 8.25 5.41 8.25 5C8.25 3.48 9.48 2.25 11 2.25H18C19.52 2.25 20.75 3.48 20.75 5ZM9.75 11C9.75 11.41 9.41 11.75 9 11.75H7C6.59 11.75 6.25 11.41 6.25 11C6.25 10.59 6.59 10.25 7 10.25H9C9.41 10.25 9.75 10.59 9.75 11Z" />
</svg>
