<svg width="16" height="16" viewBox="0 0 16 16" xmlns="http://www.w3.org/2000/svg">
<path d="M14 10.25H12.63C12.3 9.1 11.25 8.25 10 8.25C8.75 8.25 7.7 9.1 7.37 10.25H2C1.59 10.25 1.25 10.59 1.25 11C1.25 11.41 1.59 11.75 2 11.75H7.37C7.7 12.9 8.75 13.75 10 13.75C11.25 13.75 12.3 12.9 12.63 11.75H14C14.41 11.75 14.75 11.41 14.75 11C14.75 10.59 14.41 10.25 14 10.25ZM10 12.25C9.31 12.25 8.75 11.69 8.75 11C8.75 10.31 9.31 9.75 10 9.75C10.69 9.75 11.25 10.31 11.25 11C11.25 11.69 10.69 12.25 10 12.25ZM2 5.75H3.37C3.7 6.9 4.75 7.75 6 7.75C7.25 7.75 8.3 6.9 8.63 5.75H14C14.41 5.75 14.75 5.41 14.75 5C14.75 4.59 14.41 4.25 14 4.25H8.63C8.3 3.1 7.25 2.25 6 2.25C4.75 2.25 3.7 3.1 3.37 4.25H2C1.59 4.25 1.25 4.59 1.25 5C1.25 5.41 1.59 5.75 2 5.75ZM6 3.75C6.69 3.75 7.25 4.31 7.25 5C7.25 5.69 6.69 6.25 6 6.25C5.31 6.25 4.75 5.69 4.75 5C4.75 4.31 5.31 3.75 6 3.75Z" />
</svg>
