<svg width="24" height="24" viewBox="0 0 24 24" xmlns="http://www.w3.org/2000/svg">
<path d="M3 6.75H5.37C5.7 7.9 6.75 8.75 8 8.75C9.25 8.75 10.3 7.9 10.63 6.75H21C21.41 6.75 21.75 6.41 21.75 6C21.75 5.59 21.41 5.25 21 5.25H10.63C10.3 4.1 9.25 3.25 8 3.25C6.75 3.25 5.7 4.1 5.37 5.25H3C2.59 5.25 2.25 5.59 2.25 6C2.25 6.41 2.59 6.75 3 6.75ZM8 4.75C8.69 4.75 9.25 5.31 9.25 6C9.25 6.69 8.69 7.25 8 7.25C7.31 7.25 6.75 6.69 6.75 6C6.75 5.31 7.31 4.75 8 4.75ZM21 11.25H18.63C18.3 10.1 17.25 9.25 16 9.25C14.75 9.25 13.7 10.1 13.37 11.25H3C2.59 11.25 2.25 11.59 2.25 12C2.25 12.41 2.59 12.75 3 12.75H13.37C13.7 13.9 14.75 14.75 16 14.75C17.25 14.75 18.3 13.9 18.63 12.75H21C21.41 12.75 21.75 12.41 21.75 12C21.75 11.59 21.41 11.25 21 11.25ZM16 13.25C15.31 13.25 14.75 12.69 14.75 12C14.75 11.31 15.31 10.75 16 10.75C16.69 10.75 17.25 11.31 17.25 12C17.25 12.69 16.69 13.25 16 13.25ZM21 17.25H10.63C10.3 16.1 9.25 15.25 8 15.25C6.75 15.25 5.7 16.1 5.37 17.25H3C2.59 17.25 2.25 17.59 2.25 18C2.25 18.41 2.59 18.75 3 18.75H5.37C5.7 19.9 6.75 20.75 8 20.75C9.25 20.75 10.3 19.9 10.63 18.75H21C21.41 18.75 21.75 18.41 21.75 18C21.75 17.59 21.41 17.25 21 17.25ZM8 19.25C7.31 19.25 6.75 18.69 6.75 18C6.75 17.31 7.31 16.75 8 16.75C8.69 16.75 9.25 17.31 9.25 18C9.25 18.69 8.69 19.25 8 19.25Z" />
</svg>
