<svg width="24" height="24" viewBox="0 0 24 24" xmlns="http://www.w3.org/2000/svg">
<g clip-path="url(#clip0_22171_138835)">
<path d="M23.9966 14.16C22.8663 20.95 17.1547 24 12.0033 24C6.85193 24 1.15039 20.96 0.0100771 14.16C-0.0799473 13.62 0.290153 13.1 0.830299 13.01C1.37045 12.91 1.89059 13.29 1.98061 13.83C2.92087 19.47 7.69216 21.99 11.9933 21.99C16.2945 21.99 21.0658 19.47 22.006 13.83C22.0961 13.29 22.6162 12.91 23.1564 13.01C23.6965 13.1 24.0666 13.62 23.9766 14.16H23.9966ZM7.00197 7C7.55212 7 8.00224 6.55 8.00224 6V2C8.00224 1.45 7.55212 1 7.00197 1C6.45182 1 6.0017 1.45 6.0017 2V6C6.0017 6.55 6.45182 7 7.00197 7ZM17.0047 7C17.5548 7 18.005 6.55 18.005 6V2C18.005 1.45 17.5548 1 17.0047 1C16.4545 1 16.0044 1.45 16.0044 2V6C16.0044 6.55 16.4545 7 17.0047 7Z" />
</g>
<defs>
<clipPath id="clip0_22171_138835">
<rect width="24" height="24" fill="white"/>
</clipPath>
</defs>
</svg>
