<svg width="24" height="24" viewBox="0 0 24 24" xmlns="http://www.w3.org/2000/svg">
<path d="M13.4101 12L22.7101 2.71C23.1001 2.32 23.1001 1.69 22.7101 1.3C22.3201 0.909998 21.6901 0.909998 21.3001 1.3L12.0101 10.59L2.71006 1.29C2.32006 0.899998 1.68006 0.899998 1.29006 1.29C0.900059 1.68 0.900059 2.32 1.29006 2.71L10.5801 12L1.29006 21.29C0.900059 21.68 0.900059 22.31 1.29006 22.7C1.49006 22.9 1.74006 22.99 2.00006 22.99C2.26006 22.99 2.51006 22.89 2.71006 22.7L12.0001 13.41L21.2901 22.7C21.4901 22.9 21.7401 22.99 22.0001 22.99C22.2601 22.99 22.5101 22.89 22.7101 22.7C23.1001 22.31 23.1001 21.68 22.7101 21.29L13.4201 12H13.4101Z" />
</svg>
