<svg width="16" height="16" viewBox="0 0 16 16" xmlns="http://www.w3.org/2000/svg">
<path d="M13 2.25H3C2.04 2.25 1.25 3.04 1.25 4V11C1.25 11.96 2.04 12.75 3 12.75H4.25V15C4.25 15.3 4.43 15.58 4.71 15.69C4.8 15.73 4.9 15.75 5 15.75C5.2 15.75 5.39 15.67 5.53 15.53L8.31 12.75H13C13.96 12.75 14.75 11.96 14.75 11V4C14.75 3.04 13.96 2.25 13 2.25ZM13.25 11C13.25 11.14 13.14 11.25 13 11.25H8C7.8 11.25 7.61 11.33 7.47 11.47L5.75 13.19V12C5.75 11.59 5.41 11.25 5 11.25H3C2.86 11.25 2.75 11.14 2.75 11V4C2.75 3.86 2.86 3.75 3 3.75H13C13.14 3.75 13.25 3.86 13.25 4V11Z" />
</svg>
