<svg width="16" height="16" viewBox="0 0 16 16" xmlns="http://www.w3.org/2000/svg">
<path d="M5 6.25C4.04 6.25 3.25 7.04 3.25 8C3.25 8.96 4.04 9.75 5 9.75C5.96 9.75 6.75 8.96 6.75 8C6.75 7.04 5.96 6.25 5 6.25ZM4.75 8C4.75 7.86 4.86 7.75 5 7.75C5.14 7.75 5.25 7.86 5.25 8C5.25 8.28 4.75 8.28 4.75 8ZM11 3.25H5C2.38 3.25 0.25 5.38 0.25 8C0.25 10.62 2.38 12.75 5 12.75H11C13.62 12.75 15.75 10.62 15.75 8C15.75 5.38 13.62 3.25 11 3.25ZM11 11.25H5C3.21 11.25 1.75 9.79 1.75 8C1.75 6.21 3.21 4.75 5 4.75H11C12.79 4.75 14.25 6.21 14.25 8C14.25 9.79 12.79 11.25 11 11.25Z" />
</svg>
