<svg width="24" height="24" viewBox="0 0 24 24" xmlns="http://www.w3.org/2000/svg">
<path d="M19 4.25H5C3.48 4.25 2.25 5.48 2.25 7V17C2.25 18.52 3.48 19.75 5 19.75H19C20.52 19.75 21.75 18.52 21.75 17V7C21.75 5.48 20.52 4.25 19 4.25ZM20.25 17C20.25 17.69 19.69 18.25 19 18.25H5C4.31 18.25 3.75 17.69 3.75 17V7C3.75 6.31 4.31 5.75 5 5.75H19C19.69 5.75 20.25 6.31 20.25 7V17ZM15.75 16C15.75 16.41 15.41 16.75 15 16.75H9C8.59 16.75 8.25 16.41 8.25 16C8.25 15.59 8.59 15.25 9 15.25H15C15.41 15.25 15.75 15.59 15.75 16Z" />
</svg>
