<svg width="24" height="24" viewBox="0 0 24 24" xmlns="http://www.w3.org/2000/svg">
<path d="M20.12 10.06L19.95 9.89C18.91 8.85 17.1 8.85 16.06 9.89L9.47 16.48C9.37 16.58 9.31 16.7 9.27 16.83L8.27 20.83C8.21 21.08 8.28 21.36 8.47 21.54C8.61 21.68 8.8 21.76 9 21.76C9.06 21.76 9.12 21.76 9.18 21.74L13.18 20.74C13.31 20.71 13.43 20.64 13.53 20.54L20.12 13.95C20.64 13.43 20.93 12.74 20.93 12.01C20.93 11.28 20.64 10.59 20.12 10.07V10.06ZM12.62 19.32L10.04 19.97L10.69 17.39L15.01 13.07L16.95 15.01L12.63 19.33L12.62 19.32ZM19.06 12.88L18 13.94L16.06 12L17.12 10.94C17.61 10.45 18.4 10.45 18.89 10.94L19.06 11.11C19.55 11.6 19.55 12.39 19.06 12.88ZM4.25 4C4.25 3.59 4.59 3.25 5 3.25H18C18.41 3.25 18.75 3.59 18.75 4C18.75 4.41 18.41 4.75 18 4.75H5C4.59 4.75 4.25 4.41 4.25 4ZM4.25 7C4.25 6.59 4.59 6.25 5 6.25H15C15.41 6.25 15.75 6.59 15.75 7C15.75 7.41 15.41 7.75 15 7.75H5C4.59 7.75 4.25 7.41 4.25 7ZM4.25 10C4.25 9.59 4.59 9.25 5 9.25H12C12.41 9.25 12.75 9.59 12.75 10C12.75 10.41 12.41 10.75 12 10.75H5C4.59 10.75 4.25 10.41 4.25 10ZM9 13.75H5C4.59 13.75 4.25 13.41 4.25 13C4.25 12.59 4.59 12.25 5 12.25H9C9.41 12.25 9.75 12.59 9.75 13C9.75 13.41 9.41 13.75 9 13.75Z" />
</svg>
