<svg width="24" height="24" viewBox="0 0 24 24" xmlns="http://www.w3.org/2000/svg">
<path d="M12 2.25C7.65 2.25 4.25 4.34 4.25 7V17C4.25 19.66 7.65 21.75 12 21.75C16.35 21.75 19.75 19.66 19.75 17V7C19.75 4.34 16.35 2.25 12 2.25ZM12 3.75C15.39 3.75 18.25 5.24 18.25 7C18.25 8.04 17.23 8.79 16.63 9.14C15.77 9.64 15.25 10.51 15.25 11.47V15.5C15.25 15.91 14.91 16.25 14.5 16.25C14.09 16.25 13.75 15.91 13.75 15.5V15C13.75 14.04 13 13.28 12.05 13.25C11.32 13.23 10.75 12.68 10.75 12V11.64C10.75 10.83 10.21 10.14 9.44 9.95C7.23 9.41 5.75 8.23 5.75 7C5.75 5.24 8.61 3.75 12 3.75ZM12 20.25C8.61 20.25 5.75 18.76 5.75 17V9.82C6.58 10.52 7.71 11.08 9.09 11.41C9.18 11.43 9.25 11.53 9.25 11.65V12.01C9.25 13.51 10.46 14.72 12.01 14.76C12.14 14.76 12.25 14.88 12.25 15.01V15.51C12.25 16.75 13.26 17.76 14.5 17.76C15.74 17.76 16.75 16.75 16.75 15.51V11.48C16.75 11.07 16.99 10.68 17.39 10.45C17.71 10.26 17.99 10.06 18.25 9.84V17.01C18.25 18.77 15.39 20.26 12 20.26V20.25ZM12 8.75C14.29 8.75 16.75 8.05 16.75 6.5C16.75 4.95 14.29 4.25 12 4.25C9.71 4.25 7.25 4.95 7.25 6.5C7.25 8.05 9.71 8.75 12 8.75ZM12 5.75C13.88 5.75 14.97 6.24 15.22 6.5C14.97 6.76 13.88 7.25 12 7.25C10.12 7.25 9.03 6.76 8.78 6.5C9.03 6.24 10.12 5.75 12 5.75Z" />
</svg>
