<svg width="16" height="16" viewBox="0 0 16 16" xmlns="http://www.w3.org/2000/svg">
<path d="M13 1.25H3C2.04 1.25 1.25 2.04 1.25 3V5C1.25 5.96 2.04 6.75 3 6.75H13C13.96 6.75 14.75 5.96 14.75 5V3C14.75 2.04 13.96 1.25 13 1.25ZM2.75 5V3C2.75 2.86 2.86 2.75 3 2.75H7.25V5.25H3C2.86 5.25 2.75 5.14 2.75 5ZM13.25 5C13.25 5.14 13.14 5.25 13 5.25H8.75V2.75H13C13.14 2.75 13.25 2.86 13.25 3V5ZM10 11.65H8.75V12.9C8.75 13.31 8.41 13.65 8 13.65C7.59 13.65 7.25 13.31 7.25 12.9V11.65H6C5.59 11.65 5.25 11.31 5.25 10.9C5.25 10.49 5.59 10.15 6 10.15H7.25V9C7.25 8.59 7.59 8.25 8 8.25C8.41 8.25 8.75 8.59 8.75 9V10.15H10C10.41 10.15 10.75 10.49 10.75 10.9C10.75 11.31 10.41 11.65 10 11.65ZM14.75 9V13C14.75 13.96 13.96 14.75 13 14.75H11C10.59 14.75 10.25 14.41 10.25 14C10.25 13.59 10.59 13.25 11 13.25H13C13.14 13.25 13.25 13.14 13.25 13V9C13.25 8.86 13.14 8.75 13 8.75H11C10.59 8.75 10.25 8.41 10.25 8C10.25 7.59 10.59 7.25 11 7.25H13C13.96 7.25 14.75 8.04 14.75 9ZM5.75 14C5.75 14.41 5.41 14.75 5 14.75H3C2.04 14.75 1.25 13.96 1.25 13V9C1.25 8.04 2.04 7.25 3 7.25H5C5.41 7.25 5.75 7.59 5.75 8C5.75 8.41 5.41 8.75 5 8.75H3C2.86 8.75 2.75 8.86 2.75 9V13C2.75 13.14 2.86 13.25 3 13.25H5C5.41 13.25 5.75 13.59 5.75 14Z" />
</svg>
