<svg width="16" height="16" viewBox="0 0 16 16" xmlns="http://www.w3.org/2000/svg">
<path d="M13 2.25H7.75V2C7.75 1.04 6.96 0.25 6 0.25H3C2.04 0.25 1.25 1.04 1.25 2V13C1.25 13.96 2.04 14.75 3 14.75H5C5.41 14.75 5.75 14.41 5.75 14C5.75 13.59 5.41 13.25 5 13.25H3C2.86 13.25 2.75 13.14 2.75 13V6.75H13.25V13C13.25 13.14 13.14 13.25 13 13.25H11C10.59 13.25 10.25 13.59 10.25 14C10.25 14.41 10.59 14.75 11 14.75H13C13.96 14.75 14.75 13.96 14.75 13V4C14.75 3.04 13.96 2.25 13 2.25ZM2.75 5.25V2C2.75 1.86 2.86 1.75 3 1.75H6C6.14 1.75 6.25 1.86 6.25 2V3C6.25 3.41 6.59 3.75 7 3.75H13C13.14 3.75 13.25 3.86 13.25 4V5.25H2.75ZM10.63 11.63C10.48 11.78 10.29 11.85 10.1 11.85C9.91 11.85 9.72 11.78 9.57 11.63L8.75 10.81V15C8.75 15.41 8.41 15.75 8 15.75C7.59 15.75 7.25 15.41 7.25 15V10.81L6.43 11.63C6.14 11.92 5.66 11.92 5.37 11.63C5.08 11.34 5.08 10.86 5.37 10.57L7.47 8.47C7.54 8.4 7.62 8.35 7.71 8.31C7.89 8.23 8.1 8.23 8.28 8.31C8.37 8.35 8.45 8.4 8.52 8.47L10.62 10.57C10.91 10.86 10.91 11.34 10.62 11.63H10.63Z" />
</svg>
