<svg width="24" height="24" viewBox="0 0 24 24" xmlns="http://www.w3.org/2000/svg">
<path d="M17.2532 21.7227C16.9432 21.7227 16.6332 21.6427 16.3432 21.4827L12.0032 19.0327L7.66319 21.4827C7.02319 21.8427 6.26319 21.8027 5.66319 21.3727C5.07319 20.9427 4.79319 20.2327 4.93319 19.5127L5.90319 14.5827L2.23319 11.1627C1.70319 10.6627 1.50319 9.9227 1.73319 9.2327C1.96319 8.5427 2.55319 8.0527 3.27319 7.9627L8.23319 7.3727L10.3232 2.8227C10.6332 2.1527 11.2732 1.7427 12.0032 1.7427C12.7332 1.7427 13.3832 2.1527 13.6832 2.8227L15.7732 7.3727L20.7332 7.9627C21.4532 8.0527 22.0532 8.5327 22.2732 9.2327C22.5032 9.9227 22.3132 10.6627 21.7732 11.1627L18.1032 14.5827L19.0732 19.5127C19.2132 20.2327 18.9332 20.9427 18.3432 21.3727C18.0132 21.6127 17.6332 21.7327 17.2632 21.7327L17.2532 21.7227ZM11.9932 17.4227C12.1232 17.4227 12.2432 17.4527 12.3632 17.5227L17.0732 20.1727C17.2532 20.2727 17.4032 20.1927 17.4532 20.1527C17.5032 20.1127 17.6332 20.0027 17.5932 19.8027L16.5432 14.4627C16.4932 14.2127 16.5732 13.9427 16.7632 13.7727L20.7432 10.0727C20.8932 9.9327 20.8632 9.7727 20.8332 9.7027C20.8132 9.6427 20.7432 9.4827 20.5432 9.4627L15.1732 8.8227C14.9132 8.7927 14.6932 8.6327 14.5832 8.3927L12.3232 3.4627C12.2432 3.2727 12.0732 3.2527 12.0032 3.2527C11.9332 3.2527 11.7632 3.2727 11.6832 3.4627L9.42319 8.3927C9.31319 8.6327 9.09319 8.7927 8.83319 8.8227L3.46319 9.4627C3.26319 9.4827 3.19319 9.6427 3.17319 9.7027C3.15319 9.7627 3.12319 9.9327 3.26319 10.0727L7.24319 13.7727C7.43319 13.9527 7.52319 14.2127 7.46319 14.4627L6.41319 19.8027C6.37319 20.0027 6.49319 20.1127 6.55319 20.1527C6.61319 20.1927 6.75319 20.2727 6.93319 20.1727L11.6432 17.5227C11.7532 17.4627 11.8832 17.4227 12.0132 17.4227H11.9932Z" />
</svg>
