<svg xmlns="http://www.w3.org/2000/svg" width="16" height="16" viewBox="0 0 16 16">
  <path d="M9.64974 8.00061C9.64974 7.08947 8.91142 6.35043 8.00033 6.35022C7.08906 6.35022 6.34994 7.08934 6.34994 8.00061C6.35015 8.9117 7.08919 9.65002 8.00033 9.65002C8.91129 9.64981 9.64953 8.91157 9.64974 8.00061ZM11.1497 8.00061C11.1495 9.73999 9.73971 11.1498 8.00033 11.15C6.26076 11.15 4.85015 9.74012 4.84994 8.00061C4.84994 6.26091 6.26063 4.85022 8.00033 4.85022C9.73984 4.85043 11.1497 6.26104 11.1497 8.00061Z"/>
  <path d="M9.65035 8.60022V5.60022C9.65036 5.18601 9.98614 4.85022 10.4004 4.85022C10.8144 4.85043 11.1503 5.18614 11.1504 5.60022V8.60022C11.1504 8.8787 11.2611 9.14549 11.458 9.3424C11.6549 9.53926 11.9217 9.65002 12.2002 9.65002C12.4786 9.64997 12.7455 9.53927 12.9423 9.3424C13.1392 9.1455 13.25 8.87865 13.25 8.60022V8.00061C13.2499 6.8157 12.8488 5.66511 12.1123 4.73694C11.3758 3.80896 10.347 3.15761 9.19332 2.8883C8.03947 2.61903 6.82807 2.74732 5.7568 3.25354C4.68549 3.75981 3.8165 4.61391 3.29195 5.67639C2.76745 6.73884 2.61865 7.94777 2.86813 9.10608C3.11763 10.2644 3.75158 11.304 4.66695 12.0563C5.58236 12.8086 6.72543 13.2293 7.91012 13.2496C9.09471 13.2699 10.2517 12.8889 11.1923 12.1686C11.5211 11.9171 11.9913 11.9796 12.2431 12.3082C12.495 12.6371 12.4323 13.1081 12.1035 13.36C10.894 14.286 9.40679 14.7758 7.88375 14.7496C6.36058 14.7234 4.89075 14.1827 3.71383 13.2155C2.53695 12.2482 1.72207 10.9107 1.40133 9.42151C1.08065 7.93229 1.27285 6.37828 1.94723 5.01233C2.62165 3.6463 3.73879 2.54898 5.11617 1.89807C6.49355 1.24718 8.05058 1.08115 9.53414 1.42737C11.0175 1.77357 12.3401 2.61123 13.2871 3.80432C14.2341 4.99768 14.7499 6.47715 14.75 8.00061V8.60022C14.75 9.27647 14.481 9.92474 14.0029 10.403C13.5247 10.8811 12.8764 11.15 12.2002 11.15C11.5239 11.15 10.8747 10.8812 10.3964 10.403C9.91848 9.92477 9.65035 9.27633 9.65035 8.60022Z"/>
</svg>
