<svg width="24" height="24" viewBox="0 0 24 24" xmlns="http://www.w3.org/2000/svg">
<path d="M6.5 2.25C4.16 2.25 2.25 4.16 2.25 6.5C2.25 8.84 4.16 10.75 6.5 10.75C8.84 10.75 10.75 8.84 10.75 6.5C10.75 4.16 8.84 2.25 6.5 2.25ZM6.5 9.25C4.98 9.25 3.75 8.02 3.75 6.5C3.75 4.98 4.98 3.75 6.5 3.75C8.02 3.75 9.25 4.98 9.25 6.5C9.25 8.02 8.02 9.25 6.5 9.25ZM17.5 10.75C19.84 10.75 21.75 8.84 21.75 6.5C21.75 4.16 19.84 2.25 17.5 2.25C15.16 2.25 13.25 4.16 13.25 6.5C13.25 8.84 15.16 10.75 17.5 10.75ZM17.5 3.75C19.02 3.75 20.25 4.98 20.25 6.5C20.25 8.02 19.02 9.25 17.5 9.25C15.98 9.25 14.75 8.02 14.75 6.5C14.75 4.98 15.98 3.75 17.5 3.75ZM6.5 13.25C4.16 13.25 2.25 15.16 2.25 17.5C2.25 19.84 4.16 21.75 6.5 21.75C8.84 21.75 10.75 19.84 10.75 17.5C10.75 15.16 8.84 13.25 6.5 13.25ZM6.5 20.25C4.98 20.25 3.75 19.02 3.75 17.5C3.75 15.98 4.98 14.75 6.5 14.75C8.02 14.75 9.25 15.98 9.25 17.5C9.25 19.02 8.02 20.25 6.5 20.25ZM17.5 13.25C15.16 13.25 13.25 15.16 13.25 17.5C13.25 19.84 15.16 21.75 17.5 21.75C19.84 21.75 21.75 19.84 21.75 17.5C21.75 15.16 19.84 13.25 17.5 13.25ZM17.5 20.25C15.98 20.25 14.75 19.02 14.75 17.5C14.75 15.98 15.98 14.75 17.5 14.75C19.02 14.75 20.25 15.98 20.25 17.5C20.25 19.02 19.02 20.25 17.5 20.25ZM16 6.5C16 5.67 16.67 5 17.5 5C18.33 5 19 5.67 19 6.5C19 7.33 18.33 8 17.5 8C16.67 8 16 7.33 16 6.5ZM8 17.5C8 18.33 7.33 19 6.5 19C5.67 19 5 18.33 5 17.5C5 16.67 5.67 16 6.5 16C7.33 16 8 16.67 8 17.5Z" />
</svg>
