<svg width="16" height="16" viewBox="0 0 16 16" xmlns="http://www.w3.org/2000/svg">
<path d="M13 1.25H3C2.04 1.25 1.25 2.04 1.25 3V13C1.25 13.96 2.04 14.75 3 14.75H13C13.96 14.75 14.75 13.96 14.75 13V3C14.75 2.04 13.96 1.25 13 1.25ZM13.25 13C13.25 13.14 13.14 13.25 13 13.25H3C2.86 13.25 2.75 13.14 2.75 13V3C2.75 2.86 2.86 2.75 3 2.75H13C13.14 2.75 13.25 2.86 13.25 3V13ZM11.53 5.47C11.82 5.76 11.82 6.24 11.53 6.53L7.53 10.53C7.38 10.68 7.19 10.75 7 10.75C6.81 10.75 6.62 10.68 6.47 10.53L4.47 8.53C4.18 8.24 4.18 7.76 4.47 7.47C4.76 7.18 5.24 7.18 5.53 7.47L7 8.94L10.47 5.47C10.76 5.18 11.24 5.18 11.53 5.47Z" />
</svg>
