<svg width="24" height="24" viewBox="0 0 24 24" xmlns="http://www.w3.org/2000/svg">
<path d="M18 20.75H6C4.48 20.75 3.25 19.52 3.25 18V6C3.25 4.48 4.48 3.25 6 3.25H18C19.52 3.25 20.75 4.48 20.75 6V18C20.75 19.52 19.52 20.75 18 20.75ZM6 4.75C5.31 4.75 4.75 5.31 4.75 6V18C4.75 18.69 5.31 19.25 6 19.25H18C18.69 19.25 19.25 18.69 19.25 18V6C19.25 5.31 18.69 4.75 18 4.75H6ZM10.53 15.53L16.53 9.53C16.82 9.24 16.82 8.76 16.53 8.47C16.24 8.18 15.76 8.18 15.47 8.47L10 13.94L8.53 12.47C8.24 12.18 7.76 12.18 7.47 12.47C7.18 12.76 7.18 13.24 7.47 13.53L9.47 15.53C9.62 15.68 9.81 15.75 10 15.75C10.19 15.75 10.38 15.68 10.53 15.53Z" />
</svg>
