<svg width="16" height="16" viewBox="0 0 16 16" xmlns="http://www.w3.org/2000/svg">
<path d="M10.75 14C10.75 14.41 10.41 14.75 10 14.75H9C8.21 14.75 7.5 14.41 7 13.88C6.5 14.42 5.79 14.75 5 14.75H4C3.59 14.75 3.25 14.41 3.25 14C3.25 13.59 3.59 13.25 4 13.25H5C5.69 13.25 6.25 12.69 6.25 12V4C6.25 3.31 5.69 2.75 5 2.75H4C3.59 2.75 3.25 2.41 3.25 2C3.25 1.59 3.59 1.25 4 1.25H5C5.79 1.25 6.5 1.59 7 2.12C7.5 1.58 8.21 1.25 9 1.25H10C10.41 1.25 10.75 1.59 10.75 2C10.75 2.41 10.41 2.75 10 2.75H9C8.31 2.75 7.75 3.31 7.75 4V12C7.75 12.69 8.31 13.25 9 13.25H10C10.41 13.25 10.75 13.59 10.75 14ZM4.75 11C4.75 10.59 4.41 10.25 4 10.25H3C2.86 10.25 2.75 10.14 2.75 10V6C2.75 5.86 2.86 5.75 3 5.75H4C4.41 5.75 4.75 5.41 4.75 5C4.75 4.59 4.41 4.25 4 4.25H3C2.04 4.25 1.25 5.04 1.25 6V10C1.25 10.96 2.04 11.75 3 11.75H4C4.41 11.75 4.75 11.41 4.75 11ZM13 4.25H10C9.59 4.25 9.25 4.59 9.25 5C9.25 5.41 9.59 5.75 10 5.75H13C13.14 5.75 13.25 5.86 13.25 6V10C13.25 10.14 13.14 10.25 13 10.25H10C9.59 10.25 9.25 10.59 9.25 11C9.25 11.41 9.59 11.75 10 11.75H13C13.96 11.75 14.75 10.96 14.75 10V6C14.75 5.04 13.96 4.25 13 4.25Z" />
</svg>
