<svg width="24" height="24" viewBox="0 0 24 24" xmlns="http://www.w3.org/2000/svg">
<path d="M17 17.75H7C3.83 17.75 1.25 15.17 1.25 12C1.25 8.83 3.83 6.25 7 6.25H17C20.17 6.25 22.75 8.83 22.75 12C22.75 15.17 20.17 17.75 17 17.75ZM7 7.75C4.66 7.75 2.75 9.66 2.75 12C2.75 14.34 4.66 16.25 7 16.25H17C19.34 16.25 21.25 14.34 21.25 12C21.25 9.66 19.34 7.75 17 7.75H7ZM17 14.75C15.48 14.75 14.25 13.52 14.25 12C14.25 10.48 15.48 9.25 17 9.25C18.52 9.25 19.75 10.48 19.75 12C19.75 13.52 18.52 14.75 17 14.75ZM17 10.75C16.31 10.75 15.75 11.31 15.75 12C15.75 12.69 16.31 13.25 17 13.25C17.69 13.25 18.25 12.69 18.25 12C18.25 11.31 17.69 10.75 17 10.75Z" />
</svg>
