<svg width="16" height="16" viewBox="0 0 16 16" xmlns="http://www.w3.org/2000/svg">
<path d="M13 1.25H3C2.04 1.25 1.25 2.04 1.25 3V13C1.25 13.96 2.04 14.75 3 14.75H13C13.96 14.75 14.75 13.96 14.75 13V3C14.75 2.04 13.96 1.25 13 1.25ZM13.25 13C13.25 13.14 13.14 13.25 13 13.25H3C2.86 13.25 2.75 13.14 2.75 13V3C2.75 2.86 2.86 2.75 3 2.75H13C13.14 2.75 13.25 2.86 13.25 3V13ZM10.75 8C10.75 8.41 10.41 8.75 10 8.75H8.75V10C8.75 10.41 8.41 10.75 8 10.75C7.59 10.75 7.25 10.41 7.25 10V8.75H6C5.59 8.75 5.25 8.41 5.25 8C5.25 7.59 5.59 7.25 6 7.25H7.25V6C7.25 5.59 7.59 5.25 8 5.25C8.41 5.25 8.75 5.59 8.75 6V7.25H10C10.41 7.25 10.75 7.59 10.75 8Z" />
</svg>
