<svg width="24" height="24" viewBox="0 0 24 24" xmlns="http://www.w3.org/2000/svg">
<path d="M20.23 6.78L17.76 5.54C17.38 5.35 16.96 5.25 16.53 5.25H15.75V4C15.75 3.04 14.96 2.25 14 2.25H10C9.04 2.25 8.25 3.04 8.25 4V5.25H7.47C7.05 5.25 6.62 5.35 6.24 5.54L3.77 6.78C2.83 7.25 2.25 8.19 2.25 9.24V18C2.25 19.52 3.48 20.75 5 20.75H19C20.52 20.75 21.75 19.52 21.75 18V9.24C21.75 8.19 21.17 7.25 20.23 6.78ZM9.75 4C9.75 3.86 9.86 3.75 10 3.75H14C14.14 3.75 14.25 3.86 14.25 4V5.25H9.75V4ZM4.44 8.12L6.91 6.88C7.08 6.79 7.28 6.75 7.47 6.75H16.53C16.72 6.75 16.92 6.8 17.09 6.88L19.56 8.12C19.99 8.33 20.25 8.76 20.25 9.24V13.25H18.75V13C18.75 12.04 17.96 11.25 17 11.25H16C15.04 11.25 14.25 12.04 14.25 13V13.25H9.75V13C9.75 12.04 8.96 11.25 8 11.25H7C6.04 11.25 5.25 12.04 5.25 13V13.25H3.75V9.24C3.75 8.76 4.01 8.33 4.44 8.12ZM15.75 13C15.75 12.86 15.86 12.75 16 12.75H17C17.14 12.75 17.25 12.86 17.25 13V15C17.25 15.14 17.14 15.25 17 15.25H16C15.86 15.25 15.75 15.14 15.75 15V13ZM6.75 13C6.75 12.86 6.86 12.75 7 12.75H8C8.14 12.75 8.25 12.86 8.25 13V15C8.25 15.14 8.14 15.25 8 15.25H7C6.86 15.25 6.75 15.14 6.75 15V13ZM19 19.25H5C4.31 19.25 3.75 18.69 3.75 18V14.75H5.25V15C5.25 15.96 6.04 16.75 7 16.75H8C8.96 16.75 9.75 15.96 9.75 15V14.75H14.25V15C14.25 15.96 15.04 16.75 16 16.75H17C17.96 16.75 18.75 15.96 18.75 15V14.75H20.25V18C20.25 18.69 19.69 19.25 19 19.25Z" />
</svg>
