<svg width="24" height="24" viewBox="0 0 24 24" xmlns="http://www.w3.org/2000/svg">
<path d="M18 3.25H6C4.48 3.25 3.25 4.48 3.25 6V18C3.25 19.52 4.48 20.75 6 20.75H18C19.52 20.75 20.75 19.52 20.75 18V6C20.75 4.48 19.52 3.25 18 3.25ZM19.25 18C19.25 18.69 18.69 19.25 18 19.25H6C5.31 19.25 4.75 18.69 4.75 18V6C4.75 5.31 5.31 4.75 6 4.75H18C18.69 4.75 19.25 5.31 19.25 6V18ZM15.5 10.75C16.74 10.75 17.75 9.74 17.75 8.5C17.75 7.26 16.74 6.25 15.5 6.25C14.26 6.25 13.25 7.26 13.25 8.5C13.25 9.74 14.26 10.75 15.5 10.75ZM15.5 7.75C15.91 7.75 16.25 8.09 16.25 8.5C16.25 8.91 15.91 9.25 15.5 9.25C15.09 9.25 14.75 8.91 14.75 8.5C14.75 8.09 15.09 7.75 15.5 7.75ZM18.53 16.47C18.82 16.76 18.82 17.24 18.53 17.53C18.38 17.68 18.19 17.75 18 17.75C17.81 17.75 17.62 17.68 17.47 17.53L15 15.06L13.53 16.53C13.24 16.82 12.76 16.82 12.47 16.53L10 14.06L6.53 17.53C6.24 17.82 5.76 17.82 5.47 17.53C5.18 17.24 5.18 16.76 5.47 16.47L9.47 12.47C9.76 12.18 10.24 12.18 10.53 12.47L13 14.94L14.47 13.47C14.76 13.18 15.24 13.18 15.53 13.47L18.53 16.47Z" />
</svg>
