<svg width="24" height="24" viewBox="0 0 24 24" xmlns="http://www.w3.org/2000/svg">
<path d="M16.035 16.03L18.105 13.96C18.395 14.09 18.695 14.16 19.005 14.16C19.555 14.16 20.115 13.95 20.535 13.53C21.375 12.69 21.375 11.31 20.535 10.47L12.535 2.47C11.695 1.63 10.315 1.63 9.47501 2.47C8.81501 3.13 8.67501 4.1 9.04501 4.9L6.97501 6.97C5.89501 8.04 5.12501 9.39 4.72501 10.85L2.27501 19.81C2.27501 19.81 2.27501 19.85 2.27501 19.87C2.25501 19.96 2.25501 20.05 2.27501 20.14C2.27501 20.17 2.27501 20.2 2.29501 20.23C2.33501 20.34 2.38501 20.45 2.47501 20.54C2.54501 20.61 2.63501 20.67 2.72501 20.7C2.81501 20.74 2.91501 20.76 3.00501 20.76C3.07501 20.76 3.13501 20.76 3.20501 20.73L12.155 18.29C13.625 17.89 14.965 17.11 16.035 16.04V16.03ZM10.535 3.53C10.665 3.4 10.825 3.34 11.005 3.34C11.185 3.34 11.345 3.41 11.475 3.53L19.475 11.53C19.605 11.66 19.665 11.82 19.665 12C19.665 12.18 19.595 12.34 19.475 12.47C19.225 12.72 18.785 12.72 18.535 12.47L10.535 4.47C10.405 4.34 10.345 4.18 10.345 4C10.345 3.82 10.415 3.66 10.535 3.53ZM5.52501 18.54L8.52501 15.54C8.52501 15.54 8.59501 15.44 8.62501 15.38C9.02501 15.61 9.49501 15.76 9.99501 15.76C11.515 15.76 12.745 14.53 12.745 13.01C12.745 11.49 11.515 10.26 9.99501 10.26C8.47501 10.26 7.24501 11.49 7.24501 13.01C7.24501 13.51 7.38501 13.97 7.62501 14.38C7.57501 14.41 7.51501 14.44 7.46501 14.48L4.46501 17.48L6.16501 11.25C6.49501 10.04 7.14501 8.92 8.03501 8.03L10.005 6.06L16.945 13L14.975 14.97C14.085 15.86 12.975 16.51 11.755 16.84L5.52501 18.54ZM8.75501 13C8.75501 12.31 9.31501 11.75 10.005 11.75C10.695 11.75 11.255 12.31 11.255 13C11.255 13.69 10.695 14.25 10.005 14.25C9.31501 14.25 8.75501 13.69 8.75501 13ZM21.275 21.83C19.815 22.4 18.835 22.76 18.135 22.76C17.765 22.76 17.485 22.66 17.255 22.44C16.875 22.07 16.815 21.61 16.975 20.88C15.475 22.07 14.735 22.28 14.145 22.17C13.545 22.06 13.275 21.6 13.125 21.31C12.945 21.42 12.625 21.66 12.105 22.14C11.805 22.42 11.325 22.41 11.045 22.1C10.765 21.8 10.775 21.32 11.085 21.04C12.235 19.97 12.885 19.61 13.505 19.73C14.085 19.84 14.315 20.32 14.445 20.58C14.455 20.61 14.475 20.65 14.495 20.68C14.765 20.61 15.615 20.22 17.965 18.04C18.215 17.81 18.595 17.77 18.885 17.96C19.175 18.15 19.295 18.5 19.195 18.83L19.035 19.3C18.785 20.04 18.535 20.8 18.445 21.24C19.025 21.11 20.155 20.68 20.755 20.45C21.145 20.3 21.575 20.49 21.725 20.88C21.875 21.27 21.685 21.7 21.295 21.85L21.275 21.83Z" />
</svg>
