<svg width="16" height="16" viewBox="0 0 16 16" xmlns="http://www.w3.org/2000/svg">
<path d="M6.75 4V7.25H8C8.41 7.25 8.75 7.59 8.75 8C8.75 8.41 8.41 8.75 8 8.75H6.75V12C6.75 13.52 5.52 14.75 4 14.75C2.48 14.75 1.25 13.52 1.25 12C1.25 11.59 1.59 11.25 2 11.25C2.41 11.25 2.75 11.59 2.75 12C2.75 12.69 3.31 13.25 4 13.25C4.69 13.25 5.25 12.69 5.25 12V8.75H4C3.59 8.75 3.25 8.41 3.25 8C3.25 7.59 3.59 7.25 4 7.25H5.25V4C5.25 2.48 6.48 1.25 8 1.25C9.52 1.25 10.75 2.48 10.75 4C10.75 4.41 10.41 4.75 10 4.75C9.59 4.75 9.25 4.41 9.25 4C9.25 3.31 8.69 2.75 8 2.75C7.31 2.75 6.75 3.31 6.75 4ZM14.53 13.47L13.03 11.97L14.44 10.53C14.73 10.23 14.72 9.76 14.43 9.47C14.13 9.18 13.66 9.19 13.37 9.48L11.97 10.91L10.53 9.47C10.24 9.18 9.76 9.18 9.47 9.47C9.18 9.76 9.18 10.24 9.47 10.53L10.92 11.98L9.46 13.48C9.17 13.78 9.18 14.25 9.47 14.54C9.62 14.68 9.8 14.75 9.99 14.75C10.18 14.75 10.38 14.67 10.53 14.52L11.97 13.04L13.46 14.53C13.61 14.68 13.8 14.75 13.99 14.75C14.18 14.75 14.37 14.68 14.52 14.53C14.81 14.24 14.81 13.76 14.52 13.47H14.53Z" />
</svg>
