<svg width="24" height="24" viewBox="0 0 24 24" xmlns="http://www.w3.org/2000/svg">
<path d="M18 3.25H6C4.48 3.25 3.25 4.48 3.25 6V16C3.25 17.52 4.48 18.75 6 18.75H7.25V22C7.25 22.3 7.43 22.58 7.71 22.69C7.8 22.73 7.9 22.75 8 22.75C8.2 22.75 8.39 22.67 8.53 22.53L12.31 18.75H18C19.52 18.75 20.75 17.52 20.75 16V6C20.75 4.48 19.52 3.25 18 3.25ZM19.25 16C19.25 16.69 18.69 17.25 18 17.25H12C11.8 17.25 11.61 17.33 11.47 17.47L8.75 20.19V18C8.75 17.59 8.41 17.25 8 17.25H6C5.31 17.25 4.75 16.69 4.75 16V6C4.75 5.31 5.31 4.75 6 4.75H18C18.69 4.75 19.25 5.31 19.25 6V16Z" />
</svg>
