<svg width="16" height="16" viewBox="0 0 16 16" xmlns="http://www.w3.org/2000/svg">
<path d="M11 3.25H5C2.38 3.25 0.25 5.38 0.25 8C0.25 10.62 2.38 12.75 5 12.75H11C13.62 12.75 15.75 10.62 15.75 8C15.75 5.38 13.62 3.25 11 3.25ZM11 11.25H5C3.21 11.25 1.75 9.79 1.75 8C1.75 6.21 3.21 4.75 5 4.75H11C12.79 4.75 14.25 6.21 14.25 8C14.25 9.79 12.79 11.25 11 11.25ZM11 5.25C9.48 5.25 8.25 6.48 8.25 8C8.25 9.52 9.48 10.75 11 10.75C12.52 10.75 13.75 9.52 13.75 8C13.75 6.48 12.52 5.25 11 5.25ZM11 9.25C10.31 9.25 9.75 8.69 9.75 8C9.75 7.31 10.31 6.75 11 6.75C11.69 6.75 12.25 7.31 12.25 8C12.25 8.69 11.69 9.25 11 9.25Z" />
</svg>
