<svg width="24" height="24" viewBox="0 0 24 24" xmlns="http://www.w3.org/2000/svg">
<path d="M19 2.25H5C3.48 2.25 2.25 3.48 2.25 5V7C2.25 8.52 3.48 9.75 5 9.75H19C20.52 9.75 21.75 8.52 21.75 7V5C21.75 3.48 20.52 2.25 19 2.25ZM14.25 3.75V8.25H9.75V3.75H14.25ZM3.75 7V5C3.75 4.31 4.31 3.75 5 3.75H8.25V8.25H5C4.31 8.25 3.75 7.69 3.75 7ZM20.25 7C20.25 7.69 19.69 8.25 19 8.25H15.75V3.75H19C19.69 3.75 20.25 4.31 20.25 5V7ZM21.75 15V19C21.75 20.52 20.52 21.75 19 21.75H15C14.59 21.75 14.25 21.41 14.25 21C14.25 20.59 14.59 20.25 15 20.25H19C19.69 20.25 20.25 19.69 20.25 19V15C20.25 14.31 19.69 13.75 19 13.75H15C14.59 13.75 14.25 13.41 14.25 13C14.25 12.59 14.59 12.25 15 12.25H19C20.52 12.25 21.75 13.48 21.75 15ZM9.75 21C9.75 21.41 9.41 21.75 9 21.75H5C3.48 21.75 2.25 20.52 2.25 19V15C2.25 13.48 3.48 12.25 5 12.25H9C9.41 12.25 9.75 12.59 9.75 13C9.75 13.41 9.41 13.75 9 13.75H5C4.31 13.75 3.75 14.31 3.75 15V19C3.75 19.69 4.31 20.25 5 20.25H9C9.41 20.25 9.75 20.59 9.75 21ZM12.75 17.75V20C12.75 20.41 12.41 20.75 12 20.75C11.59 20.75 11.25 20.41 11.25 20V17.75H9C8.59 17.75 8.25 17.41 8.25 17C8.25 16.59 8.59 16.25 9 16.25H11.25V14C11.25 13.59 11.59 13.25 12 13.25C12.41 13.25 12.75 13.59 12.75 14V16.25H15C15.41 16.25 15.75 16.59 15.75 17C15.75 17.41 15.41 17.75 15 17.75H12.75Z" />
</svg>
