<svg width="24" height="24" viewBox="0 0 24 24" xmlns="http://www.w3.org/2000/svg">
<path d="M8 20.75H4C3.59 20.75 3.25 20.41 3.25 20C3.25 19.59 3.59 19.25 4 19.25H8C8.41 19.25 8.75 19.59 8.75 20C8.75 20.41 8.41 20.75 8 20.75ZM11.75 16C11.75 15.59 11.41 15.25 11 15.25H4C3.59 15.25 3.25 15.59 3.25 16C3.25 16.41 3.59 16.75 4 16.75H11C11.41 16.75 11.75 16.41 11.75 16ZM14.75 12C14.75 11.59 14.41 11.25 14 11.25H4C3.59 11.25 3.25 11.59 3.25 12C3.25 12.41 3.59 12.75 4 12.75H14C14.41 12.75 14.75 12.41 14.75 12ZM17.75 8C17.75 7.59 17.41 7.25 17 7.25H4C3.59 7.25 3.25 7.59 3.25 8C3.25 8.41 3.59 8.75 4 8.75H17C17.41 8.75 17.75 8.41 17.75 8ZM20.75 4C20.75 3.59 20.41 3.25 20 3.25H4C3.59 3.25 3.25 3.59 3.25 4C3.25 4.41 3.59 4.75 4 4.75H20C20.41 4.75 20.75 4.41 20.75 4Z" />
</svg>
