<svg width="24" height="24" viewBox="0 0 24 24" xmlns="http://www.w3.org/2000/svg">
<path d="M19 4.25H5C3.48 4.25 2.25 5.48 2.25 7V17C2.25 18.52 3.48 19.75 5 19.75H19C20.52 19.75 21.75 18.52 21.75 17V7C21.75 5.48 20.52 4.25 19 4.25ZM20.25 17C20.25 17.69 19.69 18.25 19 18.25H5C4.31 18.25 3.75 17.69 3.75 17V7C3.75 6.31 4.31 5.75 5 5.75H19C19.69 5.75 20.25 6.31 20.25 7V17ZM17.75 9C17.75 9.41 17.41 9.75 17 9.75H7C6.59 9.75 6.25 9.41 6.25 9C6.25 8.59 6.59 8.25 7 8.25H17C17.41 8.25 17.75 8.59 17.75 9ZM17.75 12C17.75 12.41 17.41 12.75 17 12.75H7C6.59 12.75 6.25 12.41 6.25 12C6.25 11.59 6.59 11.25 7 11.25H17C17.41 11.25 17.75 11.59 17.75 12ZM12.75 15C12.75 15.41 12.41 15.75 12 15.75H7C6.59 15.75 6.25 15.41 6.25 15C6.25 14.59 6.59 14.25 7 14.25H12C12.41 14.25 12.75 14.59 12.75 15Z" />
</svg>
