<svg width="16" height="16" viewBox="0 0 16 16" xmlns="http://www.w3.org/2000/svg">
<path d="M13 2.25H3C2.04 2.25 1.25 3.04 1.25 4V6C1.25 6.96 2.04 7.75 3 7.75H13C13.96 7.75 14.75 6.96 14.75 6V4C14.75 3.04 13.96 2.25 13 2.25ZM13.25 6C13.25 6.14 13.14 6.25 13 6.25H3C2.86 6.25 2.75 6.14 2.75 6V4C2.75 3.86 2.86 3.75 3 3.75H13C13.14 3.75 13.25 3.86 13.25 4V6ZM8.75 5C8.75 5.41 8.41 5.75 8 5.75H5C4.59 5.75 4.25 5.41 4.25 5C4.25 4.59 4.59 4.25 5 4.25H8C8.41 4.25 8.75 4.59 8.75 5ZM13 8.25H3C2.04 8.25 1.25 9.04 1.25 10V12C1.25 12.96 2.04 13.75 3 13.75H13C13.96 13.75 14.75 12.96 14.75 12V10C14.75 9.04 13.96 8.25 13 8.25ZM13.25 12C13.25 12.14 13.14 12.25 13 12.25H3C2.86 12.25 2.75 12.14 2.75 12V10C2.75 9.86 2.86 9.75 3 9.75H13C13.14 9.75 13.25 9.86 13.25 10V12ZM10.75 11C10.75 11.41 10.41 11.75 10 11.75H5C4.59 11.75 4.25 11.41 4.25 11C4.25 10.59 4.59 10.25 5 10.25H10C10.41 10.25 10.75 10.59 10.75 11Z" />
</svg>
