<svg width="16" height="16" viewBox="0 0 16 16" xmlns="http://www.w3.org/2000/svg">
<g clip-path="url(#clip0_22761_58206)">
<path d="M2.25 4V12C2.25 12.96 3.04 13.75 4 13.75H12C12.96 13.75 13.75 12.96 13.75 12V4C13.75 3.04 12.96 2.25 12 2.25H4C3.04 2.25 2.25 3.04 2.25 4ZM12.25 4V12C12.25 12.14 12.14 12.25 12 12.25H4C3.86 12.25 3.75 12.14 3.75 12V4C3.75 3.86 3.86 3.75 4 3.75H12C12.14 3.75 12.25 3.86 12.25 4ZM10.5 6.75C11.19 6.75 11.75 6.19 11.75 5.5C11.75 4.81 11.19 4.25 10.5 4.25C9.81 4.25 9.25 4.81 9.25 5.5C9.25 6.19 9.81 6.75 10.5 6.75ZM10.5 5.25C10.64 5.25 10.75 5.36 10.75 5.5C10.75 5.78 10.25 5.78 10.25 5.5C10.25 5.36 10.36 5.25 10.5 5.25ZM4.47 10.53C4.18 10.24 4.18 9.76 4.47 9.47L6.47 7.47C6.76 7.18 7.24 7.18 7.53 7.47L9 8.94L9.47 8.47C9.76 8.18 10.24 8.18 10.53 8.47L11.53 9.47C11.82 9.76 11.82 10.24 11.53 10.53C11.38 10.68 11.19 10.75 11 10.75C10.81 10.75 10.62 10.68 10.47 10.53L10 10.06L9.53 10.53C9.24 10.82 8.76 10.82 8.47 10.53L7 9.06L5.53 10.53C5.24 10.82 4.76 10.82 4.47 10.53ZM0.25 5V4C0.25 1.93 1.93 0.25 4 0.25H5C5.41 0.25 5.75 0.59 5.75 1C5.75 1.41 5.41 1.75 5 1.75H4C2.76 1.75 1.75 2.76 1.75 4V5C1.75 5.41 1.41 5.75 1 5.75C0.59 5.75 0.25 5.41 0.25 5ZM5.75 15C5.75 15.41 5.41 15.75 5 15.75H4C1.93 15.75 0.25 14.07 0.25 12V11C0.25 10.59 0.59 10.25 1 10.25C1.41 10.25 1.75 10.59 1.75 11V12C1.75 13.24 2.76 14.25 4 14.25H5C5.41 14.25 5.75 14.59 5.75 15ZM15.75 11V12C15.75 14.07 14.07 15.75 12 15.75H11C10.59 15.75 10.25 15.41 10.25 15C10.25 14.59 10.59 14.25 11 14.25H12C13.24 14.25 14.25 13.24 14.25 12V11C14.25 10.59 14.59 10.25 15 10.25C15.41 10.25 15.75 10.59 15.75 11ZM15.75 4V5C15.75 5.41 15.41 5.75 15 5.75C14.59 5.75 14.25 5.41 14.25 5V4C14.25 2.76 13.24 1.75 12 1.75H11C10.59 1.75 10.25 1.41 10.25 1C10.25 0.59 10.59 0.25 11 0.25H12C14.07 0.25 15.75 1.93 15.75 4Z" />
</g>
<defs>
<clipPath id="clip0_22761_58206">
<rect width="16" height="16" fill="white"/>
</clipPath>
</defs>
</svg>
