<svg xmlns="http://www.w3.org/2000/svg" width="24" height="24" viewBox="0 0 24 24">
  <path d="M14.8501 11.9996C14.8499 10.4258 13.5734 9.15001 11.9995 9.15001C10.4258 9.15022 9.15012 10.4259 9.14991 11.9996C9.14991 13.5735 10.4257 14.85 11.9995 14.8502C13.5735 14.8502 14.8501 13.5736 14.8501 11.9996ZM16.3501 11.9996C16.3501 14.4021 14.402 16.3502 11.9995 16.3502C9.59726 16.35 7.64991 14.4019 7.64991 11.9996C7.65012 9.59749 9.59739 7.65022 11.9995 7.65001C14.4018 7.65001 16.3499 9.59736 16.3501 11.9996Z"/>
  <path d="M14.8496 12.9V8.40001C14.8496 7.98594 15.1856 7.65022 15.5996 7.65001C16.0138 7.65001 16.3496 7.98581 16.3496 8.40001V12.9C16.3496 13.4171 16.5553 13.9132 16.9209 14.2789C17.2866 14.6446 17.7827 14.8502 18.2998 14.8502C18.8169 14.8502 19.313 14.6446 19.6787 14.2789C20.0444 13.9132 20.25 13.4172 20.25 12.9V11.9996C20.2498 10.138 19.62 8.33103 18.4629 6.87267C17.3055 5.41413 15.6883 4.38959 13.875 3.96642C12.0617 3.54325 10.1581 3.74604 8.47462 4.54161C6.79137 5.33718 5.42678 6.67885 4.60255 8.34825C3.77826 10.0179 3.54254 11.9176 3.93458 13.7379C4.32665 15.5581 5.32326 17.1924 6.76173 18.3746C8.20021 19.5568 9.99675 20.2176 11.8584 20.2496C13.72 20.2816 15.5374 19.6824 17.0156 18.5504C17.3445 18.2986 17.8155 18.3612 18.0674 18.69C18.3192 19.0189 18.2566 19.49 17.9277 19.7418C16.1807 21.0796 14.0321 21.7875 11.832 21.7496C9.63194 21.7117 7.50955 20.93 5.80958 19.5328C4.10952 18.1356 2.93208 16.2045 2.46876 14.0533C2.00546 11.9021 2.28367 9.65734 3.25782 7.68419C4.23198 5.71118 5.84455 4.12534 7.83399 3.18517C9.82354 2.24496 12.0729 2.00539 14.2158 2.50548C16.3588 3.00558 18.2698 4.2163 19.6377 5.94005C21.0054 7.66366 21.7498 9.79929 21.75 11.9996V12.9C21.75 13.815 21.3863 14.6925 20.7393 15.3395C20.0923 15.9864 19.2148 16.3502 18.2998 16.3502C17.3849 16.3502 16.5073 15.9864 15.8604 15.3395C15.2134 14.6925 14.8496 13.815 14.8496 12.9Z"/>
</svg>