<svg width="16" height="16" viewBox="0 0 16 16" xmlns="http://www.w3.org/2000/svg">
<path d="M13 1.25H3C2.04 1.25 1.25 2.04 1.25 3V13C1.25 13.96 2.04 14.75 3 14.75H13C13.96 14.75 14.75 13.96 14.75 13V3C14.75 2.04 13.96 1.25 13 1.25ZM13.25 13C13.25 13.14 13.14 13.25 13 13.25H3C2.86 13.25 2.75 13.14 2.75 13V3C2.75 2.86 2.86 2.75 3 2.75H13C13.14 2.75 13.25 2.86 13.25 3V13ZM11.75 5C11.75 5.41 11.41 5.75 11 5.75H5C4.59 5.75 4.25 5.41 4.25 5C4.25 4.59 4.59 4.25 5 4.25H11C11.41 4.25 11.75 4.59 11.75 5ZM11.75 8C11.75 8.41 11.41 8.75 11 8.75H5C4.59 8.75 4.25 8.41 4.25 8C4.25 7.59 4.59 7.25 5 7.25H11C11.41 7.25 11.75 7.59 11.75 8ZM8.75 11C8.75 11.41 8.41 11.75 8 11.75H5C4.59 11.75 4.25 11.41 4.25 11C4.25 10.59 4.59 10.25 5 10.25H8C8.41 10.25 8.75 10.59 8.75 11Z" />
</svg>
