<svg width="16" height="16" viewBox="0 0 16 16" xmlns="http://www.w3.org/2000/svg">
<path d="M13 1.25H3C2.04 1.25 1.25 2.04 1.25 3V13C1.25 13.96 2.04 14.75 3 14.75H13C13.96 14.75 14.75 13.96 14.75 13V3C14.75 2.04 13.96 1.25 13 1.25ZM2.75 3C2.75 2.86 2.86 2.75 3 2.75H13C13.14 2.75 13.25 2.86 13.25 3V5.25H2.75V3ZM13.25 13C13.25 13.14 13.14 13.25 13 13.25H3C2.86 13.25 2.75 13.14 2.75 13V6.75H13.25V13ZM7.25 9C7.25 8.59 7.59 8.25 8 8.25H11C11.41 8.25 11.75 8.59 11.75 9C11.75 9.41 11.41 9.75 11 9.75H8C7.59 9.75 7.25 9.41 7.25 9ZM7.25 11C7.25 10.59 7.59 10.25 8 10.25H11C11.41 10.25 11.75 10.59 11.75 11C11.75 11.41 11.41 11.75 11 11.75H8C7.59 11.75 7.25 11.41 7.25 11ZM4.47 9.53C4.33 9.39 4.25 9.2 4.25 9C4.25 8.9 4.27 8.81 4.31 8.71C4.35 8.62 4.4 8.54 4.47 8.47C4.68 8.26 5.01 8.19 5.29 8.31C5.38 8.35 5.46 8.4 5.53 8.47C5.6 8.54 5.66 8.62 5.69 8.71C5.73 8.81 5.75 8.9 5.75 9C5.75 9.2 5.67 9.39 5.53 9.53C5.46 9.6 5.38 9.65 5.29 9.69C5.2 9.73 5.1 9.75 5 9.75C4.8 9.75 4.61 9.67 4.47 9.53ZM4.31 11.29C4.27 11.2 4.25 11.1 4.25 11C4.25 10.9 4.27 10.81 4.31 10.71C4.35 10.62 4.4 10.54 4.47 10.47C4.68 10.26 5.01 10.19 5.29 10.31C5.38 10.35 5.46 10.4 5.53 10.47C5.6 10.54 5.66 10.62 5.69 10.71C5.73 10.81 5.75 10.9 5.75 11C5.75 11.1 5.73 11.2 5.69 11.29C5.66 11.38 5.6 11.46 5.53 11.53C5.46 11.6 5.38 11.65 5.29 11.69C5.2 11.73 5.1 11.75 5 11.75C4.8 11.75 4.61 11.67 4.47 11.53C4.4 11.46 4.35 11.38 4.31 11.29ZM12.75 4C12.75 4.41 12.41 4.75 12 4.75H11C10.59 4.75 10.25 4.41 10.25 4C10.25 3.59 10.59 3.25 11 3.25H12C12.41 3.25 12.75 3.59 12.75 4Z" />
</svg>
