<svg width="16" height="16" viewBox="0 0 16 16" xmlns="http://www.w3.org/2000/svg">
    <g clip-path="url(#clip0_28758_59518)">
        <path
            d="M2.75 11.25C3.16421 11.25 3.5 11.5858 3.5 12V13.333L3.49609 13.4102C3.45762 13.7883 3.13828 14.083 2.75 14.083C2.36172 14.083 2.04238 13.7883 2.00391 13.4102L2 13.333V12C2 11.5858 2.33579 11.25 2.75 11.25Z"
            fill="#D406DB" />
        <path
            d="M8 11.25C8.41421 11.25 8.75 11.5858 8.75 12V13.333L8.74609 13.4102C8.70762 13.7883 8.38828 14.083 8 14.083C7.61172 14.083 7.29238 13.7883 7.25391 13.4102L7.25 13.333V12C7.25 11.5858 7.58579 11.25 8 11.25Z"
            fill="#D406DB" />
        <path
            d="M13.25 11.25C13.6642 11.25 14 11.5858 14 12V13.333L13.9961 13.4102C13.9576 13.7883 13.6383 14.083 13.25 14.083C12.8617 14.083 12.5424 13.7883 12.5039 13.4102L12.5 13.333V12C12.5 11.5858 12.8358 11.25 13.25 11.25Z"
            fill="#D406DB" />
        <path fill-rule="evenodd" clip-rule="evenodd"
            d="M8 3.5C9.39192 3.5 10.5566 4.45812 10.8799 5.75H14.666L14.7432 5.75391C15.1214 5.79231 15.416 6.11167 15.416 6.5C15.416 6.88833 15.1214 7.20769 14.7432 7.24609L14.666 7.25H10.8662C10.524 8.51382 9.37211 9.44434 8 9.44434C6.62808 9.44414 5.47685 8.51368 5.13477 7.25H1.42578C1.01165 7.2499 0.675781 6.91415 0.675781 6.5C0.675781 6.08585 1.01165 5.7501 1.42578 5.75H5.12109C5.44418 4.45826 6.60827 3.5002 8 3.5ZM8 5C7.18711 5.00023 6.52832 5.65971 6.52832 6.47266C6.52848 7.28546 7.18721 7.94411 8 7.94434C8.81299 7.94434 9.4725 7.2856 9.47266 6.47266C9.47266 5.65957 8.81309 5 8 5Z" />
    </g>
    <defs>
        <clipPath id="clip0_28758_59518">
            <rect width="16" height="16" fill="white" />
        </clipPath>
    </defs>
</svg>