<svg width="24" height="24" viewBox="0 0 24 24" xmlns="http://www.w3.org/2000/svg">
<path d="M20.75 10V14C20.75 15.52 19.52 16.75 18 16.75H13C12.59 16.75 12.25 16.41 12.25 16C12.25 15.59 12.59 15.25 13 15.25H18C18.69 15.25 19.25 14.69 19.25 14V10C19.25 9.31 18.69 8.75 18 8.75H13C12.59 8.75 12.25 8.41 12.25 8C12.25 7.59 12.59 7.25 13 7.25H18C19.52 7.25 20.75 8.48 20.75 10ZM7.75 16C7.75 15.59 7.41 15.25 7 15.25H6C5.31 15.25 4.75 14.69 4.75 14V10C4.75 9.31 5.31 8.75 6 8.75H7C7.41 8.75 7.75 8.41 7.75 8C7.75 7.59 7.41 7.25 7 7.25H6C4.48 7.25 3.25 8.48 3.25 10V14C3.25 15.52 4.48 16.75 6 16.75H7C7.41 16.75 7.75 16.41 7.75 16ZM13 19.25H12C11.31 19.25 10.75 18.69 10.75 18V6C10.75 5.31 11.31 4.75 12 4.75H13C13.41 4.75 13.75 4.41 13.75 4C13.75 3.59 13.41 3.25 13 3.25H12C11.21 3.25 10.5 3.59 10 4.12C9.5 3.58 8.79 3.25 8 3.25H7C6.59 3.25 6.25 3.59 6.25 4C6.25 4.41 6.59 4.75 7 4.75H8C8.69 4.75 9.25 5.31 9.25 6V18C9.25 18.69 8.69 19.25 8 19.25H7C6.59 19.25 6.25 19.59 6.25 20C6.25 20.41 6.59 20.75 7 20.75H8C8.79 20.75 9.5 20.41 10 19.88C10.5 20.42 11.21 20.75 12 20.75H13C13.41 20.75 13.75 20.41 13.75 20C13.75 19.59 13.41 19.25 13 19.25Z" />
</svg>
