<svg width="16" height="16" viewBox="0 0 16 16" xmlns="http://www.w3.org/2000/svg">
<path d="M11.5 7.75C13.29 7.75 14.75 6.29 14.75 4.5C14.75 2.71 13.29 1.25 11.5 1.25C9.71 1.25 8.25 2.71 8.25 4.5C8.25 6.29 9.71 7.75 11.5 7.75ZM11.5 2.75C12.46 2.75 13.25 3.54 13.25 4.5C13.25 5.46 12.46 6.25 11.5 6.25C10.54 6.25 9.75 5.46 9.75 4.5C9.75 3.54 10.54 2.75 11.5 2.75ZM11.5 5.75C12.19 5.75 12.75 5.19 12.75 4.5C12.75 3.81 12.19 3.25 11.5 3.25C10.81 3.25 10.25 3.81 10.25 4.5C10.25 5.19 10.81 5.75 11.5 5.75ZM11.5 4.25C11.64 4.25 11.75 4.36 11.75 4.5C11.75 4.78 11.25 4.78 11.25 4.5C11.25 4.36 11.36 4.25 11.5 4.25ZM4.5 1.25C2.71 1.25 1.25 2.71 1.25 4.5C1.25 6.29 2.71 7.75 4.5 7.75C6.29 7.75 7.75 6.29 7.75 4.5C7.75 2.71 6.29 1.25 4.5 1.25ZM4.5 6.25C3.54 6.25 2.75 5.46 2.75 4.5C2.75 3.54 3.54 2.75 4.5 2.75C5.46 2.75 6.25 3.54 6.25 4.5C6.25 5.46 5.46 6.25 4.5 6.25ZM4.5 8.25C2.71 8.25 1.25 9.71 1.25 11.5C1.25 13.29 2.71 14.75 4.5 14.75C6.29 14.75 7.75 13.29 7.75 11.5C7.75 9.71 6.29 8.25 4.5 8.25ZM4.5 13.25C3.54 13.25 2.75 12.46 2.75 11.5C2.75 10.54 3.54 9.75 4.5 9.75C5.46 9.75 6.25 10.54 6.25 11.5C6.25 12.46 5.46 13.25 4.5 13.25ZM4.5 10.25C3.81 10.25 3.25 10.81 3.25 11.5C3.25 12.19 3.81 12.75 4.5 12.75C5.19 12.75 5.75 12.19 5.75 11.5C5.75 10.81 5.19 10.25 4.5 10.25ZM4.25 11.5C4.25 11.36 4.36 11.25 4.5 11.25C4.64 11.25 4.75 11.36 4.75 11.5C4.75 11.78 4.25 11.78 4.25 11.5ZM11.5 8.25C9.71 8.25 8.25 9.71 8.25 11.5C8.25 13.29 9.71 14.75 11.5 14.75C13.29 14.75 14.75 13.29 14.75 11.5C14.75 9.71 13.29 8.25 11.5 8.25ZM11.5 13.25C10.54 13.25 9.75 12.46 9.75 11.5C9.75 10.54 10.54 9.75 11.5 9.75C12.46 9.75 13.25 10.54 13.25 11.5C13.25 12.46 12.46 13.25 11.5 13.25Z" />
</svg>
