<svg width="24" height="24" viewBox="0 0 24 24" xmlns="http://www.w3.org/2000/svg">
<path d="M18 3.25H6C4.48 3.25 3.25 4.48 3.25 6V8C3.25 9.52 4.48 10.75 6 10.75H18C19.52 10.75 20.75 9.52 20.75 8V6C20.75 4.48 19.52 3.25 18 3.25ZM19.25 8C19.25 8.69 18.69 9.25 18 9.25H6C5.31 9.25 4.75 8.69 4.75 8V6C4.75 5.31 5.31 4.75 6 4.75H18C18.69 4.75 19.25 5.31 19.25 6V8ZM18 13.25H6C4.48 13.25 3.25 14.48 3.25 16V18C3.25 19.52 4.48 20.75 6 20.75H18C19.52 20.75 20.75 19.52 20.75 18V16C20.75 14.48 19.52 13.25 18 13.25ZM19.25 18C19.25 18.69 18.69 19.25 18 19.25H6C5.31 19.25 4.75 18.69 4.75 18V16C4.75 15.31 5.31 14.75 6 14.75H18C18.69 14.75 19.25 15.31 19.25 16V18ZM12.75 7C12.75 7.41 12.41 7.75 12 7.75H7C6.59 7.75 6.25 7.41 6.25 7C6.25 6.59 6.59 6.25 7 6.25H12C12.41 6.25 12.75 6.59 12.75 7ZM15.75 17C15.75 17.41 15.41 17.75 15 17.75H7C6.59 17.75 6.25 17.41 6.25 17C6.25 16.59 6.59 16.25 7 16.25H15C15.41 16.25 15.75 16.59 15.75 17Z" />
</svg>
