<svg width="24" height="24" viewBox="0 0 24 24" xmlns="http://www.w3.org/2000/svg">
<path d="M18 4.25H10.65C10.32 3.1 9.26 2.25 8 2.25H6C4.48 2.25 3.25 3.48 3.25 5V18C3.25 19.52 4.48 20.75 6 20.75H9C9.41 20.75 9.75 20.41 9.75 20C9.75 19.59 9.41 19.25 9 19.25H6C5.31 19.25 4.75 18.69 4.75 18V9.75H19.25V18C19.25 18.69 18.69 19.25 18 19.25H15C14.59 19.25 14.25 19.59 14.25 20C14.25 20.41 14.59 20.75 15 20.75H18C19.52 20.75 20.75 19.52 20.75 18V7C20.75 5.48 19.52 4.25 18 4.25ZM4.75 8.25V5C4.75 4.31 5.31 3.75 6 3.75H8C8.69 3.75 9.25 4.31 9.25 5C9.25 5.41 9.59 5.75 10 5.75H18C18.69 5.75 19.25 6.31 19.25 7V8.25H4.75ZM12.75 14.81V23C12.75 23.41 12.41 23.75 12 23.75C11.59 23.75 11.25 23.41 11.25 23V14.81L9.53 16.53C9.24 16.82 8.76 16.82 8.47 16.53C8.18 16.24 8.18 15.76 8.47 15.47L11.47 12.47C11.54 12.4 11.62 12.35 11.71 12.31C11.89 12.23 12.1 12.23 12.28 12.31C12.37 12.35 12.45 12.4 12.52 12.47L15.52 15.47C15.81 15.76 15.81 16.24 15.52 16.53C15.37 16.68 15.18 16.75 14.99 16.75C14.8 16.75 14.61 16.68 14.46 16.53L12.74 14.81H12.75Z" />
</svg>
