<svg xmlns="http://www.w3.org/2000/svg" width="16" height="16" viewBox="0 0 16 16">
  <path d="M5.01565 1.23804V1.23901C5.48785 1.23614 5.94559 1.40366 6.30373 1.71167C6.66343 2.02119 6.89839 2.45079 6.96487 2.92065L6.96584 2.92749C7.03484 3.45059 7.16323 3.96439 7.34768 4.45874H7.3467C7.47797 4.8086 7.50668 5.18897 7.42873 5.55444C7.35066 5.92015 7.16922 6.25632 6.90627 6.52222L6.90334 6.52515L6.55471 6.8728C7.22349 7.89217 8.09503 8.76246 9.11428 9.4314L9.46291 9.08374L9.46584 9.08081C9.73178 8.81788 10.0679 8.63737 10.4336 8.55933C10.7985 8.4815 11.178 8.50965 11.5274 8.64038H11.5283C12.0227 8.82484 12.5365 8.95321 13.0596 9.02222H13.0664V9.02319C13.5416 9.09023 13.9759 9.32898 14.2862 9.69507C14.5924 10.0565 14.7562 10.5168 14.749 10.99L14.75 12.7976L14.7403 13.0007C14.7199 13.2031 14.6677 13.4015 14.586 13.5886C14.4769 13.8381 14.3169 14.0627 14.1162 14.2468C13.9155 14.431 13.678 14.5716 13.4199 14.6589C13.1619 14.7462 12.8885 14.7781 12.6172 14.7537L12.6035 14.7527C10.6326 14.5385 8.73912 13.8656 7.07522 12.7878L6.78713 12.5994C5.36277 11.6383 4.15104 10.393 3.22756 8.94116V8.94214C2.1439 7.26928 1.46929 5.3646 1.25881 3.38257L1.25784 3.37085C1.2334 3.10033 1.26586 2.82748 1.35256 2.57007C1.43928 2.31271 1.57865 2.07631 1.76174 1.87573C1.94486 1.67514 2.1676 1.51479 2.41604 1.40503C2.66453 1.29527 2.93345 1.23829 3.2051 1.23804H5.01565ZM3.11233 2.7478C3.08151 2.75431 3.05146 2.76432 3.02248 2.7771C2.96453 2.8027 2.91189 2.83969 2.86916 2.88647C2.82648 2.93323 2.79371 2.9886 2.77346 3.04858C2.75362 3.1075 2.74689 3.17025 2.75198 3.23218C2.93854 4.97706 3.53224 6.65384 4.48635 8.12671L4.49026 8.13257L4.65627 8.3855C5.44654 9.55674 6.4548 10.5649 7.626 11.3552L7.87991 11.5212L7.88577 11.5251C9.35019 12.4748 11.0162 13.0688 12.751 13.2595C12.8143 13.2652 12.8792 13.2584 12.9395 13.238C12.9997 13.2177 13.0548 13.1843 13.1016 13.1414C13.1484 13.0984 13.1855 13.0462 13.211 12.988C13.2364 12.9298 13.2503 12.867 13.25 12.8035V10.9714C13.2528 10.8595 13.214 10.7502 13.1416 10.6648C13.0693 10.5795 12.9682 10.5233 12.8574 10.5076V10.5066C12.2244 10.4226 11.6023 10.2689 11.0039 10.0457L11.003 10.0447C10.9212 10.014 10.8315 10.0079 10.7461 10.0261C10.6609 10.0444 10.5825 10.0869 10.5205 10.1482L9.75784 10.9109C9.51914 11.1496 9.14994 11.1997 8.85647 11.033C7.22866 10.1074 5.88074 8.75938 4.9551 7.13159C4.78826 6.83817 4.83761 6.46896 5.0762 6.23022L5.8428 5.46362C5.90252 5.40205 5.94403 5.32492 5.96194 5.24097C5.9801 5.15563 5.97311 5.06678 5.94241 4.98511V4.98315C5.71919 4.38491 5.56351 3.76359 5.47952 3.13062C5.46396 3.02097 5.40918 2.9206 5.32522 2.84839C5.24131 2.77628 5.13409 2.73705 5.02346 2.73804H3.20608L3.11233 2.7478Z"/>
</svg>