<svg width="16" height="16" viewBox="0 0 16 16" xmlns="http://www.w3.org/2000/svg">
<g clip-path="url(#clip0_22761_58146)">
<path d="M11.5406 15.23C11.2506 15.23 10.9506 15.15 10.6806 15L8.00057 13.49L5.32057 15C4.72057 15.34 3.99057 15.3 3.44057 14.89C2.88057 14.48 2.62057 13.81 2.75057 13.13L3.35057 10.08L1.06057 7.97C0.560569 7.5 0.370569 6.8 0.590569 6.15C0.800569 5.49 1.36057 5.04 2.05057 4.96L5.12057 4.59L6.41057 1.78C6.70057 1.15 7.31057 0.760002 8.00057 0.760002C8.69057 0.760002 9.30057 1.15 9.59057 1.78L10.8806 4.59L13.9506 4.96C14.6306 5.04 15.1906 5.5 15.4106 6.15C15.6206 6.81 15.4406 7.5 14.9406 7.97L12.6606 10.09L13.2606 13.14C13.3906 13.82 13.1306 14.49 12.5706 14.9C12.2606 15.12 11.9006 15.23 11.5506 15.23H11.5406ZM7.99057 11.88C8.12057 11.88 8.24057 11.91 8.36057 11.98L11.4106 13.7C11.5306 13.77 11.6306 13.72 11.6806 13.68C11.7306 13.64 11.8006 13.57 11.7806 13.43L11.1006 9.97C11.0506 9.72 11.1306 9.45 11.3206 9.28L13.9006 6.88C14.0006 6.79 13.9806 6.68 13.9706 6.62C13.9606 6.56 13.9006 6.47 13.7606 6.45L10.2806 6.03C10.0206 6 9.80057 5.84 9.69057 5.6L8.23057 2.41C8.17057 2.28 8.06057 2.26 8.00057 2.26C7.94057 2.26 7.83057 2.28 7.77057 2.41L6.31057 5.6C6.20057 5.84 5.98057 6 5.72057 6.03L2.24057 6.45C2.10057 6.47 2.05057 6.56 2.03057 6.62C2.01057 6.68 1.99057 6.79 2.10057 6.88L4.68057 9.28C4.87057 9.46 4.96057 9.72 4.90057 9.97L4.22057 13.43C4.19057 13.57 4.27057 13.64 4.32057 13.68C4.37057 13.72 4.47057 13.76 4.59057 13.7L7.64057 11.98C7.75057 11.92 7.88057 11.88 8.01057 11.88H7.99057Z" />
</g>
<defs>
<clipPath id="clip0_22761_58146">
<rect width="16" height="16" fill="white"/>
</clipPath>
</defs>
</svg>
