<svg width="24" height="24" viewBox="0 0 24 24" xmlns="http://www.w3.org/2000/svg">
    <g clip-path="url(#clip0_28758_59519)">
        <path
            d="M4 17.25C4.41421 17.25 4.75 17.5858 4.75 18V20L4.74609 20.0771C4.70747 20.4551 4.38817 20.75 4 20.75C3.61183 20.75 3.29253 20.4551 3.25391 20.0771L3.25 20V18C3.25 17.5858 3.58579 17.25 4 17.25Z" />
        <path
            d="M12 17.25C12.4142 17.25 12.75 17.5858 12.75 18V20L12.7461 20.0771C12.7075 20.4551 12.3882 20.75 12 20.75C11.6118 20.75 11.2925 20.4551 11.2539 20.0771L11.25 20V18C11.25 17.5858 11.5858 17.25 12 17.25Z" />
        <path
            d="M20 17.25C20.4142 17.25 20.75 17.5858 20.75 18V20L20.7461 20.0771C20.7075 20.4551 20.3882 20.75 20 20.75C19.6118 20.75 19.2925 20.4551 19.2539 20.0771L19.25 20V18C19.25 17.5858 19.5858 17.25 20 17.25Z" />
        <path fill-rule="evenodd" clip-rule="evenodd"
            d="M12 5.25C14.0841 5.25 15.8253 6.76542 16.1816 8.75H22L22.0771 8.75391C22.4551 8.79252 22.7499 9.11188 22.75 9.5C22.75 9.88816 22.4551 10.2075 22.0771 10.2461L22 10.25H16.1826C15.8264 12.2347 14.0842 13.75 12 13.75C9.91583 13.75 8.17361 12.2347 7.81738 10.25H2C1.58579 10.25 1.25 9.91421 1.25 9.5C1.25 9.08579 1.58579 8.75 2 8.75H7.81836C8.17465 6.76542 9.91589 5.25 12 5.25ZM12 6.75C10.48 6.75 9.25 7.98 9.25 9.5C9.25 11.02 10.48 12.25 12 12.25C13.52 12.25 14.75 11.02 14.75 9.5C14.75 7.98 13.52 6.75 12 6.75Z" />
    </g>
    <defs>
        <clipPath id="clip0_28758_59519">
            <rect width="24" height="24" fill="white" />
        </clipPath>
    </defs>
</svg>