<svg width="24" height="24" viewBox="0 0 24 24" xmlns="http://www.w3.org/2000/svg">
<path d="M4.25 7V17C4.25 18.52 5.48 19.75 7 19.75H17C18.52 19.75 19.75 18.52 19.75 17V7C19.75 5.48 18.52 4.25 17 4.25H7C5.48 4.25 4.25 5.48 4.25 7ZM18.25 7V17C18.25 17.69 17.69 18.25 17 18.25H7C6.31 18.25 5.75 17.69 5.75 17V7C5.75 6.31 6.31 5.75 7 5.75H17C17.69 5.75 18.25 6.31 18.25 7ZM8.75 22C8.75 22.41 8.41 22.75 8 22.75H7C3.83 22.75 1.25 20.17 1.25 17V16C1.25 15.59 1.59 15.25 2 15.25C2.41 15.25 2.75 15.59 2.75 16V17C2.75 19.34 4.66 21.25 7 21.25H8C8.41 21.25 8.75 21.59 8.75 22ZM22.75 16V17C22.75 20.17 20.17 22.75 17 22.75H16C15.59 22.75 15.25 22.41 15.25 22C15.25 21.59 15.59 21.25 16 21.25H17C19.34 21.25 21.25 19.34 21.25 17V16C21.25 15.59 21.59 15.25 22 15.25C22.41 15.25 22.75 15.59 22.75 16ZM22.75 7V8C22.75 8.41 22.41 8.75 22 8.75C21.59 8.75 21.25 8.41 21.25 8V7C21.25 4.66 19.34 2.75 17 2.75H16C15.59 2.75 15.25 2.41 15.25 2C15.25 1.59 15.59 1.25 16 1.25H17C20.17 1.25 22.75 3.83 22.75 7ZM1.25 8V7C1.25 3.83 3.83 1.25 7 1.25H8C8.41 1.25 8.75 1.59 8.75 2C8.75 2.41 8.41 2.75 8 2.75H7C4.66 2.75 2.75 4.66 2.75 7V8C2.75 8.41 2.41 8.75 2 8.75C1.59 8.75 1.25 8.41 1.25 8ZM14.5 11.75C15.74 11.75 16.75 10.74 16.75 9.5C16.75 8.26 15.74 7.25 14.5 7.25C13.26 7.25 12.25 8.26 12.25 9.5C12.25 10.74 13.26 11.75 14.5 11.75ZM14.5 8.75C14.91 8.75 15.25 9.09 15.25 9.5C15.25 9.91 14.91 10.25 14.5 10.25C14.09 10.25 13.75 9.91 13.75 9.5C13.75 9.09 14.09 8.75 14.5 8.75ZM6.47 15.47L9.47 12.47C9.76 12.18 10.24 12.18 10.53 12.47L13 14.94L14.47 13.47C14.76 13.18 15.24 13.18 15.53 13.47L17.53 15.47C17.82 15.76 17.82 16.24 17.53 16.53C17.38 16.68 17.19 16.75 17 16.75C16.81 16.75 16.62 16.68 16.47 16.53L15 15.06L13.53 16.53C13.24 16.82 12.76 16.82 12.47 16.53L10 14.06L7.53 16.53C7.24 16.82 6.76 16.82 6.47 16.53C6.18 16.24 6.18 15.76 6.47 15.47Z" />
</svg>
