<svg width="24" height="24" viewBox="0 0 24 24" xmlns="http://www.w3.org/2000/svg">
<path d="M19 2.25H5C3.48 2.25 2.25 3.48 2.25 5V19C2.25 20.52 3.48 21.75 5 21.75H19C20.52 21.75 21.75 20.52 21.75 19V5C21.75 3.48 20.52 2.25 19 2.25ZM9.75 14.25V9.75H14.25V14.25H9.75ZM14.25 15.75V20.25H9.75V15.75H14.25ZM3.75 9.75H8.25V14.25H3.75V9.75ZM9.75 8.25V3.75H14.25V8.25H9.75ZM15.75 9.75H20.25V14.25H15.75V9.75ZM20.25 5V8.25H15.75V3.75H19C19.69 3.75 20.25 4.31 20.25 5ZM5 3.75H8.25V8.25H3.75V5C3.75 4.31 4.31 3.75 5 3.75ZM3.75 19V15.75H8.25V20.25H5C4.31 20.25 3.75 19.69 3.75 19ZM19 20.25H15.75V15.75H20.25V19C20.25 19.69 19.69 20.25 19 20.25Z" />
</svg>
