<svg width="16" height="16" viewBox="0 0 16 16" xmlns="http://www.w3.org/2000/svg">
<path d="M13 1.25H3C2.04 1.25 1.25 2.04 1.25 3V13C1.25 13.96 2.04 14.75 3 14.75H13C13.96 14.75 14.75 13.96 14.75 13V3C14.75 2.04 13.96 1.25 13 1.25ZM13.25 13C13.25 13.14 13.14 13.25 13 13.25H3C2.86 13.25 2.75 13.14 2.75 13V3C2.75 2.86 2.86 2.75 3 2.75H13C13.14 2.75 13.25 2.86 13.25 3V13ZM10.5 6.75C11.19 6.75 11.75 6.19 11.75 5.5C11.75 4.81 11.19 4.25 10.5 4.25C9.81 4.25 9.25 4.81 9.25 5.5C9.25 6.19 9.81 6.75 10.5 6.75ZM10.5 5.25C10.64 5.25 10.75 5.36 10.75 5.5C10.75 5.78 10.25 5.78 10.25 5.5C10.25 5.36 10.36 5.25 10.5 5.25ZM12.53 10.47C12.82 10.76 12.82 11.24 12.53 11.53C12.38 11.68 12.19 11.75 12 11.75C11.81 11.75 11.62 11.68 11.47 11.53L10 10.06L9.53 10.53C9.24 10.82 8.76 10.82 8.47 10.53L7 9.06L4.53 11.53C4.24 11.82 3.76 11.82 3.47 11.53C3.18 11.24 3.18 10.76 3.47 10.47L6.47 7.47C6.76 7.18 7.24 7.18 7.53 7.47L9 8.94L9.47 8.47C9.76 8.18 10.24 8.18 10.53 8.47L12.53 10.47Z" />
</svg>
