<svg width="16" height="16" viewBox="0 0 16 16" xmlns="http://www.w3.org/2000/svg">
<path d="M5 15.75C4.9 15.75 4.81 15.73 4.71 15.69C4.43 15.57 4.25 15.3 4.25 15V12.75H3C2.04 12.75 1.25 11.96 1.25 11V3C1.25 2.04 2.04 1.25 3 1.25H13C13.96 1.25 14.75 2.04 14.75 3V11C14.75 11.96 13.96 12.75 13 12.75H8.31L5.53 15.53C5.39 15.67 5.2 15.75 5 15.75ZM3 2.75C2.86 2.75 2.75 2.86 2.75 3V11C2.75 11.14 2.86 11.25 3 11.25H5C5.41 11.25 5.75 11.59 5.75 12V13.19L7.47 11.47C7.61 11.33 7.8 11.25 8 11.25H13C13.14 11.25 13.25 11.14 13.25 11V3C13.25 2.86 13.14 2.75 13 2.75H3Z" />
</svg>
