<svg xmlns="http://www.w3.org/2000/svg" width="24" height="24" viewBox="0 0 24 24">
  <path d="M7.52344 2.23212C8.14205 2.2278 8.74178 2.44778 9.21094 2.85126C9.62289 3.20564 9.90964 3.68063 10.0332 4.20575L10.0762 4.43427L10.0772 4.4411C10.1843 5.25318 10.3827 6.05059 10.6689 6.81806C10.8411 7.27614 10.8784 7.774 10.7764 8.25263C10.6743 8.73132 10.4369 9.1712 10.0928 9.51923L9.35352 10.2575C10.459 12.0273 11.9539 13.521 13.7236 14.6266L14.4629 13.8884C14.8108 13.5444 15.25 13.3069 15.7285 13.2048C16.207 13.1027 16.7051 13.1401 17.1631 13.3122C17.9311 13.5988 18.7283 13.7978 19.541 13.905H19.5479C20.1695 13.9928 20.7377 14.3068 21.1436 14.7858C21.5452 15.2601 21.7599 15.8641 21.749 16.485V19.197C21.7505 19.5534 21.6779 19.9065 21.5352 20.2331C21.3923 20.5597 21.1826 20.8534 20.9199 21.0944C20.6574 21.3353 20.3473 21.5183 20.0098 21.6325C19.6721 21.7467 19.314 21.7896 18.959 21.7575L18.9453 21.7565C16.046 21.4415 13.2609 20.4508 10.8135 18.8649C8.53395 17.4164 6.60087 15.4834 5.15235 13.2038C3.56136 10.7456 2.57101 7.94667 2.26172 5.03485L2.26075 5.02313C2.22876 4.66922 2.27039 4.31205 2.38379 3.97528C2.49723 3.63849 2.67936 3.32858 2.91895 3.0661C3.15847 2.80371 3.45044 2.59447 3.77539 2.45087C4.10049 2.30727 4.45222 2.23246 4.80762 2.23212H7.52344ZM4.69922 3.73798C4.58987 3.74948 4.48283 3.77833 4.38184 3.82294C4.24724 3.8824 4.12655 3.96914 4.02735 4.07782C3.92818 4.18646 3.85264 4.3144 3.80567 4.4538C3.75936 4.5913 3.74073 4.737 3.75293 4.88153C4.0204 7.39252 4.83953 9.8112 6.14746 11.9665L6.41504 12.3942L6.41895 12.3991C7.66629 14.3621 9.30434 16.0454 11.2295 17.3444L11.6182 17.5993L11.624 17.6032C13.8718 19.0609 16.4298 19.9717 19.0928 20.2634C19.2398 20.2767 19.3895 20.2589 19.5293 20.2116C19.669 20.1643 19.7976 20.0887 19.9063 19.989C20.015 19.8892 20.102 19.7677 20.1611 19.6325C20.2202 19.4974 20.2496 19.3513 20.249 19.2038V16.485C20.249 16.4789 20.2499 16.4726 20.25 16.4665C20.2564 16.2068 20.1669 15.9538 19.999 15.7556C19.8309 15.5572 19.5954 15.4266 19.3379 15.3903C18.4154 15.2681 17.5095 15.0428 16.6377 14.7175L16.6357 14.7165C16.4461 14.6452 16.2401 14.6303 16.042 14.6725C15.8439 14.7148 15.6616 14.8124 15.5176 14.9548L14.3711 16.1013C14.1324 16.34 13.7632 16.3902 13.4697 16.2233C11.0866 14.8682 9.11387 12.8945 7.75879 10.5114C7.59204 10.218 7.6414 9.84974 7.87989 9.61102L9.0293 8.46161C9.17032 8.31796 9.26756 8.13705 9.30957 7.94013C9.35183 7.74201 9.33587 7.53601 9.26465 7.34638V7.34442C8.93933 6.47261 8.71304 5.56669 8.59082 4.64423L8.57325 4.5495C8.52209 4.33195 8.40311 4.13476 8.23243 3.98798C8.03753 3.82048 7.78822 3.72969 7.53125 3.73212H4.8086L4.69922 3.73798Z"/>
</svg>
