<svg width="16" height="16" viewBox="0 0 16 16" xmlns="http://www.w3.org/2000/svg">
<path d="M13 1.25H3C2.04 1.25 1.25 2.04 1.25 3V13C1.25 13.96 2.04 14.75 3 14.75H13C13.96 14.75 14.75 13.96 14.75 13V3C14.75 2.04 13.96 1.25 13 1.25ZM2.75 3C2.75 2.86 2.86 2.75 3 2.75H13C13.14 2.75 13.25 2.86 13.25 3V5.25H2.75V3ZM13.25 13C13.25 13.14 13.14 13.25 13 13.25H3C2.86 13.25 2.75 13.14 2.75 13V6.75H13.25V13ZM4.25 9C4.25 8.59 4.59 8.25 5 8.25H11C11.41 8.25 11.75 8.59 11.75 9C11.75 9.41 11.41 9.75 11 9.75H5C4.59 9.75 4.25 9.41 4.25 9ZM4.25 11C4.25 10.59 4.59 10.25 5 10.25H11C11.41 10.25 11.75 10.59 11.75 11C11.75 11.41 11.41 11.75 11 11.75H5C4.59 11.75 4.25 11.41 4.25 11ZM12.75 4C12.75 4.41 12.41 4.75 12 4.75H11C10.59 4.75 10.25 4.41 10.25 4C10.25 3.59 10.59 3.25 11 3.25H12C12.41 3.25 12.75 3.59 12.75 4Z" />
</svg>
