<svg xmlns="http://www.w3.org/2000/svg" width="16" height="16" viewBox="0 0 16 16">
  <path d="M9.91667 4.00031V1.33331C9.91667 0.919099 10.2525 0.583313 10.6667 0.583313C11.0809 0.583313 11.4167 0.919099 11.4167 1.33331V4.00031C11.4165 4.41437 11.0808 4.75031 10.6667 4.75031C10.2526 4.75031 9.91684 4.41437 9.91667 4.00031Z"/>
  <path d="M4.58333 4.00031V1.33331C4.58333 0.919099 4.91912 0.583313 5.33333 0.583313C5.74755 0.583313 6.08333 0.919099 6.08333 1.33331V4.00031C6.08316 4.41437 5.74744 4.75031 5.33333 4.75031C4.91923 4.75031 4.58351 4.41437 4.58333 4.00031Z"/>
  <path d="M13.25 3.66663C13.25 3.53084 13.1358 3.41663 13 3.41663H3C2.86421 3.41663 2.75 3.53084 2.75 3.66663V5.91663H13.25V3.66663ZM14.75 6.66663C14.75 7.08084 14.4142 7.41663 14 7.41663H2C1.58579 7.41663 1.25 7.08084 1.25 6.66663V3.66663C1.25 2.70241 2.03579 1.91663 3 1.91663H13C13.9642 1.91663 14.75 2.70241 14.75 3.66663V6.66663Z"/>
  <path d="M13.25 7.41663H2.75V13.6666C2.75 13.8024 2.86421 13.9166 3 13.9166H13C13.1358 13.9166 13.25 13.8024 13.25 13.6666V7.41663ZM14.75 13.6666C14.75 14.6308 13.9642 15.4166 13 15.4166H3C2.03579 15.4166 1.25 14.6308 1.25 13.6666V6.66663C1.25 6.25241 1.58579 5.91663 2 5.91663H14C14.4142 5.91663 14.75 6.25241 14.75 6.66663V13.6666Z"/>
</svg>