<svg width="24" height="24" viewBox="0 0 24 24" xmlns="http://www.w3.org/2000/svg">
<path d="M6.5275 8.53263L3.0575 12.0026L6.5275 15.4726C6.8175 15.7626 6.8175 16.2426 6.5275 16.5326C6.3775 16.6826 6.1875 16.7526 5.9975 16.7526C5.8075 16.7526 5.6175 16.6826 5.4675 16.5326L1.4675 12.5326C1.1775 12.2426 1.1775 11.7626 1.4675 11.4726L5.4675 7.47263C5.7575 7.18263 6.2375 7.18263 6.5275 7.47263C6.8175 7.76263 6.8175 8.24263 6.5275 8.53263ZM22.5275 11.4726L18.5275 7.47263C18.2375 7.18263 17.7575 7.18263 17.4675 7.47263C17.1775 7.76263 17.1775 8.24263 17.4675 8.53263L20.9375 12.0026L17.4675 15.4726C17.1775 15.7626 17.1775 16.2426 17.4675 16.5326C17.6175 16.6826 17.8075 16.7526 17.9975 16.7526C18.1875 16.7526 18.3775 16.6826 18.5275 16.5326L22.5275 12.5326C22.8175 12.2426 22.8175 11.7626 22.5275 11.4726ZM14.1775 3.27263C13.7775 3.17263 13.3675 3.41263 13.2675 3.82263L9.2675 19.8226C9.1675 20.2226 9.4075 20.6326 9.8175 20.7326C9.8775 20.7526 9.9375 20.7526 9.9975 20.7526C10.3375 20.7526 10.6375 20.5226 10.7275 20.1826L14.7275 4.18263C14.8275 3.78263 14.5875 3.37263 14.1775 3.27263Z" />
</svg>
