<svg width="24" height="24" viewBox="0 0 24 24" xmlns="http://www.w3.org/2000/svg">
<path d="M17.75 6C17.75 6.41 17.41 6.75 17 6.75H16C15.59 6.75 15.25 6.41 15.25 6C15.25 5.59 15.59 5.25 16 5.25H17C17.41 5.25 17.75 5.59 17.75 6ZM7 12.75H17C17.41 12.75 17.75 12.41 17.75 12C17.75 11.59 17.41 11.25 17 11.25H7C6.59 11.25 6.25 11.59 6.25 12C6.25 12.41 6.59 12.75 7 12.75ZM7 15.75H17C17.41 15.75 17.75 15.41 17.75 15C17.75 14.59 17.41 14.25 17 14.25H7C6.59 14.25 6.25 14.59 6.25 15C6.25 15.41 6.59 15.75 7 15.75ZM20.75 5V19C20.75 20.52 19.52 21.75 18 21.75H6C4.48 21.75 3.25 20.52 3.25 19V5C3.25 3.48 4.48 2.25 6 2.25H18C19.52 2.25 20.75 3.48 20.75 5ZM4.75 8.25H19.25V5C19.25 4.31 18.69 3.75 18 3.75H6C5.31 3.75 4.75 4.31 4.75 5V8.25ZM19.25 9.75H4.75V19C4.75 19.69 5.31 20.25 6 20.25H18C18.69 20.25 19.25 19.69 19.25 19V9.75ZM7 18.75H17C17.41 18.75 17.75 18.41 17.75 18C17.75 17.59 17.41 17.25 17 17.25H7C6.59 17.25 6.25 17.59 6.25 18C6.25 18.41 6.59 18.75 7 18.75Z" />
</svg>
