<svg width="16" height="16" viewBox="0 0 16 16" xmlns="http://www.w3.org/2000/svg">
<path d="M14.75 2C14.75 2.41 14.41 2.75 14 2.75H2C1.59 2.75 1.25 2.41 1.25 2C1.25 1.59 1.59 1.25 2 1.25H14C14.41 1.25 14.75 1.59 14.75 2ZM12 4.25H2C1.59 4.25 1.25 4.59 1.25 5C1.25 5.41 1.59 5.75 2 5.75H12C12.41 5.75 12.75 5.41 12.75 5C12.75 4.59 12.41 4.25 12 4.25ZM10 7.25H2C1.59 7.25 1.25 7.59 1.25 8C1.25 8.41 1.59 8.75 2 8.75H10C10.41 8.75 10.75 8.41 10.75 8C10.75 7.59 10.41 7.25 10 7.25ZM8 10.25H2C1.59 10.25 1.25 10.59 1.25 11C1.25 11.41 1.59 11.75 2 11.75H8C8.41 11.75 8.75 11.41 8.75 11C8.75 10.59 8.41 10.25 8 10.25ZM6 13.25H2C1.59 13.25 1.25 13.59 1.25 14C1.25 14.41 1.59 14.75 2 14.75H6C6.41 14.75 6.75 14.41 6.75 14C6.75 13.59 6.41 13.25 6 13.25Z" />
</svg>
