<svg width="16" height="16" viewBox="0 0 16 16" xmlns="http://www.w3.org/2000/svg">
<path d="M5.5275 5.53444L3.0575 8.00444L5.5275 10.4744C5.8175 10.7644 5.8175 11.2444 5.5275 11.5344C5.3775 11.6844 5.1875 11.7544 4.9975 11.7544C4.8075 11.7544 4.6175 11.6844 4.4675 11.5344L1.4675 8.53444C1.1775 8.24444 1.1775 7.76444 1.4675 7.47444L4.4675 4.47444C4.7575 4.18444 5.2375 4.18444 5.5275 4.47444C5.8175 4.76444 5.8175 5.24444 5.5275 5.53444ZM14.5275 7.47444L11.5275 4.47444C11.2375 4.18444 10.7575 4.18444 10.4675 4.47444C10.1775 4.76444 10.1775 5.24444 10.4675 5.53444L12.9375 8.00444L10.4675 10.4744C10.1775 10.7644 10.1775 11.2444 10.4675 11.5344C10.6175 11.6844 10.8075 11.7544 10.9975 11.7544C11.1875 11.7544 11.3775 11.6844 11.5275 11.5344L14.5275 8.53444C14.8175 8.24444 14.8175 7.76444 14.5275 7.47444ZM9.1475 2.26444C8.7375 2.18444 8.3475 2.44444 8.2675 2.85444L6.2675 12.8544C6.1875 13.2644 6.4475 13.6544 6.8575 13.7344C6.9075 13.7344 6.9575 13.7444 7.0075 13.7444C7.3575 13.7444 7.6675 13.4944 7.7375 13.1444L9.7375 3.15444C9.8175 2.74444 9.5575 2.35444 9.1475 2.27444V2.26444Z" />
</svg>
