<svg width="24" height="24" viewBox="0 0 24 24" xmlns="http://www.w3.org/2000/svg">
<path d="M8.75 5.5V9.25H10C10.41 9.25 10.75 9.59 10.75 10C10.75 10.41 10.41 10.75 10 10.75H8.75V18.5C8.75 20.29 7.29 21.75 5.5 21.75C3.71 21.75 2.25 20.29 2.25 18.5V18C2.25 17.59 2.59 17.25 3 17.25C3.41 17.25 3.75 17.59 3.75 18V18.5C3.75 19.46 4.54 20.25 5.5 20.25C6.46 20.25 7.25 19.46 7.25 18.5V10.75H6C5.59 10.75 5.25 10.41 5.25 10C5.25 9.59 5.59 9.25 6 9.25H7.25V5.5C7.25 3.71 8.71 2.25 10.5 2.25C12.29 2.25 13.75 3.71 13.75 5.5V6C13.75 6.41 13.41 6.75 13 6.75C12.59 6.75 12.25 6.41 12.25 6V5.5C12.25 4.54 11.46 3.75 10.5 3.75C9.54 3.75 8.75 4.54 8.75 5.5ZM17.06 16L19.53 13.53C19.82 13.24 19.82 12.76 19.53 12.47C19.24 12.18 18.76 12.18 18.47 12.47L16 14.94L13.53 12.47C13.24 12.18 12.76 12.18 12.47 12.47C12.18 12.76 12.18 13.24 12.47 13.53L14.94 16L12.47 18.47C12.18 18.76 12.18 19.24 12.47 19.53C12.62 19.68 12.81 19.75 13 19.75C13.19 19.75 13.38 19.68 13.53 19.53L16 17.06L18.47 19.53C18.62 19.68 18.81 19.75 19 19.75C19.19 19.75 19.38 19.68 19.53 19.53C19.82 19.24 19.82 18.76 19.53 18.47L17.06 16Z" />
</svg>
