<svg width="16" height="16" viewBox="0 0 16 16" xmlns="http://www.w3.org/2000/svg">
<path d="M14.52 7.47L8.52 1.47C7.68 0.629996 6.3 0.629996 5.46 1.47C4.8 2.13 4.66 3.1 5.03 3.9L3.4 5.53C2.68 6.25 2.2 7.21 2.06 8.22L1.25 13.9C1.25 13.9 1.25 13.93 1.25 13.95C1.25 14.03 1.25 14.1 1.27 14.18C1.27 14.21 1.27 14.24 1.29 14.27C1.33 14.37 1.38 14.47 1.46 14.55C1.53 14.62 1.61 14.68 1.71 14.71C1.8 14.75 1.9 14.77 1.99 14.77C2.03 14.77 2.06 14.77 2.1 14.77L7.78 13.96C8.79 13.82 9.75 13.34 10.47 12.62L12.1 10.99C12.39 11.12 12.69 11.19 13 11.19C13.55 11.19 14.11 10.98 14.53 10.56C15.37 9.72 15.37 8.34 14.53 7.5L14.52 7.47ZM9.4 11.53C8.91 12.02 8.25 12.35 7.56 12.45L4.11 12.94L5.52 11.53C5.52 11.53 5.52 11.53 5.52 11.52C5.82 11.66 6.14 11.75 6.49 11.75C7.73 11.75 8.74 10.74 8.74 9.5C8.74 8.26 7.73 7.25 6.49 7.25C5.25 7.25 4.24 8.26 4.24 9.5C4.24 9.84 4.32 10.17 4.46 10.46C4.46 10.46 4.46 10.46 4.45 10.46L3.04 11.87L3.53 8.42C3.63 7.73 3.95 7.08 4.45 6.58L5.98 5.05L10.92 9.99L9.39 11.52L9.4 11.53ZM5.75 9.5C5.75 9.09 6.09 8.75 6.5 8.75C6.91 8.75 7.25 9.09 7.25 9.5C7.25 9.91 6.91 10.25 6.5 10.25C6.09 10.25 5.75 9.91 5.75 9.5ZM13.46 9.47C13.21 9.72 12.77 9.72 12.52 9.47L6.52 3.47C6.39 3.34 6.33 3.18 6.33 3C6.33 2.82 6.4 2.66 6.52 2.53C6.64 2.4 6.81 2.34 6.99 2.34C7.17 2.34 7.33 2.41 7.46 2.53L13.46 8.53C13.59 8.66 13.65 8.82 13.65 9C13.65 9.18 13.58 9.34 13.46 9.47Z" />
</svg>
