<svg width="24" height="24" viewBox="0 0 24 24" xmlns="http://www.w3.org/2000/svg">
<path d="M18 3.25H6C4.48 3.25 3.25 4.48 3.25 6V18C3.25 19.52 4.48 20.75 6 20.75H18C19.52 20.75 20.75 19.52 20.75 18V6C20.75 4.48 19.52 3.25 18 3.25ZM19.25 18C19.25 18.69 18.69 19.25 18 19.25H6C5.31 19.25 4.75 18.69 4.75 18V6C4.75 5.31 5.31 4.75 6 4.75H18C18.69 4.75 19.25 5.31 19.25 6V18ZM15.75 12C15.75 12.41 15.41 12.75 15 12.75H12.75V15C12.75 15.41 12.41 15.75 12 15.75C11.59 15.75 11.25 15.41 11.25 15V12.75H9C8.59 12.75 8.25 12.41 8.25 12C8.25 11.59 8.59 11.25 9 11.25H11.25V9C11.25 8.59 11.59 8.25 12 8.25C12.41 8.25 12.75 8.59 12.75 9V11.25H15C15.41 11.25 15.75 11.59 15.75 12Z" />
</svg>
