<svg width="16" height="16" viewBox="0 0 16 16" xmlns="http://www.w3.org/2000/svg">
<path d="M8 1.25C4.28 1.25 1.25 4.28 1.25 8C1.25 11.72 4.28 14.75 8 14.75C11.72 14.75 14.75 11.72 14.75 8C14.75 4.28 11.72 1.25 8 1.25ZM8 13.25C5.11 13.25 2.75 10.89 2.75 8C2.75 5.11 5.11 2.75 8 2.75C10.89 2.75 13.25 5.11 13.25 8C13.25 10.89 10.89 13.25 8 13.25ZM8 5.25C6.48 5.25 5.25 6.48 5.25 8C5.25 9.52 6.48 10.75 8 10.75C9.52 10.75 10.75 9.52 10.75 8C10.75 6.48 9.52 5.25 8 5.25ZM8 9.25C7.31 9.25 6.75 8.69 6.75 8C6.75 7.31 7.31 6.75 8 6.75C8.69 6.75 9.25 7.31 9.25 8C9.25 8.69 8.69 9.25 8 9.25Z" />
</svg>
