<svg width="24" height="24" viewBox="0 0 24 24" xmlns="http://www.w3.org/2000/svg">
<path d="M19.79 18.2825C19.67 18.5725 19.39 18.7525 19.09 18.7525C19 18.7525 18.9 18.7325 18.81 18.7025C18.43 18.5425 18.24 18.1125 18.39 17.7225C19.28 15.5125 19.92 12.4925 17.94 10.6525C15.56 8.45247 10.26 8.64247 4.73001 11.0225L9.36001 13.3225C9.73001 13.5025 9.88001 13.9525 9.70001 14.3325C9.57001 14.5925 9.30001 14.7525 9.03001 14.7525C8.92001 14.7525 8.80001 14.7225 8.70001 14.6725L2.67001 11.6725C2.67001 11.6725 2.63001 11.6325 2.60001 11.6225C2.56001 11.5925 2.51001 11.5625 2.48001 11.5225C2.44001 11.4925 2.42001 11.4525 2.39001 11.4025C2.37001 11.3725 2.35001 11.3525 2.33001 11.3225C2.33001 11.3025 2.33001 11.2925 2.32001 11.2725C2.32001 11.2525 2.30001 11.2425 2.29001 11.2225C2.28001 11.1925 2.29001 11.1525 2.28001 11.1225C2.28001 11.0725 2.26001 11.0225 2.26001 10.9725C2.26001 10.9225 2.26001 10.8825 2.28001 10.8425C2.28001 10.7925 2.30001 10.7425 2.32001 10.6925C2.32001 10.6725 2.32001 10.6625 2.33001 10.6425L5.35001 4.66247C5.54001 4.29247 5.99001 4.14247 6.36001 4.33247C6.73001 4.52247 6.88001 4.97247 6.69001 5.34247L4.62001 9.45247C10.58 6.99247 16.18 6.98247 18.96 9.55247C20.4 10.8825 21.72 13.4825 19.79 18.2825Z" />
</svg>
