<svg width="24" height="24" viewBox="0 0 24 24" xmlns="http://www.w3.org/2000/svg">
<path d="M23.3513 12.66C23.2413 12.72 23.1213 12.75 23.0013 12.75C22.7313 12.75 22.4713 12.6 22.3313 12.35C20.1913 8.28 16.2313 5.75 11.9913 5.75C7.75126 5.75 3.80126 8.28 1.66126 12.35C1.47126 12.72 1.02126 12.86 0.651255 12.66C0.281255 12.47 0.141255 12.01 0.341255 11.65C2.74126 7.09 7.21126 4.25 12.0013 4.25C16.7913 4.25 21.2613 7.09 23.6613 11.65C23.8513 12.02 23.7113 12.47 23.3513 12.66ZM12.0013 16.75C9.38126 16.75 7.25126 14.62 7.25126 12C7.25126 9.38 9.38126 7.25 12.0013 7.25C14.6213 7.25 16.7513 9.38 16.7513 12C16.7513 14.62 14.6213 16.75 12.0013 16.75ZM12.0013 15.25C13.7913 15.25 15.2513 13.79 15.2513 12C15.2513 10.21 13.7913 8.75 12.0013 8.75C10.2113 8.75 8.75126 10.21 8.75126 12C8.75126 13.79 10.2113 15.25 12.0013 15.25ZM13.0013 12C13.0013 11.45 12.5513 11 12.0013 11C11.4513 11 11.0013 11.45 11.0013 12C11.0013 12.55 11.4513 13 12.0013 13C12.5513 13 13.0013 12.55 13.0013 12ZM19.4013 14.55C17.6313 16.9 14.9313 18.25 12.0013 18.25C9.07125 18.25 6.37125 16.9 4.60125 14.55C4.35125 14.22 3.88125 14.15 3.55125 14.4C3.22126 14.65 3.15126 15.12 3.40126 15.45C5.46126 18.18 8.59126 19.75 12.0013 19.75C15.4113 19.75 18.5413 18.18 20.6013 15.45C20.8513 15.12 20.7813 14.65 20.4513 14.4C20.1213 14.15 19.6513 14.21 19.4013 14.55Z" />
</svg>
