<svg width="24" height="24" viewBox="0 0 24 24" xmlns="http://www.w3.org/2000/svg">
<path d="M2.9975 21.75C2.8075 21.75 2.6175 21.68 2.4675 21.53C2.1775 21.24 2.1775 20.76 2.4675 20.47L10.4675 12.47C10.7575 12.18 11.2375 12.18 11.5275 12.47C11.8175 12.76 11.8175 13.24 11.5275 13.53L3.5275 21.53C3.3775 21.68 3.1875 21.75 2.9975 21.75ZM14.7475 6V3C14.7475 2.59 14.4075 2.25 13.9975 2.25C13.5875 2.25 13.2475 2.59 13.2475 3V6C13.2475 6.41 13.5875 6.75 13.9975 6.75C14.4075 6.75 14.7475 6.41 14.7475 6ZM14.7475 19V14C14.7475 13.59 14.4075 13.25 13.9975 13.25C13.5875 13.25 13.2475 13.59 13.2475 14V19C13.2475 19.41 13.5875 19.75 13.9975 19.75C14.4075 19.75 14.7475 19.41 14.7475 19ZM10.7475 10C10.7475 9.59 10.4075 9.25 9.9975 9.25H6.9975C6.5875 9.25 6.2475 9.59 6.2475 10C6.2475 10.41 6.5875 10.75 6.9975 10.75H9.9975C10.4075 10.75 10.7475 10.41 10.7475 10ZM22.7475 10C22.7475 9.59 22.4075 9.25 21.9975 9.25H17.9975C17.5875 9.25 17.2475 9.59 17.2475 10C17.2475 10.41 17.5875 10.75 17.9975 10.75H21.9975C22.4075 10.75 22.7475 10.41 22.7475 10ZM17.5275 7.53L19.4775 5.58C19.7675 5.29 19.7675 4.81 19.4775 4.52C19.1875 4.23 18.7075 4.23 18.4175 4.52L16.4675 6.47C16.1775 6.76 16.1775 7.24 16.4675 7.53C16.6175 7.68 16.8075 7.75 16.9975 7.75C17.1875 7.75 17.3775 7.68 17.5275 7.53ZM19.4775 15.48C19.7675 15.19 19.7675 14.71 19.4775 14.42L17.5275 12.47C17.2375 12.18 16.7575 12.18 16.4675 12.47C16.1775 12.76 16.1775 13.24 16.4675 13.53L18.4175 15.48C18.5675 15.63 18.7575 15.7 18.9475 15.7C19.1375 15.7 19.3275 15.63 19.4775 15.48ZM11.5275 7.53C11.8175 7.24 11.8175 6.76 11.5275 6.47L8.5275 3.47C8.2375 3.18 7.7575 3.18 7.4675 3.47C7.1775 3.76 7.1775 4.24 7.4675 4.53L10.4675 7.53C10.6175 7.68 10.8075 7.75 10.9975 7.75C11.1875 7.75 11.3775 7.68 11.5275 7.53Z" />
</svg>
