<svg width="24" height="24" viewBox="0 0 24 24" xmlns="http://www.w3.org/2000/svg">
<path d="M21.7818 16.57L14.3518 4.40997C13.8518 3.58997 12.9718 3.08997 12.0018 3.08997C11.0318 3.08997 10.1618 3.57997 9.65175 4.40997L2.22175 16.57C1.69175 17.43 1.67175 18.47 2.17175 19.35C2.66175 20.23 3.56175 20.75 4.57175 20.75H19.4418C20.4518 20.75 21.3518 20.22 21.8418 19.35C22.3318 18.47 22.3118 17.43 21.7918 16.57H21.7818ZM20.5218 18.62C20.3018 19.02 19.8918 19.26 19.4318 19.26H4.57175C4.11175 19.26 3.70175 19.02 3.48175 18.62C3.26175 18.22 3.27175 17.75 3.50175 17.36L10.9318 5.18997C11.1618 4.80997 11.5518 4.58997 12.0018 4.58997C12.4518 4.58997 12.8318 4.80997 13.0718 5.18997L20.5018 17.35C20.7418 17.74 20.7518 18.21 20.5218 18.61V18.62ZM11.2518 12V8.99997C11.2518 8.58997 11.5918 8.24997 12.0018 8.24997C12.4118 8.24997 12.7518 8.58997 12.7518 8.99997V12C12.7518 12.41 12.4118 12.75 12.0018 12.75C11.5918 12.75 11.2518 12.41 11.2518 12ZM13.0018 16C13.0018 16.55 12.5518 17 12.0018 17C11.4518 17 11.0018 16.55 11.0018 16C11.0018 15.45 11.4518 15 12.0018 15C12.5518 15 13.0018 15.45 13.0018 16Z" />
</svg>
