<svg width="24" height="24" viewBox="0 0 24 24" xmlns="http://www.w3.org/2000/svg">
<path d="M4.99752 21.8701C4.99752 21.8701 4.89752 21.8701 4.85752 21.8701C4.04752 21.8301 3.28752 21.4501 2.77752 20.8101C1.85752 19.6901 1.97752 17.9601 3.05752 16.8801L7.76752 12.1701C7.24752 10.8701 7.11752 9.4601 7.38752 8.0701C7.94752 5.2301 10.2375 2.9501 13.0775 2.3901C14.0075 2.2101 14.9475 2.2001 15.8675 2.3801C16.4875 2.5001 16.9875 2.9501 17.1775 3.5601C17.3675 4.1901 17.2075 4.8701 16.7375 5.3301L14.1275 7.9401C13.5875 8.4801 13.5075 9.3201 13.9475 9.8601C14.1975 10.1701 14.5575 10.3501 14.9475 10.3701C15.3475 10.3901 15.7175 10.2401 15.9875 9.9701L18.6875 7.2701C19.1475 6.8101 19.8275 6.6401 20.4575 6.8301C21.0675 7.0201 21.5175 7.5201 21.6375 8.1401C21.8175 9.0601 21.8075 9.9901 21.6275 10.9301C21.0675 13.7701 18.7875 16.0501 15.9475 16.6101C14.5475 16.8901 13.1475 16.7501 11.8475 16.2301L7.04752 21.0301C6.50752 21.5701 5.77752 21.8701 5.01752 21.8701H4.99752ZM14.4975 3.7501C14.1175 3.7501 13.7375 3.7901 13.3575 3.8601C11.1075 4.3001 9.29752 6.1101 8.85752 8.3601C8.60752 9.6101 8.77752 10.8701 9.32752 12.0101C9.46752 12.3001 9.40752 12.6401 9.18752 12.8701L4.11752 17.9401C3.57752 18.4801 3.49752 19.3201 3.93752 19.8601C4.18752 20.1701 4.54752 20.3501 4.93752 20.3701C5.34752 20.3901 5.70752 20.2401 5.97752 19.9701L11.1375 14.8101C11.3675 14.5801 11.7075 14.5201 11.9975 14.6701C13.1375 15.2201 14.3975 15.3901 15.6475 15.1401C17.8975 14.7001 19.7075 12.8901 20.1475 10.6401C20.2975 9.9001 20.2975 9.1501 20.1575 8.4301C20.1375 8.3501 20.0875 8.3001 20.0075 8.2701C19.9675 8.2601 19.8475 8.2301 19.7375 8.3301L17.0375 11.0301C16.4675 11.6001 15.6475 11.9001 14.8675 11.8701C14.0575 11.8301 13.2975 11.4501 12.7875 10.8101C11.8675 9.6901 11.9875 7.9601 13.0675 6.8801L15.6775 4.2701C15.7775 4.1701 15.7475 4.0401 15.7375 4.0001C15.7075 3.9201 15.6575 3.8701 15.5775 3.8501C15.2275 3.7801 14.8675 3.7501 14.5075 3.7501H14.4975Z" />
</svg>
