<svg xmlns="http://www.w3.org/2000/svg" width="24" height="24" viewBox="0 0 24 24">
  <path d="M21.53 20.47L15.98 14.92C17.08 13.58 17.75 11.87 17.75 10C17.75 5.73 14.27 2.25 10 2.25C5.73 2.25 2.25 5.73 2.25 10C2.25 14.27 5.73 17.75 10 17.75C11.87 17.75 13.58 17.09 14.92 15.98L20.47 21.53C20.62 21.68 20.81 21.75 21 21.75C21.19 21.75 21.38 21.68 21.53 21.53C21.82 21.24 21.82 20.76 21.53 20.47ZM3.75 10C3.75 6.55 6.55 3.75 10 3.75C13.45 3.75 16.25 6.55 16.25 10C16.25 13.45 13.45 16.25 10 16.25C6.55 16.25 3.75 13.45 3.75 10ZM13.75 10C13.75 10.41 13.41 10.75 13 10.75H10.75V13C10.75 13.41 10.41 13.75 10 13.75C9.59 13.75 9.25 13.41 9.25 13V10.75H7C6.59 10.75 6.25 10.41 6.25 10C6.25 9.59 6.59 9.25 7 9.25H9.25V7C9.25 6.59 9.59 6.25 10 6.25C10.41 6.25 10.75 6.59 10.75 7V9.25H13C13.41 9.25 13.75 9.59 13.75 10Z"/>
</svg>