<svg width="24" height="24" viewBox="0 0 24 24" xmlns="http://www.w3.org/2000/svg">
<g id="Version=v1">
<path id="Vector" d="M15.0001 13.59L19.4101 18L18.0001 19.41L13.5901 15L15.0001 13.59ZM15.0001 10.42L13.4101 12.01L12.0001 13.42L6.00009 19.42L4.59009 18.01L10.5901 12.01L9.00009 10.42L5.00009 14.42L0.590088 10L4.59009 6L3.59009 5L5.00009 3.59L6.00009 4.59L10.4101 9L12.0001 10.59L13.5901 9L18.0001 4.59L19.0001 3.59L20.4101 5L19.4101 6L23.4101 10L19.0001 14.41L15.0001 10.41V10.42ZM7.59009 9L6.00009 7.41L3.41009 10L5.00009 11.59L7.59009 9ZM16.4201 9L19.0101 11.59L20.6001 10L18.0101 7.41L16.4201 9Z" />
</g>
</svg>
