<svg width="24" height="24" viewBox="0 0 24 24" xmlns="http://www.w3.org/2000/svg">
<g id="Version=v1">
<path id="Vector" d="M3.34 5.325C3.57 5.785 3.41 6.335 2.99 6.615C2.93 7.115 2.51 7.505 2 7.505C1.45 7.505 1 7.055 1 6.505V6.005C1 5.625 1.21 5.275 1.55 5.115L2 4.895C2.49 4.645 3.09 4.845 3.34 5.345V5.325ZM2 15.415C2.55 15.415 3 14.965 3 14.415V13.535C3 12.985 2.55 12.535 2 12.535C1.45 12.535 1 12.985 1 13.535V14.415C1 14.965 1.45 15.415 2 15.415ZM2 11.455C2.55 11.455 3 11.005 3 10.455V9.575C3 9.025 2.55 8.575 2 8.575C1.45 8.575 1 9.025 1 9.575V10.455C1 11.005 1.45 11.455 2 11.455ZM2.99 17.385C2.93 16.885 2.51 16.495 2 16.495C1.45 16.495 1 16.945 1 17.495V17.995C1 18.375 1.21 18.725 1.55 18.885L2 19.105C2.14 19.175 2.3 19.215 2.45 19.215C2.82 19.215 3.17 19.015 3.35 18.665C3.58 18.205 3.42 17.655 3 17.375L2.99 17.385ZM9.45 20.605L8.72 20.245C8.23 19.995 7.63 20.195 7.38 20.695C7.13 21.185 7.33 21.785 7.83 22.035L8.56 22.395C8.7 22.465 8.86 22.505 9.01 22.505C9.38 22.505 9.73 22.305 9.91 21.955C10.16 21.465 9.96 20.865 9.46 20.615L9.45 20.605ZM6.17 18.965L5.44 18.605C4.95 18.355 4.35 18.555 4.1 19.055C3.85 19.545 4.05 20.145 4.55 20.395L5.28 20.755C5.42 20.825 5.58 20.865 5.73 20.865C6.1 20.865 6.45 20.665 6.63 20.315C6.88 19.825 6.68 19.225 6.18 18.975L6.17 18.965ZM12 21.875C11.51 21.625 10.91 21.825 10.66 22.325C10.41 22.815 10.61 23.415 11.11 23.665L11.56 23.885C11.7 23.955 11.85 23.995 12.01 23.995C12.17 23.995 12.32 23.955 12.46 23.885L12.91 23.665C13.4 23.415 13.6 22.815 13.36 22.325C13.11 21.835 12.51 21.635 12.02 21.875H12ZM18.56 18.595L17.83 18.955C17.34 19.205 17.14 19.805 17.38 20.295C17.56 20.645 17.91 20.845 18.28 20.845C18.43 20.845 18.58 20.815 18.73 20.735L19.46 20.375C19.95 20.125 20.15 19.525 19.91 19.035C19.66 18.545 19.06 18.345 18.57 18.585L18.56 18.595ZM15.28 20.235L14.55 20.595C14.06 20.845 13.86 21.445 14.1 21.935C14.28 22.285 14.63 22.485 15 22.485C15.15 22.485 15.3 22.455 15.45 22.375L16.18 22.015C16.67 21.765 16.87 21.165 16.63 20.675C16.38 20.185 15.78 19.985 15.29 20.225L15.28 20.235ZM22 16.495C21.49 16.495 21.06 16.885 21.01 17.385C20.59 17.655 20.43 18.215 20.66 18.675C20.84 19.025 21.19 19.225 21.56 19.225C21.71 19.225 21.86 19.195 22.01 19.115L22.46 18.895C22.8 18.725 23.01 18.375 23.01 18.005V17.505C23.01 16.955 22.56 16.505 22.01 16.505L22 16.495ZM22 12.535C21.45 12.535 21 12.985 21 13.535V14.415C21 14.965 21.45 15.415 22 15.415C22.55 15.415 23 14.965 23 14.415V13.535C23 12.985 22.55 12.535 22 12.535ZM22 8.575C21.45 8.575 21 9.025 21 9.575V10.455C21 11.005 21.45 11.455 22 11.455C22.55 11.455 23 11.005 23 10.455V9.575C23 9.025 22.55 8.575 22 8.575ZM22.45 5.105L22 4.885C21.51 4.635 20.91 4.835 20.66 5.335C20.43 5.795 20.59 6.345 21.01 6.625C21.07 7.125 21.49 7.515 22 7.515C22.55 7.515 23 7.065 23 6.515V6.015C23 5.635 22.79 5.285 22.45 5.125V5.105ZM14.55 3.385L15.28 3.745C15.42 3.815 15.58 3.855 15.73 3.855C16.1 3.855 16.45 3.655 16.63 3.305C16.88 2.815 16.68 2.215 16.18 1.965L15.45 1.605C14.96 1.355 14.36 1.555 14.11 2.055C13.86 2.555 14.06 3.145 14.56 3.395L14.55 3.385ZM17.83 5.025L18.56 5.385C18.7 5.455 18.86 5.495 19.01 5.495C19.38 5.495 19.73 5.295 19.91 4.945C20.16 4.455 19.96 3.855 19.46 3.605L18.73 3.245C18.24 2.995 17.64 3.195 17.39 3.695C17.14 4.185 17.34 4.785 17.84 5.035L17.83 5.025ZM12.89 0.325L12.44 0.105C12.16 -0.035 11.83 -0.035 11.55 0.105L11.1 0.325C10.61 0.575 10.41 1.175 10.65 1.665C10.9 2.155 11.5 2.355 11.99 2.115C12.13 2.185 12.29 2.225 12.44 2.225C12.81 2.225 13.16 2.025 13.34 1.675C13.59 1.185 13.39 0.585 12.89 0.335V0.325ZM8.28 3.855C8.43 3.855 8.58 3.825 8.73 3.745L9.46 3.385C9.95 3.135 10.15 2.535 9.91 2.045C9.66 1.555 9.06 1.355 8.57 1.595L7.84 1.955C7.35 2.205 7.15 2.805 7.39 3.295C7.57 3.645 7.92 3.845 8.29 3.845L8.28 3.855ZM5 5.495C5.15 5.495 5.3 5.465 5.45 5.385L6.18 5.025C6.67 4.775 6.87 4.175 6.63 3.685C6.38 3.195 5.78 2.995 5.29 3.235L4.56 3.595C4.07 3.845 3.87 4.445 4.11 4.935C4.29 5.285 4.64 5.485 5.01 5.485L5 5.495ZM6 6.655L5.56 6.415C5.07 6.155 4.47 6.335 4.21 6.825C3.95 7.315 4.13 7.915 4.62 8.175L5.06 8.415C5.21 8.495 5.37 8.535 5.53 8.535C5.89 8.535 6.23 8.345 6.41 8.005C6.67 7.515 6.49 6.915 6 6.655ZM7.7 9.835L8.45 10.235C8.6 10.315 8.76 10.355 8.92 10.355C9.28 10.355 9.62 10.165 9.8 9.825C10.06 9.335 9.88 8.735 9.39 8.475L8.64 8.075C8.15 7.815 7.55 7.995 7.29 8.485C7.03 8.975 7.21 9.575 7.7 9.835ZM13.32 10.285C13.06 9.805 12.48 9.625 12 9.855C11.52 9.615 10.93 9.805 10.68 10.285C10.44 10.745 10.6 11.295 11.02 11.585C11.07 12.095 11.48 12.495 12 12.495C12.52 12.495 12.93 12.095 12.98 11.585C13.41 11.305 13.57 10.745 13.32 10.285ZM15.37 8.065L14.61 8.465C14.12 8.725 13.94 9.335 14.2 9.815C14.38 10.155 14.73 10.345 15.08 10.345C15.24 10.345 15.4 10.305 15.55 10.225L16.31 9.825C16.8 9.565 16.98 8.955 16.72 8.475C16.46 7.985 15.85 7.805 15.37 8.065ZM18.46 6.415L18.02 6.655C17.53 6.915 17.35 7.525 17.61 8.005C17.79 8.345 18.14 8.535 18.49 8.535C18.65 8.535 18.81 8.495 18.96 8.415L19.4 8.175C19.89 7.915 20.07 7.305 19.81 6.825C19.55 6.335 18.94 6.155 18.46 6.415ZM12 17.495C11.45 17.495 11 17.945 11 18.495V18.995C11 19.545 11.45 19.995 12 19.995C12.55 19.995 13 19.545 13 18.995V18.495C13 17.945 12.55 17.495 12 17.495ZM13 14.555C13 14.005 12.55 13.555 12 13.555C11.45 13.555 11 14.005 11 14.555V15.435C11 15.985 11.45 16.435 12 16.435C12.55 16.435 13 15.985 13 15.435V14.555Z" />
</g>
</svg>
