<?xml version="1.0" encoding="utf-8"?>
<!-- Generator: Adobe Illustrator 21.0.0, SVG Export Plug-In . SVG Version: 6.00 Build 0)  -->
<svg version="1.1" id="Layer_1" xmlns="http://www.w3.org/2000/svg" xmlns:xlink="http://www.w3.org/1999/xlink" x="0px" y="0px"
	 viewBox="0 0 24 24" enable-background="new 0 0 24 24" xml:space="preserve">
<path opacity="0.9" d="M-40-20L-40-20c-1.2,0-2-0.9-2-2V-24c0-1.1,0.9-2,2-2h0.1c1.1,0,2,0.9,2,2v2.1C-38-20.9-38.9-20-40-20z"/>
<path opacity="0.5" d="M-40-2L-40-2c-1.2,0-2-0.9-2-2V-6c0-1.1,0.9-2,2-2h0.1c1.1,0,2,0.9,2,2V-4C-38-2.9-38.9-2-40-2z"/>
<path opacity="0.2" d="M-52-14L-52-14c0-1.2,0.9-2,2-2h2.1c1.1,0,2,0.9,2,2v0.1c0,1.1-0.9,2-2,2H-50C-51.1-12-52-12.9-52-14z"/>
<path opacity="0.7" d="M-34-14L-34-14c0-1.2,0.9-2,2-2h2.1c1.1,0,2,0.9,2,2v0.1c0,1.1-0.9,2-2,2H-32C-33.1-12-34-12.9-34-14z"/>
<path opacity="0.1" d="M-44.5-18.6L-44.5-18.6c-0.8,0.8-2.1,0.8-2.8,0.1l-1.2-1.2c-0.8-0.8-0.8-2,0-2.8l0.1-0.1c0.8-0.8,2-0.8,2.8,0
	l1.2,1.2C-43.7-20.6-43.7-19.3-44.5-18.6z"/>
<path opacity="0.6" d="M-31.5-5.5L-31.5-5.5c-0.8,0.8-2.1,0.8-2.8,0.1l-1.2-1.2c-0.8-0.8-0.8-2,0-2.8l0.1-0.1c0.8-0.8,2-0.8,2.8,0
	l1.2,1.2C-30.7-7.5-30.7-6.3-31.5-5.5z"/>
<path opacity="0.3" d="M-48.5-5.5L-48.5-5.5c-0.8-0.8-0.8-2.1-0.1-2.8l1.2-1.2c0.8-0.8,2-0.8,2.8,0l0.1,0.1c0.8,0.8,0.8,2,0,2.8
	l-1.2,1.2C-46.4-4.7-47.7-4.7-48.5-5.5z"/>
<path opacity="0.8" d="M-35.4-18.5L-35.4-18.5c-0.8-0.8-0.8-2.1-0.1-2.8l1.2-1.2c0.8-0.8,2-0.8,2.8,0l0.1,0.1c0.8,0.8,0.8,2,0,2.8
	l-1.2,1.2C-33.4-17.7-34.7-17.7-35.4-18.5z"/>
<polygon opacity="0.9" fill="#9D9FA1" points="-22,-13 -20,-15 -16,-11 -7,-20 -5,-18 -16,-7 "/>
<path d="M41-19h-1.2c-0.2-0.7-0.4-1.3-0.8-1.9l0.8-0.8c0.4-0.4,0.4-1,0-1.4l-0.7-0.7c-0.4-0.4-1-0.4-1.4,0L36.9-23
	c-0.6-0.4-1.2-0.6-1.9-0.8V-25c0-0.5-0.5-1-1-1h-1c-0.5,0-1,0.5-1,1v1.2c-0.7,0.2-1.3,0.4-1.9,0.8l-0.8-0.8c-0.4-0.4-1-0.4-1.4,0
	l-0.7,0.7c-0.4,0.4-0.4,1,0,1.4l0.8,0.8c-0.4,0.6-0.6,1.2-0.8,1.9H26c-0.5,0-1,0.5-1,1v1c0,0.5,0.5,1,1,1h1.2
	c0.2,0.7,0.4,1.3,0.8,1.9l-0.8,0.8c-0.4,0.4-0.4,1,0,1.4l0.7,0.7c0.4,0.4,1,0.4,1.4,0l0.8-0.8c0.6,0.4,1.2,0.6,1.9,0.8v1.2
	c0,0.5,0.5,1,1,1h1c0.5,0,1-0.5,1-1v-1.2c0.7-0.2,1.3-0.4,1.9-0.8l0.8,0.8c0.4,0.4,1,0.4,1.4,0l0.7-0.7c0.4-0.4,0.4-1,0-1.4L39-14.1
	c0.4-0.6,0.6-1.2,0.8-1.9H41c0.5,0,1-0.5,1-1v-1C42-18.5,41.5-19,41-19z M33.5-13.5c-2.2,0-4-1.8-4-4c0-2.2,1.8-4,4-4s4,1.8,4,4
	C37.5-15.3,35.7-13.5,33.5-13.5z"/>
<path opacity="0.9" fill="#9D9FA1" d="M13-15v-3h-1.2c-0.1-0.4-0.3-0.8-0.5-1.2l0.9-0.9L10-22.1l-0.9,0.9c-0.4-0.2-0.8-0.4-1.2-0.5
	V-23H5v1.2c-0.4,0.1-0.8,0.3-1.2,0.5L3-22.1L0.8-20l0.9,0.9c-0.2,0.4-0.4,0.8-0.5,1.2H0v3h1.2c0.1,0.4,0.3,0.8,0.5,1.2L0.8-13
	L3-10.8l0.9-0.9c0.4,0.2,0.8,0.4,1.2,0.5v1.2h3v-1.2c0.4-0.1,0.8-0.3,1.2-0.5l0.9,0.9l2.1-2.1l-0.9-0.9c0.2-0.4,0.4-0.8,0.5-1.2H13z
	 M6.5-13.5c-1.7,0-3-1.3-3-3s1.3-3,3-3s3,1.3,3,3S8.2-13.5,6.5-13.5z"/>
<path opacity="0.6" fill="#9D9FA1" d="M23-9v-2h-1.1c-0.1-0.4-0.2-0.7-0.4-1l0.8-0.8l-1.4-1.4L20-13.4c-0.3-0.2-0.7-0.3-1-0.4V-15
	h-2v1.1c-0.4,0.1-0.7,0.2-1,0.4l-0.8-0.8l-1.4,1.4l0.8,0.8c-0.2,0.3-0.3,0.7-0.4,1H13v2h1.1c0.1,0.4,0.2,0.7,0.4,1l-0.8,0.8l1.4,1.4
	L16-6.6c0.3,0.2,0.7,0.3,1,0.4V-5h2v-1.1c0.4-0.1,0.7-0.2,1-0.4l0.8,0.8l1.4-1.4L21.4-8c0.2-0.3,0.3-0.7,0.4-1H23z M18-8
	c-1.1,0-2-0.9-2-2c0-1.1,0.9-2,2-2s2,0.9,2,2C20-8.9,19.1-8,18-8z"/>
<rect x="-69" y="-7" opacity="0.5" fill="#9D9FA1" width="3" height="5"/>
<rect x="-69" y="-23" opacity="0.9" fill="#9D9FA1" width="3" height="5"/>
<rect x="-77" y="-15" transform="matrix(-1.836970e-16 1 -1 -1.836970e-16 -87.9927 63.0073)" opacity="0.2" fill="#9D9FA1" width="3" height="5"/>
<rect x="-61" y="-15" transform="matrix(-1.836970e-16 1 -1 -1.836970e-16 -71.9927 47.0073)" opacity="0.7" fill="#9D9FA1" width="3" height="5"/>
<rect x="-63.3" y="-9.3" transform="matrix(0.7071 -0.7071 0.7071 0.7071 -13.2798 -45.7319)" opacity="0.6" fill="#9D9FA1" width="3" height="5"/>
<rect x="-74.7" y="-20.6" transform="matrix(0.7071 -0.7071 0.7071 0.7071 -8.5935 -57.0456)" opacity="0.1" fill="#9D9FA1" width="3" height="5"/>
<rect x="-74.7" y="-9.3" transform="matrix(0.7071 0.7071 -0.7071 0.7071 -26.2608 49.7275)" opacity="0.3" fill="#9D9FA1" width="3" height="5"/>
<rect x="-63.3" y="-20.6" transform="matrix(0.7071 0.7071 -0.7071 0.7071 -30.9471 38.4138)" opacity="0.8" fill="#9D9FA1" width="3" height="5"/>
<path fill="#1AB394" d="M21,6.5C21,4.6,19.4,3,17.5,3S14,4.6,14,6.5c0,1.4,0.8,2.6,2,3.2c-0.2,1-0.7,1.8-1.7,2.3
	c-0.4,0.2-0.9,0.4-1.3,0.6c-0.8,0.3-1.7,0.6-2.5,0.9c-0.2,0.1-0.3,0.1-0.5,0.2V7.7c1.2-0.6,2-1.8,2-3.2C12,2.6,10.4,1,8.5,1
	S5,2.6,5,4.5c0,1.4,0.8,2.6,2,3.2v9.7c-1.2,0.6-2,1.8-2,3.2C5,22.4,6.6,24,8.5,24s3.5-1.6,3.5-3.5c0-1.4-0.8-2.6-2-3.2v0
	c0.1-0.5,0.4-1,0.9-1.2c0.3-0.1,0.6-0.3,1-0.4c1.1-0.4,2.1-0.7,3.2-1.2c1.4-0.6,2.5-1.5,3.1-2.9c0.2-0.4,0.3-1.1,0.4-1.8
	C20,9.3,21,8.1,21,6.5z M8.5,3C9.3,3,10,3.7,10,4.5S9.3,6,8.5,6S7,5.3,7,4.5S7.7,3,8.5,3z M8.5,22C7.7,22,7,21.3,7,20.5
	S7.7,19,8.5,19s1.5,0.7,1.5,1.5S9.3,22,8.5,22z M16,6.5C16,5.7,16.7,5,17.5,5S19,5.7,19,6.5S18.3,8,17.5,8S16,7.3,16,6.5z"/>
</svg>
