<?xml version="1.0" encoding="utf-8"?>
<!-- Generator: Adobe Illustrator 24.1.2, SVG Export Plug-In . SVG Version: 6.00 Build 0)  -->
<svg version="1.1" id="Layer_1" xmlns="http://www.w3.org/2000/svg" xmlns:xlink="http://www.w3.org/1999/xlink" x="0px" y="0px"
	 viewBox="0 0 2008 2980" style="enable-background:new 0 0 2008 2980;" xml:space="preserve">
<style type="text/css">
	.st0{fill:none;stroke:#404040;stroke-width:6;stroke-miterlimit:10;}
	.st1{fill:none;stroke:#404040;stroke-width:4;stroke-miterlimit:10;}
	.st2{fill:transparent;}
	.st3{fill:#404040;}
</style>
<path class="st0" d="M1854.1,2909.5h-1699c-60.5,0-110-49.5-110-110v-2619c0-60.5,49.5-110,110-110h1699c60.5,0,110,49.5,110,110
	v2619C1964.1,2860,1914.6,2909.5,1854.1,2909.5z"/>
<path class="st1" d="M1845.3,2893H163.8c-57.8,0-105-47.3-105-105V189c0-57.8,47.3-105,105-105h1681.5c57.8,0,105,47.3,105,105v2599
	C1950.3,2845.8,1903,2893,1845.3,2893z"/>
<circle class="st1" cx="1004.6" cy="189.5" r="16.5"/>
<circle class="st0" cx="1004.6" cy="2790.3" r="53.5"/>
<path class="st1" d="M1020.1,2810.8h-31c-2.8,0-5-2.3-5-5v-31c0-2.8,2.3-5,5-5h31c2.8,0,5,2.3,5,5v31
	C1025.1,2808.6,1022.8,2810.8,1020.1,2810.8z"/>
<g>
	<rect x="161.1" y="295.5" class="st2" width="1687" height="2387"/>
	<path class="st3" d="M1847.6,296v2386h-1686V296H1847.6 M1848.6,295h-1688v2388h1688V295L1848.6,295z"/>
</g>
</svg>
