<?xml version="1.0" encoding="utf-8"?>
<!-- Generator: Adobe Illustrator 24.1.2, SVG Export Plug-In . SVG Version: 6.00 Build 0)  -->
<svg version="1.1" id="Layer_1" xmlns="http://www.w3.org/2000/svg" xmlns:xlink="http://www.w3.org/1999/xlink" x="0px" y="0px"
	 viewBox="0 0 1330 2680" style="enable-background:new 0 0 1330 2680;" xml:space="preserve">
<style type="text/css">
	.st0{fill:#404040;}
	.st1{fill:transparent;}
</style>
<g>
	<g>
		<path class="st0" d="M1144,54.5c40.2,0,78,15.8,106.6,44.4s44.4,66.5,44.4,106.6v2268c0,40.2-15.8,78-44.4,106.6
			s-66.5,44.4-106.6,44.4H190.1c-40.2,0-78-15.8-106.6-44.4c-28.6-28.6-44.4-66.5-44.4-106.6v-2268c0-40.2,15.8-78,44.4-106.6
			S150,54.5,190.1,54.5H1144 M1144,48.5H190.1c-86.4,0-157,70.7-157,157v2268c0,86.4,70.6,157,157,157H1144c86.4,0,157-70.6,157-157
			v-2268C1301,119.2,1230.3,48.5,1144,48.5L1144,48.5z"/>
	</g>
	<g>
		<path class="st0" d="M1151.1,82.5c31.9,0,62,12.5,84.7,35.3c22.7,22.7,35.3,52.8,35.3,84.7v2274c0,31.9-12.5,62-35.3,84.7
			c-22.7,22.7-52.8,35.3-84.7,35.3h-968c-31.9,0-62-12.5-84.7-35.3c-22.7-22.7-35.3-52.8-35.3-84.7v-2274c0-31.9,12.5-62,35.3-84.7
			c22.7-22.7,52.8-35.3,84.7-35.3H1151.1 M1151.1,78.5h-968c-68.2,0-124,55.8-124,124v2274c0,68.2,55.8,124,124,124h968
			c68.2,0,124-55.8,124-124v-2274C1275.1,134.3,1219.3,78.5,1151.1,78.5L1151.1,78.5z"/>
	</g>
	<g>
		<path class="st0" d="M810.8,146.5c0-11.5,9.3-20.8,20.8-20.8s20.8,9.3,20.8,20.8s-9.3,20.8-20.8,20.8S810.8,158,810.8,146.5z
			 M814.6,146.5c0,9.4,7.6,17,17,17s17-7.6,17-17s-7.6-17-17-17C822.2,129.5,814.6,137.1,814.6,146.5z"/>
		<path class="st0" d="M588.8,145.1c0-6,4.9-10.8,10.8-10.8h140.8c6,0,10.8,4.9,10.8,10.8s-4.9,10.8-10.8,10.8H599.6
			C593.6,156,588.8,151.1,588.8,145.1z M599.6,138c-3.9,0-7.1,3.2-7.1,7.1c0,3.9,3.2,7.1,7.1,7.1h140.8c3.9,0,7.1-3.2,7.1-7.1
			c0-3.9-3.2-7.1-7.1-7.1H599.6z"/>
	</g>
	<g>
		<path class="st1" d="M219.3,2557c-63,0-114.3-51.3-114.3-114.3V236.3c0-63,51.3-114.3,114.3-114.3h134.6c0.7,0,1.3,0.3,1.8,0.7
			c0.5,0.5,0.7,1.1,0.7,1.8v26.9c0,27.9,22.7,50.6,50.6,50.6h519.8c27.9,0,50.6-22.7,50.6-50.6v-26.9c0-0.7,0.3-1.3,0.7-1.8
			s1.1-0.7,1.7-0.7h134.8c63,0,114.3,51.3,114.3,114.3v2206.4c0,63-51.3,114.3-114.3,114.3H219.3L219.3,2557z"/>
		<path class="st0" d="M1114.6,122.5c30.4,0,59,11.8,80.5,33.3s33.3,50.1,33.3,80.5v2206.4c0,30.4-11.8,59-33.3,80.5
			s-50.1,33.3-80.5,33.3H219.3c-30.4,0-59-11.8-80.5-33.3s-33.3-50.1-33.3-80.5V236.3c0-30.4,11.8-59,33.3-80.5s50.1-33.3,80.5-33.3
			h134.6c0.5,0,1,0.2,1.4,0.6c0.4,0.4,0.6,0.9,0.6,1.4v26.9c0,28.2,22.9,51.1,51.1,51.1h519.8c28.2,0,51.1-22.9,51.1-51.1v-26.9
			c0-0.5,0.2-1,0.6-1.4s0.8-0.6,1.4-0.6L1114.6,122.5 M1114.6,121.5H979.8c-1.6,0-2.9,1.3-2.9,3l0,0v26.9
			c0,27.5-22.5,50.1-50.1,50.1H407c-27.5,0-50.1-22.5-50.1-50.1v-26.9c0-1.7-1.3-3-3-3H219.3c-63.4,0-114.8,51.4-114.8,114.8v2206.4
			c0,63.4,51.4,114.8,114.8,114.8h895.4c63.4,0,114.8-51.4,114.8-114.8V236.3C1229.5,172.9,1178,121.5,1114.6,121.5L1114.6,121.5z"
			/>
	</g>
</g>
</svg>
