<?xml version="1.0" encoding="utf-8"?>
<!-- Generator: Adobe Illustrator 24.1.2, SVG Export Plug-In . SVG Version: 6.00 Build 0)  -->
<svg version="1.1" id="Layer_1" xmlns="http://www.w3.org/2000/svg" xmlns:xlink="http://www.w3.org/1999/xlink" x="0px" y="0px"
	 viewBox="0 0 750 1500" style="enable-background:new 0 0 750 1500;" xml:space="preserve">
<style type="text/css">
	.st0{fill:#404040;}
	.st1{fill:transparent;}
</style>
<g>
	<path class="st0" d="M642.9,1473.8H107.7c-45.7,0-82.8-37.1-82.8-82.8V106c0-45.7,37.1-82.8,82.8-82.8H643
		c45.7,0,82.8,37.1,82.8,82.8v1285C725.7,1436.6,688.6,1473.8,642.9,1473.8z M107.7,25.4c-44.4,0-80.6,36.1-80.6,80.6v1285
		c0,44.4,36.1,80.6,80.6,80.6H643c44.4,0,80.6-36.1,80.6-80.6V106c0-44.4-36.1-80.6-80.6-80.6C643,25.4,107.7,25.4,107.7,25.4z"/>
	<g>
		<path class="st0" d="M373.9,67.4c-5,0-9.1-4.1-9.1-9.1s4.1-9.1,9.1-9.1s9.1,4.1,9.1,9.1C383,63.4,378.9,67.4,373.9,67.4z
			 M373.9,51.5c-3.8,0-6.8,3.1-6.8,6.8s3.1,6.8,6.8,6.8c3.8,0,6.8-3.1,6.8-6.8S377.7,51.5,373.9,51.5z"/>
		<path class="st0" d="M276.3,112.8c-6.9,0-12.5-5.6-12.5-12.5s5.6-12.5,12.5-12.5s12.5,5.6,12.5,12.5
			C288.8,107.2,283.2,112.8,276.3,112.8z M276.3,90.1c-5.6,0-10.2,4.6-10.2,10.2s4.6,10.2,10.2,10.2s10.2-4.6,10.2-10.2
			C286.6,94.7,282,90.1,276.3,90.1z"/>
		<path class="st0" d="M415.6,106h-84.5c-3.6,0-6.5-2.9-6.5-6.5s2.9-6.5,6.5-6.5h84.5c3.6,0,6.5,2.9,6.5,6.5S419.2,106,415.6,106z
			 M331.1,95.2c-2.4,0-4.3,1.9-4.3,4.3s1.9,4.3,4.3,4.3h84.5c2.4,0,4.3-1.9,4.3-4.3s-1.9-4.3-4.3-4.3H331.1z"/>
	</g>
	<g>
		<path class="st0" d="M375.3,1441.1c-23.5,0-42.5-19.1-42.5-42.5c0-23.5,19.1-42.5,42.5-42.5c23.5,0,42.5,19.1,42.5,42.5
			C417.8,1422.1,398.7,1441.1,375.3,1441.1z M375.3,1358.3c-22.2,0-40.3,18.1-40.3,40.3c0,22.2,18.1,40.3,40.3,40.3
			c22.2,0,40.3-18.1,40.3-40.3C415.6,1376.4,397.5,1358.3,375.3,1358.3z"/>
		<path class="st0" d="M375.3,1449.5c-28.1,0-50.9-22.8-50.9-50.9s22.8-50.9,50.9-50.9s50.9,22.8,50.9,50.9
			C426.2,1426.7,403.3,1449.5,375.3,1449.5z M375.3,1349.9c-26.8,0-48.7,21.8-48.7,48.7c0,26.8,21.8,48.7,48.7,48.7
			c26.8,0,48.7-21.8,48.7-48.7C423.9,1371.8,402.1,1349.9,375.3,1349.9z"/>
	</g>
	<g>
		<path class="st0" d="M14.5,241.7H5.8v-60h8.7V241.7z M8,239.5h4.2v-55.6H8V239.5z"/>
		<path class="st0" d="M14.5,389H5.8v-94.5h8.7V389z M8,386.8h4.2v-90H8V386.8z"/>
		<path class="st0" d="M14.5,501.9H5.8v-94.5h8.7V501.9z M8,499.6h4.2v-90H8V499.6z"/>
	</g>
	<path class="st0" d="M652.5,1488H98.1c-47.9,0-86.8-39-86.8-86.9V503H4.6v-96.8h6.6v-16.1H4.6v-96.8h6.6v-50.6H4.6v-62.3h6.6V96.8
		C11.2,49,50.2,10,98.1,10h554.5c47.9,0,86.8,39,86.8,86.8v1304.3C739.4,1449,700.4,1488,652.5,1488z M9.1,498.5h6.6v902.6
		c0,45.4,36.9,82.4,82.4,82.4h554.5c45.4,0,82.4-36.9,82.4-82.4V96.8c0-45.4-36.9-82.4-82.4-82.4H98.1c-45.4,0-82.4,36.9-82.4,82.4
		V185H9.1v53.3h6.6v59.5H9.1v87.8h6.6v25.1H9.1V498.5z"/>
</g>
<g>
	<rect x="56" y="182" class="st1" width="639" height="1135"/>
	<path class="st0" d="M694,182v1134H56V182H694 M695,181H55v1136h640V181L695,181z"/>
</g>
</svg>
