<?xml version="1.0" encoding="utf-8"?>
<!-- Generator: Adobe Illustrator 21.0.0, SVG Export Plug-In . SVG Version: 6.00 Build 0)  -->
<svg version="1.1" id="Layer_1" xmlns="http://www.w3.org/2000/svg" xmlns:xlink="http://www.w3.org/1999/xlink" x="0px" y="0px"
	 viewBox="0 0 16 16" style="enable-background:new 0 0 16 16;" xml:space="preserve">
<path d="M8,2C4.1,2,1,4.2,1,7c0,1.9,1.5,3.6,3.8,4.4C4.6,13.1,3,14,3,14s1.5-0.2,2.7-0.9c0.4-0.2,0.9-0.8,1.3-1.2
	C7.3,12,7.6,12,8,12c3.9,0,7-2.2,7-5C15,4.2,11.9,2,8,2z M4,8C3.4,8,3,7.6,3,7c0-0.6,0.4-1,1-1s1,0.4,1,1C5,7.6,4.6,8,4,8z M8,8
	C7.4,8,7,7.6,7,7c0-0.6,0.4-1,1-1s1,0.4,1,1C9,7.6,8.6,8,8,8z M12,8c-0.6,0-1-0.4-1-1c0-0.6,0.4-1,1-1s1,0.4,1,1C13,7.6,12.6,8,12,8
	z"/>
</svg>
