<?xml version="1.0" encoding="utf-8"?>
<!-- Generator: Adobe Illustrator 24.1.1, SVG Export Plug-In . SVG Version: 6.00 Build 0)  -->
<svg version="1.1" id="Layer_1" xmlns="http://www.w3.org/2000/svg" xmlns:xlink="http://www.w3.org/1999/xlink" x="0px" y="0px"
	 viewBox="0 0 16 16" style="enable-background:new 0 0 16 16;" xml:space="preserve">
<path d="M2,3v9h11V3H2z M6,4c0.6,0,1,0.4,1,1S6.6,6,6,6S5,5.6,5,5S5.4,4,6,4z M3,11l2-3l1,1l2-3l4,5H3z"/>
<g>
	<polygon points="1,13 1,11 0,11 0,14 3,14 3,13 	"/>
	<polygon points="1,4 1,2 3,2 3,1 0,1 0,4 	"/>
	<polygon points="12,1 12,2 14,2 14,4 15,4 15,1 	"/>
	<polygon points="14,13 12,13 12,14 15,14 15,11 14,11 	"/>
</g>
</svg>
